G04 #@! TF.GenerationSoftware,KiCad,Pcbnew,(5.99.0-8454-g713af6630f)*
G04 #@! TF.CreationDate,2021-06-13T15:31:38-07:00*
G04 #@! TF.ProjectId,MFW007B,4d465730-3037-4422-9e6b-696361645f70,1*
G04 #@! TF.SameCoordinates,Original*
G04 #@! TF.FileFunction,Legend,Top*
G04 #@! TF.FilePolarity,Positive*
%FSLAX46Y46*%
G04 Gerber Fmt 4.6, Leading zero omitted, Abs format (unit mm)*
G04 Created by KiCad (PCBNEW (5.99.0-8454-g713af6630f)) date 2021-06-13 15:31:38*
%MOMM*%
%LPD*%
G01*
G04 APERTURE LIST*
G04 Aperture macros list*
%AMRoundRect*
0 Rectangle with rounded corners*
0 $1 Rounding radius*
0 $2 $3 $4 $5 $6 $7 $8 $9 X,Y pos of 4 corners*
0 Add a 4 corners polygon primitive as box body*
4,1,4,$2,$3,$4,$5,$6,$7,$8,$9,$2,$3,0*
0 Add four circle primitives for the rounded corners*
1,1,$1+$1,$2,$3*
1,1,$1+$1,$4,$5*
1,1,$1+$1,$6,$7*
1,1,$1+$1,$8,$9*
0 Add four rect primitives between the rounded corners*
20,1,$1+$1,$2,$3,$4,$5,0*
20,1,$1+$1,$4,$5,$6,$7,0*
20,1,$1+$1,$6,$7,$8,$9,0*
20,1,$1+$1,$8,$9,$2,$3,0*%
G04 Aperture macros list end*
%ADD10C,0.150000*%
%ADD11C,0.300000*%
%ADD12C,0.015000*%
%ADD13C,0.120000*%
%ADD14C,0.200000*%
%ADD15C,0.400000*%
%ADD16C,0.152400*%
%ADD17R,2.400000X2.000000*%
%ADD18RoundRect,0.075000X0.075000X-0.662500X0.075000X0.662500X-0.075000X0.662500X-0.075000X-0.662500X0*%
%ADD19RoundRect,0.075000X0.662500X-0.075000X0.662500X0.075000X-0.662500X0.075000X-0.662500X-0.075000X0*%
%ADD20RoundRect,0.140000X0.170000X-0.140000X0.170000X0.140000X-0.170000X0.140000X-0.170000X-0.140000X0*%
%ADD21RoundRect,0.135000X0.185000X-0.135000X0.185000X0.135000X-0.185000X0.135000X-0.185000X-0.135000X0*%
%ADD22RoundRect,0.218750X0.256250X-0.218750X0.256250X0.218750X-0.256250X0.218750X-0.256250X-0.218750X0*%
%ADD23RoundRect,0.140000X-0.170000X0.140000X-0.170000X-0.140000X0.170000X-0.140000X0.170000X0.140000X0*%
%ADD24RoundRect,0.140000X-0.140000X-0.170000X0.140000X-0.170000X0.140000X0.170000X-0.140000X0.170000X0*%
%ADD25RoundRect,0.150000X0.625000X-0.150000X0.625000X0.150000X-0.625000X0.150000X-0.625000X-0.150000X0*%
%ADD26RoundRect,0.250000X0.650000X-0.350000X0.650000X0.350000X-0.650000X0.350000X-0.650000X-0.350000X0*%
%ADD27RoundRect,0.135000X0.135000X0.185000X-0.135000X0.185000X-0.135000X-0.185000X0.135000X-0.185000X0*%
%ADD28RoundRect,0.135000X-0.185000X0.135000X-0.185000X-0.135000X0.185000X-0.135000X0.185000X0.135000X0*%
%ADD29R,0.900000X1.200000*%
%ADD30RoundRect,0.075000X-0.662500X-0.075000X0.662500X-0.075000X0.662500X0.075000X-0.662500X0.075000X0*%
%ADD31RoundRect,0.075000X-0.075000X-0.662500X0.075000X-0.662500X0.075000X0.662500X-0.075000X0.662500X0*%
%ADD32R,1.700000X1.700000*%
%ADD33O,1.700000X1.700000*%
%ADD34C,2.700000*%
%ADD35RoundRect,0.135000X-0.135000X-0.185000X0.135000X-0.185000X0.135000X0.185000X-0.135000X0.185000X0*%
%ADD36R,1.000000X1.800000*%
%ADD37R,1.400000X1.200000*%
%ADD38C,0.650000*%
%ADD39O,2.216000X1.108000*%
%ADD40RoundRect,0.150000X0.150000X-0.512500X0.150000X0.512500X-0.150000X0.512500X-0.150000X-0.512500X0*%
%ADD41RoundRect,0.200000X-0.200000X-0.275000X0.200000X-0.275000X0.200000X0.275000X-0.200000X0.275000X0*%
%ADD42RoundRect,0.140000X0.140000X0.170000X-0.140000X0.170000X-0.140000X-0.170000X0.140000X-0.170000X0*%
%ADD43RoundRect,0.250000X-0.250000X-0.475000X0.250000X-0.475000X0.250000X0.475000X-0.250000X0.475000X0*%
%ADD44C,2.800000*%
%ADD45RoundRect,0.250000X-0.475000X0.250000X-0.475000X-0.250000X0.475000X-0.250000X0.475000X0.250000X0*%
%ADD46RoundRect,0.150000X-0.587500X-0.150000X0.587500X-0.150000X0.587500X0.150000X-0.587500X0.150000X0*%
%ADD47C,1.398000*%
%ADD48C,3.200000*%
%ADD49C,2.550000*%
%ADD50RoundRect,0.250000X0.250000X0.475000X-0.250000X0.475000X-0.250000X-0.475000X0.250000X-0.475000X0*%
%ADD51R,1.549400X0.990600*%
G04 APERTURE END LIST*
D10*
X158347619Y-86002380D02*
X158014285Y-85526190D01*
X157776190Y-86002380D02*
X157776190Y-85002380D01*
X158157142Y-85002380D01*
X158252380Y-85050000D01*
X158300000Y-85097619D01*
X158347619Y-85192857D01*
X158347619Y-85335714D01*
X158300000Y-85430952D01*
X158252380Y-85478571D01*
X158157142Y-85526190D01*
X157776190Y-85526190D01*
X158776190Y-85478571D02*
X159109523Y-85478571D01*
X159252380Y-86002380D02*
X158776190Y-86002380D01*
X158776190Y-85002380D01*
X159252380Y-85002380D01*
X159633333Y-85954761D02*
X159776190Y-86002380D01*
X160014285Y-86002380D01*
X160109523Y-85954761D01*
X160157142Y-85907142D01*
X160204761Y-85811904D01*
X160204761Y-85716666D01*
X160157142Y-85621428D01*
X160109523Y-85573809D01*
X160014285Y-85526190D01*
X159823809Y-85478571D01*
X159728571Y-85430952D01*
X159680952Y-85383333D01*
X159633333Y-85288095D01*
X159633333Y-85192857D01*
X159680952Y-85097619D01*
X159728571Y-85050000D01*
X159823809Y-85002380D01*
X160061904Y-85002380D01*
X160204761Y-85050000D01*
X160633333Y-85478571D02*
X160966666Y-85478571D01*
X161109523Y-86002380D02*
X160633333Y-86002380D01*
X160633333Y-85002380D01*
X161109523Y-85002380D01*
X161395238Y-85002380D02*
X161966666Y-85002380D01*
X161680952Y-86002380D02*
X161680952Y-85002380D01*
D11*
X96152142Y-83278571D02*
X96152142Y-81778571D01*
X96652142Y-82850000D01*
X97152142Y-81778571D01*
X97152142Y-83278571D01*
X98366428Y-82492857D02*
X97866428Y-82492857D01*
X97866428Y-83278571D02*
X97866428Y-81778571D01*
X98580714Y-81778571D01*
X99009285Y-81778571D02*
X99366428Y-83278571D01*
X99652142Y-82207142D01*
X99937857Y-83278571D01*
X100295000Y-81778571D01*
X101152142Y-81778571D02*
X101295000Y-81778571D01*
X101437857Y-81850000D01*
X101509285Y-81921428D01*
X101580714Y-82064285D01*
X101652142Y-82350000D01*
X101652142Y-82707142D01*
X101580714Y-82992857D01*
X101509285Y-83135714D01*
X101437857Y-83207142D01*
X101295000Y-83278571D01*
X101152142Y-83278571D01*
X101009285Y-83207142D01*
X100937857Y-83135714D01*
X100866428Y-82992857D01*
X100795000Y-82707142D01*
X100795000Y-82350000D01*
X100866428Y-82064285D01*
X100937857Y-81921428D01*
X101009285Y-81850000D01*
X101152142Y-81778571D01*
X102580714Y-81778571D02*
X102723571Y-81778571D01*
X102866428Y-81850000D01*
X102937857Y-81921428D01*
X103009285Y-82064285D01*
X103080714Y-82350000D01*
X103080714Y-82707142D01*
X103009285Y-82992857D01*
X102937857Y-83135714D01*
X102866428Y-83207142D01*
X102723571Y-83278571D01*
X102580714Y-83278571D01*
X102437857Y-83207142D01*
X102366428Y-83135714D01*
X102295000Y-82992857D01*
X102223571Y-82707142D01*
X102223571Y-82350000D01*
X102295000Y-82064285D01*
X102366428Y-81921428D01*
X102437857Y-81850000D01*
X102580714Y-81778571D01*
X103580714Y-81778571D02*
X104580714Y-81778571D01*
X103937857Y-83278571D01*
X105652142Y-82492857D02*
X105866428Y-82564285D01*
X105937857Y-82635714D01*
X106009285Y-82778571D01*
X106009285Y-82992857D01*
X105937857Y-83135714D01*
X105866428Y-83207142D01*
X105723571Y-83278571D01*
X105152142Y-83278571D01*
X105152142Y-81778571D01*
X105652142Y-81778571D01*
X105795000Y-81850000D01*
X105866428Y-81921428D01*
X105937857Y-82064285D01*
X105937857Y-82207142D01*
X105866428Y-82350000D01*
X105795000Y-82421428D01*
X105652142Y-82492857D01*
X105152142Y-82492857D01*
D10*
X98317965Y-120152608D02*
X97567965Y-120152608D01*
X98317965Y-119724037D01*
X97567965Y-119724037D01*
X97567965Y-119474037D02*
X97567965Y-119045465D01*
X98317965Y-119259751D02*
X97567965Y-119259751D01*
X98317965Y-118795465D02*
X97567965Y-118795465D01*
X97567965Y-118509751D01*
X97603680Y-118438322D01*
X97639394Y-118402608D01*
X97710822Y-118366894D01*
X97817965Y-118366894D01*
X97889394Y-118402608D01*
X97925108Y-118438322D01*
X97960822Y-118509751D01*
X97960822Y-118795465D01*
X95317965Y-120652608D02*
X94567965Y-120652608D01*
X94567965Y-120366894D01*
X94603680Y-120295465D01*
X94639394Y-120259751D01*
X94710822Y-120224037D01*
X94817965Y-120224037D01*
X94889394Y-120259751D01*
X94925108Y-120295465D01*
X94960822Y-120366894D01*
X94960822Y-120652608D01*
X94567965Y-119974037D02*
X95317965Y-119795465D01*
X94782251Y-119652608D01*
X95317965Y-119509751D01*
X94567965Y-119331180D01*
X95317965Y-118616894D02*
X94960822Y-118866894D01*
X95317965Y-119045465D02*
X94567965Y-119045465D01*
X94567965Y-118759751D01*
X94603680Y-118688322D01*
X94639394Y-118652608D01*
X94710822Y-118616894D01*
X94817965Y-118616894D01*
X94889394Y-118652608D01*
X94925108Y-118688322D01*
X94960822Y-118759751D01*
X94960822Y-119045465D01*
X159976190Y-112476190D02*
X160452380Y-112476190D01*
X159452380Y-112809523D02*
X159976190Y-112476190D01*
X159452380Y-112142857D01*
X159547619Y-111857142D02*
X159500000Y-111809523D01*
X159452380Y-111714285D01*
X159452380Y-111476190D01*
X159500000Y-111380952D01*
X159547619Y-111333333D01*
X159642857Y-111285714D01*
X159738095Y-111285714D01*
X159880952Y-111333333D01*
X160452380Y-111904761D01*
X160452380Y-111285714D01*
X153242380Y-104411904D02*
X154051904Y-104411904D01*
X154147142Y-104364285D01*
X154194761Y-104316666D01*
X154242380Y-104221428D01*
X154242380Y-104030952D01*
X154194761Y-103935714D01*
X154147142Y-103888095D01*
X154051904Y-103840476D01*
X153242380Y-103840476D01*
X153242380Y-103459523D02*
X153242380Y-102840476D01*
X153623333Y-103173809D01*
X153623333Y-103030952D01*
X153670952Y-102935714D01*
X153718571Y-102888095D01*
X153813809Y-102840476D01*
X154051904Y-102840476D01*
X154147142Y-102888095D01*
X154194761Y-102935714D01*
X154242380Y-103030952D01*
X154242380Y-103316666D01*
X154194761Y-103411904D01*
X154147142Y-103459523D01*
X144850000Y-99650000D02*
X144883333Y-99683333D01*
X144916666Y-99783333D01*
X144916666Y-99850000D01*
X144883333Y-99950000D01*
X144816666Y-100016666D01*
X144750000Y-100050000D01*
X144616666Y-100083333D01*
X144516666Y-100083333D01*
X144383333Y-100050000D01*
X144316666Y-100016666D01*
X144250000Y-99950000D01*
X144216666Y-99850000D01*
X144216666Y-99783333D01*
X144250000Y-99683333D01*
X144283333Y-99650000D01*
X144216666Y-99416666D02*
X144216666Y-98983333D01*
X144483333Y-99216666D01*
X144483333Y-99116666D01*
X144516666Y-99050000D01*
X144550000Y-99016666D01*
X144616666Y-98983333D01*
X144783333Y-98983333D01*
X144850000Y-99016666D01*
X144883333Y-99050000D01*
X144916666Y-99116666D01*
X144916666Y-99316666D01*
X144883333Y-99383333D01*
X144850000Y-99416666D01*
X144916666Y-98316666D02*
X144916666Y-98716666D01*
X144916666Y-98516666D02*
X144216666Y-98516666D01*
X144316666Y-98583333D01*
X144383333Y-98650000D01*
X144416666Y-98716666D01*
X124516666Y-101235833D02*
X124183333Y-101469166D01*
X124516666Y-101635833D02*
X123816666Y-101635833D01*
X123816666Y-101369166D01*
X123850000Y-101302500D01*
X123883333Y-101269166D01*
X123950000Y-101235833D01*
X124050000Y-101235833D01*
X124116666Y-101269166D01*
X124150000Y-101302500D01*
X124183333Y-101369166D01*
X124183333Y-101635833D01*
X124516666Y-100569166D02*
X124516666Y-100969166D01*
X124516666Y-100769166D02*
X123816666Y-100769166D01*
X123916666Y-100835833D01*
X123983333Y-100902500D01*
X124016666Y-100969166D01*
X123816666Y-99969166D02*
X123816666Y-100102500D01*
X123850000Y-100169166D01*
X123883333Y-100202500D01*
X123983333Y-100269166D01*
X124116666Y-100302500D01*
X124383333Y-100302500D01*
X124450000Y-100269166D01*
X124483333Y-100235833D01*
X124516666Y-100169166D01*
X124516666Y-100035833D01*
X124483333Y-99969166D01*
X124450000Y-99935833D01*
X124383333Y-99902500D01*
X124216666Y-99902500D01*
X124150000Y-99935833D01*
X124116666Y-99969166D01*
X124083333Y-100035833D01*
X124083333Y-100169166D01*
X124116666Y-100235833D01*
X124150000Y-100269166D01*
X124216666Y-100302500D01*
X126650000Y-119250000D02*
X126683333Y-119283333D01*
X126716666Y-119383333D01*
X126716666Y-119450000D01*
X126683333Y-119550000D01*
X126616666Y-119616666D01*
X126550000Y-119650000D01*
X126416666Y-119683333D01*
X126316666Y-119683333D01*
X126183333Y-119650000D01*
X126116666Y-119616666D01*
X126050000Y-119550000D01*
X126016666Y-119450000D01*
X126016666Y-119383333D01*
X126050000Y-119283333D01*
X126083333Y-119250000D01*
X126716666Y-118583333D02*
X126716666Y-118983333D01*
X126716666Y-118783333D02*
X126016666Y-118783333D01*
X126116666Y-118850000D01*
X126183333Y-118916666D01*
X126216666Y-118983333D01*
X126316666Y-118183333D02*
X126283333Y-118250000D01*
X126250000Y-118283333D01*
X126183333Y-118316666D01*
X126150000Y-118316666D01*
X126083333Y-118283333D01*
X126050000Y-118250000D01*
X126016666Y-118183333D01*
X126016666Y-118050000D01*
X126050000Y-117983333D01*
X126083333Y-117950000D01*
X126150000Y-117916666D01*
X126183333Y-117916666D01*
X126250000Y-117950000D01*
X126283333Y-117983333D01*
X126316666Y-118050000D01*
X126316666Y-118183333D01*
X126350000Y-118250000D01*
X126383333Y-118283333D01*
X126450000Y-118316666D01*
X126583333Y-118316666D01*
X126650000Y-118283333D01*
X126683333Y-118250000D01*
X126716666Y-118183333D01*
X126716666Y-118050000D01*
X126683333Y-117983333D01*
X126650000Y-117950000D01*
X126583333Y-117916666D01*
X126450000Y-117916666D01*
X126383333Y-117950000D01*
X126350000Y-117983333D01*
X126316666Y-118050000D01*
X117300000Y-102235833D02*
X117333333Y-102269166D01*
X117366666Y-102369166D01*
X117366666Y-102435833D01*
X117333333Y-102535833D01*
X117266666Y-102602500D01*
X117200000Y-102635833D01*
X117066666Y-102669166D01*
X116966666Y-102669166D01*
X116833333Y-102635833D01*
X116766666Y-102602500D01*
X116700000Y-102535833D01*
X116666666Y-102435833D01*
X116666666Y-102369166D01*
X116700000Y-102269166D01*
X116733333Y-102235833D01*
X117366666Y-101569166D02*
X117366666Y-101969166D01*
X117366666Y-101769166D02*
X116666666Y-101769166D01*
X116766666Y-101835833D01*
X116833333Y-101902500D01*
X116866666Y-101969166D01*
X116666666Y-100935833D02*
X116666666Y-101269166D01*
X117000000Y-101302500D01*
X116966666Y-101269166D01*
X116933333Y-101202500D01*
X116933333Y-101035833D01*
X116966666Y-100969166D01*
X117000000Y-100935833D01*
X117066666Y-100902500D01*
X117233333Y-100902500D01*
X117300000Y-100935833D01*
X117333333Y-100969166D01*
X117366666Y-101035833D01*
X117366666Y-101202500D01*
X117333333Y-101269166D01*
X117300000Y-101302500D01*
X126516666Y-101235833D02*
X126183333Y-101469166D01*
X126516666Y-101635833D02*
X125816666Y-101635833D01*
X125816666Y-101369166D01*
X125850000Y-101302500D01*
X125883333Y-101269166D01*
X125950000Y-101235833D01*
X126050000Y-101235833D01*
X126116666Y-101269166D01*
X126150000Y-101302500D01*
X126183333Y-101369166D01*
X126183333Y-101635833D01*
X126516666Y-100569166D02*
X126516666Y-100969166D01*
X126516666Y-100769166D02*
X125816666Y-100769166D01*
X125916666Y-100835833D01*
X125983333Y-100902500D01*
X126016666Y-100969166D01*
X126050000Y-99969166D02*
X126516666Y-99969166D01*
X125783333Y-100135833D02*
X126283333Y-100302500D01*
X126283333Y-99869166D01*
X113250000Y-113450000D02*
X113216666Y-113483333D01*
X113116666Y-113516666D01*
X113050000Y-113516666D01*
X112950000Y-113483333D01*
X112883333Y-113416666D01*
X112850000Y-113350000D01*
X112816666Y-113216666D01*
X112816666Y-113116666D01*
X112850000Y-112983333D01*
X112883333Y-112916666D01*
X112950000Y-112850000D01*
X113050000Y-112816666D01*
X113116666Y-112816666D01*
X113216666Y-112850000D01*
X113250000Y-112883333D01*
X113916666Y-113516666D02*
X113516666Y-113516666D01*
X113716666Y-113516666D02*
X113716666Y-112816666D01*
X113650000Y-112916666D01*
X113583333Y-112983333D01*
X113516666Y-113016666D01*
X114350000Y-112816666D02*
X114416666Y-112816666D01*
X114483333Y-112850000D01*
X114516666Y-112883333D01*
X114550000Y-112950000D01*
X114583333Y-113083333D01*
X114583333Y-113250000D01*
X114550000Y-113383333D01*
X114516666Y-113450000D01*
X114483333Y-113483333D01*
X114416666Y-113516666D01*
X114350000Y-113516666D01*
X114283333Y-113483333D01*
X114250000Y-113450000D01*
X114216666Y-113383333D01*
X114183333Y-113250000D01*
X114183333Y-113083333D01*
X114216666Y-112950000D01*
X114250000Y-112883333D01*
X114283333Y-112850000D01*
X114350000Y-112816666D01*
X167666666Y-84202380D02*
X167666666Y-84916666D01*
X167619047Y-85059523D01*
X167523809Y-85154761D01*
X167380952Y-85202380D01*
X167285714Y-85202380D01*
X168047619Y-84202380D02*
X168666666Y-84202380D01*
X168333333Y-84583333D01*
X168476190Y-84583333D01*
X168571428Y-84630952D01*
X168619047Y-84678571D01*
X168666666Y-84773809D01*
X168666666Y-85011904D01*
X168619047Y-85107142D01*
X168571428Y-85154761D01*
X168476190Y-85202380D01*
X168190476Y-85202380D01*
X168095238Y-85154761D01*
X168047619Y-85107142D01*
X100152380Y-120083333D02*
X100866666Y-120083333D01*
X101009523Y-120130952D01*
X101104761Y-120226190D01*
X101152380Y-120369047D01*
X101152380Y-120464285D01*
X101152380Y-119607142D02*
X100152380Y-119607142D01*
X100152380Y-119226190D01*
X100200000Y-119130952D01*
X100247619Y-119083333D01*
X100342857Y-119035714D01*
X100485714Y-119035714D01*
X100580952Y-119083333D01*
X100628571Y-119130952D01*
X100676190Y-119226190D01*
X100676190Y-119607142D01*
X101152380Y-118083333D02*
X101152380Y-118654761D01*
X101152380Y-118369047D02*
X100152380Y-118369047D01*
X100295238Y-118464285D01*
X100390476Y-118559523D01*
X100438095Y-118654761D01*
X113250000Y-117516666D02*
X113016666Y-117183333D01*
X112850000Y-117516666D02*
X112850000Y-116816666D01*
X113116666Y-116816666D01*
X113183333Y-116850000D01*
X113216666Y-116883333D01*
X113250000Y-116950000D01*
X113250000Y-117050000D01*
X113216666Y-117116666D01*
X113183333Y-117150000D01*
X113116666Y-117183333D01*
X112850000Y-117183333D01*
X113516666Y-116883333D02*
X113550000Y-116850000D01*
X113616666Y-116816666D01*
X113783333Y-116816666D01*
X113850000Y-116850000D01*
X113883333Y-116883333D01*
X113916666Y-116950000D01*
X113916666Y-117016666D01*
X113883333Y-117116666D01*
X113483333Y-117516666D01*
X113916666Y-117516666D01*
X114316666Y-117116666D02*
X114250000Y-117083333D01*
X114216666Y-117050000D01*
X114183333Y-116983333D01*
X114183333Y-116950000D01*
X114216666Y-116883333D01*
X114250000Y-116850000D01*
X114316666Y-116816666D01*
X114450000Y-116816666D01*
X114516666Y-116850000D01*
X114550000Y-116883333D01*
X114583333Y-116950000D01*
X114583333Y-116983333D01*
X114550000Y-117050000D01*
X114516666Y-117083333D01*
X114450000Y-117116666D01*
X114316666Y-117116666D01*
X114250000Y-117150000D01*
X114216666Y-117183333D01*
X114183333Y-117250000D01*
X114183333Y-117383333D01*
X114216666Y-117450000D01*
X114250000Y-117483333D01*
X114316666Y-117516666D01*
X114450000Y-117516666D01*
X114516666Y-117483333D01*
X114550000Y-117450000D01*
X114583333Y-117383333D01*
X114583333Y-117250000D01*
X114550000Y-117183333D01*
X114516666Y-117150000D01*
X114450000Y-117116666D01*
X152550000Y-114216666D02*
X152316666Y-113883333D01*
X152150000Y-114216666D02*
X152150000Y-113516666D01*
X152416666Y-113516666D01*
X152483333Y-113550000D01*
X152516666Y-113583333D01*
X152550000Y-113650000D01*
X152550000Y-113750000D01*
X152516666Y-113816666D01*
X152483333Y-113850000D01*
X152416666Y-113883333D01*
X152150000Y-113883333D01*
X152816666Y-113583333D02*
X152850000Y-113550000D01*
X152916666Y-113516666D01*
X153083333Y-113516666D01*
X153150000Y-113550000D01*
X153183333Y-113583333D01*
X153216666Y-113650000D01*
X153216666Y-113716666D01*
X153183333Y-113816666D01*
X152783333Y-114216666D01*
X153216666Y-114216666D01*
X153650000Y-113516666D02*
X153716666Y-113516666D01*
X153783333Y-113550000D01*
X153816666Y-113583333D01*
X153850000Y-113650000D01*
X153883333Y-113783333D01*
X153883333Y-113950000D01*
X153850000Y-114083333D01*
X153816666Y-114150000D01*
X153783333Y-114183333D01*
X153716666Y-114216666D01*
X153650000Y-114216666D01*
X153583333Y-114183333D01*
X153550000Y-114150000D01*
X153516666Y-114083333D01*
X153483333Y-113950000D01*
X153483333Y-113783333D01*
X153516666Y-113650000D01*
X153550000Y-113583333D01*
X153583333Y-113550000D01*
X153650000Y-113516666D01*
X103511904Y-86202380D02*
X103511904Y-85202380D01*
X103750000Y-85202380D01*
X103892857Y-85250000D01*
X103988095Y-85345238D01*
X104035714Y-85440476D01*
X104083333Y-85630952D01*
X104083333Y-85773809D01*
X104035714Y-85964285D01*
X103988095Y-86059523D01*
X103892857Y-86154761D01*
X103750000Y-86202380D01*
X103511904Y-86202380D01*
X104940476Y-85535714D02*
X104940476Y-86202380D01*
X104702380Y-85154761D02*
X104464285Y-85869047D01*
X105083333Y-85869047D01*
X101373333Y-93952380D02*
X101040000Y-93476190D01*
X100801904Y-93952380D02*
X100801904Y-92952380D01*
X101182857Y-92952380D01*
X101278095Y-93000000D01*
X101325714Y-93047619D01*
X101373333Y-93142857D01*
X101373333Y-93285714D01*
X101325714Y-93380952D01*
X101278095Y-93428571D01*
X101182857Y-93476190D01*
X100801904Y-93476190D01*
X102325714Y-93952380D02*
X101754285Y-93952380D01*
X102040000Y-93952380D02*
X102040000Y-92952380D01*
X101944761Y-93095238D01*
X101849523Y-93190476D01*
X101754285Y-93238095D01*
X119300000Y-102235833D02*
X119333333Y-102269166D01*
X119366666Y-102369166D01*
X119366666Y-102435833D01*
X119333333Y-102535833D01*
X119266666Y-102602500D01*
X119200000Y-102635833D01*
X119066666Y-102669166D01*
X118966666Y-102669166D01*
X118833333Y-102635833D01*
X118766666Y-102602500D01*
X118700000Y-102535833D01*
X118666666Y-102435833D01*
X118666666Y-102369166D01*
X118700000Y-102269166D01*
X118733333Y-102235833D01*
X119366666Y-101569166D02*
X119366666Y-101969166D01*
X119366666Y-101769166D02*
X118666666Y-101769166D01*
X118766666Y-101835833D01*
X118833333Y-101902500D01*
X118866666Y-101969166D01*
X119366666Y-101235833D02*
X119366666Y-101102500D01*
X119333333Y-101035833D01*
X119300000Y-101002500D01*
X119200000Y-100935833D01*
X119066666Y-100902500D01*
X118800000Y-100902500D01*
X118733333Y-100935833D01*
X118700000Y-100969166D01*
X118666666Y-101035833D01*
X118666666Y-101169166D01*
X118700000Y-101235833D01*
X118733333Y-101269166D01*
X118800000Y-101302500D01*
X118966666Y-101302500D01*
X119033333Y-101269166D01*
X119066666Y-101235833D01*
X119100000Y-101169166D01*
X119100000Y-101035833D01*
X119066666Y-100969166D01*
X119033333Y-100935833D01*
X118966666Y-100902500D01*
X113283333Y-112466666D02*
X113050000Y-112133333D01*
X112883333Y-112466666D02*
X112883333Y-111766666D01*
X113150000Y-111766666D01*
X113216666Y-111800000D01*
X113250000Y-111833333D01*
X113283333Y-111900000D01*
X113283333Y-112000000D01*
X113250000Y-112066666D01*
X113216666Y-112100000D01*
X113150000Y-112133333D01*
X112883333Y-112133333D01*
X113683333Y-112066666D02*
X113616666Y-112033333D01*
X113583333Y-112000000D01*
X113550000Y-111933333D01*
X113550000Y-111900000D01*
X113583333Y-111833333D01*
X113616666Y-111800000D01*
X113683333Y-111766666D01*
X113816666Y-111766666D01*
X113883333Y-111800000D01*
X113916666Y-111833333D01*
X113950000Y-111900000D01*
X113950000Y-111933333D01*
X113916666Y-112000000D01*
X113883333Y-112033333D01*
X113816666Y-112066666D01*
X113683333Y-112066666D01*
X113616666Y-112100000D01*
X113583333Y-112133333D01*
X113550000Y-112200000D01*
X113550000Y-112333333D01*
X113583333Y-112400000D01*
X113616666Y-112433333D01*
X113683333Y-112466666D01*
X113816666Y-112466666D01*
X113883333Y-112433333D01*
X113916666Y-112400000D01*
X113950000Y-112333333D01*
X113950000Y-112200000D01*
X113916666Y-112133333D01*
X113883333Y-112100000D01*
X113816666Y-112066666D01*
X113350000Y-114516666D02*
X113116666Y-114183333D01*
X112950000Y-114516666D02*
X112950000Y-113816666D01*
X113216666Y-113816666D01*
X113283333Y-113850000D01*
X113316666Y-113883333D01*
X113350000Y-113950000D01*
X113350000Y-114050000D01*
X113316666Y-114116666D01*
X113283333Y-114150000D01*
X113216666Y-114183333D01*
X112950000Y-114183333D01*
X114016666Y-114516666D02*
X113616666Y-114516666D01*
X113816666Y-114516666D02*
X113816666Y-113816666D01*
X113750000Y-113916666D01*
X113683333Y-113983333D01*
X113616666Y-114016666D01*
X114683333Y-114516666D02*
X114283333Y-114516666D01*
X114483333Y-114516666D02*
X114483333Y-113816666D01*
X114416666Y-113916666D01*
X114350000Y-113983333D01*
X114283333Y-114016666D01*
X118938095Y-105652380D02*
X118938095Y-106461904D01*
X118985714Y-106557142D01*
X119033333Y-106604761D01*
X119128571Y-106652380D01*
X119319047Y-106652380D01*
X119414285Y-106604761D01*
X119461904Y-106557142D01*
X119509523Y-106461904D01*
X119509523Y-105652380D01*
X119938095Y-105747619D02*
X119985714Y-105700000D01*
X120080952Y-105652380D01*
X120319047Y-105652380D01*
X120414285Y-105700000D01*
X120461904Y-105747619D01*
X120509523Y-105842857D01*
X120509523Y-105938095D01*
X120461904Y-106080952D01*
X119890476Y-106652380D01*
X120509523Y-106652380D01*
X128516666Y-101235833D02*
X128183333Y-101469166D01*
X128516666Y-101635833D02*
X127816666Y-101635833D01*
X127816666Y-101369166D01*
X127850000Y-101302500D01*
X127883333Y-101269166D01*
X127950000Y-101235833D01*
X128050000Y-101235833D01*
X128116666Y-101269166D01*
X128150000Y-101302500D01*
X128183333Y-101369166D01*
X128183333Y-101635833D01*
X128516666Y-100569166D02*
X128516666Y-100969166D01*
X128516666Y-100769166D02*
X127816666Y-100769166D01*
X127916666Y-100835833D01*
X127983333Y-100902500D01*
X128016666Y-100969166D01*
X127883333Y-100302500D02*
X127850000Y-100269166D01*
X127816666Y-100202500D01*
X127816666Y-100035833D01*
X127850000Y-99969166D01*
X127883333Y-99935833D01*
X127950000Y-99902500D01*
X128016666Y-99902500D01*
X128116666Y-99935833D01*
X128516666Y-100335833D01*
X128516666Y-99902500D01*
X168866666Y-93652380D02*
X168866666Y-94366666D01*
X168819047Y-94509523D01*
X168723809Y-94604761D01*
X168580952Y-94652380D01*
X168485714Y-94652380D01*
X169771428Y-93985714D02*
X169771428Y-94652380D01*
X169533333Y-93604761D02*
X169295238Y-94319047D01*
X169914285Y-94319047D01*
X130450000Y-105550000D02*
X130416666Y-105583333D01*
X130316666Y-105616666D01*
X130250000Y-105616666D01*
X130150000Y-105583333D01*
X130083333Y-105516666D01*
X130050000Y-105450000D01*
X130016666Y-105316666D01*
X130016666Y-105216666D01*
X130050000Y-105083333D01*
X130083333Y-105016666D01*
X130150000Y-104950000D01*
X130250000Y-104916666D01*
X130316666Y-104916666D01*
X130416666Y-104950000D01*
X130450000Y-104983333D01*
X131116666Y-105616666D02*
X130716666Y-105616666D01*
X130916666Y-105616666D02*
X130916666Y-104916666D01*
X130850000Y-105016666D01*
X130783333Y-105083333D01*
X130716666Y-105116666D01*
X131783333Y-105616666D02*
X131383333Y-105616666D01*
X131583333Y-105616666D02*
X131583333Y-104916666D01*
X131516666Y-105016666D01*
X131450000Y-105083333D01*
X131383333Y-105116666D01*
X125650000Y-119250000D02*
X125683333Y-119283333D01*
X125716666Y-119383333D01*
X125716666Y-119450000D01*
X125683333Y-119550000D01*
X125616666Y-119616666D01*
X125550000Y-119650000D01*
X125416666Y-119683333D01*
X125316666Y-119683333D01*
X125183333Y-119650000D01*
X125116666Y-119616666D01*
X125050000Y-119550000D01*
X125016666Y-119450000D01*
X125016666Y-119383333D01*
X125050000Y-119283333D01*
X125083333Y-119250000D01*
X125083333Y-118983333D02*
X125050000Y-118950000D01*
X125016666Y-118883333D01*
X125016666Y-118716666D01*
X125050000Y-118650000D01*
X125083333Y-118616666D01*
X125150000Y-118583333D01*
X125216666Y-118583333D01*
X125316666Y-118616666D01*
X125716666Y-119016666D01*
X125716666Y-118583333D01*
X125016666Y-118150000D02*
X125016666Y-118083333D01*
X125050000Y-118016666D01*
X125083333Y-117983333D01*
X125150000Y-117950000D01*
X125283333Y-117916666D01*
X125450000Y-117916666D01*
X125583333Y-117950000D01*
X125650000Y-117983333D01*
X125683333Y-118016666D01*
X125716666Y-118083333D01*
X125716666Y-118150000D01*
X125683333Y-118216666D01*
X125650000Y-118250000D01*
X125583333Y-118283333D01*
X125450000Y-118316666D01*
X125283333Y-118316666D01*
X125150000Y-118283333D01*
X125083333Y-118250000D01*
X125050000Y-118216666D01*
X125016666Y-118150000D01*
X164157142Y-94052380D02*
X163823809Y-93576190D01*
X163585714Y-94052380D02*
X163585714Y-93052380D01*
X163966666Y-93052380D01*
X164061904Y-93100000D01*
X164109523Y-93147619D01*
X164157142Y-93242857D01*
X164157142Y-93385714D01*
X164109523Y-93480952D01*
X164061904Y-93528571D01*
X163966666Y-93576190D01*
X163585714Y-93576190D01*
X164538095Y-93147619D02*
X164585714Y-93100000D01*
X164680952Y-93052380D01*
X164919047Y-93052380D01*
X165014285Y-93100000D01*
X165061904Y-93147619D01*
X165109523Y-93242857D01*
X165109523Y-93338095D01*
X165061904Y-93480952D01*
X164490476Y-94052380D01*
X165109523Y-94052380D01*
X165966666Y-93385714D02*
X165966666Y-94052380D01*
X165728571Y-93004761D02*
X165490476Y-93719047D01*
X166109523Y-93719047D01*
X117735833Y-113116666D02*
X117502500Y-112783333D01*
X117335833Y-113116666D02*
X117335833Y-112416666D01*
X117602500Y-112416666D01*
X117669166Y-112450000D01*
X117702500Y-112483333D01*
X117735833Y-112550000D01*
X117735833Y-112650000D01*
X117702500Y-112716666D01*
X117669166Y-112750000D01*
X117602500Y-112783333D01*
X117335833Y-112783333D01*
X118402500Y-113116666D02*
X118002500Y-113116666D01*
X118202500Y-113116666D02*
X118202500Y-112416666D01*
X118135833Y-112516666D01*
X118069166Y-112583333D01*
X118002500Y-112616666D01*
X118635833Y-112416666D02*
X119102500Y-112416666D01*
X118802500Y-113116666D01*
X146776190Y-120126190D02*
X147252380Y-120126190D01*
X146252380Y-120459523D02*
X146776190Y-120126190D01*
X146252380Y-119792857D01*
X146252380Y-119554761D02*
X146252380Y-118935714D01*
X146633333Y-119269047D01*
X146633333Y-119126190D01*
X146680952Y-119030952D01*
X146728571Y-118983333D01*
X146823809Y-118935714D01*
X147061904Y-118935714D01*
X147157142Y-118983333D01*
X147204761Y-119030952D01*
X147252380Y-119126190D01*
X147252380Y-119411904D01*
X147204761Y-119507142D01*
X147157142Y-119554761D01*
X164057142Y-111252380D02*
X163723809Y-110776190D01*
X163485714Y-111252380D02*
X163485714Y-110252380D01*
X163866666Y-110252380D01*
X163961904Y-110300000D01*
X164009523Y-110347619D01*
X164057142Y-110442857D01*
X164057142Y-110585714D01*
X164009523Y-110680952D01*
X163961904Y-110728571D01*
X163866666Y-110776190D01*
X163485714Y-110776190D01*
X165009523Y-111252380D02*
X164438095Y-111252380D01*
X164723809Y-111252380D02*
X164723809Y-110252380D01*
X164628571Y-110395238D01*
X164533333Y-110490476D01*
X164438095Y-110538095D01*
X165580952Y-110680952D02*
X165485714Y-110633333D01*
X165438095Y-110585714D01*
X165390476Y-110490476D01*
X165390476Y-110442857D01*
X165438095Y-110347619D01*
X165485714Y-110300000D01*
X165580952Y-110252380D01*
X165771428Y-110252380D01*
X165866666Y-110300000D01*
X165914285Y-110347619D01*
X165961904Y-110442857D01*
X165961904Y-110490476D01*
X165914285Y-110585714D01*
X165866666Y-110633333D01*
X165771428Y-110680952D01*
X165580952Y-110680952D01*
X165485714Y-110728571D01*
X165438095Y-110776190D01*
X165390476Y-110871428D01*
X165390476Y-111061904D01*
X165438095Y-111157142D01*
X165485714Y-111204761D01*
X165580952Y-111252380D01*
X165771428Y-111252380D01*
X165866666Y-111204761D01*
X165914285Y-111157142D01*
X165961904Y-111061904D01*
X165961904Y-110871428D01*
X165914285Y-110776190D01*
X165866666Y-110728571D01*
X165771428Y-110680952D01*
X153850000Y-113080000D02*
X153816666Y-113113333D01*
X153716666Y-113146666D01*
X153650000Y-113146666D01*
X153550000Y-113113333D01*
X153483333Y-113046666D01*
X153450000Y-112980000D01*
X153416666Y-112846666D01*
X153416666Y-112746666D01*
X153450000Y-112613333D01*
X153483333Y-112546666D01*
X153550000Y-112480000D01*
X153650000Y-112446666D01*
X153716666Y-112446666D01*
X153816666Y-112480000D01*
X153850000Y-112513333D01*
X154116666Y-112513333D02*
X154150000Y-112480000D01*
X154216666Y-112446666D01*
X154383333Y-112446666D01*
X154450000Y-112480000D01*
X154483333Y-112513333D01*
X154516666Y-112580000D01*
X154516666Y-112646666D01*
X154483333Y-112746666D01*
X154083333Y-113146666D01*
X154516666Y-113146666D01*
X155150000Y-112446666D02*
X154816666Y-112446666D01*
X154783333Y-112780000D01*
X154816666Y-112746666D01*
X154883333Y-112713333D01*
X155050000Y-112713333D01*
X155116666Y-112746666D01*
X155150000Y-112780000D01*
X155183333Y-112846666D01*
X155183333Y-113013333D01*
X155150000Y-113080000D01*
X155116666Y-113113333D01*
X155050000Y-113146666D01*
X154883333Y-113146666D01*
X154816666Y-113113333D01*
X154783333Y-113080000D01*
X167666666Y-113902380D02*
X167666666Y-114616666D01*
X167619047Y-114759523D01*
X167523809Y-114854761D01*
X167380952Y-114902380D01*
X167285714Y-114902380D01*
X168666666Y-114902380D02*
X168095238Y-114902380D01*
X168380952Y-114902380D02*
X168380952Y-113902380D01*
X168285714Y-114045238D01*
X168190476Y-114140476D01*
X168095238Y-114188095D01*
X133023809Y-111026190D02*
X133023809Y-111502380D01*
X132690476Y-110502380D02*
X133023809Y-111026190D01*
X133357142Y-110502380D01*
X134214285Y-111502380D02*
X133642857Y-111502380D01*
X133928571Y-111502380D02*
X133928571Y-110502380D01*
X133833333Y-110645238D01*
X133738095Y-110740476D01*
X133642857Y-110788095D01*
X153850000Y-118130000D02*
X153816666Y-118163333D01*
X153716666Y-118196666D01*
X153650000Y-118196666D01*
X153550000Y-118163333D01*
X153483333Y-118096666D01*
X153450000Y-118030000D01*
X153416666Y-117896666D01*
X153416666Y-117796666D01*
X153450000Y-117663333D01*
X153483333Y-117596666D01*
X153550000Y-117530000D01*
X153650000Y-117496666D01*
X153716666Y-117496666D01*
X153816666Y-117530000D01*
X153850000Y-117563333D01*
X154116666Y-117563333D02*
X154150000Y-117530000D01*
X154216666Y-117496666D01*
X154383333Y-117496666D01*
X154450000Y-117530000D01*
X154483333Y-117563333D01*
X154516666Y-117630000D01*
X154516666Y-117696666D01*
X154483333Y-117796666D01*
X154083333Y-118196666D01*
X154516666Y-118196666D01*
X154750000Y-117496666D02*
X155216666Y-117496666D01*
X154916666Y-118196666D01*
X112383333Y-107600000D02*
X112350000Y-107633333D01*
X112250000Y-107666666D01*
X112183333Y-107666666D01*
X112083333Y-107633333D01*
X112016666Y-107566666D01*
X111983333Y-107500000D01*
X111950000Y-107366666D01*
X111950000Y-107266666D01*
X111983333Y-107133333D01*
X112016666Y-107066666D01*
X112083333Y-107000000D01*
X112183333Y-106966666D01*
X112250000Y-106966666D01*
X112350000Y-107000000D01*
X112383333Y-107033333D01*
X112983333Y-107200000D02*
X112983333Y-107666666D01*
X112816666Y-106933333D02*
X112650000Y-107433333D01*
X113083333Y-107433333D01*
X116583333Y-109016666D02*
X116350000Y-108683333D01*
X116183333Y-109016666D02*
X116183333Y-108316666D01*
X116450000Y-108316666D01*
X116516666Y-108350000D01*
X116550000Y-108383333D01*
X116583333Y-108450000D01*
X116583333Y-108550000D01*
X116550000Y-108616666D01*
X116516666Y-108650000D01*
X116450000Y-108683333D01*
X116183333Y-108683333D01*
X116816666Y-108316666D02*
X117250000Y-108316666D01*
X117016666Y-108583333D01*
X117116666Y-108583333D01*
X117183333Y-108616666D01*
X117216666Y-108650000D01*
X117250000Y-108716666D01*
X117250000Y-108883333D01*
X117216666Y-108950000D01*
X117183333Y-108983333D01*
X117116666Y-109016666D01*
X116916666Y-109016666D01*
X116850000Y-108983333D01*
X116816666Y-108950000D01*
X113783333Y-107666666D02*
X113550000Y-107333333D01*
X113383333Y-107666666D02*
X113383333Y-106966666D01*
X113650000Y-106966666D01*
X113716666Y-107000000D01*
X113750000Y-107033333D01*
X113783333Y-107100000D01*
X113783333Y-107200000D01*
X113750000Y-107266666D01*
X113716666Y-107300000D01*
X113650000Y-107333333D01*
X113383333Y-107333333D01*
X114383333Y-106966666D02*
X114250000Y-106966666D01*
X114183333Y-107000000D01*
X114150000Y-107033333D01*
X114083333Y-107133333D01*
X114050000Y-107266666D01*
X114050000Y-107533333D01*
X114083333Y-107600000D01*
X114116666Y-107633333D01*
X114183333Y-107666666D01*
X114316666Y-107666666D01*
X114383333Y-107633333D01*
X114416666Y-107600000D01*
X114450000Y-107533333D01*
X114450000Y-107366666D01*
X114416666Y-107300000D01*
X114383333Y-107266666D01*
X114316666Y-107233333D01*
X114183333Y-107233333D01*
X114116666Y-107266666D01*
X114083333Y-107300000D01*
X114050000Y-107366666D01*
X144857142Y-92757142D02*
X144809523Y-92804761D01*
X144666666Y-92852380D01*
X144571428Y-92852380D01*
X144428571Y-92804761D01*
X144333333Y-92709523D01*
X144285714Y-92614285D01*
X144238095Y-92423809D01*
X144238095Y-92280952D01*
X144285714Y-92090476D01*
X144333333Y-91995238D01*
X144428571Y-91900000D01*
X144571428Y-91852380D01*
X144666666Y-91852380D01*
X144809523Y-91900000D01*
X144857142Y-91947619D01*
X145190476Y-91852380D02*
X145809523Y-91852380D01*
X145476190Y-92233333D01*
X145619047Y-92233333D01*
X145714285Y-92280952D01*
X145761904Y-92328571D01*
X145809523Y-92423809D01*
X145809523Y-92661904D01*
X145761904Y-92757142D01*
X145714285Y-92804761D01*
X145619047Y-92852380D01*
X145333333Y-92852380D01*
X145238095Y-92804761D01*
X145190476Y-92757142D01*
X146666666Y-91852380D02*
X146476190Y-91852380D01*
X146380952Y-91900000D01*
X146333333Y-91947619D01*
X146238095Y-92090476D01*
X146190476Y-92280952D01*
X146190476Y-92661904D01*
X146238095Y-92757142D01*
X146285714Y-92804761D01*
X146380952Y-92852380D01*
X146571428Y-92852380D01*
X146666666Y-92804761D01*
X146714285Y-92757142D01*
X146761904Y-92661904D01*
X146761904Y-92423809D01*
X146714285Y-92328571D01*
X146666666Y-92280952D01*
X146571428Y-92233333D01*
X146380952Y-92233333D01*
X146285714Y-92280952D01*
X146238095Y-92328571D01*
X146190476Y-92423809D01*
X145850000Y-99650000D02*
X145883333Y-99683333D01*
X145916666Y-99783333D01*
X145916666Y-99850000D01*
X145883333Y-99950000D01*
X145816666Y-100016666D01*
X145750000Y-100050000D01*
X145616666Y-100083333D01*
X145516666Y-100083333D01*
X145383333Y-100050000D01*
X145316666Y-100016666D01*
X145250000Y-99950000D01*
X145216666Y-99850000D01*
X145216666Y-99783333D01*
X145250000Y-99683333D01*
X145283333Y-99650000D01*
X145216666Y-99416666D02*
X145216666Y-98983333D01*
X145483333Y-99216666D01*
X145483333Y-99116666D01*
X145516666Y-99050000D01*
X145550000Y-99016666D01*
X145616666Y-98983333D01*
X145783333Y-98983333D01*
X145850000Y-99016666D01*
X145883333Y-99050000D01*
X145916666Y-99116666D01*
X145916666Y-99316666D01*
X145883333Y-99383333D01*
X145850000Y-99416666D01*
X145283333Y-98716666D02*
X145250000Y-98683333D01*
X145216666Y-98616666D01*
X145216666Y-98450000D01*
X145250000Y-98383333D01*
X145283333Y-98350000D01*
X145350000Y-98316666D01*
X145416666Y-98316666D01*
X145516666Y-98350000D01*
X145916666Y-98750000D01*
X145916666Y-98316666D01*
X98704761Y-94852380D02*
X98704761Y-95566666D01*
X98657142Y-95709523D01*
X98561904Y-95804761D01*
X98419047Y-95852380D01*
X98323809Y-95852380D01*
X99180952Y-95852380D02*
X99180952Y-94852380D01*
X99847619Y-94852380D02*
X100038095Y-94852380D01*
X100133333Y-94900000D01*
X100228571Y-94995238D01*
X100276190Y-95185714D01*
X100276190Y-95519047D01*
X100228571Y-95709523D01*
X100133333Y-95804761D01*
X100038095Y-95852380D01*
X99847619Y-95852380D01*
X99752380Y-95804761D01*
X99657142Y-95709523D01*
X99609523Y-95519047D01*
X99609523Y-95185714D01*
X99657142Y-94995238D01*
X99752380Y-94900000D01*
X99847619Y-94852380D01*
X101228571Y-95852380D02*
X100657142Y-95852380D01*
X100942857Y-95852380D02*
X100942857Y-94852380D01*
X100847619Y-94995238D01*
X100752380Y-95090476D01*
X100657142Y-95138095D01*
X135438095Y-102752380D02*
X135438095Y-103561904D01*
X135485714Y-103657142D01*
X135533333Y-103704761D01*
X135628571Y-103752380D01*
X135819047Y-103752380D01*
X135914285Y-103704761D01*
X135961904Y-103657142D01*
X136009523Y-103561904D01*
X136009523Y-102752380D01*
X137009523Y-103752380D02*
X136438095Y-103752380D01*
X136723809Y-103752380D02*
X136723809Y-102752380D01*
X136628571Y-102895238D01*
X136533333Y-102990476D01*
X136438095Y-103038095D01*
X102557142Y-91152380D02*
X102223809Y-90676190D01*
X101985714Y-91152380D02*
X101985714Y-90152380D01*
X102366666Y-90152380D01*
X102461904Y-90200000D01*
X102509523Y-90247619D01*
X102557142Y-90342857D01*
X102557142Y-90485714D01*
X102509523Y-90580952D01*
X102461904Y-90628571D01*
X102366666Y-90676190D01*
X101985714Y-90676190D01*
X102938095Y-90247619D02*
X102985714Y-90200000D01*
X103080952Y-90152380D01*
X103319047Y-90152380D01*
X103414285Y-90200000D01*
X103461904Y-90247619D01*
X103509523Y-90342857D01*
X103509523Y-90438095D01*
X103461904Y-90580952D01*
X102890476Y-91152380D01*
X103509523Y-91152380D01*
X103890476Y-90247619D02*
X103938095Y-90200000D01*
X104033333Y-90152380D01*
X104271428Y-90152380D01*
X104366666Y-90200000D01*
X104414285Y-90247619D01*
X104461904Y-90342857D01*
X104461904Y-90438095D01*
X104414285Y-90580952D01*
X103842857Y-91152380D01*
X104461904Y-91152380D01*
X153157142Y-96157142D02*
X153109523Y-96204761D01*
X152966666Y-96252380D01*
X152871428Y-96252380D01*
X152728571Y-96204761D01*
X152633333Y-96109523D01*
X152585714Y-96014285D01*
X152538095Y-95823809D01*
X152538095Y-95680952D01*
X152585714Y-95490476D01*
X152633333Y-95395238D01*
X152728571Y-95300000D01*
X152871428Y-95252380D01*
X152966666Y-95252380D01*
X153109523Y-95300000D01*
X153157142Y-95347619D01*
X153490476Y-95252380D02*
X154109523Y-95252380D01*
X153776190Y-95633333D01*
X153919047Y-95633333D01*
X154014285Y-95680952D01*
X154061904Y-95728571D01*
X154109523Y-95823809D01*
X154109523Y-96061904D01*
X154061904Y-96157142D01*
X154014285Y-96204761D01*
X153919047Y-96252380D01*
X153633333Y-96252380D01*
X153538095Y-96204761D01*
X153490476Y-96157142D01*
X154966666Y-95585714D02*
X154966666Y-96252380D01*
X154728571Y-95204761D02*
X154490476Y-95919047D01*
X155109523Y-95919047D01*
X114300000Y-102235833D02*
X114333333Y-102269166D01*
X114366666Y-102369166D01*
X114366666Y-102435833D01*
X114333333Y-102535833D01*
X114266666Y-102602500D01*
X114200000Y-102635833D01*
X114066666Y-102669166D01*
X113966666Y-102669166D01*
X113833333Y-102635833D01*
X113766666Y-102602500D01*
X113700000Y-102535833D01*
X113666666Y-102435833D01*
X113666666Y-102369166D01*
X113700000Y-102269166D01*
X113733333Y-102235833D01*
X114366666Y-101902500D02*
X114366666Y-101769166D01*
X114333333Y-101702500D01*
X114300000Y-101669166D01*
X114200000Y-101602500D01*
X114066666Y-101569166D01*
X113800000Y-101569166D01*
X113733333Y-101602500D01*
X113700000Y-101635833D01*
X113666666Y-101702500D01*
X113666666Y-101835833D01*
X113700000Y-101902500D01*
X113733333Y-101935833D01*
X113800000Y-101969166D01*
X113966666Y-101969166D01*
X114033333Y-101935833D01*
X114066666Y-101902500D01*
X114100000Y-101835833D01*
X114100000Y-101702500D01*
X114066666Y-101635833D01*
X114033333Y-101602500D01*
X113966666Y-101569166D01*
X147857142Y-92757142D02*
X147809523Y-92804761D01*
X147666666Y-92852380D01*
X147571428Y-92852380D01*
X147428571Y-92804761D01*
X147333333Y-92709523D01*
X147285714Y-92614285D01*
X147238095Y-92423809D01*
X147238095Y-92280952D01*
X147285714Y-92090476D01*
X147333333Y-91995238D01*
X147428571Y-91900000D01*
X147571428Y-91852380D01*
X147666666Y-91852380D01*
X147809523Y-91900000D01*
X147857142Y-91947619D01*
X148190476Y-91852380D02*
X148809523Y-91852380D01*
X148476190Y-92233333D01*
X148619047Y-92233333D01*
X148714285Y-92280952D01*
X148761904Y-92328571D01*
X148809523Y-92423809D01*
X148809523Y-92661904D01*
X148761904Y-92757142D01*
X148714285Y-92804761D01*
X148619047Y-92852380D01*
X148333333Y-92852380D01*
X148238095Y-92804761D01*
X148190476Y-92757142D01*
X149714285Y-91852380D02*
X149238095Y-91852380D01*
X149190476Y-92328571D01*
X149238095Y-92280952D01*
X149333333Y-92233333D01*
X149571428Y-92233333D01*
X149666666Y-92280952D01*
X149714285Y-92328571D01*
X149761904Y-92423809D01*
X149761904Y-92661904D01*
X149714285Y-92757142D01*
X149666666Y-92804761D01*
X149571428Y-92852380D01*
X149333333Y-92852380D01*
X149238095Y-92804761D01*
X149190476Y-92757142D01*
X140617142Y-101666666D02*
X140664761Y-101714285D01*
X140712380Y-101857142D01*
X140712380Y-101952380D01*
X140664761Y-102095238D01*
X140569523Y-102190476D01*
X140474285Y-102238095D01*
X140283809Y-102285714D01*
X140140952Y-102285714D01*
X139950476Y-102238095D01*
X139855238Y-102190476D01*
X139760000Y-102095238D01*
X139712380Y-101952380D01*
X139712380Y-101857142D01*
X139760000Y-101714285D01*
X139807619Y-101666666D01*
X139712380Y-101333333D02*
X139712380Y-100714285D01*
X140093333Y-101047619D01*
X140093333Y-100904761D01*
X140140952Y-100809523D01*
X140188571Y-100761904D01*
X140283809Y-100714285D01*
X140521904Y-100714285D01*
X140617142Y-100761904D01*
X140664761Y-100809523D01*
X140712380Y-100904761D01*
X140712380Y-101190476D01*
X140664761Y-101285714D01*
X140617142Y-101333333D01*
X120300000Y-102235833D02*
X120333333Y-102269166D01*
X120366666Y-102369166D01*
X120366666Y-102435833D01*
X120333333Y-102535833D01*
X120266666Y-102602500D01*
X120200000Y-102635833D01*
X120066666Y-102669166D01*
X119966666Y-102669166D01*
X119833333Y-102635833D01*
X119766666Y-102602500D01*
X119700000Y-102535833D01*
X119666666Y-102435833D01*
X119666666Y-102369166D01*
X119700000Y-102269166D01*
X119733333Y-102235833D01*
X119733333Y-101969166D02*
X119700000Y-101935833D01*
X119666666Y-101869166D01*
X119666666Y-101702500D01*
X119700000Y-101635833D01*
X119733333Y-101602500D01*
X119800000Y-101569166D01*
X119866666Y-101569166D01*
X119966666Y-101602500D01*
X120366666Y-102002500D01*
X120366666Y-101569166D01*
X120366666Y-100902500D02*
X120366666Y-101302500D01*
X120366666Y-101102500D02*
X119666666Y-101102500D01*
X119766666Y-101169166D01*
X119833333Y-101235833D01*
X119866666Y-101302500D01*
X163357142Y-85882380D02*
X163023809Y-85406190D01*
X162785714Y-85882380D02*
X162785714Y-84882380D01*
X163166666Y-84882380D01*
X163261904Y-84930000D01*
X163309523Y-84977619D01*
X163357142Y-85072857D01*
X163357142Y-85215714D01*
X163309523Y-85310952D01*
X163261904Y-85358571D01*
X163166666Y-85406190D01*
X162785714Y-85406190D01*
X163738095Y-84977619D02*
X163785714Y-84930000D01*
X163880952Y-84882380D01*
X164119047Y-84882380D01*
X164214285Y-84930000D01*
X164261904Y-84977619D01*
X164309523Y-85072857D01*
X164309523Y-85168095D01*
X164261904Y-85310952D01*
X163690476Y-85882380D01*
X164309523Y-85882380D01*
X164785714Y-85882380D02*
X164976190Y-85882380D01*
X165071428Y-85834761D01*
X165119047Y-85787142D01*
X165214285Y-85644285D01*
X165261904Y-85453809D01*
X165261904Y-85072857D01*
X165214285Y-84977619D01*
X165166666Y-84930000D01*
X165071428Y-84882380D01*
X164880952Y-84882380D01*
X164785714Y-84930000D01*
X164738095Y-84977619D01*
X164690476Y-85072857D01*
X164690476Y-85310952D01*
X164738095Y-85406190D01*
X164785714Y-85453809D01*
X164880952Y-85501428D01*
X165071428Y-85501428D01*
X165166666Y-85453809D01*
X165214285Y-85406190D01*
X165261904Y-85310952D01*
X127516666Y-101235833D02*
X127183333Y-101469166D01*
X127516666Y-101635833D02*
X126816666Y-101635833D01*
X126816666Y-101369166D01*
X126850000Y-101302500D01*
X126883333Y-101269166D01*
X126950000Y-101235833D01*
X127050000Y-101235833D01*
X127116666Y-101269166D01*
X127150000Y-101302500D01*
X127183333Y-101369166D01*
X127183333Y-101635833D01*
X127516666Y-100569166D02*
X127516666Y-100969166D01*
X127516666Y-100769166D02*
X126816666Y-100769166D01*
X126916666Y-100835833D01*
X126983333Y-100902500D01*
X127016666Y-100969166D01*
X126816666Y-100335833D02*
X126816666Y-99902500D01*
X127083333Y-100135833D01*
X127083333Y-100035833D01*
X127116666Y-99969166D01*
X127150000Y-99935833D01*
X127216666Y-99902500D01*
X127383333Y-99902500D01*
X127450000Y-99935833D01*
X127483333Y-99969166D01*
X127516666Y-100035833D01*
X127516666Y-100235833D01*
X127483333Y-100302500D01*
X127450000Y-100335833D01*
X119083333Y-115150000D02*
X119050000Y-115183333D01*
X118950000Y-115216666D01*
X118883333Y-115216666D01*
X118783333Y-115183333D01*
X118716666Y-115116666D01*
X118683333Y-115050000D01*
X118650000Y-114916666D01*
X118650000Y-114816666D01*
X118683333Y-114683333D01*
X118716666Y-114616666D01*
X118783333Y-114550000D01*
X118883333Y-114516666D01*
X118950000Y-114516666D01*
X119050000Y-114550000D01*
X119083333Y-114583333D01*
X119350000Y-114583333D02*
X119383333Y-114550000D01*
X119450000Y-114516666D01*
X119616666Y-114516666D01*
X119683333Y-114550000D01*
X119716666Y-114583333D01*
X119750000Y-114650000D01*
X119750000Y-114716666D01*
X119716666Y-114816666D01*
X119316666Y-115216666D01*
X119750000Y-115216666D01*
X125516666Y-101235833D02*
X125183333Y-101469166D01*
X125516666Y-101635833D02*
X124816666Y-101635833D01*
X124816666Y-101369166D01*
X124850000Y-101302500D01*
X124883333Y-101269166D01*
X124950000Y-101235833D01*
X125050000Y-101235833D01*
X125116666Y-101269166D01*
X125150000Y-101302500D01*
X125183333Y-101369166D01*
X125183333Y-101635833D01*
X125516666Y-100569166D02*
X125516666Y-100969166D01*
X125516666Y-100769166D02*
X124816666Y-100769166D01*
X124916666Y-100835833D01*
X124983333Y-100902500D01*
X125016666Y-100969166D01*
X124816666Y-99935833D02*
X124816666Y-100269166D01*
X125150000Y-100302500D01*
X125116666Y-100269166D01*
X125083333Y-100202500D01*
X125083333Y-100035833D01*
X125116666Y-99969166D01*
X125150000Y-99935833D01*
X125216666Y-99902500D01*
X125383333Y-99902500D01*
X125450000Y-99935833D01*
X125483333Y-99969166D01*
X125516666Y-100035833D01*
X125516666Y-100202500D01*
X125483333Y-100269166D01*
X125450000Y-100302500D01*
X116583333Y-106016666D02*
X116350000Y-105683333D01*
X116183333Y-106016666D02*
X116183333Y-105316666D01*
X116450000Y-105316666D01*
X116516666Y-105350000D01*
X116550000Y-105383333D01*
X116583333Y-105450000D01*
X116583333Y-105550000D01*
X116550000Y-105616666D01*
X116516666Y-105650000D01*
X116450000Y-105683333D01*
X116183333Y-105683333D01*
X116816666Y-105316666D02*
X117283333Y-105316666D01*
X116983333Y-106016666D01*
X115300000Y-102235833D02*
X115333333Y-102269166D01*
X115366666Y-102369166D01*
X115366666Y-102435833D01*
X115333333Y-102535833D01*
X115266666Y-102602500D01*
X115200000Y-102635833D01*
X115066666Y-102669166D01*
X114966666Y-102669166D01*
X114833333Y-102635833D01*
X114766666Y-102602500D01*
X114700000Y-102535833D01*
X114666666Y-102435833D01*
X114666666Y-102369166D01*
X114700000Y-102269166D01*
X114733333Y-102235833D01*
X115366666Y-101569166D02*
X115366666Y-101969166D01*
X115366666Y-101769166D02*
X114666666Y-101769166D01*
X114766666Y-101835833D01*
X114833333Y-101902500D01*
X114866666Y-101969166D01*
X114733333Y-101302500D02*
X114700000Y-101269166D01*
X114666666Y-101202500D01*
X114666666Y-101035833D01*
X114700000Y-100969166D01*
X114733333Y-100935833D01*
X114800000Y-100902500D01*
X114866666Y-100902500D01*
X114966666Y-100935833D01*
X115366666Y-101335833D01*
X115366666Y-100902500D01*
X142652380Y-106266666D02*
X142176190Y-106600000D01*
X142652380Y-106838095D02*
X141652380Y-106838095D01*
X141652380Y-106457142D01*
X141700000Y-106361904D01*
X141747619Y-106314285D01*
X141842857Y-106266666D01*
X141985714Y-106266666D01*
X142080952Y-106314285D01*
X142128571Y-106361904D01*
X142176190Y-106457142D01*
X142176190Y-106838095D01*
X141985714Y-105409523D02*
X142652380Y-105409523D01*
X141604761Y-105647619D02*
X142319047Y-105885714D01*
X142319047Y-105266666D01*
X147150000Y-118050000D02*
X147183333Y-118083333D01*
X147216666Y-118183333D01*
X147216666Y-118250000D01*
X147183333Y-118350000D01*
X147116666Y-118416666D01*
X147050000Y-118450000D01*
X146916666Y-118483333D01*
X146816666Y-118483333D01*
X146683333Y-118450000D01*
X146616666Y-118416666D01*
X146550000Y-118350000D01*
X146516666Y-118250000D01*
X146516666Y-118183333D01*
X146550000Y-118083333D01*
X146583333Y-118050000D01*
X146583333Y-117783333D02*
X146550000Y-117750000D01*
X146516666Y-117683333D01*
X146516666Y-117516666D01*
X146550000Y-117450000D01*
X146583333Y-117416666D01*
X146650000Y-117383333D01*
X146716666Y-117383333D01*
X146816666Y-117416666D01*
X147216666Y-117816666D01*
X147216666Y-117383333D01*
X146516666Y-116783333D02*
X146516666Y-116916666D01*
X146550000Y-116983333D01*
X146583333Y-117016666D01*
X146683333Y-117083333D01*
X146816666Y-117116666D01*
X147083333Y-117116666D01*
X147150000Y-117083333D01*
X147183333Y-117050000D01*
X147216666Y-116983333D01*
X147216666Y-116850000D01*
X147183333Y-116783333D01*
X147150000Y-116750000D01*
X147083333Y-116716666D01*
X146916666Y-116716666D01*
X146850000Y-116750000D01*
X146816666Y-116783333D01*
X146783333Y-116850000D01*
X146783333Y-116983333D01*
X146816666Y-117050000D01*
X146850000Y-117083333D01*
X146916666Y-117116666D01*
X167957142Y-106542857D02*
X168004761Y-106590476D01*
X168052380Y-106733333D01*
X168052380Y-106828571D01*
X168004761Y-106971428D01*
X167909523Y-107066666D01*
X167814285Y-107114285D01*
X167623809Y-107161904D01*
X167480952Y-107161904D01*
X167290476Y-107114285D01*
X167195238Y-107066666D01*
X167100000Y-106971428D01*
X167052380Y-106828571D01*
X167052380Y-106733333D01*
X167100000Y-106590476D01*
X167147619Y-106542857D01*
X167052380Y-106209523D02*
X167052380Y-105590476D01*
X167433333Y-105923809D01*
X167433333Y-105780952D01*
X167480952Y-105685714D01*
X167528571Y-105638095D01*
X167623809Y-105590476D01*
X167861904Y-105590476D01*
X167957142Y-105638095D01*
X168004761Y-105685714D01*
X168052380Y-105780952D01*
X168052380Y-106066666D01*
X168004761Y-106161904D01*
X167957142Y-106209523D01*
X167052380Y-105257142D02*
X167052380Y-104638095D01*
X167433333Y-104971428D01*
X167433333Y-104828571D01*
X167480952Y-104733333D01*
X167528571Y-104685714D01*
X167623809Y-104638095D01*
X167861904Y-104638095D01*
X167957142Y-104685714D01*
X168004761Y-104733333D01*
X168052380Y-104828571D01*
X168052380Y-105114285D01*
X168004761Y-105209523D01*
X167957142Y-105257142D01*
X152250000Y-118050000D02*
X152283333Y-118083333D01*
X152316666Y-118183333D01*
X152316666Y-118250000D01*
X152283333Y-118350000D01*
X152216666Y-118416666D01*
X152150000Y-118450000D01*
X152016666Y-118483333D01*
X151916666Y-118483333D01*
X151783333Y-118450000D01*
X151716666Y-118416666D01*
X151650000Y-118350000D01*
X151616666Y-118250000D01*
X151616666Y-118183333D01*
X151650000Y-118083333D01*
X151683333Y-118050000D01*
X151683333Y-117783333D02*
X151650000Y-117750000D01*
X151616666Y-117683333D01*
X151616666Y-117516666D01*
X151650000Y-117450000D01*
X151683333Y-117416666D01*
X151750000Y-117383333D01*
X151816666Y-117383333D01*
X151916666Y-117416666D01*
X152316666Y-117816666D01*
X152316666Y-117383333D01*
X151916666Y-116983333D02*
X151883333Y-117050000D01*
X151850000Y-117083333D01*
X151783333Y-117116666D01*
X151750000Y-117116666D01*
X151683333Y-117083333D01*
X151650000Y-117050000D01*
X151616666Y-116983333D01*
X151616666Y-116850000D01*
X151650000Y-116783333D01*
X151683333Y-116750000D01*
X151750000Y-116716666D01*
X151783333Y-116716666D01*
X151850000Y-116750000D01*
X151883333Y-116783333D01*
X151916666Y-116850000D01*
X151916666Y-116983333D01*
X151950000Y-117050000D01*
X151983333Y-117083333D01*
X152050000Y-117116666D01*
X152183333Y-117116666D01*
X152250000Y-117083333D01*
X152283333Y-117050000D01*
X152316666Y-116983333D01*
X152316666Y-116850000D01*
X152283333Y-116783333D01*
X152250000Y-116750000D01*
X152183333Y-116716666D01*
X152050000Y-116716666D01*
X151983333Y-116750000D01*
X151950000Y-116783333D01*
X151916666Y-116850000D01*
X101373333Y-92702380D02*
X101040000Y-92226190D01*
X100801904Y-92702380D02*
X100801904Y-91702380D01*
X101182857Y-91702380D01*
X101278095Y-91750000D01*
X101325714Y-91797619D01*
X101373333Y-91892857D01*
X101373333Y-92035714D01*
X101325714Y-92130952D01*
X101278095Y-92178571D01*
X101182857Y-92226190D01*
X100801904Y-92226190D01*
X101754285Y-91797619D02*
X101801904Y-91750000D01*
X101897142Y-91702380D01*
X102135238Y-91702380D01*
X102230476Y-91750000D01*
X102278095Y-91797619D01*
X102325714Y-91892857D01*
X102325714Y-91988095D01*
X102278095Y-92130952D01*
X101706666Y-92702380D01*
X102325714Y-92702380D01*
X144116666Y-117366666D02*
X144516666Y-117366666D01*
X144316666Y-118066666D02*
X144316666Y-117366666D01*
X144750000Y-118066666D02*
X144750000Y-117366666D01*
X145016666Y-117366666D01*
X145083333Y-117400000D01*
X145116666Y-117433333D01*
X145150000Y-117500000D01*
X145150000Y-117600000D01*
X145116666Y-117666666D01*
X145083333Y-117700000D01*
X145016666Y-117733333D01*
X144750000Y-117733333D01*
X145816666Y-118066666D02*
X145416666Y-118066666D01*
X145616666Y-118066666D02*
X145616666Y-117366666D01*
X145550000Y-117466666D01*
X145483333Y-117533333D01*
X145416666Y-117566666D01*
X163957142Y-98752380D02*
X163623809Y-98276190D01*
X163385714Y-98752380D02*
X163385714Y-97752380D01*
X163766666Y-97752380D01*
X163861904Y-97800000D01*
X163909523Y-97847619D01*
X163957142Y-97942857D01*
X163957142Y-98085714D01*
X163909523Y-98180952D01*
X163861904Y-98228571D01*
X163766666Y-98276190D01*
X163385714Y-98276190D01*
X164338095Y-97847619D02*
X164385714Y-97800000D01*
X164480952Y-97752380D01*
X164719047Y-97752380D01*
X164814285Y-97800000D01*
X164861904Y-97847619D01*
X164909523Y-97942857D01*
X164909523Y-98038095D01*
X164861904Y-98180952D01*
X164290476Y-98752380D01*
X164909523Y-98752380D01*
X165766666Y-97752380D02*
X165576190Y-97752380D01*
X165480952Y-97800000D01*
X165433333Y-97847619D01*
X165338095Y-97990476D01*
X165290476Y-98180952D01*
X165290476Y-98561904D01*
X165338095Y-98657142D01*
X165385714Y-98704761D01*
X165480952Y-98752380D01*
X165671428Y-98752380D01*
X165766666Y-98704761D01*
X165814285Y-98657142D01*
X165861904Y-98561904D01*
X165861904Y-98323809D01*
X165814285Y-98228571D01*
X165766666Y-98180952D01*
X165671428Y-98133333D01*
X165480952Y-98133333D01*
X165385714Y-98180952D01*
X165338095Y-98228571D01*
X165290476Y-98323809D01*
X102532142Y-89452380D02*
X102198809Y-88976190D01*
X101960714Y-89452380D02*
X101960714Y-88452380D01*
X102341666Y-88452380D01*
X102436904Y-88500000D01*
X102484523Y-88547619D01*
X102532142Y-88642857D01*
X102532142Y-88785714D01*
X102484523Y-88880952D01*
X102436904Y-88928571D01*
X102341666Y-88976190D01*
X101960714Y-88976190D01*
X102913095Y-88547619D02*
X102960714Y-88500000D01*
X103055952Y-88452380D01*
X103294047Y-88452380D01*
X103389285Y-88500000D01*
X103436904Y-88547619D01*
X103484523Y-88642857D01*
X103484523Y-88738095D01*
X103436904Y-88880952D01*
X102865476Y-89452380D01*
X103484523Y-89452380D01*
X103817857Y-88452380D02*
X104436904Y-88452380D01*
X104103571Y-88833333D01*
X104246428Y-88833333D01*
X104341666Y-88880952D01*
X104389285Y-88928571D01*
X104436904Y-89023809D01*
X104436904Y-89261904D01*
X104389285Y-89357142D01*
X104341666Y-89404761D01*
X104246428Y-89452380D01*
X103960714Y-89452380D01*
X103865476Y-89404761D01*
X103817857Y-89357142D01*
X103902380Y-120083333D02*
X104616666Y-120083333D01*
X104759523Y-120130952D01*
X104854761Y-120226190D01*
X104902380Y-120369047D01*
X104902380Y-120464285D01*
X104902380Y-119607142D02*
X103902380Y-119607142D01*
X103902380Y-119226190D01*
X103950000Y-119130952D01*
X103997619Y-119083333D01*
X104092857Y-119035714D01*
X104235714Y-119035714D01*
X104330952Y-119083333D01*
X104378571Y-119130952D01*
X104426190Y-119226190D01*
X104426190Y-119607142D01*
X103997619Y-118654761D02*
X103950000Y-118607142D01*
X103902380Y-118511904D01*
X103902380Y-118273809D01*
X103950000Y-118178571D01*
X103997619Y-118130952D01*
X104092857Y-118083333D01*
X104188095Y-118083333D01*
X104330952Y-118130952D01*
X104902380Y-118702380D01*
X104902380Y-118083333D01*
X123300000Y-102235833D02*
X123333333Y-102269166D01*
X123366666Y-102369166D01*
X123366666Y-102435833D01*
X123333333Y-102535833D01*
X123266666Y-102602500D01*
X123200000Y-102635833D01*
X123066666Y-102669166D01*
X122966666Y-102669166D01*
X122833333Y-102635833D01*
X122766666Y-102602500D01*
X122700000Y-102535833D01*
X122666666Y-102435833D01*
X122666666Y-102369166D01*
X122700000Y-102269166D01*
X122733333Y-102235833D01*
X122733333Y-101969166D02*
X122700000Y-101935833D01*
X122666666Y-101869166D01*
X122666666Y-101702500D01*
X122700000Y-101635833D01*
X122733333Y-101602500D01*
X122800000Y-101569166D01*
X122866666Y-101569166D01*
X122966666Y-101602500D01*
X123366666Y-102002500D01*
X123366666Y-101569166D01*
X122900000Y-100969166D02*
X123366666Y-100969166D01*
X122633333Y-101135833D02*
X123133333Y-101302500D01*
X123133333Y-100869166D01*
X129757142Y-102822380D02*
X129423809Y-102346190D01*
X129185714Y-102822380D02*
X129185714Y-101822380D01*
X129566666Y-101822380D01*
X129661904Y-101870000D01*
X129709523Y-101917619D01*
X129757142Y-102012857D01*
X129757142Y-102155714D01*
X129709523Y-102250952D01*
X129661904Y-102298571D01*
X129566666Y-102346190D01*
X129185714Y-102346190D01*
X130709523Y-102822380D02*
X130138095Y-102822380D01*
X130423809Y-102822380D02*
X130423809Y-101822380D01*
X130328571Y-101965238D01*
X130233333Y-102060476D01*
X130138095Y-102108095D01*
X131328571Y-101822380D02*
X131423809Y-101822380D01*
X131519047Y-101870000D01*
X131566666Y-101917619D01*
X131614285Y-102012857D01*
X131661904Y-102203333D01*
X131661904Y-102441428D01*
X131614285Y-102631904D01*
X131566666Y-102727142D01*
X131519047Y-102774761D01*
X131423809Y-102822380D01*
X131328571Y-102822380D01*
X131233333Y-102774761D01*
X131185714Y-102727142D01*
X131138095Y-102631904D01*
X131090476Y-102441428D01*
X131090476Y-102203333D01*
X131138095Y-102012857D01*
X131185714Y-101917619D01*
X131233333Y-101870000D01*
X131328571Y-101822380D01*
X105333333Y-91607142D02*
X105285714Y-91654761D01*
X105142857Y-91702380D01*
X105047619Y-91702380D01*
X104904761Y-91654761D01*
X104809523Y-91559523D01*
X104761904Y-91464285D01*
X104714285Y-91273809D01*
X104714285Y-91130952D01*
X104761904Y-90940476D01*
X104809523Y-90845238D01*
X104904761Y-90750000D01*
X105047619Y-90702380D01*
X105142857Y-90702380D01*
X105285714Y-90750000D01*
X105333333Y-90797619D01*
X106285714Y-91702380D02*
X105714285Y-91702380D01*
X106000000Y-91702380D02*
X106000000Y-90702380D01*
X105904761Y-90845238D01*
X105809523Y-90940476D01*
X105714285Y-90988095D01*
X116300000Y-102235833D02*
X116333333Y-102269166D01*
X116366666Y-102369166D01*
X116366666Y-102435833D01*
X116333333Y-102535833D01*
X116266666Y-102602500D01*
X116200000Y-102635833D01*
X116066666Y-102669166D01*
X115966666Y-102669166D01*
X115833333Y-102635833D01*
X115766666Y-102602500D01*
X115700000Y-102535833D01*
X115666666Y-102435833D01*
X115666666Y-102369166D01*
X115700000Y-102269166D01*
X115733333Y-102235833D01*
X116366666Y-101569166D02*
X116366666Y-101969166D01*
X116366666Y-101769166D02*
X115666666Y-101769166D01*
X115766666Y-101835833D01*
X115833333Y-101902500D01*
X115866666Y-101969166D01*
X115900000Y-100969166D02*
X116366666Y-100969166D01*
X115633333Y-101135833D02*
X116133333Y-101302500D01*
X116133333Y-100869166D01*
X95357142Y-116652380D02*
X95023809Y-116176190D01*
X94785714Y-116652380D02*
X94785714Y-115652380D01*
X95166666Y-115652380D01*
X95261904Y-115700000D01*
X95309523Y-115747619D01*
X95357142Y-115842857D01*
X95357142Y-115985714D01*
X95309523Y-116080952D01*
X95261904Y-116128571D01*
X95166666Y-116176190D01*
X94785714Y-116176190D01*
X95690476Y-115652380D02*
X96309523Y-115652380D01*
X95976190Y-116033333D01*
X96119047Y-116033333D01*
X96214285Y-116080952D01*
X96261904Y-116128571D01*
X96309523Y-116223809D01*
X96309523Y-116461904D01*
X96261904Y-116557142D01*
X96214285Y-116604761D01*
X96119047Y-116652380D01*
X95833333Y-116652380D01*
X95738095Y-116604761D01*
X95690476Y-116557142D01*
X96928571Y-115652380D02*
X97023809Y-115652380D01*
X97119047Y-115700000D01*
X97166666Y-115747619D01*
X97214285Y-115842857D01*
X97261904Y-116033333D01*
X97261904Y-116271428D01*
X97214285Y-116461904D01*
X97166666Y-116557142D01*
X97119047Y-116604761D01*
X97023809Y-116652380D01*
X96928571Y-116652380D01*
X96833333Y-116604761D01*
X96785714Y-116557142D01*
X96738095Y-116461904D01*
X96690476Y-116271428D01*
X96690476Y-116033333D01*
X96738095Y-115842857D01*
X96785714Y-115747619D01*
X96833333Y-115700000D01*
X96928571Y-115652380D01*
X103407142Y-87952380D02*
X103073809Y-87476190D01*
X102835714Y-87952380D02*
X102835714Y-86952380D01*
X103216666Y-86952380D01*
X103311904Y-87000000D01*
X103359523Y-87047619D01*
X103407142Y-87142857D01*
X103407142Y-87285714D01*
X103359523Y-87380952D01*
X103311904Y-87428571D01*
X103216666Y-87476190D01*
X102835714Y-87476190D01*
X103788095Y-87047619D02*
X103835714Y-87000000D01*
X103930952Y-86952380D01*
X104169047Y-86952380D01*
X104264285Y-87000000D01*
X104311904Y-87047619D01*
X104359523Y-87142857D01*
X104359523Y-87238095D01*
X104311904Y-87380952D01*
X103740476Y-87952380D01*
X104359523Y-87952380D01*
X105311904Y-87952380D02*
X104740476Y-87952380D01*
X105026190Y-87952380D02*
X105026190Y-86952380D01*
X104930952Y-87095238D01*
X104835714Y-87190476D01*
X104740476Y-87238095D01*
X146138095Y-86052380D02*
X146138095Y-86861904D01*
X146185714Y-86957142D01*
X146233333Y-87004761D01*
X146328571Y-87052380D01*
X146519047Y-87052380D01*
X146614285Y-87004761D01*
X146661904Y-86957142D01*
X146709523Y-86861904D01*
X146709523Y-86052380D01*
X147614285Y-86385714D02*
X147614285Y-87052380D01*
X147376190Y-86004761D02*
X147138095Y-86719047D01*
X147757142Y-86719047D01*
X104904761Y-96202380D02*
X104904761Y-96916666D01*
X104857142Y-97059523D01*
X104761904Y-97154761D01*
X104619047Y-97202380D01*
X104523809Y-97202380D01*
X105380952Y-97202380D02*
X105380952Y-96202380D01*
X106047619Y-96202380D02*
X106238095Y-96202380D01*
X106333333Y-96250000D01*
X106428571Y-96345238D01*
X106476190Y-96535714D01*
X106476190Y-96869047D01*
X106428571Y-97059523D01*
X106333333Y-97154761D01*
X106238095Y-97202380D01*
X106047619Y-97202380D01*
X105952380Y-97154761D01*
X105857142Y-97059523D01*
X105809523Y-96869047D01*
X105809523Y-96535714D01*
X105857142Y-96345238D01*
X105952380Y-96250000D01*
X106047619Y-96202380D01*
X106857142Y-96297619D02*
X106904761Y-96250000D01*
X107000000Y-96202380D01*
X107238095Y-96202380D01*
X107333333Y-96250000D01*
X107380952Y-96297619D01*
X107428571Y-96392857D01*
X107428571Y-96488095D01*
X107380952Y-96630952D01*
X106809523Y-97202380D01*
X107428571Y-97202380D01*
D12*
X97568203Y-102450584D02*
X97568203Y-102816299D01*
X97568203Y-102633441D02*
X96928203Y-102633441D01*
X97019632Y-102694394D01*
X97080584Y-102755346D01*
X97111060Y-102816299D01*
X96928203Y-102237251D02*
X96928203Y-101841060D01*
X97172013Y-102054394D01*
X97172013Y-101962965D01*
X97202489Y-101902013D01*
X97232965Y-101871537D01*
X97293918Y-101841060D01*
X97446299Y-101841060D01*
X97507251Y-101871537D01*
X97537727Y-101902013D01*
X97568203Y-101962965D01*
X97568203Y-102145822D01*
X97537727Y-102206775D01*
X97507251Y-102237251D01*
X95768203Y-110250584D02*
X95768203Y-110616299D01*
X95768203Y-110433441D02*
X95128203Y-110433441D01*
X95219632Y-110494394D01*
X95280584Y-110555346D01*
X95311060Y-110616299D01*
X95189156Y-110006775D02*
X95158680Y-109976299D01*
X95128203Y-109915346D01*
X95128203Y-109762965D01*
X95158680Y-109702013D01*
X95189156Y-109671537D01*
X95250108Y-109641060D01*
X95311060Y-109641060D01*
X95402489Y-109671537D01*
X95768203Y-110037251D01*
X95768203Y-109641060D01*
X106468203Y-99890584D02*
X106468203Y-99768680D01*
X106437727Y-99707727D01*
X106407251Y-99677251D01*
X106315822Y-99616299D01*
X106193918Y-99585822D01*
X105950108Y-99585822D01*
X105889156Y-99616299D01*
X105858680Y-99646775D01*
X105828203Y-99707727D01*
X105828203Y-99829632D01*
X105858680Y-99890584D01*
X105889156Y-99921060D01*
X105950108Y-99951537D01*
X106102489Y-99951537D01*
X106163441Y-99921060D01*
X106193918Y-99890584D01*
X106224394Y-99829632D01*
X106224394Y-99707727D01*
X106193918Y-99646775D01*
X106163441Y-99616299D01*
X106102489Y-99585822D01*
X109489523Y-98721904D02*
X109489523Y-99087619D01*
X109489523Y-98904761D02*
X108849523Y-98904761D01*
X108940952Y-98965714D01*
X109001904Y-99026666D01*
X109032380Y-99087619D01*
X108849523Y-98325714D02*
X108849523Y-98264761D01*
X108880000Y-98203809D01*
X108910476Y-98173333D01*
X108971428Y-98142857D01*
X109093333Y-98112380D01*
X109245714Y-98112380D01*
X109367619Y-98142857D01*
X109428571Y-98173333D01*
X109459047Y-98203809D01*
X109489523Y-98264761D01*
X109489523Y-98325714D01*
X109459047Y-98386666D01*
X109428571Y-98417142D01*
X109367619Y-98447619D01*
X109245714Y-98478095D01*
X109093333Y-98478095D01*
X108971428Y-98447619D01*
X108910476Y-98417142D01*
X108880000Y-98386666D01*
X108849523Y-98325714D01*
X95768203Y-102450584D02*
X95768203Y-102816299D01*
X95768203Y-102633441D02*
X95128203Y-102633441D01*
X95219632Y-102694394D01*
X95280584Y-102755346D01*
X95311060Y-102816299D01*
X95341537Y-101902013D02*
X95768203Y-101902013D01*
X95097727Y-102054394D02*
X95554870Y-102206775D01*
X95554870Y-101810584D01*
X97668203Y-110150584D02*
X97668203Y-110516299D01*
X97668203Y-110333441D02*
X97028203Y-110333441D01*
X97119632Y-110394394D01*
X97180584Y-110455346D01*
X97211060Y-110516299D01*
X97668203Y-109541060D02*
X97668203Y-109906775D01*
X97668203Y-109723918D02*
X97028203Y-109723918D01*
X97119632Y-109784870D01*
X97180584Y-109845822D01*
X97211060Y-109906775D01*
X108789156Y-112311537D02*
X108758680Y-112281060D01*
X108728203Y-112220108D01*
X108728203Y-112067727D01*
X108758680Y-112006775D01*
X108789156Y-111976299D01*
X108850108Y-111945822D01*
X108911060Y-111945822D01*
X109002489Y-111976299D01*
X109368203Y-112342013D01*
X109368203Y-111945822D01*
X106568203Y-112985822D02*
X106568203Y-113351537D01*
X106568203Y-113168680D02*
X105928203Y-113168680D01*
X106019632Y-113229632D01*
X106080584Y-113290584D01*
X106111060Y-113351537D01*
D10*
X138283333Y-113916666D02*
X138050000Y-113583333D01*
X137883333Y-113916666D02*
X137883333Y-113216666D01*
X138150000Y-113216666D01*
X138216666Y-113250000D01*
X138250000Y-113283333D01*
X138283333Y-113350000D01*
X138283333Y-113450000D01*
X138250000Y-113516666D01*
X138216666Y-113550000D01*
X138150000Y-113583333D01*
X137883333Y-113583333D01*
X138616666Y-113916666D02*
X138750000Y-113916666D01*
X138816666Y-113883333D01*
X138850000Y-113850000D01*
X138916666Y-113750000D01*
X138950000Y-113616666D01*
X138950000Y-113350000D01*
X138916666Y-113283333D01*
X138883333Y-113250000D01*
X138816666Y-113216666D01*
X138683333Y-113216666D01*
X138616666Y-113250000D01*
X138583333Y-113283333D01*
X138550000Y-113350000D01*
X138550000Y-113516666D01*
X138583333Y-113583333D01*
X138616666Y-113616666D01*
X138683333Y-113650000D01*
X138816666Y-113650000D01*
X138883333Y-113616666D01*
X138916666Y-113583333D01*
X138950000Y-113516666D01*
X122350000Y-118330000D02*
X122316666Y-118363333D01*
X122216666Y-118396666D01*
X122150000Y-118396666D01*
X122050000Y-118363333D01*
X121983333Y-118296666D01*
X121950000Y-118230000D01*
X121916666Y-118096666D01*
X121916666Y-117996666D01*
X121950000Y-117863333D01*
X121983333Y-117796666D01*
X122050000Y-117730000D01*
X122150000Y-117696666D01*
X122216666Y-117696666D01*
X122316666Y-117730000D01*
X122350000Y-117763333D01*
X123016666Y-118396666D02*
X122616666Y-118396666D01*
X122816666Y-118396666D02*
X122816666Y-117696666D01*
X122750000Y-117796666D01*
X122683333Y-117863333D01*
X122616666Y-117896666D01*
X123616666Y-117696666D02*
X123483333Y-117696666D01*
X123416666Y-117730000D01*
X123383333Y-117763333D01*
X123316666Y-117863333D01*
X123283333Y-117996666D01*
X123283333Y-118263333D01*
X123316666Y-118330000D01*
X123350000Y-118363333D01*
X123416666Y-118396666D01*
X123550000Y-118396666D01*
X123616666Y-118363333D01*
X123650000Y-118330000D01*
X123683333Y-118263333D01*
X123683333Y-118096666D01*
X123650000Y-118030000D01*
X123616666Y-117996666D01*
X123550000Y-117963333D01*
X123416666Y-117963333D01*
X123350000Y-117996666D01*
X123316666Y-118030000D01*
X123283333Y-118096666D01*
X143850000Y-99650000D02*
X143883333Y-99683333D01*
X143916666Y-99783333D01*
X143916666Y-99850000D01*
X143883333Y-99950000D01*
X143816666Y-100016666D01*
X143750000Y-100050000D01*
X143616666Y-100083333D01*
X143516666Y-100083333D01*
X143383333Y-100050000D01*
X143316666Y-100016666D01*
X143250000Y-99950000D01*
X143216666Y-99850000D01*
X143216666Y-99783333D01*
X143250000Y-99683333D01*
X143283333Y-99650000D01*
X143216666Y-99416666D02*
X143216666Y-98983333D01*
X143483333Y-99216666D01*
X143483333Y-99116666D01*
X143516666Y-99050000D01*
X143550000Y-99016666D01*
X143616666Y-98983333D01*
X143783333Y-98983333D01*
X143850000Y-99016666D01*
X143883333Y-99050000D01*
X143916666Y-99116666D01*
X143916666Y-99316666D01*
X143883333Y-99383333D01*
X143850000Y-99416666D01*
X143216666Y-98550000D02*
X143216666Y-98483333D01*
X143250000Y-98416666D01*
X143283333Y-98383333D01*
X143350000Y-98350000D01*
X143483333Y-98316666D01*
X143650000Y-98316666D01*
X143783333Y-98350000D01*
X143850000Y-98383333D01*
X143883333Y-98416666D01*
X143916666Y-98483333D01*
X143916666Y-98550000D01*
X143883333Y-98616666D01*
X143850000Y-98650000D01*
X143783333Y-98683333D01*
X143650000Y-98716666D01*
X143483333Y-98716666D01*
X143350000Y-98683333D01*
X143283333Y-98650000D01*
X143250000Y-98616666D01*
X143216666Y-98550000D01*
X113250000Y-118716666D02*
X113016666Y-118383333D01*
X112850000Y-118716666D02*
X112850000Y-118016666D01*
X113116666Y-118016666D01*
X113183333Y-118050000D01*
X113216666Y-118083333D01*
X113250000Y-118150000D01*
X113250000Y-118250000D01*
X113216666Y-118316666D01*
X113183333Y-118350000D01*
X113116666Y-118383333D01*
X112850000Y-118383333D01*
X113516666Y-118083333D02*
X113550000Y-118050000D01*
X113616666Y-118016666D01*
X113783333Y-118016666D01*
X113850000Y-118050000D01*
X113883333Y-118083333D01*
X113916666Y-118150000D01*
X113916666Y-118216666D01*
X113883333Y-118316666D01*
X113483333Y-118716666D01*
X113916666Y-118716666D01*
X114150000Y-118016666D02*
X114616666Y-118016666D01*
X114316666Y-118716666D01*
X138283333Y-112550000D02*
X138250000Y-112583333D01*
X138150000Y-112616666D01*
X138083333Y-112616666D01*
X137983333Y-112583333D01*
X137916666Y-112516666D01*
X137883333Y-112450000D01*
X137850000Y-112316666D01*
X137850000Y-112216666D01*
X137883333Y-112083333D01*
X137916666Y-112016666D01*
X137983333Y-111950000D01*
X138083333Y-111916666D01*
X138150000Y-111916666D01*
X138250000Y-111950000D01*
X138283333Y-111983333D01*
X138683333Y-112216666D02*
X138616666Y-112183333D01*
X138583333Y-112150000D01*
X138550000Y-112083333D01*
X138550000Y-112050000D01*
X138583333Y-111983333D01*
X138616666Y-111950000D01*
X138683333Y-111916666D01*
X138816666Y-111916666D01*
X138883333Y-111950000D01*
X138916666Y-111983333D01*
X138950000Y-112050000D01*
X138950000Y-112083333D01*
X138916666Y-112150000D01*
X138883333Y-112183333D01*
X138816666Y-112216666D01*
X138683333Y-112216666D01*
X138616666Y-112250000D01*
X138583333Y-112283333D01*
X138550000Y-112350000D01*
X138550000Y-112483333D01*
X138583333Y-112550000D01*
X138616666Y-112583333D01*
X138683333Y-112616666D01*
X138816666Y-112616666D01*
X138883333Y-112583333D01*
X138916666Y-112550000D01*
X138950000Y-112483333D01*
X138950000Y-112350000D01*
X138916666Y-112283333D01*
X138883333Y-112250000D01*
X138816666Y-112216666D01*
X138283333Y-114950000D02*
X138250000Y-114983333D01*
X138150000Y-115016666D01*
X138083333Y-115016666D01*
X137983333Y-114983333D01*
X137916666Y-114916666D01*
X137883333Y-114850000D01*
X137850000Y-114716666D01*
X137850000Y-114616666D01*
X137883333Y-114483333D01*
X137916666Y-114416666D01*
X137983333Y-114350000D01*
X138083333Y-114316666D01*
X138150000Y-114316666D01*
X138250000Y-114350000D01*
X138283333Y-114383333D01*
X138516666Y-114316666D02*
X138983333Y-114316666D01*
X138683333Y-115016666D01*
X115633333Y-111450000D02*
X115600000Y-111483333D01*
X115500000Y-111516666D01*
X115433333Y-111516666D01*
X115333333Y-111483333D01*
X115266666Y-111416666D01*
X115233333Y-111350000D01*
X115200000Y-111216666D01*
X115200000Y-111116666D01*
X115233333Y-110983333D01*
X115266666Y-110916666D01*
X115333333Y-110850000D01*
X115433333Y-110816666D01*
X115500000Y-110816666D01*
X115600000Y-110850000D01*
X115633333Y-110883333D01*
X116233333Y-110816666D02*
X116100000Y-110816666D01*
X116033333Y-110850000D01*
X116000000Y-110883333D01*
X115933333Y-110983333D01*
X115900000Y-111116666D01*
X115900000Y-111383333D01*
X115933333Y-111450000D01*
X115966666Y-111483333D01*
X116033333Y-111516666D01*
X116166666Y-111516666D01*
X116233333Y-111483333D01*
X116266666Y-111450000D01*
X116300000Y-111383333D01*
X116300000Y-111216666D01*
X116266666Y-111150000D01*
X116233333Y-111116666D01*
X116166666Y-111083333D01*
X116033333Y-111083333D01*
X115966666Y-111116666D01*
X115933333Y-111150000D01*
X115900000Y-111216666D01*
X142850000Y-99650000D02*
X142883333Y-99683333D01*
X142916666Y-99783333D01*
X142916666Y-99850000D01*
X142883333Y-99950000D01*
X142816666Y-100016666D01*
X142750000Y-100050000D01*
X142616666Y-100083333D01*
X142516666Y-100083333D01*
X142383333Y-100050000D01*
X142316666Y-100016666D01*
X142250000Y-99950000D01*
X142216666Y-99850000D01*
X142216666Y-99783333D01*
X142250000Y-99683333D01*
X142283333Y-99650000D01*
X142283333Y-99383333D02*
X142250000Y-99350000D01*
X142216666Y-99283333D01*
X142216666Y-99116666D01*
X142250000Y-99050000D01*
X142283333Y-99016666D01*
X142350000Y-98983333D01*
X142416666Y-98983333D01*
X142516666Y-99016666D01*
X142916666Y-99416666D01*
X142916666Y-98983333D01*
X142916666Y-98650000D02*
X142916666Y-98516666D01*
X142883333Y-98450000D01*
X142850000Y-98416666D01*
X142750000Y-98350000D01*
X142616666Y-98316666D01*
X142350000Y-98316666D01*
X142283333Y-98350000D01*
X142250000Y-98383333D01*
X142216666Y-98450000D01*
X142216666Y-98583333D01*
X142250000Y-98650000D01*
X142283333Y-98683333D01*
X142350000Y-98716666D01*
X142516666Y-98716666D01*
X142583333Y-98683333D01*
X142616666Y-98650000D01*
X142650000Y-98583333D01*
X142650000Y-98450000D01*
X142616666Y-98383333D01*
X142583333Y-98350000D01*
X142516666Y-98316666D01*
X127750000Y-119250000D02*
X127783333Y-119283333D01*
X127816666Y-119383333D01*
X127816666Y-119450000D01*
X127783333Y-119550000D01*
X127716666Y-119616666D01*
X127650000Y-119650000D01*
X127516666Y-119683333D01*
X127416666Y-119683333D01*
X127283333Y-119650000D01*
X127216666Y-119616666D01*
X127150000Y-119550000D01*
X127116666Y-119450000D01*
X127116666Y-119383333D01*
X127150000Y-119283333D01*
X127183333Y-119250000D01*
X127816666Y-118583333D02*
X127816666Y-118983333D01*
X127816666Y-118783333D02*
X127116666Y-118783333D01*
X127216666Y-118850000D01*
X127283333Y-118916666D01*
X127316666Y-118983333D01*
X127116666Y-118350000D02*
X127116666Y-117916666D01*
X127383333Y-118150000D01*
X127383333Y-118050000D01*
X127416666Y-117983333D01*
X127450000Y-117950000D01*
X127516666Y-117916666D01*
X127683333Y-117916666D01*
X127750000Y-117950000D01*
X127783333Y-117983333D01*
X127816666Y-118050000D01*
X127816666Y-118250000D01*
X127783333Y-118316666D01*
X127750000Y-118350000D01*
X118300000Y-102235833D02*
X118333333Y-102269166D01*
X118366666Y-102369166D01*
X118366666Y-102435833D01*
X118333333Y-102535833D01*
X118266666Y-102602500D01*
X118200000Y-102635833D01*
X118066666Y-102669166D01*
X117966666Y-102669166D01*
X117833333Y-102635833D01*
X117766666Y-102602500D01*
X117700000Y-102535833D01*
X117666666Y-102435833D01*
X117666666Y-102369166D01*
X117700000Y-102269166D01*
X117733333Y-102235833D01*
X118366666Y-101569166D02*
X118366666Y-101969166D01*
X118366666Y-101769166D02*
X117666666Y-101769166D01*
X117766666Y-101835833D01*
X117833333Y-101902500D01*
X117866666Y-101969166D01*
X117666666Y-101335833D02*
X117666666Y-100869166D01*
X118366666Y-101169166D01*
X121300000Y-102235833D02*
X121333333Y-102269166D01*
X121366666Y-102369166D01*
X121366666Y-102435833D01*
X121333333Y-102535833D01*
X121266666Y-102602500D01*
X121200000Y-102635833D01*
X121066666Y-102669166D01*
X120966666Y-102669166D01*
X120833333Y-102635833D01*
X120766666Y-102602500D01*
X120700000Y-102535833D01*
X120666666Y-102435833D01*
X120666666Y-102369166D01*
X120700000Y-102269166D01*
X120733333Y-102235833D01*
X120733333Y-101969166D02*
X120700000Y-101935833D01*
X120666666Y-101869166D01*
X120666666Y-101702500D01*
X120700000Y-101635833D01*
X120733333Y-101602500D01*
X120800000Y-101569166D01*
X120866666Y-101569166D01*
X120966666Y-101602500D01*
X121366666Y-102002500D01*
X121366666Y-101569166D01*
X120733333Y-101302500D02*
X120700000Y-101269166D01*
X120666666Y-101202500D01*
X120666666Y-101035833D01*
X120700000Y-100969166D01*
X120733333Y-100935833D01*
X120800000Y-100902500D01*
X120866666Y-100902500D01*
X120966666Y-100935833D01*
X121366666Y-101335833D01*
X121366666Y-100902500D01*
X164057142Y-112752380D02*
X163723809Y-112276190D01*
X163485714Y-112752380D02*
X163485714Y-111752380D01*
X163866666Y-111752380D01*
X163961904Y-111800000D01*
X164009523Y-111847619D01*
X164057142Y-111942857D01*
X164057142Y-112085714D01*
X164009523Y-112180952D01*
X163961904Y-112228571D01*
X163866666Y-112276190D01*
X163485714Y-112276190D01*
X165009523Y-112752380D02*
X164438095Y-112752380D01*
X164723809Y-112752380D02*
X164723809Y-111752380D01*
X164628571Y-111895238D01*
X164533333Y-111990476D01*
X164438095Y-112038095D01*
X165485714Y-112752380D02*
X165676190Y-112752380D01*
X165771428Y-112704761D01*
X165819047Y-112657142D01*
X165914285Y-112514285D01*
X165961904Y-112323809D01*
X165961904Y-111942857D01*
X165914285Y-111847619D01*
X165866666Y-111800000D01*
X165771428Y-111752380D01*
X165580952Y-111752380D01*
X165485714Y-111800000D01*
X165438095Y-111847619D01*
X165390476Y-111942857D01*
X165390476Y-112180952D01*
X165438095Y-112276190D01*
X165485714Y-112323809D01*
X165580952Y-112371428D01*
X165771428Y-112371428D01*
X165866666Y-112323809D01*
X165914285Y-112276190D01*
X165961904Y-112180952D01*
X98257142Y-116552380D02*
X97923809Y-116076190D01*
X97685714Y-116552380D02*
X97685714Y-115552380D01*
X98066666Y-115552380D01*
X98161904Y-115600000D01*
X98209523Y-115647619D01*
X98257142Y-115742857D01*
X98257142Y-115885714D01*
X98209523Y-115980952D01*
X98161904Y-116028571D01*
X98066666Y-116076190D01*
X97685714Y-116076190D01*
X98590476Y-115552380D02*
X99209523Y-115552380D01*
X98876190Y-115933333D01*
X99019047Y-115933333D01*
X99114285Y-115980952D01*
X99161904Y-116028571D01*
X99209523Y-116123809D01*
X99209523Y-116361904D01*
X99161904Y-116457142D01*
X99114285Y-116504761D01*
X99019047Y-116552380D01*
X98733333Y-116552380D01*
X98638095Y-116504761D01*
X98590476Y-116457142D01*
X100161904Y-116552380D02*
X99590476Y-116552380D01*
X99876190Y-116552380D02*
X99876190Y-115552380D01*
X99780952Y-115695238D01*
X99685714Y-115790476D01*
X99590476Y-115838095D01*
X111283333Y-112250000D02*
X111250000Y-112283333D01*
X111150000Y-112316666D01*
X111083333Y-112316666D01*
X110983333Y-112283333D01*
X110916666Y-112216666D01*
X110883333Y-112150000D01*
X110850000Y-112016666D01*
X110850000Y-111916666D01*
X110883333Y-111783333D01*
X110916666Y-111716666D01*
X110983333Y-111650000D01*
X111083333Y-111616666D01*
X111150000Y-111616666D01*
X111250000Y-111650000D01*
X111283333Y-111683333D01*
X111916666Y-111616666D02*
X111583333Y-111616666D01*
X111550000Y-111950000D01*
X111583333Y-111916666D01*
X111650000Y-111883333D01*
X111816666Y-111883333D01*
X111883333Y-111916666D01*
X111916666Y-111950000D01*
X111950000Y-112016666D01*
X111950000Y-112183333D01*
X111916666Y-112250000D01*
X111883333Y-112283333D01*
X111816666Y-112316666D01*
X111650000Y-112316666D01*
X111583333Y-112283333D01*
X111550000Y-112250000D01*
X135952380Y-106166666D02*
X135476190Y-106500000D01*
X135952380Y-106738095D02*
X134952380Y-106738095D01*
X134952380Y-106357142D01*
X135000000Y-106261904D01*
X135047619Y-106214285D01*
X135142857Y-106166666D01*
X135285714Y-106166666D01*
X135380952Y-106214285D01*
X135428571Y-106261904D01*
X135476190Y-106357142D01*
X135476190Y-106738095D01*
X134952380Y-105261904D02*
X134952380Y-105738095D01*
X135428571Y-105785714D01*
X135380952Y-105738095D01*
X135333333Y-105642857D01*
X135333333Y-105404761D01*
X135380952Y-105309523D01*
X135428571Y-105261904D01*
X135523809Y-105214285D01*
X135761904Y-105214285D01*
X135857142Y-105261904D01*
X135904761Y-105309523D01*
X135952380Y-105404761D01*
X135952380Y-105642857D01*
X135904761Y-105738095D01*
X135857142Y-105785714D01*
X122300000Y-102235833D02*
X122333333Y-102269166D01*
X122366666Y-102369166D01*
X122366666Y-102435833D01*
X122333333Y-102535833D01*
X122266666Y-102602500D01*
X122200000Y-102635833D01*
X122066666Y-102669166D01*
X121966666Y-102669166D01*
X121833333Y-102635833D01*
X121766666Y-102602500D01*
X121700000Y-102535833D01*
X121666666Y-102435833D01*
X121666666Y-102369166D01*
X121700000Y-102269166D01*
X121733333Y-102235833D01*
X121733333Y-101969166D02*
X121700000Y-101935833D01*
X121666666Y-101869166D01*
X121666666Y-101702500D01*
X121700000Y-101635833D01*
X121733333Y-101602500D01*
X121800000Y-101569166D01*
X121866666Y-101569166D01*
X121966666Y-101602500D01*
X122366666Y-102002500D01*
X122366666Y-101569166D01*
X121666666Y-101335833D02*
X121666666Y-100902500D01*
X121933333Y-101135833D01*
X121933333Y-101035833D01*
X121966666Y-100969166D01*
X122000000Y-100935833D01*
X122066666Y-100902500D01*
X122233333Y-100902500D01*
X122300000Y-100935833D01*
X122333333Y-100969166D01*
X122366666Y-101035833D01*
X122366666Y-101235833D01*
X122333333Y-101302500D01*
X122300000Y-101335833D01*
X134376666Y-95492380D02*
X134376666Y-96206666D01*
X134329047Y-96349523D01*
X134233809Y-96444761D01*
X134090952Y-96492380D01*
X133995714Y-96492380D01*
X134805238Y-95587619D02*
X134852857Y-95540000D01*
X134948095Y-95492380D01*
X135186190Y-95492380D01*
X135281428Y-95540000D01*
X135329047Y-95587619D01*
X135376666Y-95682857D01*
X135376666Y-95778095D01*
X135329047Y-95920952D01*
X134757619Y-96492380D01*
X135376666Y-96492380D01*
X153157142Y-95052380D02*
X152823809Y-94576190D01*
X152585714Y-95052380D02*
X152585714Y-94052380D01*
X152966666Y-94052380D01*
X153061904Y-94100000D01*
X153109523Y-94147619D01*
X153157142Y-94242857D01*
X153157142Y-94385714D01*
X153109523Y-94480952D01*
X153061904Y-94528571D01*
X152966666Y-94576190D01*
X152585714Y-94576190D01*
X153538095Y-94147619D02*
X153585714Y-94100000D01*
X153680952Y-94052380D01*
X153919047Y-94052380D01*
X154014285Y-94100000D01*
X154061904Y-94147619D01*
X154109523Y-94242857D01*
X154109523Y-94338095D01*
X154061904Y-94480952D01*
X153490476Y-95052380D01*
X154109523Y-95052380D01*
X155014285Y-94052380D02*
X154538095Y-94052380D01*
X154490476Y-94528571D01*
X154538095Y-94480952D01*
X154633333Y-94433333D01*
X154871428Y-94433333D01*
X154966666Y-94480952D01*
X155014285Y-94528571D01*
X155061904Y-94623809D01*
X155061904Y-94861904D01*
X155014285Y-94957142D01*
X154966666Y-95004761D01*
X154871428Y-95052380D01*
X154633333Y-95052380D01*
X154538095Y-95004761D01*
X154490476Y-94957142D01*
D13*
X159100000Y-117100000D02*
X159100000Y-111350000D01*
X155500000Y-111350000D02*
X155500000Y-117100000D01*
X159100000Y-111350000D02*
X155500000Y-111350000D01*
X145580000Y-104690000D02*
X145580000Y-104240000D01*
X145580000Y-104240000D02*
X146030000Y-104240000D01*
X152800000Y-104690000D02*
X152800000Y-104240000D01*
X152800000Y-111460000D02*
X152350000Y-111460000D01*
X145580000Y-111460000D02*
X146030000Y-111460000D01*
X146030000Y-111460000D02*
X146030000Y-112750000D01*
X145580000Y-111010000D02*
X145580000Y-111460000D01*
X152800000Y-111010000D02*
X152800000Y-111460000D01*
X152800000Y-104240000D02*
X152350000Y-104240000D01*
X144240000Y-101327836D02*
X144240000Y-101112164D01*
X144960000Y-101327836D02*
X144960000Y-101112164D01*
X124580000Y-103053641D02*
X124580000Y-102746359D01*
X123820000Y-103053641D02*
X123820000Y-102746359D01*
X95515000Y-120735000D02*
X96985000Y-120735000D01*
X95515000Y-118450000D02*
X95515000Y-120735000D01*
X96985000Y-120735000D02*
X96985000Y-118450000D01*
X126040000Y-116672164D02*
X126040000Y-116887836D01*
X126760000Y-116672164D02*
X126760000Y-116887836D01*
X117410000Y-103927836D02*
X117410000Y-103712164D01*
X116690000Y-103927836D02*
X116690000Y-103712164D01*
X125820000Y-103053641D02*
X125820000Y-102746359D01*
X126580000Y-103053641D02*
X126580000Y-102746359D01*
X111592164Y-112540000D02*
X111807836Y-112540000D01*
X111592164Y-113260000D02*
X111807836Y-113260000D01*
X169715000Y-86140000D02*
X167215000Y-86140000D01*
X167215000Y-91310000D02*
X166225000Y-91310000D01*
X167215000Y-86140000D02*
X167215000Y-87190000D01*
X167215000Y-92360000D02*
X167215000Y-91310000D01*
X171685000Y-91190000D02*
X171685000Y-87310000D01*
X169715000Y-92360000D02*
X167215000Y-92360000D01*
X101500000Y-119950000D02*
X101500000Y-118550000D01*
X102800000Y-120650000D02*
X102200000Y-120650000D01*
X102200000Y-117850000D02*
X102800000Y-117850000D01*
X103500000Y-118550000D02*
X103500000Y-119950000D01*
X101500000Y-118550000D02*
G75*
G02*
X102200000Y-117850000I700000J0D01*
G01*
X102800000Y-117850000D02*
G75*
G02*
X103500000Y-118550000I0J-700000D01*
G01*
X103500000Y-119950000D02*
G75*
G02*
X102800000Y-120650000I-700000J0D01*
G01*
X102200000Y-120650000D02*
G75*
G02*
X101500000Y-119950000I0J700000D01*
G01*
X111853641Y-117580000D02*
X111546359Y-117580000D01*
X111853641Y-116820000D02*
X111546359Y-116820000D01*
X153830000Y-115176359D02*
X153830000Y-115483641D01*
X153070000Y-115176359D02*
X153070000Y-115483641D01*
X103250000Y-84500000D02*
X99350000Y-84500000D01*
X103250000Y-86500000D02*
X103250000Y-84500000D01*
X103250000Y-86500000D02*
X99350000Y-86500000D01*
X99763641Y-93080000D02*
X99456359Y-93080000D01*
X99763641Y-93840000D02*
X99456359Y-93840000D01*
X118690000Y-103927836D02*
X118690000Y-103712164D01*
X119410000Y-103927836D02*
X119410000Y-103712164D01*
X113980000Y-110803641D02*
X113980000Y-110496359D01*
X113220000Y-110803641D02*
X113220000Y-110496359D01*
X111853641Y-114280000D02*
X111546359Y-114280000D01*
X111853641Y-113520000D02*
X111546359Y-113520000D01*
X121040000Y-106590000D02*
X121040000Y-107040000D01*
X121040000Y-113810000D02*
X121040000Y-113360000D01*
X127810000Y-106590000D02*
X128260000Y-106590000D01*
X121490000Y-113810000D02*
X121040000Y-113810000D01*
X121490000Y-106590000D02*
X121040000Y-106590000D01*
X128260000Y-106590000D02*
X128260000Y-107040000D01*
X121040000Y-107040000D02*
X119750000Y-107040000D01*
X128260000Y-113810000D02*
X128260000Y-113360000D01*
X127810000Y-113810000D02*
X128260000Y-113810000D01*
X127820000Y-103053641D02*
X127820000Y-102746359D01*
X128580000Y-103053641D02*
X128580000Y-102746359D01*
X169270000Y-98130000D02*
X169270000Y-95530000D01*
X166670000Y-96860000D02*
X166670000Y-95530000D01*
X166670000Y-95530000D02*
X168000000Y-95530000D01*
X166670000Y-98130000D02*
X166670000Y-103270000D01*
X171870000Y-95530000D02*
X171870000Y-103270000D01*
X166670000Y-103270000D02*
X171870000Y-103270000D01*
X169270000Y-95530000D02*
X171870000Y-95530000D01*
X166670000Y-98130000D02*
X169270000Y-98130000D01*
X128892164Y-105660000D02*
X129107836Y-105660000D01*
X128892164Y-104940000D02*
X129107836Y-104940000D01*
X125760000Y-116672164D02*
X125760000Y-116887836D01*
X125040000Y-116672164D02*
X125040000Y-116887836D01*
X167046359Y-94020000D02*
X167353641Y-94020000D01*
X167046359Y-94780000D02*
X167353641Y-94780000D01*
X118363641Y-112180000D02*
X118056359Y-112180000D01*
X118363641Y-111420000D02*
X118056359Y-111420000D01*
X148725000Y-120025000D02*
X150075000Y-120025000D01*
X148725000Y-118275000D02*
X150075000Y-118275000D01*
X167253641Y-111380000D02*
X166946359Y-111380000D01*
X167253641Y-110620000D02*
X166946359Y-110620000D01*
X154910000Y-114407836D02*
X154910000Y-114192164D01*
X154190000Y-114407836D02*
X154190000Y-114192164D01*
X171830000Y-106970000D02*
X171830000Y-114650000D01*
X169170000Y-106970000D02*
X169170000Y-114650000D01*
X169170000Y-104370000D02*
X170500000Y-104370000D01*
X169170000Y-106970000D02*
X171830000Y-106970000D01*
X169170000Y-105700000D02*
X169170000Y-104370000D01*
X169170000Y-114650000D02*
X171830000Y-114650000D01*
X131500000Y-111850000D02*
X131500000Y-115150000D01*
X131500000Y-115150000D02*
X135500000Y-115150000D01*
X154190000Y-116272164D02*
X154190000Y-116487836D01*
X154910000Y-116272164D02*
X154910000Y-116487836D01*
X112240000Y-108857836D02*
X112240000Y-108642164D01*
X112960000Y-108857836D02*
X112960000Y-108642164D01*
X115900000Y-108263641D02*
X115900000Y-107956359D01*
X115140000Y-108263641D02*
X115140000Y-107956359D01*
X113220000Y-108903641D02*
X113220000Y-108596359D01*
X113980000Y-108903641D02*
X113980000Y-108596359D01*
X145792164Y-90840000D02*
X146007836Y-90840000D01*
X145792164Y-91560000D02*
X146007836Y-91560000D01*
X145240000Y-101327836D02*
X145240000Y-101112164D01*
X145960000Y-101327836D02*
X145960000Y-101112164D01*
D14*
X91203680Y-86153680D02*
X91203680Y-95103680D01*
X91203680Y-95103680D02*
X91553680Y-95103680D01*
X97863680Y-86153680D02*
X97863680Y-95103680D01*
X91553680Y-86153680D02*
X91203680Y-86153680D01*
D13*
X140410000Y-104862500D02*
X140410000Y-104062500D01*
X140410000Y-104862500D02*
X140410000Y-105662500D01*
X137290000Y-104862500D02*
X137290000Y-104062500D01*
X137290000Y-104862500D02*
X137290000Y-106662500D01*
X99962742Y-90177500D02*
X100437258Y-90177500D01*
X99962742Y-91222500D02*
X100437258Y-91222500D01*
X156307836Y-96160000D02*
X156092164Y-96160000D01*
X156307836Y-95440000D02*
X156092164Y-95440000D01*
X113690000Y-103927836D02*
X113690000Y-103712164D01*
X114410000Y-103927836D02*
X114410000Y-103712164D01*
X148007836Y-90840000D02*
X147792164Y-90840000D01*
X148007836Y-91560000D02*
X147792164Y-91560000D01*
X138740000Y-101392164D02*
X138740000Y-101607836D01*
X139460000Y-101392164D02*
X139460000Y-101607836D01*
X120410000Y-103927836D02*
X120410000Y-103712164D01*
X119690000Y-103927836D02*
X119690000Y-103712164D01*
X163846359Y-86220000D02*
X164153641Y-86220000D01*
X163846359Y-86980000D02*
X164153641Y-86980000D01*
X127580000Y-103053641D02*
X127580000Y-102746359D01*
X126820000Y-103053641D02*
X126820000Y-102746359D01*
X119038748Y-117135000D02*
X119561252Y-117135000D01*
X119038748Y-115665000D02*
X119561252Y-115665000D01*
X124820000Y-103053641D02*
X124820000Y-102746359D01*
X125580000Y-103053641D02*
X125580000Y-102746359D01*
X115140000Y-106046359D02*
X115140000Y-106353641D01*
X115900000Y-106046359D02*
X115900000Y-106353641D01*
X114690000Y-103927836D02*
X114690000Y-103712164D01*
X115410000Y-103927836D02*
X115410000Y-103712164D01*
X140720000Y-105846359D02*
X140720000Y-106153641D01*
X141480000Y-105846359D02*
X141480000Y-106153641D01*
X148607836Y-117810000D02*
X148392164Y-117810000D01*
X148607836Y-117090000D02*
X148392164Y-117090000D01*
X167240000Y-108292164D02*
X167240000Y-108507836D01*
X167960000Y-108292164D02*
X167960000Y-108507836D01*
X150292164Y-117090000D02*
X150507836Y-117090000D01*
X150292164Y-117810000D02*
X150507836Y-117810000D01*
X99763641Y-92630000D02*
X99456359Y-92630000D01*
X99763641Y-91870000D02*
X99456359Y-91870000D01*
D10*
X146750000Y-115000000D02*
G75*
G03*
X146750000Y-115000000I-1750000J0D01*
G01*
D13*
X164753641Y-99120000D02*
X164446359Y-99120000D01*
X164753641Y-99880000D02*
X164446359Y-99880000D01*
X99937742Y-88477500D02*
X100412258Y-88477500D01*
X99937742Y-89522500D02*
X100412258Y-89522500D01*
X105950000Y-117850000D02*
X106550000Y-117850000D01*
X106550000Y-120650000D02*
X105950000Y-120650000D01*
X107250000Y-118550000D02*
X107250000Y-119950000D01*
X105250000Y-119950000D02*
X105250000Y-118550000D01*
X105950000Y-120650000D02*
G75*
G02*
X105250000Y-119950000I0J700000D01*
G01*
X106550000Y-117850000D02*
G75*
G02*
X107250000Y-118550000I0J-700000D01*
G01*
X105250000Y-118550000D02*
G75*
G02*
X105950000Y-117850000I700000J0D01*
G01*
X107250000Y-119950000D02*
G75*
G02*
X106550000Y-120650000I-700000J0D01*
G01*
X123410000Y-103927836D02*
X123410000Y-103712164D01*
X122690000Y-103927836D02*
X122690000Y-103712164D01*
X130162742Y-104322500D02*
X130637258Y-104322500D01*
X130162742Y-103277500D02*
X130637258Y-103277500D01*
X106235000Y-93238748D02*
X106235000Y-93761252D01*
X104765000Y-93238748D02*
X104765000Y-93761252D01*
X115690000Y-103927836D02*
X115690000Y-103712164D01*
X116410000Y-103927836D02*
X116410000Y-103712164D01*
X96476359Y-117580000D02*
X96783641Y-117580000D01*
X96476359Y-116820000D02*
X96783641Y-116820000D01*
X101646359Y-87880000D02*
X101953641Y-87880000D01*
X101646359Y-87120000D02*
X101953641Y-87120000D01*
X146900000Y-87440000D02*
X147550000Y-87440000D01*
X146900000Y-90560000D02*
X146250000Y-90560000D01*
X146900000Y-90560000D02*
X147550000Y-90560000D01*
X146900000Y-87440000D02*
X145225000Y-87440000D01*
D14*
X110378680Y-113728680D02*
X110378680Y-97528680D01*
X100878680Y-113728680D02*
X88678680Y-113728680D01*
X88678680Y-97528680D02*
X100978680Y-97528680D01*
X104278680Y-113728680D02*
X110378680Y-113728680D01*
X88678680Y-113728680D02*
X88678680Y-97528680D01*
X110378680Y-97528680D02*
X104278680Y-97528680D01*
D15*
X104978680Y-113128680D02*
G75*
G03*
X104978680Y-113128680I-200000J0D01*
G01*
D13*
X136546359Y-113880000D02*
X136853641Y-113880000D01*
X136546359Y-113120000D02*
X136853641Y-113120000D01*
X123061252Y-117135000D02*
X122538748Y-117135000D01*
X123061252Y-115665000D02*
X122538748Y-115665000D01*
X143960000Y-101327836D02*
X143960000Y-101112164D01*
X143240000Y-101327836D02*
X143240000Y-101112164D01*
D16*
X160125100Y-81428041D02*
X160125100Y-82971959D01*
X160830086Y-84574900D02*
X164169914Y-84574900D01*
X164874900Y-82971959D02*
X164874900Y-81428041D01*
X164169914Y-79825100D02*
X160830086Y-79825100D01*
X158414500Y-80599999D02*
G75*
G03*
X158414500Y-80599999I-203200J0D01*
G01*
D13*
X111546359Y-118680000D02*
X111853641Y-118680000D01*
X111546359Y-117920000D02*
X111853641Y-117920000D01*
X136592164Y-112660000D02*
X136807836Y-112660000D01*
X136592164Y-111940000D02*
X136807836Y-111940000D01*
X136592164Y-115010000D02*
X136807836Y-115010000D01*
X136592164Y-114290000D02*
X136807836Y-114290000D01*
X114190000Y-111307836D02*
X114190000Y-111092164D01*
X114910000Y-111307836D02*
X114910000Y-111092164D01*
X142240000Y-101327836D02*
X142240000Y-101112164D01*
X142960000Y-101327836D02*
X142960000Y-101112164D01*
X127760000Y-116672164D02*
X127760000Y-116887836D01*
X127040000Y-116672164D02*
X127040000Y-116887836D01*
X118410000Y-103927836D02*
X118410000Y-103712164D01*
X117690000Y-103927836D02*
X117690000Y-103712164D01*
X121410000Y-103927836D02*
X121410000Y-103712164D01*
X120690000Y-103927836D02*
X120690000Y-103712164D01*
X166946359Y-111620000D02*
X167253641Y-111620000D01*
X166946359Y-112380000D02*
X167253641Y-112380000D01*
X98753641Y-116820000D02*
X98446359Y-116820000D01*
X98753641Y-117580000D02*
X98446359Y-117580000D01*
X98515000Y-120735000D02*
X99985000Y-120735000D01*
X98515000Y-118450000D02*
X98515000Y-120735000D01*
X99985000Y-120735000D02*
X99985000Y-118450000D01*
X112240000Y-110542164D02*
X112240000Y-110757836D01*
X112960000Y-110542164D02*
X112960000Y-110757836D01*
X136980000Y-105846359D02*
X136980000Y-106153641D01*
X136220000Y-105846359D02*
X136220000Y-106153641D01*
X122410000Y-103927836D02*
X122410000Y-103712164D01*
X121690000Y-103927836D02*
X121690000Y-103712164D01*
X130730000Y-91170000D02*
X115430000Y-91170000D01*
X133330000Y-93770000D02*
X133330000Y-96370000D01*
X133330000Y-91170000D02*
X133330000Y-92500000D01*
X133330000Y-96370000D02*
X115430000Y-96370000D01*
X130730000Y-93770000D02*
X133330000Y-93770000D01*
X130730000Y-91170000D02*
X130730000Y-93770000D01*
X132000000Y-91170000D02*
X133330000Y-91170000D01*
X115430000Y-91170000D02*
X115430000Y-96370000D01*
X156046359Y-94420000D02*
X156353641Y-94420000D01*
X156046359Y-95180000D02*
X156353641Y-95180000D01*
%LPC*%
D17*
X157300000Y-112550000D03*
X157300000Y-116250000D03*
D18*
X146440000Y-112012500D03*
X146940000Y-112012500D03*
X147440000Y-112012500D03*
X147940000Y-112012500D03*
X148440000Y-112012500D03*
X148940000Y-112012500D03*
X149440000Y-112012500D03*
X149940000Y-112012500D03*
X150440000Y-112012500D03*
X150940000Y-112012500D03*
X151440000Y-112012500D03*
X151940000Y-112012500D03*
D19*
X153352500Y-110600000D03*
X153352500Y-110100000D03*
X153352500Y-109600000D03*
X153352500Y-109100000D03*
X153352500Y-108600000D03*
X153352500Y-108100000D03*
X153352500Y-107600000D03*
X153352500Y-107100000D03*
X153352500Y-106600000D03*
X153352500Y-106100000D03*
X153352500Y-105600000D03*
X153352500Y-105100000D03*
D18*
X151940000Y-103687500D03*
X151440000Y-103687500D03*
X150940000Y-103687500D03*
X150440000Y-103687500D03*
X149940000Y-103687500D03*
X149440000Y-103687500D03*
X148940000Y-103687500D03*
X148440000Y-103687500D03*
X147940000Y-103687500D03*
X147440000Y-103687500D03*
X146940000Y-103687500D03*
X146440000Y-103687500D03*
D19*
X145027500Y-105100000D03*
X145027500Y-105600000D03*
X145027500Y-106100000D03*
X145027500Y-106600000D03*
X145027500Y-107100000D03*
X145027500Y-107600000D03*
X145027500Y-108100000D03*
X145027500Y-108600000D03*
X145027500Y-109100000D03*
X145027500Y-109600000D03*
X145027500Y-110100000D03*
X145027500Y-110600000D03*
D20*
X144600000Y-101700000D03*
X144600000Y-100740000D03*
D21*
X124200000Y-103410000D03*
X124200000Y-102390000D03*
D22*
X96250000Y-120037500D03*
X96250000Y-118462500D03*
D23*
X126400000Y-116300000D03*
X126400000Y-117260000D03*
D20*
X117050000Y-104300000D03*
X117050000Y-103340000D03*
D21*
X126200000Y-103410000D03*
X126200000Y-102390000D03*
D24*
X111220000Y-112900000D03*
X112180000Y-112900000D03*
D25*
X167000000Y-90750000D03*
X167000000Y-89750000D03*
X167000000Y-88750000D03*
X167000000Y-87750000D03*
D26*
X170875000Y-86450000D03*
X170875000Y-92050000D03*
G36*
X103250000Y-119400000D02*
G01*
X103250000Y-119900000D01*
X103245033Y-119900000D01*
X103243568Y-119979941D01*
X103201293Y-120115256D01*
X103122738Y-120233266D01*
X103014219Y-120324486D01*
X102884460Y-120381581D01*
X102750000Y-120399164D01*
X102750000Y-120400000D01*
X102250000Y-120400000D01*
X102250000Y-120399164D01*
X102243891Y-120399963D01*
X102103814Y-120378152D01*
X101975489Y-120317904D01*
X101869231Y-120224060D01*
X101793583Y-120104165D01*
X101754626Y-119967858D01*
X101755041Y-119900000D01*
X101750000Y-119900000D01*
X101750000Y-119400000D01*
X103250000Y-119400000D01*
G37*
G36*
X101755041Y-118600000D02*
G01*
X101755492Y-118526095D01*
X101796111Y-118390274D01*
X101873218Y-118271312D01*
X101980615Y-118178774D01*
X102109667Y-118120097D01*
X102250000Y-118100000D01*
X102750000Y-118100000D01*
X102762216Y-118100149D01*
X102902017Y-118123669D01*
X103029596Y-118185481D01*
X103134700Y-118280616D01*
X103208877Y-118401426D01*
X103246166Y-118538199D01*
X103245033Y-118600000D01*
X103250000Y-118600000D01*
X103250000Y-119100000D01*
X101750000Y-119100000D01*
X101750000Y-118600000D01*
X101755041Y-118600000D01*
G37*
D27*
X112210000Y-117200000D03*
X111190000Y-117200000D03*
D28*
X153450000Y-114820000D03*
X153450000Y-115840000D03*
D29*
X102650000Y-85500000D03*
X99350000Y-85500000D03*
D27*
X100120000Y-93460000D03*
X99100000Y-93460000D03*
D20*
X119050000Y-104300000D03*
X119050000Y-103340000D03*
D21*
X113600000Y-111160000D03*
X113600000Y-110140000D03*
D27*
X112210000Y-113900000D03*
X111190000Y-113900000D03*
D30*
X120487500Y-107450000D03*
X120487500Y-107950000D03*
X120487500Y-108450000D03*
X120487500Y-108950000D03*
X120487500Y-109450000D03*
X120487500Y-109950000D03*
X120487500Y-110450000D03*
X120487500Y-110950000D03*
X120487500Y-111450000D03*
X120487500Y-111950000D03*
X120487500Y-112450000D03*
X120487500Y-112950000D03*
D31*
X121900000Y-114362500D03*
X122400000Y-114362500D03*
X122900000Y-114362500D03*
X123400000Y-114362500D03*
X123900000Y-114362500D03*
X124400000Y-114362500D03*
X124900000Y-114362500D03*
X125400000Y-114362500D03*
X125900000Y-114362500D03*
X126400000Y-114362500D03*
X126900000Y-114362500D03*
X127400000Y-114362500D03*
D30*
X128812500Y-112950000D03*
X128812500Y-112450000D03*
X128812500Y-111950000D03*
X128812500Y-111450000D03*
X128812500Y-110950000D03*
X128812500Y-110450000D03*
X128812500Y-109950000D03*
X128812500Y-109450000D03*
X128812500Y-108950000D03*
X128812500Y-108450000D03*
X128812500Y-107950000D03*
X128812500Y-107450000D03*
D31*
X127400000Y-106037500D03*
X126900000Y-106037500D03*
X126400000Y-106037500D03*
X125900000Y-106037500D03*
X125400000Y-106037500D03*
X124900000Y-106037500D03*
X124400000Y-106037500D03*
X123900000Y-106037500D03*
X123400000Y-106037500D03*
X122900000Y-106037500D03*
X122400000Y-106037500D03*
X121900000Y-106037500D03*
D21*
X128200000Y-103410000D03*
X128200000Y-102390000D03*
D32*
X168000000Y-96860000D03*
D33*
X170540000Y-96860000D03*
X168000000Y-99400000D03*
X170540000Y-99400000D03*
X168000000Y-101940000D03*
X170540000Y-101940000D03*
D24*
X128520000Y-105300000D03*
X129480000Y-105300000D03*
D34*
X91378680Y-118128680D03*
D23*
X125400000Y-116300000D03*
X125400000Y-117260000D03*
D35*
X166690000Y-94400000D03*
X167710000Y-94400000D03*
D27*
X118720000Y-111800000D03*
X117700000Y-111800000D03*
D36*
X150650000Y-119150000D03*
X148150000Y-119150000D03*
D27*
X167610000Y-111000000D03*
X166590000Y-111000000D03*
D20*
X154550000Y-114780000D03*
X154550000Y-113820000D03*
D34*
X169378680Y-82128680D03*
D32*
X170500000Y-105700000D03*
D33*
X170500000Y-108240000D03*
X170500000Y-110780000D03*
X170500000Y-113320000D03*
D37*
X132400000Y-114350000D03*
X134600000Y-114350000D03*
X134600000Y-112650000D03*
X132400000Y-112650000D03*
D23*
X154550000Y-115900000D03*
X154550000Y-116860000D03*
D20*
X112600000Y-109230000D03*
X112600000Y-108270000D03*
D21*
X115520000Y-108620000D03*
X115520000Y-107600000D03*
X113600000Y-109260000D03*
X113600000Y-108240000D03*
D24*
X145420000Y-91200000D03*
X146380000Y-91200000D03*
D20*
X145600000Y-101700000D03*
X145600000Y-100740000D03*
D38*
X97303680Y-87653680D03*
X97303680Y-88503680D03*
X97303680Y-89353680D03*
X97303680Y-90203680D03*
X97303680Y-91053680D03*
X97303680Y-91903680D03*
X97303680Y-92753680D03*
X97303680Y-93603680D03*
X95953680Y-93603680D03*
X95953680Y-92753680D03*
X95953680Y-91903680D03*
X95953680Y-91053680D03*
X95953680Y-90203680D03*
X95953680Y-89353680D03*
X95953680Y-88503680D03*
X95953680Y-87653680D03*
D39*
X96323680Y-86303680D03*
X96323680Y-94953680D03*
X92943680Y-94953680D03*
X92943680Y-86303680D03*
D40*
X137900000Y-106000000D03*
X138850000Y-106000000D03*
X139800000Y-106000000D03*
X139800000Y-103725000D03*
X137900000Y-103725000D03*
D34*
X91378680Y-82128680D03*
D41*
X99375000Y-90700000D03*
X101025000Y-90700000D03*
D42*
X156680000Y-95800000D03*
X155720000Y-95800000D03*
D20*
X114050000Y-104300000D03*
X114050000Y-103340000D03*
D42*
X148380000Y-91200000D03*
X147420000Y-91200000D03*
D23*
X139100000Y-101020000D03*
X139100000Y-101980000D03*
D34*
X169378680Y-118128680D03*
D20*
X120050000Y-104300000D03*
X120050000Y-103340000D03*
D35*
X163490000Y-86600000D03*
X164510000Y-86600000D03*
D21*
X127200000Y-103410000D03*
X127200000Y-102390000D03*
D43*
X118350000Y-116400000D03*
X120250000Y-116400000D03*
D21*
X125200000Y-103410000D03*
X125200000Y-102390000D03*
D28*
X115520000Y-105690000D03*
X115520000Y-106710000D03*
D20*
X115050000Y-104300000D03*
X115050000Y-103340000D03*
D28*
X141100000Y-105490000D03*
X141100000Y-106510000D03*
D42*
X148980000Y-117450000D03*
X148020000Y-117450000D03*
D23*
X167600000Y-107920000D03*
X167600000Y-108880000D03*
D24*
X149920000Y-117450000D03*
X150880000Y-117450000D03*
D27*
X100120000Y-92250000D03*
X99100000Y-92250000D03*
D44*
X145000000Y-115000000D03*
D27*
X165110000Y-99500000D03*
X164090000Y-99500000D03*
D41*
X99350000Y-89000000D03*
X101000000Y-89000000D03*
G36*
X107000000Y-119400000D02*
G01*
X107000000Y-119900000D01*
X106995033Y-119900000D01*
X106993568Y-119979941D01*
X106951293Y-120115256D01*
X106872738Y-120233266D01*
X106764219Y-120324486D01*
X106634460Y-120381581D01*
X106500000Y-120399164D01*
X106500000Y-120400000D01*
X106000000Y-120400000D01*
X106000000Y-120399164D01*
X105993891Y-120399963D01*
X105853814Y-120378152D01*
X105725489Y-120317904D01*
X105619231Y-120224060D01*
X105543583Y-120104165D01*
X105504626Y-119967858D01*
X105505041Y-119900000D01*
X105500000Y-119900000D01*
X105500000Y-119400000D01*
X107000000Y-119400000D01*
G37*
G36*
X105505041Y-118600000D02*
G01*
X105505492Y-118526095D01*
X105546111Y-118390274D01*
X105623218Y-118271312D01*
X105730615Y-118178774D01*
X105859667Y-118120097D01*
X106000000Y-118100000D01*
X106500000Y-118100000D01*
X106512216Y-118100149D01*
X106652017Y-118123669D01*
X106779596Y-118185481D01*
X106884700Y-118280616D01*
X106958877Y-118401426D01*
X106996166Y-118538199D01*
X106995033Y-118600000D01*
X107000000Y-118600000D01*
X107000000Y-119100000D01*
X105500000Y-119100000D01*
X105500000Y-118600000D01*
X105505041Y-118600000D01*
G37*
D20*
X123050000Y-104300000D03*
X123050000Y-103340000D03*
D41*
X129575000Y-103800000D03*
X131225000Y-103800000D03*
D45*
X105500000Y-92550000D03*
X105500000Y-94450000D03*
D20*
X116050000Y-104300000D03*
X116050000Y-103340000D03*
D35*
X96120000Y-117200000D03*
X97140000Y-117200000D03*
X101290000Y-87500000D03*
X102310000Y-87500000D03*
D46*
X145962500Y-88050000D03*
X145962500Y-89950000D03*
X147837500Y-89000000D03*
D47*
X105928680Y-111343680D03*
X108468680Y-110073680D03*
X105928680Y-108803680D03*
X108468680Y-107533680D03*
X105928680Y-106263680D03*
X105928680Y-103723680D03*
X108468680Y-102453680D03*
X105928680Y-101183680D03*
X108468680Y-99913680D03*
X97038680Y-112353680D03*
X95008680Y-112353680D03*
X97038680Y-98903680D03*
X95008680Y-98903680D03*
D48*
X99578680Y-99913680D03*
X99578680Y-111343680D03*
D49*
X102628680Y-113503680D03*
X102628680Y-97753680D03*
D35*
X136190000Y-113500000D03*
X137210000Y-113500000D03*
D50*
X123750000Y-116400000D03*
X121850000Y-116400000D03*
D20*
X143600000Y-101700000D03*
X143600000Y-100740000D03*
D51*
X159874999Y-80600001D03*
X165125001Y-80600001D03*
X159874999Y-83799999D03*
X165125001Y-83799999D03*
D35*
X111190000Y-118300000D03*
X112210000Y-118300000D03*
D24*
X136220000Y-112300000D03*
X137180000Y-112300000D03*
X136220000Y-114650000D03*
X137180000Y-114650000D03*
D20*
X114550000Y-111680000D03*
X114550000Y-110720000D03*
X142600000Y-101700000D03*
X142600000Y-100740000D03*
D23*
X127400000Y-116300000D03*
X127400000Y-117260000D03*
D20*
X118050000Y-104300000D03*
X118050000Y-103340000D03*
X121050000Y-104300000D03*
X121050000Y-103340000D03*
D35*
X166590000Y-112000000D03*
X167610000Y-112000000D03*
D27*
X99110000Y-117200000D03*
X98090000Y-117200000D03*
D22*
X99250000Y-120037500D03*
X99250000Y-118462500D03*
D23*
X112600000Y-110170000D03*
X112600000Y-111130000D03*
D28*
X136600000Y-105490000D03*
X136600000Y-106510000D03*
D20*
X122050000Y-104300000D03*
X122050000Y-103340000D03*
D32*
X132000000Y-92500000D03*
D33*
X132000000Y-95040000D03*
X129460000Y-92500000D03*
X129460000Y-95040000D03*
X126920000Y-92500000D03*
X126920000Y-95040000D03*
X124380000Y-92500000D03*
X124380000Y-95040000D03*
X121840000Y-92500000D03*
X121840000Y-95040000D03*
X119300000Y-92500000D03*
X119300000Y-95040000D03*
X116760000Y-92500000D03*
X116760000Y-95040000D03*
D35*
X155690000Y-94800000D03*
X156710000Y-94800000D03*
M02*
