G04 #@! TF.GenerationSoftware,KiCad,Pcbnew,(5.99.0-8454-g713af6630f)*
G04 #@! TF.CreationDate,2021-06-14T20:06:32-07:00*
G04 #@! TF.ProjectId,MFW007B,4d465730-3037-4422-9e6b-696361645f70,1*
G04 #@! TF.SameCoordinates,Original*
G04 #@! TF.FileFunction,Copper,L1,Top*
G04 #@! TF.FilePolarity,Positive*
%FSLAX46Y46*%
G04 Gerber Fmt 4.6, Leading zero omitted, Abs format (unit mm)*
G04 Created by KiCad (PCBNEW (5.99.0-8454-g713af6630f)) date 2021-06-14 20:06:32*
%MOMM*%
%LPD*%
G01*
G04 APERTURE LIST*
G04 Aperture macros list*
%AMRoundRect*
0 Rectangle with rounded corners*
0 $1 Rounding radius*
0 $2 $3 $4 $5 $6 $7 $8 $9 X,Y pos of 4 corners*
0 Add a 4 corners polygon primitive as box body*
4,1,4,$2,$3,$4,$5,$6,$7,$8,$9,$2,$3,0*
0 Add four circle primitives for the rounded corners*
1,1,$1+$1,$2,$3*
1,1,$1+$1,$4,$5*
1,1,$1+$1,$6,$7*
1,1,$1+$1,$8,$9*
0 Add four rect primitives between the rounded corners*
20,1,$1+$1,$2,$3,$4,$5,0*
20,1,$1+$1,$4,$5,$6,$7,0*
20,1,$1+$1,$6,$7,$8,$9,0*
20,1,$1+$1,$8,$9,$2,$3,0*%
G04 Aperture macros list end*
G04 #@! TA.AperFunction,SMDPad,CuDef*
%ADD10R,2.400000X2.000000*%
G04 #@! TD*
G04 #@! TA.AperFunction,SMDPad,CuDef*
%ADD11RoundRect,0.075000X0.075000X-0.662500X0.075000X0.662500X-0.075000X0.662500X-0.075000X-0.662500X0*%
G04 #@! TD*
G04 #@! TA.AperFunction,SMDPad,CuDef*
%ADD12RoundRect,0.075000X0.662500X-0.075000X0.662500X0.075000X-0.662500X0.075000X-0.662500X-0.075000X0*%
G04 #@! TD*
G04 #@! TA.AperFunction,SMDPad,CuDef*
%ADD13RoundRect,0.140000X0.170000X-0.140000X0.170000X0.140000X-0.170000X0.140000X-0.170000X-0.140000X0*%
G04 #@! TD*
G04 #@! TA.AperFunction,SMDPad,CuDef*
%ADD14RoundRect,0.135000X0.185000X-0.135000X0.185000X0.135000X-0.185000X0.135000X-0.185000X-0.135000X0*%
G04 #@! TD*
G04 #@! TA.AperFunction,SMDPad,CuDef*
%ADD15RoundRect,0.218750X0.256250X-0.218750X0.256250X0.218750X-0.256250X0.218750X-0.256250X-0.218750X0*%
G04 #@! TD*
G04 #@! TA.AperFunction,SMDPad,CuDef*
%ADD16RoundRect,0.140000X-0.170000X0.140000X-0.170000X-0.140000X0.170000X-0.140000X0.170000X0.140000X0*%
G04 #@! TD*
G04 #@! TA.AperFunction,SMDPad,CuDef*
%ADD17RoundRect,0.140000X-0.140000X-0.170000X0.140000X-0.170000X0.140000X0.170000X-0.140000X0.170000X0*%
G04 #@! TD*
G04 #@! TA.AperFunction,SMDPad,CuDef*
%ADD18RoundRect,0.150000X0.625000X-0.150000X0.625000X0.150000X-0.625000X0.150000X-0.625000X-0.150000X0*%
G04 #@! TD*
G04 #@! TA.AperFunction,SMDPad,CuDef*
%ADD19RoundRect,0.250000X0.650000X-0.350000X0.650000X0.350000X-0.650000X0.350000X-0.650000X-0.350000X0*%
G04 #@! TD*
G04 #@! TA.AperFunction,SMDPad,CuDef*
%ADD20RoundRect,0.135000X0.135000X0.185000X-0.135000X0.185000X-0.135000X-0.185000X0.135000X-0.185000X0*%
G04 #@! TD*
G04 #@! TA.AperFunction,SMDPad,CuDef*
%ADD21RoundRect,0.135000X-0.185000X0.135000X-0.185000X-0.135000X0.185000X-0.135000X0.185000X0.135000X0*%
G04 #@! TD*
G04 #@! TA.AperFunction,SMDPad,CuDef*
%ADD22R,0.900000X1.200000*%
G04 #@! TD*
G04 #@! TA.AperFunction,SMDPad,CuDef*
%ADD23RoundRect,0.075000X-0.662500X-0.075000X0.662500X-0.075000X0.662500X0.075000X-0.662500X0.075000X0*%
G04 #@! TD*
G04 #@! TA.AperFunction,SMDPad,CuDef*
%ADD24RoundRect,0.075000X-0.075000X-0.662500X0.075000X-0.662500X0.075000X0.662500X-0.075000X0.662500X0*%
G04 #@! TD*
G04 #@! TA.AperFunction,ComponentPad*
%ADD25R,1.700000X1.700000*%
G04 #@! TD*
G04 #@! TA.AperFunction,ComponentPad*
%ADD26O,1.700000X1.700000*%
G04 #@! TD*
G04 #@! TA.AperFunction,SMDPad,CuDef*
%ADD27RoundRect,0.135000X-0.135000X-0.185000X0.135000X-0.185000X0.135000X0.185000X-0.135000X0.185000X0*%
G04 #@! TD*
G04 #@! TA.AperFunction,SMDPad,CuDef*
%ADD28R,1.000000X1.800000*%
G04 #@! TD*
G04 #@! TA.AperFunction,SMDPad,CuDef*
%ADD29R,1.400000X1.200000*%
G04 #@! TD*
G04 #@! TA.AperFunction,ComponentPad*
%ADD30C,0.650000*%
G04 #@! TD*
G04 #@! TA.AperFunction,ComponentPad*
%ADD31O,2.216000X1.108000*%
G04 #@! TD*
G04 #@! TA.AperFunction,SMDPad,CuDef*
%ADD32RoundRect,0.150000X0.150000X-0.512500X0.150000X0.512500X-0.150000X0.512500X-0.150000X-0.512500X0*%
G04 #@! TD*
G04 #@! TA.AperFunction,SMDPad,CuDef*
%ADD33RoundRect,0.200000X-0.200000X-0.275000X0.200000X-0.275000X0.200000X0.275000X-0.200000X0.275000X0*%
G04 #@! TD*
G04 #@! TA.AperFunction,SMDPad,CuDef*
%ADD34RoundRect,0.140000X0.140000X0.170000X-0.140000X0.170000X-0.140000X-0.170000X0.140000X-0.170000X0*%
G04 #@! TD*
G04 #@! TA.AperFunction,SMDPad,CuDef*
%ADD35RoundRect,0.250000X-0.250000X-0.475000X0.250000X-0.475000X0.250000X0.475000X-0.250000X0.475000X0*%
G04 #@! TD*
G04 #@! TA.AperFunction,ComponentPad*
%ADD36C,2.800000*%
G04 #@! TD*
G04 #@! TA.AperFunction,SMDPad,CuDef*
%ADD37RoundRect,0.250000X-0.475000X0.250000X-0.475000X-0.250000X0.475000X-0.250000X0.475000X0.250000X0*%
G04 #@! TD*
G04 #@! TA.AperFunction,SMDPad,CuDef*
%ADD38RoundRect,0.150000X-0.587500X-0.150000X0.587500X-0.150000X0.587500X0.150000X-0.587500X0.150000X0*%
G04 #@! TD*
G04 #@! TA.AperFunction,ComponentPad*
%ADD39C,1.398000*%
G04 #@! TD*
G04 #@! TA.AperFunction,ComponentPad*
%ADD40C,2.550000*%
G04 #@! TD*
G04 #@! TA.AperFunction,SMDPad,CuDef*
%ADD41RoundRect,0.250000X0.250000X0.475000X-0.250000X0.475000X-0.250000X-0.475000X0.250000X-0.475000X0*%
G04 #@! TD*
G04 #@! TA.AperFunction,SMDPad,CuDef*
%ADD42R,1.549400X0.990600*%
G04 #@! TD*
G04 #@! TA.AperFunction,ViaPad*
%ADD43C,0.685800*%
G04 #@! TD*
G04 #@! TA.AperFunction,Conductor*
%ADD44C,0.254000*%
G04 #@! TD*
G04 #@! TA.AperFunction,Conductor*
%ADD45C,0.508000*%
G04 #@! TD*
G04 #@! TA.AperFunction,Conductor*
%ADD46C,0.127000*%
G04 #@! TD*
G04 #@! TA.AperFunction,Conductor*
%ADD47C,0.152400*%
G04 #@! TD*
G04 APERTURE END LIST*
G36*
X102800000Y-119500000D02*
G01*
X102200000Y-119500000D01*
X102200000Y-119000000D01*
X102800000Y-119000000D01*
X102800000Y-119500000D01*
G37*
G36*
X106550000Y-119500000D02*
G01*
X105950000Y-119500000D01*
X105950000Y-119000000D01*
X106550000Y-119000000D01*
X106550000Y-119500000D01*
G37*
D10*
X157300000Y-112550000D03*
X157300000Y-116250000D03*
D11*
X146440000Y-112012500D03*
X146940000Y-112012500D03*
X147440000Y-112012500D03*
X147940000Y-112012500D03*
X148440000Y-112012500D03*
X148940000Y-112012500D03*
X149440000Y-112012500D03*
X149940000Y-112012500D03*
X150440000Y-112012500D03*
X150940000Y-112012500D03*
X151440000Y-112012500D03*
X151940000Y-112012500D03*
D12*
X153352500Y-110600000D03*
X153352500Y-110100000D03*
X153352500Y-109600000D03*
X153352500Y-109100000D03*
X153352500Y-108600000D03*
X153352500Y-108100000D03*
X153352500Y-107600000D03*
X153352500Y-107100000D03*
X153352500Y-106600000D03*
X153352500Y-106100000D03*
X153352500Y-105600000D03*
X153352500Y-105100000D03*
D11*
X151940000Y-103687500D03*
X151440000Y-103687500D03*
X150940000Y-103687500D03*
X150440000Y-103687500D03*
X149940000Y-103687500D03*
X149440000Y-103687500D03*
X148940000Y-103687500D03*
X148440000Y-103687500D03*
X147940000Y-103687500D03*
X147440000Y-103687500D03*
X146940000Y-103687500D03*
X146440000Y-103687500D03*
D12*
X145027500Y-105100000D03*
X145027500Y-105600000D03*
X145027500Y-106100000D03*
X145027500Y-106600000D03*
X145027500Y-107100000D03*
X145027500Y-107600000D03*
X145027500Y-108100000D03*
X145027500Y-108600000D03*
X145027500Y-109100000D03*
X145027500Y-109600000D03*
X145027500Y-110100000D03*
X145027500Y-110600000D03*
D13*
X144600000Y-101700000D03*
X144600000Y-100740000D03*
D14*
X124200000Y-103410000D03*
X124200000Y-102390000D03*
D15*
X96250000Y-120037500D03*
X96250000Y-118462500D03*
D16*
X126400000Y-116300000D03*
X126400000Y-117260000D03*
D13*
X117050000Y-104300000D03*
X117050000Y-103340000D03*
D14*
X126200000Y-103410000D03*
X126200000Y-102390000D03*
D17*
X111220000Y-112900000D03*
X112180000Y-112900000D03*
D18*
X167000000Y-90750000D03*
X167000000Y-89750000D03*
X167000000Y-88750000D03*
X167000000Y-87750000D03*
D19*
X170875000Y-86450000D03*
X170875000Y-92050000D03*
G04 #@! TA.AperFunction,SMDPad,CuDef*
G36*
X103250000Y-119400000D02*
G01*
X103250000Y-119900000D01*
X103245033Y-119900000D01*
X103243568Y-119979941D01*
X103201293Y-120115256D01*
X103122738Y-120233266D01*
X103014219Y-120324486D01*
X102884460Y-120381581D01*
X102750000Y-120399164D01*
X102750000Y-120400000D01*
X102250000Y-120400000D01*
X102250000Y-120399164D01*
X102243891Y-120399963D01*
X102103814Y-120378152D01*
X101975489Y-120317904D01*
X101869231Y-120224060D01*
X101793583Y-120104165D01*
X101754626Y-119967858D01*
X101755041Y-119900000D01*
X101750000Y-119900000D01*
X101750000Y-119400000D01*
X103250000Y-119400000D01*
G37*
G04 #@! TD.AperFunction*
G04 #@! TA.AperFunction,SMDPad,CuDef*
G36*
X101755041Y-118600000D02*
G01*
X101755492Y-118526095D01*
X101796111Y-118390274D01*
X101873218Y-118271312D01*
X101980615Y-118178774D01*
X102109667Y-118120097D01*
X102250000Y-118100000D01*
X102750000Y-118100000D01*
X102762216Y-118100149D01*
X102902017Y-118123669D01*
X103029596Y-118185481D01*
X103134700Y-118280616D01*
X103208877Y-118401426D01*
X103246166Y-118538199D01*
X103245033Y-118600000D01*
X103250000Y-118600000D01*
X103250000Y-119100000D01*
X101750000Y-119100000D01*
X101750000Y-118600000D01*
X101755041Y-118600000D01*
G37*
G04 #@! TD.AperFunction*
D20*
X112210000Y-117200000D03*
X111190000Y-117200000D03*
D21*
X153450000Y-114820000D03*
X153450000Y-115840000D03*
D22*
X102650000Y-85500000D03*
X99350000Y-85500000D03*
D20*
X100120000Y-93460000D03*
X99100000Y-93460000D03*
D13*
X119050000Y-104300000D03*
X119050000Y-103340000D03*
D14*
X113600000Y-111160000D03*
X113600000Y-110140000D03*
D20*
X112210000Y-113900000D03*
X111190000Y-113900000D03*
D23*
X120487500Y-107450000D03*
X120487500Y-107950000D03*
X120487500Y-108450000D03*
X120487500Y-108950000D03*
X120487500Y-109450000D03*
X120487500Y-109950000D03*
X120487500Y-110450000D03*
X120487500Y-110950000D03*
X120487500Y-111450000D03*
X120487500Y-111950000D03*
X120487500Y-112450000D03*
X120487500Y-112950000D03*
D24*
X121900000Y-114362500D03*
X122400000Y-114362500D03*
X122900000Y-114362500D03*
X123400000Y-114362500D03*
X123900000Y-114362500D03*
X124400000Y-114362500D03*
X124900000Y-114362500D03*
X125400000Y-114362500D03*
X125900000Y-114362500D03*
X126400000Y-114362500D03*
X126900000Y-114362500D03*
X127400000Y-114362500D03*
D23*
X128812500Y-112950000D03*
X128812500Y-112450000D03*
X128812500Y-111950000D03*
X128812500Y-111450000D03*
X128812500Y-110950000D03*
X128812500Y-110450000D03*
X128812500Y-109950000D03*
X128812500Y-109450000D03*
X128812500Y-108950000D03*
X128812500Y-108450000D03*
X128812500Y-107950000D03*
X128812500Y-107450000D03*
D24*
X127400000Y-106037500D03*
X126900000Y-106037500D03*
X126400000Y-106037500D03*
X125900000Y-106037500D03*
X125400000Y-106037500D03*
X124900000Y-106037500D03*
X124400000Y-106037500D03*
X123900000Y-106037500D03*
X123400000Y-106037500D03*
X122900000Y-106037500D03*
X122400000Y-106037500D03*
X121900000Y-106037500D03*
D14*
X128200000Y-103410000D03*
X128200000Y-102390000D03*
D25*
X168000000Y-96860000D03*
D26*
X170540000Y-96860000D03*
X168000000Y-99400000D03*
X170540000Y-99400000D03*
X168000000Y-101940000D03*
X170540000Y-101940000D03*
D17*
X128520000Y-105300000D03*
X129480000Y-105300000D03*
D16*
X125400000Y-116300000D03*
X125400000Y-117260000D03*
D27*
X166690000Y-94400000D03*
X167710000Y-94400000D03*
D20*
X118720000Y-111800000D03*
X117700000Y-111800000D03*
D28*
X150650000Y-119150000D03*
X148150000Y-119150000D03*
D20*
X167610000Y-111000000D03*
X166590000Y-111000000D03*
D13*
X154550000Y-114780000D03*
X154550000Y-113820000D03*
D25*
X170500000Y-105700000D03*
D26*
X170500000Y-108240000D03*
X170500000Y-110780000D03*
X170500000Y-113320000D03*
D29*
X132400000Y-114350000D03*
X134600000Y-114350000D03*
X134600000Y-112650000D03*
X132400000Y-112650000D03*
D16*
X154550000Y-115900000D03*
X154550000Y-116860000D03*
D13*
X112600000Y-109230000D03*
X112600000Y-108270000D03*
D14*
X115520000Y-108620000D03*
X115520000Y-107600000D03*
X113600000Y-109260000D03*
X113600000Y-108240000D03*
D17*
X145420000Y-91200000D03*
X146380000Y-91200000D03*
D13*
X145600000Y-101700000D03*
X145600000Y-100740000D03*
D30*
X97303680Y-87653680D03*
X97303680Y-88503680D03*
X97303680Y-89353680D03*
X97303680Y-90203680D03*
X97303680Y-91053680D03*
X97303680Y-91903680D03*
X97303680Y-92753680D03*
X97303680Y-93603680D03*
X95953680Y-93603680D03*
X95953680Y-92753680D03*
X95953680Y-91903680D03*
X95953680Y-91053680D03*
X95953680Y-90203680D03*
X95953680Y-89353680D03*
X95953680Y-88503680D03*
X95953680Y-87653680D03*
D31*
X96323680Y-86303680D03*
X96323680Y-94953680D03*
X92943680Y-94953680D03*
X92943680Y-86303680D03*
D32*
X137900000Y-106000000D03*
X138850000Y-106000000D03*
X139800000Y-106000000D03*
X139800000Y-103725000D03*
X137900000Y-103725000D03*
D33*
X99375000Y-90700000D03*
X101025000Y-90700000D03*
D34*
X156680000Y-95800000D03*
X155720000Y-95800000D03*
D13*
X114050000Y-104300000D03*
X114050000Y-103340000D03*
D34*
X148380000Y-91200000D03*
X147420000Y-91200000D03*
D16*
X139100000Y-101020000D03*
X139100000Y-101980000D03*
D13*
X120050000Y-104300000D03*
X120050000Y-103340000D03*
D27*
X163490000Y-86600000D03*
X164510000Y-86600000D03*
D14*
X127200000Y-103410000D03*
X127200000Y-102390000D03*
D35*
X118350000Y-116400000D03*
X120250000Y-116400000D03*
D14*
X125200000Y-103410000D03*
X125200000Y-102390000D03*
D21*
X115520000Y-105690000D03*
X115520000Y-106710000D03*
D13*
X115050000Y-104300000D03*
X115050000Y-103340000D03*
D21*
X141100000Y-105490000D03*
X141100000Y-106510000D03*
D34*
X148980000Y-117450000D03*
X148020000Y-117450000D03*
D16*
X167600000Y-107920000D03*
X167600000Y-108880000D03*
D17*
X149920000Y-117450000D03*
X150880000Y-117450000D03*
D20*
X100120000Y-92250000D03*
X99100000Y-92250000D03*
D36*
X145000000Y-115000000D03*
D20*
X165110000Y-99500000D03*
X164090000Y-99500000D03*
D33*
X99350000Y-89000000D03*
X101000000Y-89000000D03*
G04 #@! TA.AperFunction,SMDPad,CuDef*
G36*
X107000000Y-119400000D02*
G01*
X107000000Y-119900000D01*
X106995033Y-119900000D01*
X106993568Y-119979941D01*
X106951293Y-120115256D01*
X106872738Y-120233266D01*
X106764219Y-120324486D01*
X106634460Y-120381581D01*
X106500000Y-120399164D01*
X106500000Y-120400000D01*
X106000000Y-120400000D01*
X106000000Y-120399164D01*
X105993891Y-120399963D01*
X105853814Y-120378152D01*
X105725489Y-120317904D01*
X105619231Y-120224060D01*
X105543583Y-120104165D01*
X105504626Y-119967858D01*
X105505041Y-119900000D01*
X105500000Y-119900000D01*
X105500000Y-119400000D01*
X107000000Y-119400000D01*
G37*
G04 #@! TD.AperFunction*
G04 #@! TA.AperFunction,SMDPad,CuDef*
G36*
X105505041Y-118600000D02*
G01*
X105505492Y-118526095D01*
X105546111Y-118390274D01*
X105623218Y-118271312D01*
X105730615Y-118178774D01*
X105859667Y-118120097D01*
X106000000Y-118100000D01*
X106500000Y-118100000D01*
X106512216Y-118100149D01*
X106652017Y-118123669D01*
X106779596Y-118185481D01*
X106884700Y-118280616D01*
X106958877Y-118401426D01*
X106996166Y-118538199D01*
X106995033Y-118600000D01*
X107000000Y-118600000D01*
X107000000Y-119100000D01*
X105500000Y-119100000D01*
X105500000Y-118600000D01*
X105505041Y-118600000D01*
G37*
G04 #@! TD.AperFunction*
D13*
X123050000Y-104300000D03*
X123050000Y-103340000D03*
D33*
X129575000Y-103800000D03*
X131225000Y-103800000D03*
D37*
X105500000Y-92550000D03*
X105500000Y-94450000D03*
D13*
X116050000Y-104300000D03*
X116050000Y-103340000D03*
D27*
X96120000Y-117200000D03*
X97140000Y-117200000D03*
X101290000Y-87500000D03*
X102310000Y-87500000D03*
D38*
X145962500Y-88050000D03*
X145962500Y-89950000D03*
X147837500Y-89000000D03*
D39*
X105928680Y-111343680D03*
X108468680Y-110073680D03*
X105928680Y-108803680D03*
X108468680Y-107533680D03*
X105928680Y-106263680D03*
X105928680Y-103723680D03*
X108468680Y-102453680D03*
X105928680Y-101183680D03*
X108468680Y-99913680D03*
X97038680Y-112353680D03*
X95008680Y-112353680D03*
X97038680Y-98903680D03*
X95008680Y-98903680D03*
D40*
X102628680Y-113503680D03*
X102628680Y-97753680D03*
D27*
X136190000Y-113500000D03*
X137210000Y-113500000D03*
D41*
X123750000Y-116400000D03*
X121850000Y-116400000D03*
D13*
X143600000Y-101700000D03*
X143600000Y-100740000D03*
D42*
X159874999Y-80600001D03*
X165125001Y-80600001D03*
X159874999Y-83799999D03*
X165125001Y-83799999D03*
D27*
X111190000Y-118300000D03*
X112210000Y-118300000D03*
D17*
X136220000Y-112300000D03*
X137180000Y-112300000D03*
X136220000Y-114650000D03*
X137180000Y-114650000D03*
D13*
X114550000Y-111680000D03*
X114550000Y-110720000D03*
X142600000Y-101700000D03*
X142600000Y-100740000D03*
D16*
X127400000Y-116300000D03*
X127400000Y-117260000D03*
D13*
X118050000Y-104300000D03*
X118050000Y-103340000D03*
X121050000Y-104300000D03*
X121050000Y-103340000D03*
D27*
X166590000Y-112000000D03*
X167610000Y-112000000D03*
D20*
X99110000Y-117200000D03*
X98090000Y-117200000D03*
D15*
X99250000Y-120037500D03*
X99250000Y-118462500D03*
D16*
X112600000Y-110170000D03*
X112600000Y-111130000D03*
D21*
X136600000Y-105490000D03*
X136600000Y-106510000D03*
D13*
X122050000Y-104300000D03*
X122050000Y-103340000D03*
D25*
X132000000Y-92500000D03*
D26*
X132000000Y-95040000D03*
X129460000Y-92500000D03*
X129460000Y-95040000D03*
X126920000Y-92500000D03*
X126920000Y-95040000D03*
X124380000Y-92500000D03*
X124380000Y-95040000D03*
X121840000Y-92500000D03*
X121840000Y-95040000D03*
X119300000Y-92500000D03*
X119300000Y-95040000D03*
X116760000Y-92500000D03*
X116760000Y-95040000D03*
D27*
X155690000Y-94800000D03*
X156710000Y-94800000D03*
D43*
X103950000Y-92450000D03*
X107000000Y-92500000D03*
X116700000Y-112000000D03*
X113100000Y-113900000D03*
X114400000Y-112750000D03*
X113400000Y-112850000D03*
X114500000Y-106100000D03*
X116500000Y-108650000D03*
X138050000Y-101950000D03*
X138050000Y-100950000D03*
X145450000Y-103300000D03*
X145600000Y-102500000D03*
X143800000Y-102600000D03*
X144650000Y-102750000D03*
X146550000Y-100950000D03*
X141600000Y-100450000D03*
X132400000Y-103800000D03*
X128150000Y-101350000D03*
X127250000Y-101350000D03*
X126200000Y-101300000D03*
X125200000Y-101300000D03*
X124200000Y-101300000D03*
X114050000Y-102350000D03*
X115100000Y-102350000D03*
X116050000Y-102350000D03*
X117050000Y-102350000D03*
X118000000Y-102350000D03*
X119050000Y-102350000D03*
X120050000Y-102400000D03*
X121050000Y-102400000D03*
X122050000Y-102400000D03*
X123050000Y-102400000D03*
X124050000Y-104450000D03*
X119050000Y-105250000D03*
X120050000Y-105200000D03*
X121050000Y-105200000D03*
X118050000Y-105250000D03*
X117250000Y-105250000D03*
X116450000Y-105250000D03*
X114550000Y-105200000D03*
X113800000Y-105200000D03*
X154600000Y-118400000D03*
X155800000Y-95800000D03*
X122000000Y-108200000D03*
X127400000Y-117200000D03*
X148600000Y-116000000D03*
X166600000Y-111000000D03*
X164600000Y-89800000D03*
X161200000Y-80400000D03*
X134600000Y-114400000D03*
X124800000Y-113000000D03*
X156600000Y-80600000D03*
X122200000Y-110000000D03*
X127400000Y-110600000D03*
X125400000Y-117200000D03*
X166000000Y-108800000D03*
X129400000Y-105200000D03*
X106250000Y-118500000D03*
X146000000Y-88000000D03*
X150417073Y-113382927D03*
X120250000Y-116400000D03*
X167400000Y-87800000D03*
X147000000Y-102200000D03*
X154800000Y-104200000D03*
X138800000Y-106000000D03*
X134600000Y-116200000D03*
X121800000Y-116400000D03*
X126400000Y-117200000D03*
X142833400Y-110698013D03*
X147800000Y-80600000D03*
X152200000Y-113800000D03*
X105500000Y-85500000D03*
X167600000Y-88600000D03*
X148600000Y-92200000D03*
X104700000Y-85500000D03*
X101400000Y-87400000D03*
X166800000Y-88600000D03*
X103900000Y-85500000D03*
X171000000Y-87600000D03*
X166600000Y-111900000D03*
X139800000Y-103600000D03*
X104230000Y-119310000D03*
X122800000Y-111000000D03*
X141000000Y-105400000D03*
X136600000Y-105400000D03*
X150400000Y-110933400D03*
X126723708Y-111050862D03*
X153800000Y-104200000D03*
X166000000Y-107800000D03*
X122000000Y-109012803D03*
X123987197Y-113000000D03*
X145400000Y-94400000D03*
X118572073Y-116572073D03*
X143800000Y-111000000D03*
X155800000Y-94800000D03*
X115500000Y-111100000D03*
X114450000Y-108250000D03*
X163400000Y-87400000D03*
X152000000Y-107000000D03*
X155400000Y-106400000D03*
X156266600Y-98200000D03*
X165200000Y-86600000D03*
X142300000Y-115350000D03*
X98000000Y-118600000D03*
X167400000Y-113000000D03*
X143200000Y-105800000D03*
X166900000Y-109650000D03*
X147800000Y-105300000D03*
X98433400Y-93752171D03*
X114250000Y-107400000D03*
X158261597Y-95061597D03*
X142000000Y-106200000D03*
X142000000Y-103200000D03*
X158200000Y-93933400D03*
X142400000Y-104600000D03*
X113600000Y-106600000D03*
X142169888Y-94484012D03*
X147367631Y-101455477D03*
X143262088Y-94484012D03*
X148139935Y-100683173D03*
X109200000Y-118400000D03*
X127450000Y-112950000D03*
X113550000Y-117200000D03*
X109200000Y-117200000D03*
X127450000Y-111950000D03*
X113550000Y-118300000D03*
X150000000Y-101800000D03*
X149596900Y-101076292D03*
X149000000Y-100400000D03*
X155100000Y-107600000D03*
X130800000Y-106200000D03*
X155568022Y-108264532D03*
X130800000Y-107100000D03*
X156201383Y-108873204D03*
X130800000Y-108000000D03*
X155400000Y-109633400D03*
X130800000Y-108900000D03*
X154700000Y-110133400D03*
X130800000Y-109800000D03*
X100600000Y-120100000D03*
X106250000Y-120040000D03*
X155950000Y-107100000D03*
X157450000Y-106650000D03*
X154100000Y-103050000D03*
X165600000Y-94400000D03*
X151850000Y-115950000D03*
X151250000Y-113550000D03*
D44*
X105500000Y-92550000D02*
X106950000Y-92550000D01*
X106950000Y-92550000D02*
X107000000Y-92500000D01*
X103950000Y-92450000D02*
X105400000Y-92450000D01*
X105400000Y-92450000D02*
X105500000Y-92550000D01*
X116700000Y-112000000D02*
X117500000Y-112000000D01*
X117500000Y-112000000D02*
X117700000Y-111800000D01*
X113100000Y-113900000D02*
X112210000Y-113900000D01*
X113400000Y-112850000D02*
X112230000Y-112850000D01*
X112230000Y-112850000D02*
X112180000Y-112900000D01*
X114400000Y-112750000D02*
X113500000Y-112750000D01*
X113500000Y-112750000D02*
X113400000Y-112850000D01*
X114400000Y-112750000D02*
X114400000Y-111830000D01*
X114400000Y-111830000D02*
X114550000Y-111680000D01*
X114550000Y-105200000D02*
X114550000Y-106050000D01*
X114550000Y-106050000D02*
X114500000Y-106100000D01*
X114500000Y-106100000D02*
X115110000Y-106100000D01*
X115110000Y-106100000D02*
X115520000Y-105690000D01*
X116500000Y-108650000D02*
X115550000Y-108650000D01*
X115550000Y-108650000D02*
X115520000Y-108620000D01*
X138050000Y-100950000D02*
X139030000Y-100950000D01*
X139030000Y-100950000D02*
X139100000Y-101020000D01*
X138050000Y-101950000D02*
X139070000Y-101950000D01*
X139070000Y-101950000D02*
X139100000Y-101980000D01*
X146550000Y-100950000D02*
X146550000Y-101750000D01*
X146550000Y-101750000D02*
X147000000Y-102200000D01*
X145600000Y-102500000D02*
X145600000Y-103150000D01*
X145600000Y-103150000D02*
X145450000Y-103300000D01*
X145450000Y-103300000D02*
X145837500Y-103687500D01*
X145837500Y-103687500D02*
X146440000Y-103687500D01*
X144600000Y-101700000D02*
X145600000Y-101700000D01*
X143600000Y-101700000D02*
X144600000Y-101700000D01*
X142600000Y-101700000D02*
X143600000Y-101700000D01*
X145600000Y-101700000D02*
X145600000Y-102500000D01*
X144600000Y-101700000D02*
X144600000Y-102700000D01*
X144600000Y-102700000D02*
X144650000Y-102750000D01*
X143600000Y-101700000D02*
X143600000Y-102400000D01*
X143600000Y-102400000D02*
X143800000Y-102600000D01*
X144600000Y-100740000D02*
X145600000Y-100740000D01*
X143600000Y-100740000D02*
X144600000Y-100740000D01*
X142600000Y-100740000D02*
X143600000Y-100740000D01*
X141600000Y-100450000D02*
X142310000Y-100450000D01*
X142310000Y-100450000D02*
X142600000Y-100740000D01*
X146550000Y-100950000D02*
X145810000Y-100950000D01*
X145810000Y-100950000D02*
X145600000Y-100740000D01*
X132400000Y-103800000D02*
X131225000Y-103800000D01*
X128200000Y-102390000D02*
X127200000Y-102390000D01*
X127200000Y-102390000D02*
X127250000Y-102340000D01*
X126200000Y-102390000D02*
X127200000Y-102390000D01*
X125200000Y-102390000D02*
X126200000Y-102390000D01*
X124200000Y-102390000D02*
X125200000Y-102390000D01*
X115050000Y-104300000D02*
X114050000Y-104300000D01*
X116050000Y-104300000D02*
X115050000Y-104300000D01*
X117050000Y-104300000D02*
X116050000Y-104300000D01*
X118050000Y-104300000D02*
X117050000Y-104300000D01*
X119050000Y-104300000D02*
X118050000Y-104300000D01*
X120050000Y-104300000D02*
X119050000Y-104300000D01*
X121050000Y-104300000D02*
X120050000Y-104300000D01*
X122050000Y-103340000D02*
X123050000Y-103340000D01*
X121050000Y-103340000D02*
X122050000Y-103340000D01*
X120050000Y-103340000D02*
X121050000Y-103340000D01*
X119050000Y-103340000D02*
X120050000Y-103340000D01*
X118050000Y-103340000D02*
X119050000Y-103340000D01*
X117050000Y-103340000D02*
X118050000Y-103340000D01*
X116050000Y-103340000D02*
X117050000Y-103340000D01*
X115050000Y-103340000D02*
X116050000Y-103340000D01*
X114050000Y-103340000D02*
X115050000Y-103340000D01*
X115100000Y-102350000D02*
X115100000Y-103290000D01*
X115100000Y-103290000D02*
X115050000Y-103340000D01*
X116050000Y-102350000D02*
X116050000Y-103340000D01*
X117050000Y-102350000D02*
X117050000Y-103340000D01*
X118000000Y-102350000D02*
X118000000Y-103290000D01*
X118000000Y-103290000D02*
X118050000Y-103340000D01*
X119050000Y-102350000D02*
X119050000Y-103340000D01*
X120050000Y-102400000D02*
X120050000Y-103340000D01*
X121050000Y-102400000D02*
X121050000Y-103340000D01*
X122050000Y-102400000D02*
X122050000Y-103340000D01*
X123050000Y-102400000D02*
X123050000Y-103340000D01*
X124200000Y-101300000D02*
X124200000Y-102390000D01*
X125200000Y-101300000D02*
X125200000Y-102390000D01*
X126200000Y-101300000D02*
X126200000Y-102390000D01*
X127250000Y-101350000D02*
X127250000Y-102340000D01*
X128150000Y-101350000D02*
X128150000Y-102340000D01*
X128150000Y-102340000D02*
X128200000Y-102390000D01*
X123050000Y-104300000D02*
X123900000Y-104300000D01*
X123900000Y-104300000D02*
X124050000Y-104450000D01*
X122050000Y-104300000D02*
X123050000Y-104300000D01*
X121050000Y-104300000D02*
X122050000Y-104300000D01*
X121050000Y-104300000D02*
X121050000Y-105200000D01*
X120050000Y-104300000D02*
X120050000Y-105200000D01*
X119050000Y-104300000D02*
X119050000Y-105250000D01*
X118050000Y-104300000D02*
X118050000Y-105250000D01*
X117050000Y-104300000D02*
X117050000Y-105050000D01*
X117050000Y-105050000D02*
X117250000Y-105250000D01*
X116050000Y-104300000D02*
X116050000Y-104850000D01*
X116050000Y-104850000D02*
X116450000Y-105250000D01*
X115050000Y-104300000D02*
X115050000Y-104700000D01*
X115050000Y-104700000D02*
X114550000Y-105200000D01*
X114050000Y-104300000D02*
X114050000Y-104950000D01*
X114050000Y-104950000D02*
X113800000Y-105200000D01*
X114050000Y-102350000D02*
X114050000Y-103340000D01*
X124900000Y-113100000D02*
X124800000Y-113000000D01*
X146954020Y-90625980D02*
X146380000Y-91200000D01*
D45*
X97303680Y-87653680D02*
X95953680Y-87653680D01*
X105500000Y-94882360D02*
X102628680Y-97753680D01*
D44*
X120250000Y-116400000D02*
X121800000Y-116400000D01*
D45*
X102628680Y-97753680D02*
X102628680Y-113503680D01*
D44*
X152220000Y-113820000D02*
X152200000Y-113800000D01*
D45*
X92943680Y-94953680D02*
X96323680Y-94953680D01*
D44*
X154800000Y-105200000D02*
X154400000Y-105600000D01*
X154400000Y-105600000D02*
X153352500Y-105600000D01*
X159874999Y-80600001D02*
X160999999Y-80600001D01*
X143431413Y-110100000D02*
X142833400Y-110698013D01*
X122400000Y-115850000D02*
X121850000Y-116400000D01*
X145962500Y-88641128D02*
X146954020Y-89632648D01*
D45*
X95953680Y-93603680D02*
X97303680Y-93603680D01*
D44*
X137180000Y-112300000D02*
X137180000Y-112599842D01*
X146954020Y-89632648D02*
X146954020Y-90625980D01*
X154800000Y-104200000D02*
X154800000Y-105200000D01*
X124900000Y-114362500D02*
X124900000Y-113100000D01*
X121900000Y-108100000D02*
X122000000Y-108200000D01*
X154550000Y-113820000D02*
X152220000Y-113820000D01*
X122100000Y-116400000D02*
X121850000Y-116400000D01*
X137180000Y-112599842D02*
X137734020Y-113153862D01*
X123400000Y-114362500D02*
X123400000Y-115100000D01*
D45*
X98946320Y-94953680D02*
X96323680Y-94953680D01*
X96323680Y-86303680D02*
X92943680Y-86303680D01*
D44*
X121750000Y-108450000D02*
X122000000Y-108200000D01*
X149314020Y-116885980D02*
X150315980Y-116885980D01*
X137734020Y-113153862D02*
X137734020Y-114095980D01*
D45*
X100120000Y-93460000D02*
X100120000Y-93780000D01*
D44*
X149314020Y-116885980D02*
X148600000Y-116171960D01*
X145962500Y-88050000D02*
X145962500Y-88641128D01*
D45*
X101746320Y-97753680D02*
X98946320Y-94953680D01*
X102628680Y-97753680D02*
X101746320Y-97753680D01*
D44*
X154550000Y-116860000D02*
X154550000Y-118350000D01*
X120487500Y-111450000D02*
X121263844Y-111450000D01*
X121800000Y-116400000D02*
X121850000Y-116400000D01*
X123400000Y-115100000D02*
X122100000Y-116400000D01*
X146940000Y-102260000D02*
X147000000Y-102200000D01*
X146940000Y-103687500D02*
X146940000Y-102260000D01*
X135630000Y-116200000D02*
X134600000Y-116200000D01*
X127750000Y-110950000D02*
X127400000Y-110600000D01*
D45*
X105500000Y-94450000D02*
X105500000Y-94882360D01*
D44*
X122400000Y-114362500D02*
X122400000Y-115850000D01*
X120487500Y-108450000D02*
X121750000Y-108450000D01*
X137734020Y-114095980D02*
X137180000Y-114650000D01*
X160999999Y-80600001D02*
X161200000Y-80400000D01*
D45*
X92943680Y-86303680D02*
X92943680Y-94953680D01*
D46*
X166080000Y-108880000D02*
X167600000Y-108880000D01*
D44*
X147420000Y-91200000D02*
X146380000Y-91200000D01*
X148600000Y-116171960D02*
X148600000Y-116000000D01*
X128812500Y-110950000D02*
X127750000Y-110950000D01*
X137180000Y-114650000D02*
X135630000Y-116200000D01*
D46*
X166000000Y-108800000D02*
X166080000Y-108880000D01*
D45*
X95953680Y-87653680D02*
X95953680Y-86673680D01*
D44*
X150315980Y-116885980D02*
X150880000Y-117450000D01*
X148584020Y-116885980D02*
X149314020Y-116885980D01*
X121900000Y-106037500D02*
X121900000Y-108100000D01*
X145027500Y-110100000D02*
X143431413Y-110100000D01*
D45*
X100120000Y-92250000D02*
X100120000Y-93460000D01*
D44*
X154550000Y-118350000D02*
X154600000Y-118400000D01*
X148020000Y-117450000D02*
X148584020Y-116885980D01*
X149940000Y-112905854D02*
X150417073Y-113382927D01*
X121263844Y-111450000D02*
X122200000Y-110513844D01*
X149940000Y-112012500D02*
X149940000Y-112905854D01*
D45*
X100120000Y-93780000D02*
X98946320Y-94953680D01*
D44*
X122200000Y-110513844D02*
X122200000Y-110000000D01*
D45*
X95953680Y-86673680D02*
X96323680Y-86303680D01*
D44*
X148600000Y-91420000D02*
X148380000Y-91200000D01*
D45*
X104700000Y-85500000D02*
X105500000Y-85500000D01*
X102650000Y-85500000D02*
X103900000Y-85500000D01*
D44*
X148600000Y-92200000D02*
X148600000Y-91420000D01*
D45*
X103900000Y-85500000D02*
X104700000Y-85500000D01*
D44*
X147837500Y-89000000D02*
X147837500Y-90657500D01*
X147837500Y-90657500D02*
X148380000Y-91200000D01*
X118400000Y-116400000D02*
X118572073Y-116572073D01*
X121225000Y-110950000D02*
X121479020Y-110695980D01*
X120487500Y-110950000D02*
X121225000Y-110950000D01*
X127736518Y-111353089D02*
X127025935Y-111353089D01*
X120487500Y-108950000D02*
X121937197Y-108950000D01*
X150440000Y-112012500D02*
X150440000Y-110973400D01*
X145420000Y-94380000D02*
X145400000Y-94400000D01*
X101671960Y-120730000D02*
X101670980Y-120729020D01*
X102080000Y-120730000D02*
X102080000Y-120320000D01*
X121350000Y-112450000D02*
X122800000Y-111000000D01*
X101670980Y-120729020D02*
X98516520Y-120729020D01*
X121937197Y-108950000D02*
X122000000Y-109012803D01*
X150440000Y-110973400D02*
X150400000Y-110933400D01*
X104230000Y-119860000D02*
X103360000Y-120730000D01*
X123900000Y-114362500D02*
X123900000Y-113087197D01*
X125900000Y-114362500D02*
X125900000Y-113216571D01*
X153800000Y-104200000D02*
X153800000Y-104652500D01*
X144200000Y-110600000D02*
X143800000Y-111000000D01*
X145962500Y-90657500D02*
X145420000Y-91200000D01*
X123987197Y-113000000D02*
X123525000Y-113000000D01*
X121479020Y-109533783D02*
X122000000Y-109012803D01*
X118350000Y-116400000D02*
X118400000Y-116400000D01*
X102080000Y-120730000D02*
X101671960Y-120730000D01*
X128812500Y-111450000D02*
X127833429Y-111450000D01*
X104230000Y-119310000D02*
X104230000Y-119860000D01*
X103360000Y-120730000D02*
X102080000Y-120730000D01*
X123525000Y-113000000D02*
X122900000Y-113625000D01*
X102080000Y-120320000D02*
X102500000Y-119900000D01*
X123900000Y-113087197D02*
X123987197Y-113000000D01*
X123900000Y-116250000D02*
X123900000Y-114362500D01*
X125086518Y-112403089D02*
X124513482Y-112403089D01*
X124513482Y-112403089D02*
X123987197Y-112929374D01*
D46*
X166000000Y-107800000D02*
X166120000Y-107920000D01*
D44*
X145027500Y-110600000D02*
X144200000Y-110600000D01*
X122900000Y-113625000D02*
X122900000Y-114362500D01*
D46*
X166120000Y-107920000D02*
X167600000Y-107920000D01*
D44*
X127025935Y-111353089D02*
X126723708Y-111050862D01*
X125900000Y-113216571D02*
X125086518Y-112403089D01*
X153800000Y-104652500D02*
X153352500Y-105100000D01*
X145420000Y-91200000D02*
X145420000Y-94380000D01*
X123987197Y-112929374D02*
X123987197Y-113000000D01*
X145962500Y-89950000D02*
X145962500Y-90657500D01*
X123750000Y-116400000D02*
X123900000Y-116250000D01*
X120487500Y-112450000D02*
X121350000Y-112450000D01*
X127833429Y-111450000D02*
X127736518Y-111353089D01*
X98516520Y-120729020D02*
X96250000Y-118462500D01*
X121479020Y-110695980D02*
X121479020Y-109533783D01*
X105928680Y-106263680D02*
X110763680Y-106263680D01*
X112600000Y-108100000D02*
X112600000Y-108270000D01*
X110763680Y-106263680D02*
X112600000Y-108100000D01*
X113570000Y-109230000D02*
X113600000Y-109260000D01*
X112600000Y-109230000D02*
X113570000Y-109230000D01*
X113790000Y-109450000D02*
X120487500Y-109450000D01*
X113600000Y-109260000D02*
X113790000Y-109450000D01*
X108468680Y-111026691D02*
X108468680Y-111130000D01*
X108011234Y-111026691D02*
X108468680Y-111026691D01*
X107515669Y-109616234D02*
X107515669Y-110531126D01*
X108011234Y-109120669D02*
X107515669Y-109616234D01*
X108468680Y-111130000D02*
X112600000Y-111130000D01*
X108468680Y-109120669D02*
X108011234Y-109120669D01*
X108468680Y-107533680D02*
X108468680Y-109120669D01*
X107515669Y-110531126D02*
X108011234Y-111026691D01*
X113790000Y-109950000D02*
X113600000Y-110140000D01*
X112600000Y-110170000D02*
X113570000Y-110170000D01*
X120487500Y-109950000D02*
X113790000Y-109950000D01*
X113570000Y-110170000D02*
X113600000Y-110140000D01*
X114440000Y-108240000D02*
X114450000Y-108250000D01*
X115120000Y-110720000D02*
X114550000Y-110720000D01*
X114550000Y-110720000D02*
X114040000Y-110720000D01*
X115500000Y-111100000D02*
X115120000Y-110720000D01*
X113600000Y-108240000D02*
X114440000Y-108240000D01*
X114040000Y-110720000D02*
X113600000Y-111160000D01*
X136220000Y-114650000D02*
X136220000Y-114490000D01*
X132400000Y-114350000D02*
X133254011Y-115204011D01*
X131445989Y-113395989D02*
X132400000Y-114350000D01*
X131445989Y-112345989D02*
X131445989Y-113395989D01*
X133254011Y-115204011D02*
X135665989Y-115204011D01*
X129550000Y-110450000D02*
X131445989Y-112345989D01*
X135665989Y-115204011D02*
X136220000Y-114650000D01*
X136220000Y-114490000D02*
X137210000Y-113500000D01*
X128812500Y-110450000D02*
X129550000Y-110450000D01*
X133745989Y-111795989D02*
X134600000Y-112650000D01*
D46*
X132059489Y-111859489D02*
X133809489Y-111859489D01*
D44*
X130066571Y-109950000D02*
X131912560Y-111795989D01*
X136220000Y-112300000D02*
X136220000Y-113470000D01*
X135870000Y-112650000D02*
X136220000Y-112300000D01*
X136220000Y-113470000D02*
X136190000Y-113500000D01*
X128812500Y-109950000D02*
X130066571Y-109950000D01*
X131912560Y-111795989D02*
X133745989Y-111795989D01*
X134600000Y-112650000D02*
X135870000Y-112650000D01*
X107074543Y-113900000D02*
X111190000Y-113900000D01*
X105928680Y-108803680D02*
X104975669Y-109756691D01*
X111190000Y-113900000D02*
X111190000Y-112930000D01*
X111190000Y-112930000D02*
X111220000Y-112900000D01*
X104975669Y-111801126D02*
X107074543Y-113900000D01*
X104975669Y-109756691D02*
X104975669Y-111801126D01*
X128520000Y-104855000D02*
X129575000Y-103800000D01*
X127782500Y-106037500D02*
X128520000Y-105300000D01*
X128520000Y-105300000D02*
X128520000Y-104855000D01*
X127400000Y-106037500D02*
X127782500Y-106037500D01*
X126900000Y-115800000D02*
X127400000Y-116300000D01*
X126900000Y-114362500D02*
X126900000Y-115800000D01*
X126400000Y-114362500D02*
X126400000Y-116300000D01*
X125400000Y-114362500D02*
X125400000Y-116300000D01*
D46*
X163400000Y-87400000D02*
X163400000Y-86690000D01*
X152600000Y-107600000D02*
X152000000Y-107000000D01*
X156266600Y-105533400D02*
X156266600Y-98200000D01*
X155400000Y-106400000D02*
X156266600Y-105533400D01*
X153352500Y-107600000D02*
X152600000Y-107600000D01*
X163400000Y-86690000D02*
X163490000Y-86600000D01*
X164510000Y-86600000D02*
X165200000Y-86600000D01*
D44*
X95520980Y-117799020D02*
X95520980Y-119308480D01*
X96120000Y-117200000D02*
X95520980Y-117799020D01*
X95520980Y-119308480D02*
X96250000Y-120037500D01*
D46*
X99110000Y-117200000D02*
X99110000Y-117268704D01*
X99915520Y-119371980D02*
X99250000Y-120037500D01*
X99915520Y-118074224D02*
X99915520Y-119371980D01*
X99110000Y-117268704D02*
X99915520Y-118074224D01*
X142300000Y-109090000D02*
X142300000Y-115350000D01*
X144290000Y-107100000D02*
X142300000Y-109090000D01*
X145027500Y-107100000D02*
X144290000Y-107100000D01*
X98137500Y-118462500D02*
X98000000Y-118600000D01*
X99250000Y-118462500D02*
X98137500Y-118462500D01*
X170500000Y-110880000D02*
X170500000Y-110780000D01*
X145027500Y-105100000D02*
X143900000Y-105100000D01*
X167400000Y-113000000D02*
X167400000Y-112210000D01*
X167400000Y-112210000D02*
X167610000Y-112000000D01*
X169380000Y-112000000D02*
X170500000Y-110880000D01*
X169380000Y-112000000D02*
X167610000Y-112000000D01*
X143900000Y-105100000D02*
X143200000Y-105800000D01*
X147440000Y-103687500D02*
X147440000Y-104940000D01*
X170500000Y-108340000D02*
X170500000Y-108240000D01*
X166900000Y-109790000D02*
X167610000Y-110500000D01*
X167610000Y-110500000D02*
X167610000Y-111000000D01*
X166900000Y-109650000D02*
X166900000Y-109790000D01*
X167840000Y-111000000D02*
X170500000Y-108340000D01*
X167610000Y-111000000D02*
X167840000Y-111000000D01*
X147440000Y-104940000D02*
X147800000Y-105300000D01*
X95953680Y-91903680D02*
X95438169Y-92419191D01*
X97900000Y-93450000D02*
X99100000Y-92250000D01*
X97900000Y-94200000D02*
X97900000Y-93450000D01*
X95787043Y-94200000D02*
X97900000Y-94200000D01*
X95438169Y-93851126D02*
X95787043Y-94200000D01*
X95438169Y-92419191D02*
X95438169Y-93851126D01*
X151940000Y-103687500D02*
X151940000Y-100740000D01*
X125600000Y-96600000D02*
X125600000Y-93720000D01*
X151940000Y-100740000D02*
X149400000Y-98200000D01*
X127200000Y-98200000D02*
X125600000Y-96600000D01*
X125600000Y-93720000D02*
X124380000Y-92500000D01*
X149400000Y-98200000D02*
X127200000Y-98200000D01*
X128400000Y-96200000D02*
X128400000Y-93980000D01*
X155800000Y-105008280D02*
X155800000Y-103040762D01*
X128400000Y-93980000D02*
X126920000Y-92500000D01*
X154208280Y-106600000D02*
X155800000Y-105008280D01*
X155800000Y-103040762D02*
X149759238Y-97000000D01*
X129200000Y-97000000D02*
X128400000Y-96200000D01*
X153352500Y-106600000D02*
X154208280Y-106600000D01*
X149759238Y-97000000D02*
X129200000Y-97000000D01*
X98433400Y-93752171D02*
X98807829Y-93752171D01*
X98807829Y-93752171D02*
X99100000Y-93460000D01*
D45*
X97498577Y-88503680D02*
X97303680Y-88503680D01*
X99350000Y-86652257D02*
X97498577Y-88503680D01*
X97303680Y-92753680D02*
X95953680Y-92753680D01*
X99350000Y-85500000D02*
X99350000Y-86652257D01*
X97303680Y-88503680D02*
X95953680Y-88503680D01*
D44*
X169633937Y-99400000D02*
X168529926Y-100504011D01*
X168529926Y-100504011D02*
X166114011Y-100504011D01*
X170540000Y-99400000D02*
X169633937Y-99400000D01*
X166114011Y-100504011D02*
X165110000Y-99500000D01*
X169104011Y-98295989D02*
X168000000Y-99400000D01*
X167710000Y-94400000D02*
X169104011Y-95794011D01*
X169104011Y-95794011D02*
X169104011Y-98295989D01*
X102500000Y-118600000D02*
X97038680Y-113138680D01*
D45*
X97038680Y-98903680D02*
X97038680Y-112353680D01*
D44*
X97038680Y-113138680D02*
X97038680Y-112353680D01*
X114250000Y-107400000D02*
X115320000Y-107400000D01*
X115320000Y-107400000D02*
X115520000Y-107600000D01*
X115520000Y-107600000D02*
X115870000Y-107950000D01*
X115870000Y-107950000D02*
X120487500Y-107950000D01*
D46*
X142545980Y-103745980D02*
X145145722Y-103745980D01*
X141410000Y-106200000D02*
X141100000Y-106510000D01*
X157600000Y-94400000D02*
X158261597Y-95061597D01*
X141100000Y-106510000D02*
X140310000Y-106510000D01*
X145765000Y-108100000D02*
X145027500Y-108100000D01*
X146209539Y-104809797D02*
X146209540Y-107655460D01*
X167000000Y-89750000D02*
X165650000Y-89750000D01*
X140310000Y-106510000D02*
X139800000Y-106000000D01*
X162000000Y-93400000D02*
X157600000Y-93400000D01*
X145145722Y-103745980D02*
X146209539Y-104809797D01*
X142000000Y-106200000D02*
X141410000Y-106200000D01*
X165650000Y-89750000D02*
X162000000Y-93400000D01*
X146209540Y-107655460D02*
X145765000Y-108100000D01*
X157600000Y-93400000D02*
X157600000Y-94400000D01*
X142000000Y-103200000D02*
X142545980Y-103745980D01*
X145027500Y-107600000D02*
X145765000Y-107600000D01*
X158600000Y-93800000D02*
X158333400Y-93800000D01*
X145040504Y-104000000D02*
X143000000Y-104000000D01*
X137900000Y-105337500D02*
X137900000Y-106000000D01*
X145765000Y-107600000D02*
X145955520Y-107409480D01*
X145955520Y-104915016D02*
X145040504Y-104000000D01*
X142400000Y-104600000D02*
X138637500Y-104600000D01*
X162000000Y-93800000D02*
X158600000Y-93800000D01*
X137900000Y-106000000D02*
X137390000Y-106510000D01*
X137390000Y-106510000D02*
X136600000Y-106510000D01*
X142400000Y-104600000D02*
X143000000Y-104000000D01*
X138637500Y-104600000D02*
X137900000Y-105337500D01*
X167000000Y-90750000D02*
X165050000Y-90750000D01*
X158333400Y-93800000D02*
X158200000Y-93933400D01*
X145955520Y-107409480D02*
X145955520Y-104915016D01*
X165050000Y-90750000D02*
X162000000Y-93800000D01*
D44*
X120028750Y-106710000D02*
X120487500Y-107168750D01*
X120487500Y-107168750D02*
X120487500Y-107450000D01*
X113600000Y-106600000D02*
X113710000Y-106710000D01*
X113710000Y-106710000D02*
X115520000Y-106710000D01*
X115520000Y-106710000D02*
X120028750Y-106710000D01*
D46*
X102310000Y-87690000D02*
X102310000Y-87500000D01*
D47*
X101659299Y-89659299D02*
X137059299Y-89659299D01*
X147940000Y-103687500D02*
X147986799Y-103640701D01*
D46*
X101000000Y-89000000D02*
X102310000Y-87690000D01*
D47*
X147986799Y-101589710D02*
X147852566Y-101455477D01*
X147986799Y-103640701D02*
X147986799Y-101589710D01*
D44*
X99350000Y-89000000D02*
X101000000Y-89000000D01*
X98507360Y-89000000D02*
X99350000Y-89000000D01*
D47*
X137059299Y-89659299D02*
X139200000Y-91800000D01*
X147852566Y-101455477D02*
X147367631Y-101455477D01*
X139200000Y-91800000D02*
X140550000Y-91800000D01*
X140550000Y-91800000D02*
X142169888Y-93419888D01*
X142169888Y-93419888D02*
X142169888Y-94484012D01*
D44*
X97303680Y-90203680D02*
X98507360Y-89000000D01*
D47*
X101000000Y-89000000D02*
X101659299Y-89659299D01*
X142715999Y-94746146D02*
X142715999Y-94484012D01*
X148440000Y-103687500D02*
X148393201Y-103640701D01*
X141907754Y-95030123D02*
X142432022Y-95030123D01*
D44*
X97303680Y-91053680D02*
X99021320Y-91053680D01*
D47*
X142432022Y-95030123D02*
X142715999Y-94746146D01*
X101025000Y-90700000D02*
X101659299Y-90065701D01*
D44*
X95953680Y-90203680D02*
X96453680Y-90203680D01*
D47*
X142715999Y-94484012D02*
X143262088Y-94484012D01*
D44*
X96453680Y-90203680D02*
X97303680Y-91053680D01*
D47*
X101659299Y-90065701D02*
X136865701Y-90065701D01*
D44*
X101025000Y-90700000D02*
X99375000Y-90700000D01*
D47*
X148393201Y-103640701D02*
X148393201Y-101421374D01*
X148139935Y-101168108D02*
X148139935Y-100683173D01*
D44*
X99021320Y-91053680D02*
X99375000Y-90700000D01*
D47*
X148393201Y-101421374D02*
X148139935Y-101168108D01*
X136865701Y-90065701D02*
X140776222Y-93976222D01*
X140853853Y-93976222D02*
X141907754Y-95030123D01*
X140776222Y-93976222D02*
X140853853Y-93976222D01*
D44*
X126900000Y-104710000D02*
X126900000Y-106037500D01*
X128200000Y-103410000D02*
X126900000Y-104710000D01*
X126400000Y-104210000D02*
X126400000Y-106037500D01*
X127200000Y-103410000D02*
X126400000Y-104210000D01*
X126200000Y-103410000D02*
X125900000Y-103710000D01*
X125900000Y-103710000D02*
X125900000Y-106037500D01*
X125200000Y-103410000D02*
X125400000Y-103610000D01*
X125400000Y-103610000D02*
X125400000Y-106037500D01*
X124900000Y-104110000D02*
X124900000Y-106037500D01*
X124200000Y-103410000D02*
X124900000Y-104110000D01*
X120487500Y-111950000D02*
X118870000Y-111950000D01*
X118870000Y-111950000D02*
X118720000Y-111800000D01*
X111090000Y-118400000D02*
X111190000Y-118300000D01*
X109200000Y-118400000D02*
X111090000Y-118400000D01*
X113550000Y-117200000D02*
X112210000Y-117200000D01*
X128812500Y-112950000D02*
X127450000Y-112950000D01*
X109200000Y-117200000D02*
X111190000Y-117200000D01*
X113550000Y-118300000D02*
X112210000Y-118300000D01*
X128812500Y-111950000D02*
X127450000Y-111950000D01*
D46*
X150000000Y-110400000D02*
X152000000Y-110400000D01*
X154923516Y-110940520D02*
X156800000Y-109064036D01*
X149280520Y-111853020D02*
X149280520Y-111119480D01*
X152540520Y-110940520D02*
X154923516Y-110940520D01*
X156800000Y-109064036D02*
X156800000Y-96400000D01*
X156800000Y-90500000D02*
X165125001Y-82174999D01*
X156800000Y-94000000D02*
X156800000Y-94710000D01*
X156800000Y-94000000D02*
X156800000Y-90500000D01*
X156800000Y-94710000D02*
X156710000Y-94800000D01*
X149280520Y-111119480D02*
X150000000Y-110400000D01*
X156680000Y-95800000D02*
X156800000Y-95920000D01*
X149440000Y-112012500D02*
X149280520Y-111853020D01*
X165125001Y-82174999D02*
X165125001Y-80600001D01*
X156800000Y-96400000D02*
X156800000Y-95920000D01*
X152000000Y-110400000D02*
X152540520Y-110940520D01*
X156800000Y-96400000D02*
X156800000Y-94000000D01*
X149940000Y-103687500D02*
X149940000Y-101860000D01*
X149940000Y-101860000D02*
X150000000Y-101800000D01*
X149440000Y-103687500D02*
X149440000Y-101233192D01*
X149440000Y-101233192D02*
X149596900Y-101076292D01*
X148940000Y-100460000D02*
X149000000Y-100400000D01*
X148940000Y-103687500D02*
X148940000Y-100460000D01*
X154600000Y-108100000D02*
X155100000Y-107600000D01*
X130800000Y-106200000D02*
X130300000Y-106700000D01*
X129562500Y-106700000D02*
X128812500Y-107450000D01*
X153352500Y-108100000D02*
X154600000Y-108100000D01*
X130300000Y-106700000D02*
X129562500Y-106700000D01*
X130800000Y-107100000D02*
X130109480Y-107790520D01*
X153352500Y-108600000D02*
X155232554Y-108600000D01*
X130109480Y-107790520D02*
X128971980Y-107790520D01*
X155232554Y-108600000D02*
X155568022Y-108264532D01*
X128971980Y-107790520D02*
X128812500Y-107950000D01*
X155974587Y-109100000D02*
X156201383Y-108873204D01*
X130350000Y-108450000D02*
X128812500Y-108450000D01*
X130800000Y-108000000D02*
X130350000Y-108450000D01*
X153352500Y-109100000D02*
X155974587Y-109100000D01*
X130750000Y-108950000D02*
X128812500Y-108950000D01*
X153352500Y-109600000D02*
X155366600Y-109600000D01*
X130800000Y-108900000D02*
X130750000Y-108950000D01*
X155366600Y-109600000D02*
X155400000Y-109633400D01*
X130450000Y-109450000D02*
X128812500Y-109450000D01*
X153352500Y-110100000D02*
X154666600Y-110100000D01*
X154666600Y-110100000D02*
X154700000Y-110133400D01*
X130800000Y-109800000D02*
X130450000Y-109450000D01*
D44*
X98090000Y-117200000D02*
X97140000Y-117200000D01*
X100600000Y-117819842D02*
X100600000Y-120100000D01*
X99406138Y-116625980D02*
X100600000Y-117819842D01*
X98664020Y-116625980D02*
X99406138Y-116625980D01*
X98090000Y-117200000D02*
X98664020Y-116625980D01*
X146940000Y-113060000D02*
X145000000Y-115000000D01*
X146940000Y-112012500D02*
X146940000Y-113060000D01*
D46*
X153385911Y-107066589D02*
X153352500Y-107100000D01*
X155916589Y-107066589D02*
X153385911Y-107066589D01*
X164090000Y-100010000D02*
X157450000Y-106650000D01*
X155950000Y-107100000D02*
X155916589Y-107066589D01*
X164090000Y-99500000D02*
X164090000Y-100010000D01*
X148550000Y-108600000D02*
X145027500Y-108600000D01*
X154100000Y-103050000D02*
X148550000Y-108600000D01*
X165600000Y-94400000D02*
X166690000Y-94400000D01*
X121840000Y-96040000D02*
X121840000Y-95040000D01*
X150440000Y-103687500D02*
X150590000Y-103537500D01*
X150590000Y-103537500D02*
X150590000Y-101200551D01*
X149256038Y-99866589D02*
X125666588Y-99866588D01*
X125666588Y-99866588D02*
X121840000Y-96040000D01*
X150590000Y-101200551D02*
X149256038Y-99866589D01*
X149374343Y-99400000D02*
X126400000Y-99400000D01*
X122880511Y-95880511D02*
X122880511Y-93540511D01*
X122880511Y-93540511D02*
X121840000Y-92500000D01*
X150940000Y-100965657D02*
X149374343Y-99400000D01*
X126400000Y-99400000D02*
X122880511Y-95880511D01*
X150940000Y-103687500D02*
X150940000Y-100965657D01*
X151440000Y-100940000D02*
X149300000Y-98800000D01*
X124380000Y-96380000D02*
X124380000Y-95040000D01*
X149300000Y-98800000D02*
X137398620Y-98800000D01*
X151440000Y-103687500D02*
X151440000Y-100940000D01*
X126800000Y-98800000D02*
X124380000Y-96380000D01*
X137400000Y-98800000D02*
X126800000Y-98800000D01*
X154349042Y-106100000D02*
X155333411Y-105115631D01*
X153352500Y-106100000D02*
X154349042Y-106100000D01*
X155333411Y-105115631D02*
X155333411Y-103533411D01*
X154633411Y-102793962D02*
X154356038Y-102516589D01*
X154356038Y-102516589D02*
X154356038Y-102356038D01*
X126920000Y-96720000D02*
X126920000Y-95040000D01*
X154633411Y-102833411D02*
X154633411Y-102793962D01*
X149600000Y-97600000D02*
X127800000Y-97600000D01*
X127800000Y-97600000D02*
X126920000Y-96720000D01*
X154356038Y-102356038D02*
X149600000Y-97600000D01*
X155333411Y-103533411D02*
X154633411Y-102833411D01*
D45*
X105928680Y-100855263D02*
X114283943Y-92500000D01*
X105928680Y-101183680D02*
X105928680Y-100855263D01*
X114283943Y-92500000D02*
X116760000Y-92500000D01*
X117328989Y-96271011D02*
X117350886Y-96271011D01*
X118050000Y-94850000D02*
X118050000Y-93750000D01*
X118050000Y-93750000D02*
X119300000Y-92500000D01*
X117350886Y-96271011D02*
X117991011Y-95630886D01*
X105928680Y-103395263D02*
X108330252Y-100993691D01*
X117991011Y-94908989D02*
X118050000Y-94850000D01*
X105928680Y-103723680D02*
X105928680Y-103395263D01*
X117991011Y-95630886D02*
X117991011Y-94908989D01*
X112606309Y-100993691D02*
X117328989Y-96271011D01*
X108330252Y-100993691D02*
X112606309Y-100993691D01*
X108468680Y-99913680D02*
X108636320Y-99913680D01*
X113510000Y-95040000D02*
X116760000Y-95040000D01*
X108636320Y-99913680D02*
X113510000Y-95040000D01*
X119300000Y-95700000D02*
X119300000Y-95040000D01*
X109143380Y-101778980D02*
X113221020Y-101778980D01*
X108468680Y-102453680D02*
X109143380Y-101778980D01*
X113221020Y-101778980D02*
X119300000Y-95700000D01*
D44*
X148940000Y-112750000D02*
X150390000Y-114200000D01*
X153450000Y-115840000D02*
X154490000Y-115840000D01*
X154550000Y-115900000D02*
X156950000Y-115900000D01*
X150600000Y-114200000D02*
X151250000Y-113550000D01*
X150390000Y-114200000D02*
X150600000Y-114200000D01*
X156950000Y-115900000D02*
X157300000Y-116250000D01*
X153340000Y-115950000D02*
X153450000Y-115840000D01*
X151850000Y-115950000D02*
X153340000Y-115950000D01*
X148940000Y-112012500D02*
X148940000Y-112750000D01*
X154490000Y-115840000D02*
X154550000Y-115900000D01*
X148440000Y-112012500D02*
X148440000Y-113240000D01*
X148440000Y-113240000D02*
X150000000Y-114800000D01*
X153430000Y-114800000D02*
X153450000Y-114820000D01*
X154510000Y-114820000D02*
X154550000Y-114780000D01*
X153450000Y-114820000D02*
X154510000Y-114820000D01*
X155070000Y-114780000D02*
X157300000Y-112550000D01*
X154550000Y-114780000D02*
X155070000Y-114780000D01*
X150000000Y-114800000D02*
X153430000Y-114800000D01*
X150650000Y-118180000D02*
X149920000Y-117450000D01*
X147940000Y-113590000D02*
X151414020Y-117064020D01*
X150650000Y-119150000D02*
X150650000Y-118180000D01*
X147940000Y-112012500D02*
X147940000Y-113590000D01*
X151414020Y-117064020D02*
X151414020Y-118385980D01*
X151414020Y-118385980D02*
X150650000Y-119150000D01*
X148150000Y-119150000D02*
X148150000Y-118280000D01*
X148150000Y-118280000D02*
X148980000Y-117450000D01*
X147440000Y-118440000D02*
X148150000Y-119150000D01*
X147440000Y-112012500D02*
X147440000Y-118440000D01*
M02*
