G04 #@! TF.GenerationSoftware,KiCad,Pcbnew,(5.99.0-8454-g713af6630f)*
G04 #@! TF.CreationDate,2021-06-13T15:31:37-07:00*
G04 #@! TF.ProjectId,MFW007B,4d465730-3037-4422-9e6b-696361645f70,1*
G04 #@! TF.SameCoordinates,Original*
G04 #@! TF.FileFunction,Copper,L3,Inr*
G04 #@! TF.FilePolarity,Positive*
%FSLAX46Y46*%
G04 Gerber Fmt 4.6, Leading zero omitted, Abs format (unit mm)*
G04 Created by KiCad (PCBNEW (5.99.0-8454-g713af6630f)) date 2021-06-13 15:31:37*
%MOMM*%
%LPD*%
G01*
G04 APERTURE LIST*
G04 #@! TA.AperFunction,ComponentPad*
%ADD10R,1.700000X1.700000*%
G04 #@! TD*
G04 #@! TA.AperFunction,ComponentPad*
%ADD11O,1.700000X1.700000*%
G04 #@! TD*
G04 #@! TA.AperFunction,ComponentPad*
%ADD12C,0.650000*%
G04 #@! TD*
G04 #@! TA.AperFunction,ComponentPad*
%ADD13O,2.216000X1.108000*%
G04 #@! TD*
G04 #@! TA.AperFunction,ComponentPad*
%ADD14C,2.800000*%
G04 #@! TD*
G04 #@! TA.AperFunction,ComponentPad*
%ADD15C,1.398000*%
G04 #@! TD*
G04 #@! TA.AperFunction,ComponentPad*
%ADD16C,2.550000*%
G04 #@! TD*
G04 #@! TA.AperFunction,ViaPad*
%ADD17C,0.685800*%
G04 #@! TD*
G04 APERTURE END LIST*
D10*
X168000000Y-96860000D03*
D11*
X170540000Y-96860000D03*
X168000000Y-99400000D03*
X170540000Y-99400000D03*
X168000000Y-101940000D03*
X170540000Y-101940000D03*
D10*
X170500000Y-105700000D03*
D11*
X170500000Y-108240000D03*
X170500000Y-110780000D03*
X170500000Y-113320000D03*
D12*
X97303680Y-87653680D03*
X97303680Y-88503680D03*
X97303680Y-89353680D03*
X97303680Y-90203680D03*
X97303680Y-91053680D03*
X97303680Y-91903680D03*
X97303680Y-92753680D03*
X97303680Y-93603680D03*
X95953680Y-93603680D03*
X95953680Y-92753680D03*
X95953680Y-91903680D03*
X95953680Y-91053680D03*
X95953680Y-90203680D03*
X95953680Y-89353680D03*
X95953680Y-88503680D03*
X95953680Y-87653680D03*
D13*
X96323680Y-86303680D03*
X96323680Y-94953680D03*
X92943680Y-94953680D03*
X92943680Y-86303680D03*
D14*
X145000000Y-115000000D03*
D15*
X105928680Y-111343680D03*
X108468680Y-110073680D03*
X105928680Y-108803680D03*
X108468680Y-107533680D03*
X105928680Y-106263680D03*
X105928680Y-103723680D03*
X108468680Y-102453680D03*
X105928680Y-101183680D03*
X108468680Y-99913680D03*
X97038680Y-112353680D03*
X95008680Y-112353680D03*
X97038680Y-98903680D03*
X95008680Y-98903680D03*
D16*
X102628680Y-113503680D03*
X102628680Y-97753680D03*
D10*
X132000000Y-92500000D03*
D11*
X132000000Y-95040000D03*
X129460000Y-92500000D03*
X129460000Y-95040000D03*
X126920000Y-92500000D03*
X126920000Y-95040000D03*
X124380000Y-92500000D03*
X124380000Y-95040000D03*
X121840000Y-92500000D03*
X121840000Y-95040000D03*
X119300000Y-92500000D03*
X119300000Y-95040000D03*
X116760000Y-92500000D03*
X116760000Y-95040000D03*
D17*
X120250000Y-116400000D03*
X121800000Y-116400000D03*
X139200000Y-102000000D03*
X124200000Y-102400000D03*
X154600000Y-118400000D03*
X155800000Y-95800000D03*
X123050000Y-103300000D03*
X122000000Y-108200000D03*
X121050000Y-103300000D03*
X127400000Y-117200000D03*
X148600000Y-116000000D03*
X166600000Y-111000000D03*
X144600000Y-100800000D03*
X117800000Y-111800000D03*
X164600000Y-89800000D03*
X161200000Y-80400000D03*
X112200000Y-112800000D03*
X115050000Y-103300000D03*
X134600000Y-114400000D03*
X124800000Y-113000000D03*
X128200000Y-102400000D03*
X114600000Y-111600000D03*
X156600000Y-80600000D03*
X143600000Y-100800000D03*
X145600000Y-100800000D03*
X122200000Y-110000000D03*
X127400000Y-110600000D03*
X120050000Y-103300000D03*
X125400000Y-117200000D03*
X166000000Y-108800000D03*
X126200000Y-102400000D03*
X129400000Y-105200000D03*
X116050000Y-103300000D03*
X127200000Y-102400000D03*
X125200000Y-102400000D03*
X106250000Y-118500000D03*
X146000000Y-88000000D03*
X118050000Y-103300000D03*
X150417073Y-113382927D03*
X142600000Y-100800000D03*
X167400000Y-87800000D03*
X117050000Y-103300000D03*
X147000000Y-102200000D03*
X154800000Y-104200000D03*
X138800000Y-106000000D03*
X134600000Y-116200000D03*
X126400000Y-117200000D03*
X142833400Y-110698013D03*
X147800000Y-80600000D03*
X119050000Y-103300000D03*
X114050000Y-103300000D03*
X152200000Y-113800000D03*
X122050000Y-103300000D03*
X105500000Y-85500000D03*
X167600000Y-88600000D03*
X148600000Y-92200000D03*
X105000000Y-92400000D03*
X105800000Y-92600000D03*
X104700000Y-85500000D03*
X101400000Y-87400000D03*
X166800000Y-88600000D03*
X103900000Y-85500000D03*
X171000000Y-87600000D03*
X115600000Y-108600000D03*
X166600000Y-111900000D03*
X118050000Y-104300000D03*
X114050000Y-104300000D03*
X144600000Y-101620000D03*
X112200000Y-114000000D03*
X139800000Y-103600000D03*
X145600000Y-103200000D03*
X117050000Y-104300000D03*
X116050000Y-104300000D03*
X104230000Y-119310000D03*
X121050000Y-104300000D03*
X131200000Y-103800000D03*
X115600000Y-105600000D03*
X122800000Y-111000000D03*
X141000000Y-105400000D03*
X145600000Y-101620000D03*
X136600000Y-105400000D03*
X143600000Y-101620000D03*
X150400000Y-110933400D03*
X126723708Y-111050862D03*
X119050000Y-104300000D03*
X153800000Y-104200000D03*
X123050000Y-104300000D03*
X166000000Y-107800000D03*
X139200000Y-101000000D03*
X122000000Y-109012803D03*
X123987197Y-113000000D03*
X115050000Y-104300000D03*
X142600000Y-101620000D03*
X122050000Y-104300000D03*
X120050000Y-104300000D03*
X145400000Y-94400000D03*
X118572073Y-116572073D03*
X143800000Y-111000000D03*
X155800000Y-94800000D03*
X115500000Y-111100000D03*
X114450000Y-108250000D03*
X163400000Y-87400000D03*
X152000000Y-107000000D03*
X155400000Y-106400000D03*
X156266600Y-98200000D03*
X165200000Y-86600000D03*
X142300000Y-115350000D03*
X98000000Y-118600000D03*
X167400000Y-113000000D03*
X143200000Y-105800000D03*
X166900000Y-109650000D03*
X147800000Y-105300000D03*
X98433400Y-93752171D03*
X114250000Y-107400000D03*
X158261597Y-95061597D03*
X142000000Y-106200000D03*
X142000000Y-103200000D03*
X158200000Y-93933400D03*
X142400000Y-104600000D03*
X113600000Y-106600000D03*
X142169888Y-94484012D03*
X147367631Y-101455477D03*
X143262088Y-94484012D03*
X148139935Y-100683173D03*
X109200000Y-118400000D03*
X127450000Y-112950000D03*
X113550000Y-117200000D03*
X109200000Y-117200000D03*
X127450000Y-111950000D03*
X113550000Y-118300000D03*
X150000000Y-101800000D03*
X149596900Y-101076292D03*
X149000000Y-100400000D03*
X155100000Y-107600000D03*
X130800000Y-106200000D03*
X155568022Y-108264532D03*
X130800000Y-107100000D03*
X156201383Y-108873204D03*
X130800000Y-108000000D03*
X155400000Y-109633400D03*
X130800000Y-108900000D03*
X154700000Y-110133400D03*
X130800000Y-109800000D03*
X100600000Y-120100000D03*
X106250000Y-120040000D03*
X155950000Y-107100000D03*
X157450000Y-106650000D03*
X154100000Y-103050000D03*
X165600000Y-94400000D03*
X151850000Y-115950000D03*
X151250000Y-113550000D03*
G04 #@! TA.AperFunction,Conductor*
G36*
X169369728Y-79131173D02*
G01*
X169370686Y-79133575D01*
X169386044Y-79133778D01*
X169386045Y-79133778D01*
X169405380Y-79134033D01*
X169492429Y-79135183D01*
X169497771Y-79135368D01*
X169562967Y-79139029D01*
X169582406Y-79140121D01*
X169589447Y-79140715D01*
X169704823Y-79153714D01*
X169838083Y-79168729D01*
X169845049Y-79169712D01*
X169915755Y-79181725D01*
X169922680Y-79183103D01*
X170166590Y-79238774D01*
X170173432Y-79240539D01*
X170201525Y-79248632D01*
X170242348Y-79260393D01*
X170249039Y-79262526D01*
X170473001Y-79340894D01*
X170485199Y-79345162D01*
X170491800Y-79347682D01*
X170558035Y-79375117D01*
X170564487Y-79378004D01*
X170789902Y-79486558D01*
X170796182Y-79489802D01*
X170858929Y-79524481D01*
X170865016Y-79528072D01*
X171076847Y-79661175D01*
X171082723Y-79665101D01*
X171141181Y-79706579D01*
X171146829Y-79710829D01*
X171342450Y-79866831D01*
X171347849Y-79871391D01*
X171401312Y-79919168D01*
X171406448Y-79924024D01*
X171583336Y-80100912D01*
X171588192Y-80106048D01*
X171635969Y-80159511D01*
X171640529Y-80164910D01*
X171796531Y-80360531D01*
X171800781Y-80366179D01*
X171842259Y-80424637D01*
X171846185Y-80430513D01*
X171979288Y-80642344D01*
X171982879Y-80648431D01*
X172017558Y-80711178D01*
X172020802Y-80717458D01*
X172129359Y-80942879D01*
X172132240Y-80949318D01*
X172136407Y-80959376D01*
X172159675Y-81015550D01*
X172162195Y-81022153D01*
X172162882Y-81024115D01*
X172221619Y-81191976D01*
X172244832Y-81258316D01*
X172246973Y-81265035D01*
X172266824Y-81333938D01*
X172268577Y-81340734D01*
X172288524Y-81428123D01*
X172324257Y-81584680D01*
X172325636Y-81591612D01*
X172337645Y-81662293D01*
X172338633Y-81669291D01*
X172366645Y-81917913D01*
X172367239Y-81924954D01*
X172371992Y-82009589D01*
X172372177Y-82014931D01*
X172373785Y-82136675D01*
X172376187Y-82137632D01*
X172378680Y-82154194D01*
X172378680Y-93074000D01*
X172358678Y-93142121D01*
X172305022Y-93188614D01*
X172252680Y-93200000D01*
X134400000Y-93200000D01*
X134400000Y-93674000D01*
X134379998Y-93742121D01*
X134326342Y-93788614D01*
X134274000Y-93800000D01*
X133398776Y-93800000D01*
X133330655Y-93779998D01*
X133284162Y-93726342D01*
X133274058Y-93656068D01*
X133284162Y-93621658D01*
X133338477Y-93502725D01*
X133343502Y-93485612D01*
X133362361Y-93354446D01*
X133363000Y-93345505D01*
X133363000Y-92772115D01*
X133358525Y-92756876D01*
X133357135Y-92755671D01*
X133349452Y-92754000D01*
X131872000Y-92754000D01*
X131803879Y-92733998D01*
X131757386Y-92680342D01*
X131746000Y-92628000D01*
X131746000Y-91155115D01*
X131744659Y-91150548D01*
X132254000Y-91150548D01*
X132254000Y-92227885D01*
X132258475Y-92243124D01*
X132259865Y-92244329D01*
X132267548Y-92246000D01*
X133344885Y-92246000D01*
X133360124Y-92241525D01*
X133361329Y-92240135D01*
X133363000Y-92232452D01*
X133363000Y-91652257D01*
X133362839Y-91647750D01*
X133358260Y-91583731D01*
X133355874Y-91570509D01*
X133319181Y-91445542D01*
X133311767Y-91429308D01*
X133242574Y-91321640D01*
X133230888Y-91308153D01*
X133134160Y-91224338D01*
X133119152Y-91214693D01*
X133002725Y-91161523D01*
X132985612Y-91156498D01*
X132854446Y-91137639D01*
X132845505Y-91137000D01*
X132272115Y-91137000D01*
X132256876Y-91141475D01*
X132255671Y-91142865D01*
X132254000Y-91150548D01*
X131744659Y-91150548D01*
X131741525Y-91139876D01*
X131740135Y-91138671D01*
X131732452Y-91137000D01*
X131152257Y-91137000D01*
X131147750Y-91137161D01*
X131083731Y-91141740D01*
X131070509Y-91144126D01*
X130945542Y-91180819D01*
X130929308Y-91188233D01*
X130821636Y-91257429D01*
X130802325Y-91274161D01*
X130737744Y-91303653D01*
X130667470Y-91293548D01*
X130613816Y-91247053D01*
X130600000Y-91216801D01*
X130600000Y-91200000D01*
X115000000Y-91200000D01*
X115000000Y-93874000D01*
X114979998Y-93942121D01*
X114926342Y-93988614D01*
X114874000Y-94000000D01*
X100726000Y-94000000D01*
X100657879Y-93979998D01*
X100611386Y-93926342D01*
X100600000Y-93874000D01*
X100600000Y-89794192D01*
X164124635Y-89794192D01*
X164125799Y-89803093D01*
X164125799Y-89803097D01*
X164140949Y-89918945D01*
X164142113Y-89927844D01*
X164196399Y-90051220D01*
X164283130Y-90154399D01*
X164290608Y-90159376D01*
X164290607Y-90159376D01*
X164387862Y-90224115D01*
X164387864Y-90224116D01*
X164395335Y-90229089D01*
X164403899Y-90231765D01*
X164403902Y-90231766D01*
X164459664Y-90249187D01*
X164523992Y-90269285D01*
X164658760Y-90271755D01*
X164713356Y-90256870D01*
X164780145Y-90238662D01*
X164780147Y-90238661D01*
X164788804Y-90236301D01*
X164903670Y-90165773D01*
X164994124Y-90065840D01*
X165052895Y-89944537D01*
X165075258Y-89811615D01*
X165075400Y-89800000D01*
X165056291Y-89666571D01*
X165000502Y-89543868D01*
X164994644Y-89537069D01*
X164994641Y-89537065D01*
X164918376Y-89448556D01*
X164918373Y-89448554D01*
X164912516Y-89441756D01*
X164799408Y-89368443D01*
X164790806Y-89365871D01*
X164790803Y-89365869D01*
X164728981Y-89347381D01*
X164670269Y-89329822D01*
X164661293Y-89329767D01*
X164661292Y-89329767D01*
X164605686Y-89329427D01*
X164535481Y-89328998D01*
X164405880Y-89366039D01*
X164291884Y-89437965D01*
X164202657Y-89538995D01*
X164145373Y-89661006D01*
X164143993Y-89669871D01*
X164143992Y-89669873D01*
X164143123Y-89675458D01*
X164124635Y-89794192D01*
X100600000Y-89794192D01*
X100600000Y-87994192D01*
X145524635Y-87994192D01*
X145525799Y-88003093D01*
X145525799Y-88003097D01*
X145540949Y-88118945D01*
X145542113Y-88127844D01*
X145596399Y-88251220D01*
X145683130Y-88354399D01*
X145690608Y-88359376D01*
X145690607Y-88359376D01*
X145787862Y-88424115D01*
X145787864Y-88424116D01*
X145795335Y-88429089D01*
X145803899Y-88431765D01*
X145803902Y-88431766D01*
X145859663Y-88449187D01*
X145923992Y-88469285D01*
X146058760Y-88471755D01*
X146113356Y-88456870D01*
X146180145Y-88438662D01*
X146180147Y-88438661D01*
X146188804Y-88436301D01*
X146303670Y-88365773D01*
X146394124Y-88265840D01*
X146452895Y-88144537D01*
X146475258Y-88011615D01*
X146475400Y-88000000D01*
X146456291Y-87866571D01*
X146400502Y-87743868D01*
X146394644Y-87737069D01*
X146394641Y-87737065D01*
X146318376Y-87648556D01*
X146318373Y-87648554D01*
X146312516Y-87641756D01*
X146199408Y-87568443D01*
X146190806Y-87565871D01*
X146190803Y-87565869D01*
X146117235Y-87543868D01*
X146070269Y-87529822D01*
X146061293Y-87529767D01*
X146061292Y-87529767D01*
X146005686Y-87529427D01*
X145935481Y-87528998D01*
X145805880Y-87566039D01*
X145691884Y-87637965D01*
X145602657Y-87738995D01*
X145545373Y-87861006D01*
X145543993Y-87869871D01*
X145543992Y-87869873D01*
X145531109Y-87952617D01*
X145524635Y-87994192D01*
X100600000Y-87994192D01*
X100600000Y-87394192D01*
X162924635Y-87394192D01*
X162925799Y-87403093D01*
X162925799Y-87403097D01*
X162930216Y-87436873D01*
X162942113Y-87527844D01*
X162945725Y-87536054D01*
X162945726Y-87536056D01*
X162952760Y-87552042D01*
X162996399Y-87651220D01*
X163014281Y-87672493D01*
X163070182Y-87738995D01*
X163083130Y-87754399D01*
X163090608Y-87759376D01*
X163090607Y-87759376D01*
X163187862Y-87824115D01*
X163187864Y-87824116D01*
X163195335Y-87829089D01*
X163203899Y-87831765D01*
X163203902Y-87831766D01*
X163259663Y-87849187D01*
X163323992Y-87869285D01*
X163458760Y-87871755D01*
X163527982Y-87852883D01*
X163580145Y-87838662D01*
X163580147Y-87838661D01*
X163588804Y-87836301D01*
X163657385Y-87794192D01*
X166924635Y-87794192D01*
X166925799Y-87803093D01*
X166925799Y-87803097D01*
X166934778Y-87871755D01*
X166942113Y-87927844D01*
X166996399Y-88051220D01*
X167083130Y-88154399D01*
X167090608Y-88159376D01*
X167090607Y-88159376D01*
X167187862Y-88224115D01*
X167187864Y-88224116D01*
X167195335Y-88229089D01*
X167203899Y-88231765D01*
X167203902Y-88231766D01*
X167239886Y-88243008D01*
X167323992Y-88269285D01*
X167458760Y-88271755D01*
X167534082Y-88251220D01*
X167580145Y-88238662D01*
X167580147Y-88238661D01*
X167588804Y-88236301D01*
X167703670Y-88165773D01*
X167794124Y-88065840D01*
X167852895Y-87944537D01*
X167875258Y-87811615D01*
X167875400Y-87800000D01*
X167856291Y-87666571D01*
X167800502Y-87543868D01*
X167794644Y-87537069D01*
X167794641Y-87537065D01*
X167718376Y-87448556D01*
X167718373Y-87448554D01*
X167712516Y-87441756D01*
X167599408Y-87368443D01*
X167590806Y-87365871D01*
X167590803Y-87365869D01*
X167528981Y-87347381D01*
X167470269Y-87329822D01*
X167461293Y-87329767D01*
X167461292Y-87329767D01*
X167405686Y-87329427D01*
X167335481Y-87328998D01*
X167205880Y-87366039D01*
X167198293Y-87370826D01*
X167198291Y-87370827D01*
X167137895Y-87408934D01*
X167091884Y-87437965D01*
X167002657Y-87538995D01*
X166998843Y-87547118D01*
X166998842Y-87547120D01*
X166989960Y-87566039D01*
X166945373Y-87661006D01*
X166943993Y-87669871D01*
X166943992Y-87669873D01*
X166928329Y-87770469D01*
X166924635Y-87794192D01*
X163657385Y-87794192D01*
X163703670Y-87765773D01*
X163794124Y-87665840D01*
X163852895Y-87544537D01*
X163875258Y-87411615D01*
X163875400Y-87400000D01*
X163856291Y-87266571D01*
X163800502Y-87143868D01*
X163794644Y-87137069D01*
X163794641Y-87137065D01*
X163718376Y-87048556D01*
X163718373Y-87048554D01*
X163712516Y-87041756D01*
X163599408Y-86968443D01*
X163590806Y-86965871D01*
X163590803Y-86965869D01*
X163528981Y-86947381D01*
X163470269Y-86929822D01*
X163461293Y-86929767D01*
X163461292Y-86929767D01*
X163405686Y-86929427D01*
X163335481Y-86928998D01*
X163205880Y-86966039D01*
X163091884Y-87037965D01*
X163002657Y-87138995D01*
X162945373Y-87261006D01*
X162943993Y-87269871D01*
X162943992Y-87269873D01*
X162927884Y-87373329D01*
X162924635Y-87394192D01*
X100600000Y-87394192D01*
X100600000Y-86594192D01*
X164724635Y-86594192D01*
X164725799Y-86603093D01*
X164725799Y-86603097D01*
X164740949Y-86718945D01*
X164742113Y-86727844D01*
X164796399Y-86851220D01*
X164883130Y-86954399D01*
X164904228Y-86968443D01*
X164987862Y-87024115D01*
X164987864Y-87024116D01*
X164995335Y-87029089D01*
X165003899Y-87031765D01*
X165003902Y-87031766D01*
X165057644Y-87048556D01*
X165123992Y-87069285D01*
X165258760Y-87071755D01*
X165313356Y-87056870D01*
X165380145Y-87038662D01*
X165380147Y-87038661D01*
X165388804Y-87036301D01*
X165503670Y-86965773D01*
X165594124Y-86865840D01*
X165652895Y-86744537D01*
X165675258Y-86611615D01*
X165675400Y-86600000D01*
X165656291Y-86466571D01*
X165600502Y-86343868D01*
X165594644Y-86337069D01*
X165594641Y-86337065D01*
X165518376Y-86248556D01*
X165518373Y-86248554D01*
X165512516Y-86241756D01*
X165399408Y-86168443D01*
X165390806Y-86165871D01*
X165390803Y-86165869D01*
X165328981Y-86147381D01*
X165270269Y-86129822D01*
X165261293Y-86129767D01*
X165261292Y-86129767D01*
X165205686Y-86129427D01*
X165135481Y-86128998D01*
X165005880Y-86166039D01*
X164891884Y-86237965D01*
X164802657Y-86338995D01*
X164745373Y-86461006D01*
X164743993Y-86469871D01*
X164743992Y-86469873D01*
X164743123Y-86475458D01*
X164724635Y-86594192D01*
X100600000Y-86594192D01*
X100600000Y-82092459D01*
X167896623Y-82092459D01*
X167896920Y-82097611D01*
X167896920Y-82097615D01*
X167902694Y-82197748D01*
X167910608Y-82335004D01*
X167911745Y-82340050D01*
X167911746Y-82340056D01*
X167935828Y-82446913D01*
X167964019Y-82572008D01*
X168055422Y-82797106D01*
X168182361Y-83004253D01*
X168185742Y-83008156D01*
X168338044Y-83183979D01*
X168338048Y-83183983D01*
X168341429Y-83187886D01*
X168528353Y-83343073D01*
X168532805Y-83345675D01*
X168532810Y-83345678D01*
X168633236Y-83404362D01*
X168738113Y-83465647D01*
X168965076Y-83552315D01*
X168970142Y-83553346D01*
X168970143Y-83553346D01*
X169025666Y-83564642D01*
X169203146Y-83600751D01*
X169339745Y-83605760D01*
X169440767Y-83609465D01*
X169440771Y-83609465D01*
X169445931Y-83609654D01*
X169451051Y-83608998D01*
X169451053Y-83608998D01*
X169681781Y-83579441D01*
X169681782Y-83579441D01*
X169686909Y-83578784D01*
X169775135Y-83552315D01*
X169914657Y-83510456D01*
X169919610Y-83508970D01*
X169924249Y-83506697D01*
X169924255Y-83506695D01*
X170133142Y-83404362D01*
X170133141Y-83404362D01*
X170137784Y-83402088D01*
X170225147Y-83339773D01*
X170331368Y-83264006D01*
X170335571Y-83261008D01*
X170507661Y-83089518D01*
X170649431Y-82892224D01*
X170696442Y-82797106D01*
X170754780Y-82679067D01*
X170754781Y-82679065D01*
X170757074Y-82674425D01*
X170827699Y-82441969D01*
X170859410Y-82201100D01*
X170859492Y-82197748D01*
X170861098Y-82132045D01*
X170861098Y-82132040D01*
X170861180Y-82128680D01*
X170847365Y-81960646D01*
X170841697Y-81891700D01*
X170841696Y-81891694D01*
X170841273Y-81886549D01*
X170782088Y-81650921D01*
X170685212Y-81428123D01*
X170553249Y-81224140D01*
X170414591Y-81071755D01*
X170393221Y-81048270D01*
X170393219Y-81048268D01*
X170389743Y-81044448D01*
X170385692Y-81041249D01*
X170385688Y-81041245D01*
X170203138Y-80897076D01*
X170203134Y-80897074D01*
X170199083Y-80893874D01*
X169986391Y-80776462D01*
X169981522Y-80774738D01*
X169981518Y-80774736D01*
X169762253Y-80697090D01*
X169762249Y-80697089D01*
X169757378Y-80695364D01*
X169752285Y-80694457D01*
X169752282Y-80694456D01*
X169523285Y-80653665D01*
X169523279Y-80653664D01*
X169518196Y-80652759D01*
X169430067Y-80651682D01*
X169280436Y-80649854D01*
X169280434Y-80649854D01*
X169275266Y-80649791D01*
X169035114Y-80686540D01*
X168804188Y-80762018D01*
X168588691Y-80874199D01*
X168394409Y-81020069D01*
X168226561Y-81195713D01*
X168223647Y-81199985D01*
X168223646Y-81199986D01*
X168152716Y-81303966D01*
X168089654Y-81396411D01*
X167987364Y-81616775D01*
X167922439Y-81850887D01*
X167896623Y-82092459D01*
X100600000Y-82092459D01*
X100600000Y-80594192D01*
X147324635Y-80594192D01*
X147325799Y-80603093D01*
X147325799Y-80603097D01*
X147340755Y-80717458D01*
X147342113Y-80727844D01*
X147345725Y-80736054D01*
X147345726Y-80736056D01*
X147357150Y-80762018D01*
X147396399Y-80851220D01*
X147483130Y-80954399D01*
X147490608Y-80959376D01*
X147490607Y-80959376D01*
X147587862Y-81024115D01*
X147587864Y-81024116D01*
X147595335Y-81029089D01*
X147603899Y-81031765D01*
X147603902Y-81031766D01*
X147634243Y-81041245D01*
X147723992Y-81069285D01*
X147858760Y-81071755D01*
X147913356Y-81056870D01*
X147980145Y-81038662D01*
X147980147Y-81038661D01*
X147988804Y-81036301D01*
X148103670Y-80965773D01*
X148124393Y-80942879D01*
X148188102Y-80872493D01*
X148194124Y-80865840D01*
X148252895Y-80744537D01*
X148275258Y-80611615D01*
X148275400Y-80600000D01*
X148274568Y-80594192D01*
X156124635Y-80594192D01*
X156125799Y-80603093D01*
X156125799Y-80603097D01*
X156140755Y-80717458D01*
X156142113Y-80727844D01*
X156145725Y-80736054D01*
X156145726Y-80736056D01*
X156157150Y-80762018D01*
X156196399Y-80851220D01*
X156283130Y-80954399D01*
X156290608Y-80959376D01*
X156290607Y-80959376D01*
X156387862Y-81024115D01*
X156387864Y-81024116D01*
X156395335Y-81029089D01*
X156403899Y-81031765D01*
X156403902Y-81031766D01*
X156434243Y-81041245D01*
X156523992Y-81069285D01*
X156658760Y-81071755D01*
X156713356Y-81056870D01*
X156780145Y-81038662D01*
X156780147Y-81038661D01*
X156788804Y-81036301D01*
X156903670Y-80965773D01*
X156924393Y-80942879D01*
X156988102Y-80872493D01*
X156994124Y-80865840D01*
X157052895Y-80744537D01*
X157075258Y-80611615D01*
X157075400Y-80600000D01*
X157056291Y-80466571D01*
X157023383Y-80394192D01*
X160724635Y-80394192D01*
X160725799Y-80403093D01*
X160725799Y-80403097D01*
X160733372Y-80461006D01*
X160742113Y-80527844D01*
X160796399Y-80651220D01*
X160883130Y-80754399D01*
X160890608Y-80759376D01*
X160890607Y-80759376D01*
X160987862Y-80824115D01*
X160987864Y-80824116D01*
X160995335Y-80829089D01*
X161003899Y-80831765D01*
X161003902Y-80831766D01*
X161039886Y-80843008D01*
X161123992Y-80869285D01*
X161258760Y-80871755D01*
X161334082Y-80851220D01*
X161380145Y-80838662D01*
X161380147Y-80838661D01*
X161388804Y-80836301D01*
X161503670Y-80765773D01*
X161553087Y-80711178D01*
X161588102Y-80672493D01*
X161594124Y-80665840D01*
X161652895Y-80544537D01*
X161675258Y-80411615D01*
X161675400Y-80400000D01*
X161656291Y-80266571D01*
X161600502Y-80143868D01*
X161594644Y-80137069D01*
X161594641Y-80137065D01*
X161518376Y-80048556D01*
X161518373Y-80048554D01*
X161512516Y-80041756D01*
X161399408Y-79968443D01*
X161390806Y-79965871D01*
X161390803Y-79965869D01*
X161328981Y-79947381D01*
X161270269Y-79929822D01*
X161261293Y-79929767D01*
X161261292Y-79929767D01*
X161205686Y-79929427D01*
X161135481Y-79928998D01*
X161005880Y-79966039D01*
X160891884Y-80037965D01*
X160802657Y-80138995D01*
X160798843Y-80147118D01*
X160798842Y-80147120D01*
X160789960Y-80166039D01*
X160745373Y-80261006D01*
X160743993Y-80269871D01*
X160743992Y-80269873D01*
X160726532Y-80382010D01*
X160724635Y-80394192D01*
X157023383Y-80394192D01*
X157000502Y-80343868D01*
X156994644Y-80337069D01*
X156994641Y-80337065D01*
X156918376Y-80248556D01*
X156918373Y-80248554D01*
X156912516Y-80241756D01*
X156799408Y-80168443D01*
X156790806Y-80165871D01*
X156790803Y-80165869D01*
X156717235Y-80143868D01*
X156670269Y-80129822D01*
X156661293Y-80129767D01*
X156661292Y-80129767D01*
X156605686Y-80129427D01*
X156535481Y-80128998D01*
X156405880Y-80166039D01*
X156291884Y-80237965D01*
X156202657Y-80338995D01*
X156198843Y-80347118D01*
X156198842Y-80347120D01*
X156176276Y-80395185D01*
X156145373Y-80461006D01*
X156143993Y-80469871D01*
X156143992Y-80469873D01*
X156131109Y-80552617D01*
X156124635Y-80594192D01*
X148274568Y-80594192D01*
X148256291Y-80466571D01*
X148200502Y-80343868D01*
X148194644Y-80337069D01*
X148194641Y-80337065D01*
X148118376Y-80248556D01*
X148118373Y-80248554D01*
X148112516Y-80241756D01*
X147999408Y-80168443D01*
X147990806Y-80165871D01*
X147990803Y-80165869D01*
X147917235Y-80143868D01*
X147870269Y-80129822D01*
X147861293Y-80129767D01*
X147861292Y-80129767D01*
X147805686Y-80129427D01*
X147735481Y-80128998D01*
X147605880Y-80166039D01*
X147491884Y-80237965D01*
X147402657Y-80338995D01*
X147398843Y-80347118D01*
X147398842Y-80347120D01*
X147376276Y-80395185D01*
X147345373Y-80461006D01*
X147343993Y-80469871D01*
X147343992Y-80469873D01*
X147331109Y-80552617D01*
X147324635Y-80594192D01*
X100600000Y-80594192D01*
X100600000Y-79254680D01*
X100620002Y-79186559D01*
X100673658Y-79140066D01*
X100726000Y-79128680D01*
X169354118Y-79128680D01*
X169369728Y-79131173D01*
G37*
G04 #@! TD.AperFunction*
G04 #@! TA.AperFunction,Conductor*
G36*
X142019418Y-93820002D02*
G01*
X142065911Y-93873658D01*
X142076015Y-93943932D01*
X142046521Y-94008512D01*
X141992236Y-94043123D01*
X141992592Y-94043919D01*
X141987214Y-94046325D01*
X141985921Y-94047149D01*
X141984398Y-94047584D01*
X141984395Y-94047585D01*
X141975768Y-94050051D01*
X141968181Y-94054838D01*
X141968179Y-94054839D01*
X141958028Y-94061244D01*
X141861772Y-94121977D01*
X141772545Y-94223007D01*
X141768731Y-94231130D01*
X141768730Y-94231132D01*
X141742502Y-94286996D01*
X141715261Y-94345018D01*
X141713881Y-94353883D01*
X141713880Y-94353885D01*
X141700670Y-94438729D01*
X141694523Y-94478204D01*
X141695687Y-94487105D01*
X141695687Y-94487109D01*
X141710837Y-94602957D01*
X141712001Y-94611856D01*
X141715613Y-94620066D01*
X141715614Y-94620068D01*
X141716246Y-94621504D01*
X141766287Y-94735232D01*
X141853018Y-94838411D01*
X141860496Y-94843388D01*
X141860495Y-94843388D01*
X141957750Y-94908127D01*
X141957752Y-94908128D01*
X141965223Y-94913101D01*
X141973787Y-94915777D01*
X141973790Y-94915778D01*
X142024017Y-94931470D01*
X142093880Y-94953297D01*
X142228648Y-94955767D01*
X142317769Y-94931470D01*
X142350033Y-94922674D01*
X142350035Y-94922673D01*
X142358692Y-94920313D01*
X142473558Y-94849785D01*
X142480206Y-94842441D01*
X142557990Y-94756505D01*
X142564012Y-94749852D01*
X142602809Y-94669775D01*
X142650512Y-94617192D01*
X142719070Y-94598747D01*
X142786718Y-94620295D01*
X142831531Y-94673969D01*
X142858487Y-94735232D01*
X142945218Y-94838411D01*
X142952696Y-94843388D01*
X142952695Y-94843388D01*
X143049950Y-94908127D01*
X143049952Y-94908128D01*
X143057423Y-94913101D01*
X143065987Y-94915777D01*
X143065990Y-94915778D01*
X143116217Y-94931470D01*
X143186080Y-94953297D01*
X143320848Y-94955767D01*
X143409969Y-94931470D01*
X143442233Y-94922674D01*
X143442235Y-94922673D01*
X143450892Y-94920313D01*
X143565758Y-94849785D01*
X143572406Y-94842441D01*
X143650190Y-94756505D01*
X143656212Y-94749852D01*
X143714983Y-94628549D01*
X143737346Y-94495627D01*
X143737488Y-94484012D01*
X143724767Y-94395185D01*
X143719652Y-94359470D01*
X143719652Y-94359468D01*
X143718379Y-94350583D01*
X143662590Y-94227880D01*
X143656732Y-94221081D01*
X143656729Y-94221077D01*
X143580464Y-94132568D01*
X143580461Y-94132566D01*
X143574604Y-94125768D01*
X143461496Y-94052455D01*
X143442309Y-94046717D01*
X143382776Y-94008035D01*
X143353606Y-93943307D01*
X143364062Y-93873085D01*
X143410823Y-93819662D01*
X143478412Y-93800000D01*
X157599918Y-93800000D01*
X157668039Y-93820002D01*
X157714532Y-93873658D01*
X157725180Y-93924089D01*
X157724635Y-93927592D01*
X157733773Y-93997469D01*
X157740452Y-94048539D01*
X157742113Y-94061244D01*
X157796399Y-94184620D01*
X157883130Y-94287799D01*
X157897062Y-94297073D01*
X157987862Y-94357515D01*
X157987864Y-94357516D01*
X157995335Y-94362489D01*
X158003899Y-94365165D01*
X158003902Y-94365166D01*
X158070879Y-94386091D01*
X158129935Y-94425497D01*
X158158312Y-94490576D01*
X158146999Y-94560666D01*
X158099590Y-94613513D01*
X158083839Y-94620471D01*
X158084301Y-94621504D01*
X158076105Y-94625170D01*
X158067477Y-94627636D01*
X158059890Y-94632423D01*
X158059888Y-94632424D01*
X158019210Y-94658090D01*
X157953481Y-94699562D01*
X157864254Y-94800592D01*
X157860440Y-94808715D01*
X157860439Y-94808717D01*
X157849726Y-94831535D01*
X157806970Y-94922603D01*
X157805590Y-94931468D01*
X157805589Y-94931470D01*
X157788734Y-95039721D01*
X157786232Y-95055789D01*
X157787396Y-95064690D01*
X157787396Y-95064694D01*
X157796705Y-95135875D01*
X157803710Y-95189441D01*
X157857996Y-95312817D01*
X157944727Y-95415996D01*
X157952205Y-95420973D01*
X157952204Y-95420973D01*
X158049459Y-95485712D01*
X158049461Y-95485713D01*
X158056932Y-95490686D01*
X158065496Y-95493362D01*
X158065499Y-95493363D01*
X158120505Y-95510548D01*
X158185589Y-95530882D01*
X158320357Y-95533352D01*
X158393823Y-95513323D01*
X158441742Y-95500259D01*
X158441744Y-95500258D01*
X158450401Y-95497898D01*
X158565267Y-95427370D01*
X158655721Y-95327437D01*
X158714492Y-95206134D01*
X158736855Y-95073212D01*
X158736997Y-95061597D01*
X158721487Y-94953297D01*
X158719161Y-94937055D01*
X158719161Y-94937053D01*
X158717888Y-94928168D01*
X158712182Y-94915617D01*
X158679224Y-94843131D01*
X158662099Y-94805465D01*
X158656241Y-94798666D01*
X158656238Y-94798662D01*
X158579973Y-94710153D01*
X158579970Y-94710151D01*
X158574113Y-94703353D01*
X158461005Y-94630040D01*
X158452403Y-94627468D01*
X158452400Y-94627466D01*
X158391883Y-94609368D01*
X158332349Y-94570686D01*
X158303179Y-94505959D01*
X158313635Y-94435736D01*
X158360395Y-94382314D01*
X158377944Y-94373014D01*
X158380144Y-94372062D01*
X158388804Y-94369701D01*
X158503670Y-94299173D01*
X158594124Y-94199240D01*
X158652895Y-94077937D01*
X158675258Y-93945015D01*
X158675400Y-93933400D01*
X158675342Y-93932995D01*
X158690610Y-93864909D01*
X158741132Y-93815029D01*
X158800809Y-93800000D01*
X165233212Y-93800000D01*
X165301333Y-93820002D01*
X165347826Y-93873658D01*
X165357930Y-93943932D01*
X165328436Y-94008512D01*
X165300449Y-94032561D01*
X165291884Y-94037965D01*
X165202657Y-94138995D01*
X165198843Y-94147118D01*
X165198842Y-94147120D01*
X165182814Y-94181260D01*
X165145373Y-94261006D01*
X165143993Y-94269871D01*
X165143992Y-94269873D01*
X165127933Y-94373014D01*
X165124635Y-94394192D01*
X165125799Y-94403093D01*
X165125799Y-94403097D01*
X165134461Y-94469332D01*
X165142113Y-94527844D01*
X165196399Y-94651220D01*
X165211996Y-94669775D01*
X165273483Y-94742922D01*
X165283130Y-94754399D01*
X165290608Y-94759376D01*
X165290607Y-94759376D01*
X165387862Y-94824115D01*
X165387864Y-94824116D01*
X165395335Y-94829089D01*
X165403899Y-94831765D01*
X165403902Y-94831766D01*
X165441102Y-94843388D01*
X165523992Y-94869285D01*
X165658760Y-94871755D01*
X165713356Y-94856870D01*
X165780145Y-94838662D01*
X165780147Y-94838661D01*
X165788804Y-94836301D01*
X165903670Y-94765773D01*
X165994124Y-94665840D01*
X166052895Y-94544537D01*
X166075258Y-94411615D01*
X166075400Y-94400000D01*
X166059216Y-94286996D01*
X166057564Y-94275458D01*
X166057564Y-94275456D01*
X166056291Y-94266571D01*
X166000502Y-94143868D01*
X165994644Y-94137069D01*
X165994641Y-94137065D01*
X165918376Y-94048556D01*
X165918373Y-94048554D01*
X165912516Y-94041756D01*
X165897049Y-94031731D01*
X165850767Y-93977896D01*
X165840936Y-93907583D01*
X165870680Y-93843118D01*
X165930555Y-93804967D01*
X165965583Y-93800000D01*
X172252680Y-93800000D01*
X172320801Y-93820002D01*
X172367294Y-93873658D01*
X172378680Y-93926000D01*
X172378680Y-118104122D01*
X172376187Y-118119727D01*
X172373785Y-118120685D01*
X172373582Y-118136037D01*
X172373582Y-118136038D01*
X172373557Y-118137965D01*
X172372177Y-118242429D01*
X172371992Y-118247771D01*
X172368885Y-118303097D01*
X172367239Y-118332406D01*
X172366645Y-118339447D01*
X172338633Y-118588069D01*
X172337645Y-118595067D01*
X172325636Y-118665748D01*
X172324257Y-118672680D01*
X172268577Y-118916626D01*
X172266824Y-118923422D01*
X172246978Y-118992311D01*
X172244836Y-118999031D01*
X172220216Y-119069393D01*
X172162195Y-119235207D01*
X172159675Y-119241810D01*
X172132246Y-119308030D01*
X172129359Y-119314481D01*
X172020802Y-119539902D01*
X172017558Y-119546182D01*
X171982879Y-119608929D01*
X171979288Y-119615016D01*
X171846185Y-119826847D01*
X171842259Y-119832723D01*
X171800781Y-119891181D01*
X171796531Y-119896829D01*
X171640529Y-120092450D01*
X171635969Y-120097849D01*
X171588192Y-120151312D01*
X171583336Y-120156448D01*
X171406448Y-120333336D01*
X171401312Y-120338192D01*
X171347849Y-120385969D01*
X171342450Y-120390529D01*
X171146829Y-120546531D01*
X171141181Y-120550781D01*
X171082723Y-120592259D01*
X171076847Y-120596185D01*
X170865016Y-120729288D01*
X170858929Y-120732879D01*
X170796182Y-120767558D01*
X170789902Y-120770802D01*
X170564487Y-120879356D01*
X170558035Y-120882243D01*
X170491800Y-120909678D01*
X170485199Y-120912198D01*
X170249039Y-120994834D01*
X170242348Y-120996967D01*
X170201525Y-121008728D01*
X170173432Y-121016821D01*
X170166590Y-121018586D01*
X169922680Y-121074257D01*
X169915755Y-121075635D01*
X169845049Y-121087648D01*
X169838083Y-121088631D01*
X169704823Y-121103646D01*
X169589447Y-121116645D01*
X169582406Y-121117239D01*
X169562967Y-121118331D01*
X169497771Y-121121992D01*
X169492429Y-121122177D01*
X169370686Y-121123785D01*
X169369728Y-121126187D01*
X169353167Y-121128680D01*
X94126000Y-121128680D01*
X94057879Y-121108678D01*
X94011386Y-121055022D01*
X94000000Y-121002680D01*
X94000000Y-120094192D01*
X100124635Y-120094192D01*
X100125799Y-120103093D01*
X100125799Y-120103097D01*
X100137506Y-120192617D01*
X100142113Y-120227844D01*
X100196399Y-120351220D01*
X100283130Y-120454399D01*
X100290608Y-120459376D01*
X100290607Y-120459376D01*
X100387862Y-120524115D01*
X100387864Y-120524116D01*
X100395335Y-120529089D01*
X100403899Y-120531765D01*
X100403902Y-120531766D01*
X100451162Y-120546531D01*
X100523992Y-120569285D01*
X100658760Y-120571755D01*
X100751281Y-120546531D01*
X100780145Y-120538662D01*
X100780147Y-120538661D01*
X100788804Y-120536301D01*
X100903670Y-120465773D01*
X100994124Y-120365840D01*
X101052895Y-120244537D01*
X101075258Y-120111615D01*
X101075400Y-120100000D01*
X101065975Y-120034192D01*
X105774635Y-120034192D01*
X105775799Y-120043093D01*
X105775799Y-120043097D01*
X105790949Y-120158945D01*
X105792113Y-120167844D01*
X105846399Y-120291220D01*
X105933130Y-120394399D01*
X105940608Y-120399376D01*
X105940607Y-120399376D01*
X106037862Y-120464115D01*
X106037864Y-120464116D01*
X106045335Y-120469089D01*
X106053899Y-120471765D01*
X106053902Y-120471766D01*
X106109664Y-120489187D01*
X106173992Y-120509285D01*
X106308760Y-120511755D01*
X106363356Y-120496870D01*
X106430145Y-120478662D01*
X106430147Y-120478661D01*
X106438804Y-120476301D01*
X106553670Y-120405773D01*
X106590128Y-120365495D01*
X106638102Y-120312493D01*
X106644124Y-120305840D01*
X106702895Y-120184537D01*
X106725258Y-120051615D01*
X106725400Y-120040000D01*
X106706291Y-119906571D01*
X106650502Y-119783868D01*
X106644644Y-119777069D01*
X106644641Y-119777065D01*
X106568376Y-119688556D01*
X106568373Y-119688554D01*
X106562516Y-119681756D01*
X106449408Y-119608443D01*
X106440806Y-119605871D01*
X106440803Y-119605869D01*
X106365881Y-119583463D01*
X106320269Y-119569822D01*
X106311293Y-119569767D01*
X106311292Y-119569767D01*
X106255686Y-119569427D01*
X106185481Y-119568998D01*
X106055880Y-119606039D01*
X105941884Y-119677965D01*
X105852657Y-119778995D01*
X105848843Y-119787118D01*
X105848842Y-119787120D01*
X105827646Y-119832267D01*
X105795373Y-119901006D01*
X105793993Y-119909871D01*
X105793992Y-119909873D01*
X105786031Y-119961006D01*
X105774635Y-120034192D01*
X101065975Y-120034192D01*
X101056291Y-119966571D01*
X101000502Y-119843868D01*
X100994644Y-119837069D01*
X100994641Y-119837065D01*
X100918376Y-119748556D01*
X100918373Y-119748554D01*
X100912516Y-119741756D01*
X100799408Y-119668443D01*
X100790806Y-119665871D01*
X100790803Y-119665869D01*
X100728981Y-119647381D01*
X100670269Y-119629822D01*
X100661293Y-119629767D01*
X100661292Y-119629767D01*
X100605686Y-119629427D01*
X100535481Y-119628998D01*
X100405880Y-119666039D01*
X100398293Y-119670826D01*
X100398291Y-119670827D01*
X100337895Y-119708934D01*
X100291884Y-119737965D01*
X100202657Y-119838995D01*
X100145373Y-119961006D01*
X100143993Y-119969871D01*
X100143992Y-119969873D01*
X100131265Y-120051615D01*
X100124635Y-120094192D01*
X94000000Y-120094192D01*
X94000000Y-118594192D01*
X97524635Y-118594192D01*
X97525799Y-118603093D01*
X97525799Y-118603097D01*
X97534899Y-118672680D01*
X97542113Y-118727844D01*
X97545725Y-118736054D01*
X97545726Y-118736056D01*
X97553013Y-118752617D01*
X97596399Y-118851220D01*
X97683130Y-118954399D01*
X97705493Y-118969285D01*
X97787862Y-119024115D01*
X97787864Y-119024116D01*
X97795335Y-119029089D01*
X97803899Y-119031765D01*
X97803902Y-119031766D01*
X97859663Y-119049187D01*
X97923992Y-119069285D01*
X98058760Y-119071755D01*
X98113356Y-119056870D01*
X98180145Y-119038662D01*
X98180147Y-119038661D01*
X98188804Y-119036301D01*
X98303670Y-118965773D01*
X98328210Y-118938662D01*
X98388102Y-118872493D01*
X98394124Y-118865840D01*
X98452895Y-118744537D01*
X98475258Y-118611615D01*
X98475400Y-118600000D01*
X98460247Y-118494192D01*
X105774635Y-118494192D01*
X105775799Y-118503093D01*
X105775799Y-118503097D01*
X105790949Y-118618945D01*
X105792113Y-118627844D01*
X105795725Y-118636054D01*
X105795726Y-118636056D01*
X105803013Y-118652617D01*
X105846399Y-118751220D01*
X105933130Y-118854399D01*
X105940608Y-118859376D01*
X105940607Y-118859376D01*
X106037862Y-118924115D01*
X106037864Y-118924116D01*
X106045335Y-118929089D01*
X106053899Y-118931765D01*
X106053902Y-118931766D01*
X106104337Y-118947523D01*
X106173992Y-118969285D01*
X106308760Y-118971755D01*
X106373716Y-118954046D01*
X106430145Y-118938662D01*
X106430147Y-118938661D01*
X106438804Y-118936301D01*
X106553670Y-118865773D01*
X106578210Y-118838662D01*
X106638102Y-118772493D01*
X106644124Y-118765840D01*
X106702895Y-118644537D01*
X106725258Y-118511615D01*
X106725400Y-118500000D01*
X106710247Y-118394192D01*
X108724635Y-118394192D01*
X108725799Y-118403093D01*
X108725799Y-118403097D01*
X108740949Y-118518945D01*
X108742113Y-118527844D01*
X108745725Y-118536054D01*
X108745726Y-118536056D01*
X108753013Y-118552617D01*
X108796399Y-118651220D01*
X108883130Y-118754399D01*
X108890608Y-118759376D01*
X108890607Y-118759376D01*
X108987862Y-118824115D01*
X108987864Y-118824116D01*
X108995335Y-118829089D01*
X109003899Y-118831765D01*
X109003902Y-118831766D01*
X109039886Y-118843008D01*
X109123992Y-118869285D01*
X109258760Y-118871755D01*
X109334082Y-118851220D01*
X109380145Y-118838662D01*
X109380147Y-118838661D01*
X109388804Y-118836301D01*
X109503670Y-118765773D01*
X109528210Y-118738662D01*
X109588102Y-118672493D01*
X109594124Y-118665840D01*
X109652895Y-118544537D01*
X109675258Y-118411615D01*
X109675400Y-118400000D01*
X109656291Y-118266571D01*
X109600502Y-118143868D01*
X109594644Y-118137069D01*
X109594641Y-118137065D01*
X109518376Y-118048556D01*
X109518373Y-118048554D01*
X109512516Y-118041756D01*
X109399408Y-117968443D01*
X109390806Y-117965871D01*
X109390803Y-117965869D01*
X109310173Y-117941756D01*
X109270269Y-117929822D01*
X109261293Y-117929767D01*
X109261292Y-117929767D01*
X109205686Y-117929427D01*
X109135481Y-117928998D01*
X109005880Y-117966039D01*
X108998293Y-117970826D01*
X108998291Y-117970827D01*
X108973527Y-117986452D01*
X108891884Y-118037965D01*
X108802657Y-118138995D01*
X108798843Y-118147118D01*
X108798842Y-118147120D01*
X108789960Y-118166039D01*
X108745373Y-118261006D01*
X108743993Y-118269871D01*
X108743992Y-118269873D01*
X108728422Y-118369873D01*
X108724635Y-118394192D01*
X106710247Y-118394192D01*
X106706291Y-118366571D01*
X106650502Y-118243868D01*
X106644644Y-118237069D01*
X106644641Y-118237065D01*
X106568376Y-118148556D01*
X106568373Y-118148554D01*
X106562516Y-118141756D01*
X106449408Y-118068443D01*
X106440806Y-118065871D01*
X106440803Y-118065869D01*
X106360173Y-118041756D01*
X106320269Y-118029822D01*
X106311293Y-118029767D01*
X106311292Y-118029767D01*
X106255686Y-118029427D01*
X106185481Y-118028998D01*
X106055880Y-118066039D01*
X106048293Y-118070826D01*
X106048291Y-118070827D01*
X106022142Y-118087326D01*
X105941884Y-118137965D01*
X105852657Y-118238995D01*
X105848843Y-118247118D01*
X105848842Y-118247120D01*
X105843546Y-118258400D01*
X105795373Y-118361006D01*
X105793993Y-118369871D01*
X105793992Y-118369873D01*
X105778422Y-118469873D01*
X105774635Y-118494192D01*
X98460247Y-118494192D01*
X98456291Y-118466571D01*
X98400502Y-118343868D01*
X98394644Y-118337069D01*
X98394641Y-118337065D01*
X98318376Y-118248556D01*
X98318373Y-118248554D01*
X98312516Y-118241756D01*
X98199408Y-118168443D01*
X98190806Y-118165871D01*
X98190803Y-118165869D01*
X98110173Y-118141756D01*
X98070269Y-118129822D01*
X98061293Y-118129767D01*
X98061292Y-118129767D01*
X98005686Y-118129427D01*
X97935481Y-118128998D01*
X97805880Y-118166039D01*
X97798293Y-118170826D01*
X97798291Y-118170827D01*
X97737895Y-118208934D01*
X97691884Y-118237965D01*
X97602657Y-118338995D01*
X97598843Y-118347118D01*
X97598842Y-118347120D01*
X97593546Y-118358400D01*
X97545373Y-118461006D01*
X97543993Y-118469871D01*
X97543992Y-118469873D01*
X97528014Y-118572493D01*
X97524635Y-118594192D01*
X94000000Y-118594192D01*
X94000000Y-117194192D01*
X108724635Y-117194192D01*
X108725799Y-117203093D01*
X108725799Y-117203097D01*
X108728551Y-117224140D01*
X108742113Y-117327844D01*
X108796399Y-117451220D01*
X108883130Y-117554399D01*
X108890608Y-117559376D01*
X108890607Y-117559376D01*
X108987862Y-117624115D01*
X108987864Y-117624116D01*
X108995335Y-117629089D01*
X109003899Y-117631765D01*
X109003902Y-117631766D01*
X109059663Y-117649187D01*
X109123992Y-117669285D01*
X109258760Y-117671755D01*
X109316791Y-117655934D01*
X109380145Y-117638662D01*
X109380147Y-117638661D01*
X109388804Y-117636301D01*
X109503670Y-117565773D01*
X109594124Y-117465840D01*
X109652895Y-117344537D01*
X109675258Y-117211615D01*
X109675400Y-117200000D01*
X109674568Y-117194192D01*
X113074635Y-117194192D01*
X113075799Y-117203093D01*
X113075799Y-117203097D01*
X113078551Y-117224140D01*
X113092113Y-117327844D01*
X113146399Y-117451220D01*
X113233130Y-117554399D01*
X113240608Y-117559376D01*
X113240607Y-117559376D01*
X113337862Y-117624115D01*
X113337864Y-117624116D01*
X113345335Y-117629089D01*
X113353902Y-117631765D01*
X113362006Y-117635631D01*
X113360614Y-117638549D01*
X113406466Y-117669150D01*
X113434836Y-117734232D01*
X113423517Y-117804321D01*
X113376102Y-117857163D01*
X113363416Y-117863885D01*
X113355880Y-117866039D01*
X113241884Y-117937965D01*
X113152657Y-118038995D01*
X113148843Y-118047118D01*
X113148842Y-118047120D01*
X113139960Y-118066039D01*
X113095373Y-118161006D01*
X113093993Y-118169871D01*
X113093992Y-118169873D01*
X113078422Y-118269873D01*
X113074635Y-118294192D01*
X113075799Y-118303093D01*
X113075799Y-118303097D01*
X113090949Y-118418945D01*
X113092113Y-118427844D01*
X113095725Y-118436054D01*
X113095726Y-118436056D01*
X113098328Y-118441969D01*
X113146399Y-118551220D01*
X113233130Y-118654399D01*
X113240608Y-118659376D01*
X113240607Y-118659376D01*
X113337862Y-118724115D01*
X113337864Y-118724116D01*
X113345335Y-118729089D01*
X113353899Y-118731765D01*
X113353902Y-118731766D01*
X113389886Y-118743008D01*
X113473992Y-118769285D01*
X113608760Y-118771755D01*
X113672421Y-118754399D01*
X113730145Y-118738662D01*
X113730147Y-118738661D01*
X113738804Y-118736301D01*
X113853670Y-118665773D01*
X113883830Y-118632453D01*
X113938102Y-118572493D01*
X113944124Y-118565840D01*
X114002895Y-118444537D01*
X114025258Y-118311615D01*
X114025400Y-118300000D01*
X114008150Y-118179549D01*
X114007564Y-118175458D01*
X114007564Y-118175456D01*
X114006291Y-118166571D01*
X113950502Y-118043868D01*
X113944644Y-118037069D01*
X113944641Y-118037065D01*
X113868376Y-117948556D01*
X113868373Y-117948554D01*
X113862516Y-117941756D01*
X113749408Y-117868443D01*
X113740803Y-117865869D01*
X113737428Y-117864310D01*
X113683980Y-117817578D01*
X113664281Y-117749369D01*
X113684586Y-117681338D01*
X113737418Y-117636679D01*
X113738804Y-117636301D01*
X113853670Y-117565773D01*
X113944124Y-117465840D01*
X114002895Y-117344537D01*
X114025258Y-117211615D01*
X114025400Y-117200000D01*
X114024568Y-117194192D01*
X124924635Y-117194192D01*
X124925799Y-117203093D01*
X124925799Y-117203097D01*
X124928551Y-117224140D01*
X124942113Y-117327844D01*
X124996399Y-117451220D01*
X125083130Y-117554399D01*
X125090608Y-117559376D01*
X125090607Y-117559376D01*
X125187862Y-117624115D01*
X125187864Y-117624116D01*
X125195335Y-117629089D01*
X125203899Y-117631765D01*
X125203902Y-117631766D01*
X125259663Y-117649187D01*
X125323992Y-117669285D01*
X125458760Y-117671755D01*
X125516791Y-117655934D01*
X125580145Y-117638662D01*
X125580147Y-117638661D01*
X125588804Y-117636301D01*
X125703670Y-117565773D01*
X125794124Y-117465840D01*
X125796637Y-117460654D01*
X125850066Y-117416394D01*
X125920547Y-117407852D01*
X125984457Y-117438771D01*
X125995494Y-117451981D01*
X125996399Y-117451220D01*
X126083130Y-117554399D01*
X126090608Y-117559376D01*
X126090607Y-117559376D01*
X126187862Y-117624115D01*
X126187864Y-117624116D01*
X126195335Y-117629089D01*
X126203899Y-117631765D01*
X126203902Y-117631766D01*
X126259663Y-117649187D01*
X126323992Y-117669285D01*
X126458760Y-117671755D01*
X126516791Y-117655934D01*
X126580145Y-117638662D01*
X126580147Y-117638661D01*
X126588804Y-117636301D01*
X126703670Y-117565773D01*
X126794124Y-117465840D01*
X126796637Y-117460654D01*
X126850066Y-117416394D01*
X126920547Y-117407852D01*
X126984457Y-117438771D01*
X126995494Y-117451981D01*
X126996399Y-117451220D01*
X127083130Y-117554399D01*
X127090608Y-117559376D01*
X127090607Y-117559376D01*
X127187862Y-117624115D01*
X127187864Y-117624116D01*
X127195335Y-117629089D01*
X127203899Y-117631765D01*
X127203902Y-117631766D01*
X127259663Y-117649187D01*
X127323992Y-117669285D01*
X127458760Y-117671755D01*
X127516791Y-117655934D01*
X127580145Y-117638662D01*
X127580147Y-117638661D01*
X127588804Y-117636301D01*
X127703670Y-117565773D01*
X127794124Y-117465840D01*
X127852895Y-117344537D01*
X127875258Y-117211615D01*
X127875400Y-117200000D01*
X127856291Y-117066571D01*
X127800502Y-116943868D01*
X127794644Y-116937069D01*
X127794641Y-116937065D01*
X127718376Y-116848556D01*
X127718373Y-116848554D01*
X127712516Y-116841756D01*
X127599408Y-116768443D01*
X127590806Y-116765871D01*
X127590803Y-116765869D01*
X127528981Y-116747381D01*
X127470269Y-116729822D01*
X127461293Y-116729767D01*
X127461292Y-116729767D01*
X127405686Y-116729427D01*
X127335481Y-116728998D01*
X127205880Y-116766039D01*
X127198293Y-116770826D01*
X127198291Y-116770827D01*
X127137895Y-116808934D01*
X127091884Y-116837965D01*
X127002657Y-116938995D01*
X127002268Y-116939824D01*
X126951240Y-116983153D01*
X126880868Y-116992553D01*
X126816586Y-116962414D01*
X126800624Y-116943763D01*
X126800502Y-116943868D01*
X126718376Y-116848556D01*
X126718373Y-116848554D01*
X126712516Y-116841756D01*
X126599408Y-116768443D01*
X126590806Y-116765871D01*
X126590803Y-116765869D01*
X126528981Y-116747381D01*
X126470269Y-116729822D01*
X126461293Y-116729767D01*
X126461292Y-116729767D01*
X126405686Y-116729427D01*
X126335481Y-116728998D01*
X126205880Y-116766039D01*
X126198293Y-116770826D01*
X126198291Y-116770827D01*
X126137895Y-116808934D01*
X126091884Y-116837965D01*
X126002657Y-116938995D01*
X126002268Y-116939824D01*
X125951240Y-116983153D01*
X125880868Y-116992553D01*
X125816586Y-116962414D01*
X125800624Y-116943763D01*
X125800502Y-116943868D01*
X125718376Y-116848556D01*
X125718373Y-116848554D01*
X125712516Y-116841756D01*
X125599408Y-116768443D01*
X125590806Y-116765871D01*
X125590803Y-116765869D01*
X125528981Y-116747381D01*
X125470269Y-116729822D01*
X125461293Y-116729767D01*
X125461292Y-116729767D01*
X125405686Y-116729427D01*
X125335481Y-116728998D01*
X125205880Y-116766039D01*
X125198293Y-116770826D01*
X125198291Y-116770827D01*
X125137895Y-116808934D01*
X125091884Y-116837965D01*
X125002657Y-116938995D01*
X124945373Y-117061006D01*
X124943993Y-117069871D01*
X124943992Y-117069873D01*
X124943123Y-117075458D01*
X124924635Y-117194192D01*
X114024568Y-117194192D01*
X114006291Y-117066571D01*
X113950502Y-116943868D01*
X113944644Y-116937069D01*
X113944641Y-116937065D01*
X113868376Y-116848556D01*
X113868373Y-116848554D01*
X113862516Y-116841756D01*
X113749408Y-116768443D01*
X113740806Y-116765871D01*
X113740803Y-116765869D01*
X113678981Y-116747381D01*
X113620269Y-116729822D01*
X113611293Y-116729767D01*
X113611292Y-116729767D01*
X113555686Y-116729427D01*
X113485481Y-116728998D01*
X113355880Y-116766039D01*
X113348293Y-116770826D01*
X113348291Y-116770827D01*
X113287895Y-116808934D01*
X113241884Y-116837965D01*
X113152657Y-116938995D01*
X113095373Y-117061006D01*
X113093993Y-117069871D01*
X113093992Y-117069873D01*
X113093123Y-117075458D01*
X113074635Y-117194192D01*
X109674568Y-117194192D01*
X109656291Y-117066571D01*
X109600502Y-116943868D01*
X109594644Y-116937069D01*
X109594641Y-116937065D01*
X109518376Y-116848556D01*
X109518373Y-116848554D01*
X109512516Y-116841756D01*
X109399408Y-116768443D01*
X109390806Y-116765871D01*
X109390803Y-116765869D01*
X109328981Y-116747381D01*
X109270269Y-116729822D01*
X109261293Y-116729767D01*
X109261292Y-116729767D01*
X109205686Y-116729427D01*
X109135481Y-116728998D01*
X109005880Y-116766039D01*
X108998293Y-116770826D01*
X108998291Y-116770827D01*
X108937895Y-116808934D01*
X108891884Y-116837965D01*
X108802657Y-116938995D01*
X108745373Y-117061006D01*
X108743993Y-117069871D01*
X108743992Y-117069873D01*
X108743123Y-117075458D01*
X108724635Y-117194192D01*
X94000000Y-117194192D01*
X94000000Y-116394192D01*
X119774635Y-116394192D01*
X119775799Y-116403093D01*
X119775799Y-116403097D01*
X119790949Y-116518945D01*
X119792113Y-116527844D01*
X119795725Y-116536054D01*
X119795726Y-116536056D01*
X119805874Y-116559119D01*
X119846399Y-116651220D01*
X119933130Y-116754399D01*
X119954228Y-116768443D01*
X120037862Y-116824115D01*
X120037864Y-116824116D01*
X120045335Y-116829089D01*
X120053899Y-116831765D01*
X120053902Y-116831766D01*
X120107644Y-116848556D01*
X120173992Y-116869285D01*
X120308760Y-116871755D01*
X120363356Y-116856870D01*
X120430145Y-116838662D01*
X120430147Y-116838661D01*
X120438804Y-116836301D01*
X120553670Y-116765773D01*
X120644124Y-116665840D01*
X120702895Y-116544537D01*
X120725258Y-116411615D01*
X120725400Y-116400000D01*
X120724568Y-116394192D01*
X121324635Y-116394192D01*
X121325799Y-116403093D01*
X121325799Y-116403097D01*
X121340949Y-116518945D01*
X121342113Y-116527844D01*
X121345725Y-116536054D01*
X121345726Y-116536056D01*
X121355874Y-116559119D01*
X121396399Y-116651220D01*
X121483130Y-116754399D01*
X121504228Y-116768443D01*
X121587862Y-116824115D01*
X121587864Y-116824116D01*
X121595335Y-116829089D01*
X121603899Y-116831765D01*
X121603902Y-116831766D01*
X121657644Y-116848556D01*
X121723992Y-116869285D01*
X121858760Y-116871755D01*
X121913356Y-116856870D01*
X121980145Y-116838662D01*
X121980147Y-116838661D01*
X121988804Y-116836301D01*
X122103670Y-116765773D01*
X122194124Y-116665840D01*
X122252895Y-116544537D01*
X122275258Y-116411615D01*
X122275400Y-116400000D01*
X122256291Y-116266571D01*
X122200502Y-116143868D01*
X122194644Y-116137069D01*
X122194641Y-116137065D01*
X122118376Y-116048556D01*
X122118373Y-116048554D01*
X122112516Y-116041756D01*
X121999408Y-115968443D01*
X121990806Y-115965871D01*
X121990803Y-115965869D01*
X121921639Y-115945185D01*
X121870269Y-115929822D01*
X121861293Y-115929767D01*
X121861292Y-115929767D01*
X121805686Y-115929427D01*
X121735481Y-115928998D01*
X121605880Y-115966039D01*
X121598293Y-115970826D01*
X121598291Y-115970827D01*
X121537895Y-116008934D01*
X121491884Y-116037965D01*
X121402657Y-116138995D01*
X121398843Y-116147118D01*
X121398842Y-116147120D01*
X121384862Y-116176897D01*
X121345373Y-116261006D01*
X121343993Y-116269871D01*
X121343992Y-116269873D01*
X121326987Y-116379089D01*
X121324635Y-116394192D01*
X120724568Y-116394192D01*
X120706291Y-116266571D01*
X120650502Y-116143868D01*
X120644644Y-116137069D01*
X120644641Y-116137065D01*
X120568376Y-116048556D01*
X120568373Y-116048554D01*
X120562516Y-116041756D01*
X120449408Y-115968443D01*
X120440806Y-115965871D01*
X120440803Y-115965869D01*
X120371639Y-115945185D01*
X120320269Y-115929822D01*
X120311293Y-115929767D01*
X120311292Y-115929767D01*
X120255686Y-115929427D01*
X120185481Y-115928998D01*
X120055880Y-115966039D01*
X120048293Y-115970826D01*
X120048291Y-115970827D01*
X119987895Y-116008934D01*
X119941884Y-116037965D01*
X119852657Y-116138995D01*
X119848843Y-116147118D01*
X119848842Y-116147120D01*
X119834862Y-116176897D01*
X119795373Y-116261006D01*
X119793993Y-116269871D01*
X119793992Y-116269873D01*
X119776987Y-116379089D01*
X119774635Y-116394192D01*
X94000000Y-116394192D01*
X94000000Y-115726000D01*
X94020002Y-115657879D01*
X94073658Y-115611386D01*
X94126000Y-115600000D01*
X111000000Y-115600000D01*
X111000000Y-112794192D01*
X111724635Y-112794192D01*
X111725799Y-112803093D01*
X111725799Y-112803097D01*
X111734100Y-112866571D01*
X111742113Y-112927844D01*
X111745725Y-112936054D01*
X111745726Y-112936056D01*
X111756972Y-112961615D01*
X111796399Y-113051220D01*
X111883130Y-113154399D01*
X111890608Y-113159376D01*
X111890607Y-113159376D01*
X111987862Y-113224115D01*
X111987864Y-113224116D01*
X111995335Y-113229089D01*
X112003899Y-113231765D01*
X112003902Y-113231766D01*
X112059663Y-113249187D01*
X112123992Y-113269285D01*
X112258760Y-113271755D01*
X112340398Y-113249498D01*
X112380145Y-113238662D01*
X112380147Y-113238661D01*
X112388804Y-113236301D01*
X112503670Y-113165773D01*
X112594124Y-113065840D01*
X112628837Y-112994192D01*
X124324635Y-112994192D01*
X124325799Y-113003093D01*
X124325799Y-113003097D01*
X124340949Y-113118945D01*
X124342113Y-113127844D01*
X124345725Y-113136054D01*
X124345726Y-113136056D01*
X124355874Y-113159119D01*
X124396399Y-113251220D01*
X124483130Y-113354399D01*
X124503934Y-113368247D01*
X124587862Y-113424115D01*
X124587864Y-113424116D01*
X124595335Y-113429089D01*
X124603899Y-113431765D01*
X124603902Y-113431766D01*
X124659664Y-113449187D01*
X124723992Y-113469285D01*
X124858760Y-113471755D01*
X124913356Y-113456870D01*
X124980145Y-113438662D01*
X124980147Y-113438661D01*
X124988804Y-113436301D01*
X125103670Y-113365773D01*
X125194124Y-113265840D01*
X125252895Y-113144537D01*
X125275258Y-113011615D01*
X125275400Y-113000000D01*
X125262904Y-112912749D01*
X125257564Y-112875458D01*
X125257564Y-112875456D01*
X125256291Y-112866571D01*
X125200502Y-112743868D01*
X125194644Y-112737069D01*
X125194641Y-112737065D01*
X125118376Y-112648556D01*
X125118373Y-112648554D01*
X125112516Y-112641756D01*
X124999408Y-112568443D01*
X124990806Y-112565871D01*
X124990803Y-112565869D01*
X124909568Y-112541575D01*
X124870269Y-112529822D01*
X124861293Y-112529767D01*
X124861292Y-112529767D01*
X124805686Y-112529427D01*
X124735481Y-112528998D01*
X124605880Y-112566039D01*
X124598293Y-112570826D01*
X124598291Y-112570827D01*
X124544782Y-112604589D01*
X124491884Y-112637965D01*
X124402657Y-112738995D01*
X124345373Y-112861006D01*
X124343993Y-112869871D01*
X124343992Y-112869873D01*
X124328961Y-112966410D01*
X124324635Y-112994192D01*
X112628837Y-112994192D01*
X112652895Y-112944537D01*
X112675258Y-112811615D01*
X112675400Y-112800000D01*
X112660200Y-112693868D01*
X112657564Y-112675458D01*
X112657564Y-112675456D01*
X112656291Y-112666571D01*
X112600502Y-112543868D01*
X112594644Y-112537069D01*
X112594641Y-112537065D01*
X112518376Y-112448556D01*
X112518373Y-112448554D01*
X112512516Y-112441756D01*
X112399408Y-112368443D01*
X112390806Y-112365871D01*
X112390803Y-112365869D01*
X112313497Y-112342750D01*
X112270269Y-112329822D01*
X112261293Y-112329767D01*
X112261292Y-112329767D01*
X112205686Y-112329427D01*
X112135481Y-112328998D01*
X112005880Y-112366039D01*
X111998293Y-112370826D01*
X111998291Y-112370827D01*
X111956001Y-112397510D01*
X111891884Y-112437965D01*
X111802657Y-112538995D01*
X111798843Y-112547118D01*
X111798842Y-112547120D01*
X111780177Y-112586875D01*
X111745373Y-112661006D01*
X111743993Y-112669871D01*
X111743992Y-112669873D01*
X111728172Y-112771479D01*
X111724635Y-112794192D01*
X111000000Y-112794192D01*
X111000000Y-111594192D01*
X114124635Y-111594192D01*
X114125799Y-111603093D01*
X114125799Y-111603097D01*
X114138980Y-111703887D01*
X114142113Y-111727844D01*
X114145725Y-111736054D01*
X114145726Y-111736056D01*
X114152724Y-111751960D01*
X114196399Y-111851220D01*
X114283130Y-111954399D01*
X114300217Y-111965773D01*
X114387862Y-112024115D01*
X114387864Y-112024116D01*
X114395335Y-112029089D01*
X114403899Y-112031765D01*
X114403902Y-112031766D01*
X114439886Y-112043008D01*
X114523992Y-112069285D01*
X114658760Y-112071755D01*
X114734082Y-112051220D01*
X114780145Y-112038662D01*
X114780147Y-112038661D01*
X114788804Y-112036301D01*
X114903670Y-111965773D01*
X114931235Y-111935320D01*
X114988102Y-111872493D01*
X114994124Y-111865840D01*
X115028837Y-111794192D01*
X117324635Y-111794192D01*
X117325799Y-111803093D01*
X117325799Y-111803097D01*
X117340156Y-111912881D01*
X117342113Y-111927844D01*
X117345725Y-111936054D01*
X117345726Y-111936056D01*
X117355874Y-111959119D01*
X117396399Y-112051220D01*
X117483130Y-112154399D01*
X117490608Y-112159376D01*
X117490607Y-112159376D01*
X117587862Y-112224115D01*
X117587864Y-112224116D01*
X117595335Y-112229089D01*
X117603899Y-112231765D01*
X117603902Y-112231766D01*
X117659664Y-112249187D01*
X117723992Y-112269285D01*
X117858760Y-112271755D01*
X117913356Y-112256870D01*
X117980145Y-112238662D01*
X117980147Y-112238661D01*
X117988804Y-112236301D01*
X118103670Y-112165773D01*
X118194124Y-112065840D01*
X118252895Y-111944537D01*
X118252953Y-111944192D01*
X126974635Y-111944192D01*
X126975799Y-111953093D01*
X126975799Y-111953097D01*
X126990949Y-112068945D01*
X126992113Y-112077844D01*
X126995725Y-112086054D01*
X126995726Y-112086056D01*
X127003013Y-112102617D01*
X127046399Y-112201220D01*
X127133130Y-112304399D01*
X127186056Y-112339629D01*
X127194267Y-112345095D01*
X127239890Y-112399492D01*
X127248861Y-112469919D01*
X127218332Y-112534017D01*
X127191686Y-112556542D01*
X127141884Y-112587965D01*
X127052657Y-112688995D01*
X127048843Y-112697118D01*
X127048842Y-112697120D01*
X127021935Y-112754431D01*
X126995373Y-112811006D01*
X126993993Y-112819871D01*
X126993992Y-112819873D01*
X126977255Y-112927368D01*
X126974635Y-112944192D01*
X126975799Y-112953093D01*
X126975799Y-112953097D01*
X126990543Y-113065840D01*
X126992113Y-113077844D01*
X126995725Y-113086054D01*
X126995726Y-113086056D01*
X127011736Y-113122441D01*
X127046399Y-113201220D01*
X127133130Y-113304399D01*
X127140608Y-113309376D01*
X127140607Y-113309376D01*
X127237862Y-113374115D01*
X127237864Y-113374116D01*
X127245335Y-113379089D01*
X127253899Y-113381765D01*
X127253902Y-113381766D01*
X127296294Y-113395010D01*
X127373992Y-113419285D01*
X127508760Y-113421755D01*
X127606860Y-113395010D01*
X127630145Y-113388662D01*
X127630147Y-113388661D01*
X127638804Y-113386301D01*
X127753670Y-113315773D01*
X127795749Y-113269285D01*
X127836634Y-113224115D01*
X127844124Y-113215840D01*
X127902895Y-113094537D01*
X127925258Y-112961615D01*
X127925400Y-112950000D01*
X127912282Y-112858400D01*
X127907564Y-112825458D01*
X127907564Y-112825456D01*
X127906291Y-112816571D01*
X127896568Y-112795185D01*
X127873235Y-112743868D01*
X127850502Y-112693868D01*
X127844644Y-112687069D01*
X127844641Y-112687065D01*
X127768376Y-112598556D01*
X127768373Y-112598554D01*
X127762516Y-112591756D01*
X127707129Y-112555856D01*
X127660847Y-112502021D01*
X127651016Y-112431708D01*
X127680760Y-112367243D01*
X127709734Y-112342750D01*
X127730789Y-112329822D01*
X127753670Y-112315773D01*
X127795749Y-112269285D01*
X127838102Y-112222493D01*
X127844124Y-112215840D01*
X127902895Y-112094537D01*
X127925258Y-111961615D01*
X127925400Y-111950000D01*
X127911224Y-111851016D01*
X127907564Y-111825458D01*
X127907564Y-111825456D01*
X127906291Y-111816571D01*
X127896568Y-111795185D01*
X127877046Y-111752249D01*
X127850502Y-111693868D01*
X127844644Y-111687069D01*
X127844641Y-111687065D01*
X127768376Y-111598556D01*
X127768373Y-111598554D01*
X127762516Y-111591756D01*
X127649408Y-111518443D01*
X127640806Y-111515871D01*
X127640803Y-111515869D01*
X127570830Y-111494943D01*
X127520269Y-111479822D01*
X127511293Y-111479767D01*
X127511292Y-111479767D01*
X127455686Y-111479427D01*
X127385481Y-111478998D01*
X127255880Y-111516039D01*
X127248293Y-111520826D01*
X127248291Y-111520827D01*
X127202366Y-111549804D01*
X127141884Y-111587965D01*
X127052657Y-111688995D01*
X127048843Y-111697118D01*
X127048842Y-111697120D01*
X127037884Y-111720461D01*
X126995373Y-111811006D01*
X126993993Y-111819871D01*
X126993992Y-111819873D01*
X126988042Y-111858090D01*
X126974635Y-111944192D01*
X118252953Y-111944192D01*
X118275258Y-111811615D01*
X118275400Y-111800000D01*
X118260200Y-111693868D01*
X118257564Y-111675458D01*
X118257564Y-111675456D01*
X118256291Y-111666571D01*
X118200502Y-111543868D01*
X118194644Y-111537069D01*
X118194641Y-111537065D01*
X118118376Y-111448556D01*
X118118373Y-111448554D01*
X118112516Y-111441756D01*
X117999408Y-111368443D01*
X117990806Y-111365871D01*
X117990803Y-111365869D01*
X117917235Y-111343868D01*
X117870269Y-111329822D01*
X117861293Y-111329767D01*
X117861292Y-111329767D01*
X117805686Y-111329427D01*
X117735481Y-111328998D01*
X117605880Y-111366039D01*
X117491884Y-111437965D01*
X117402657Y-111538995D01*
X117398843Y-111547118D01*
X117398842Y-111547120D01*
X117380907Y-111585320D01*
X117345373Y-111661006D01*
X117343993Y-111669871D01*
X117343992Y-111669873D01*
X117329964Y-111759969D01*
X117324635Y-111794192D01*
X115028837Y-111794192D01*
X115052895Y-111744537D01*
X115075258Y-111611615D01*
X115075317Y-111606754D01*
X115075358Y-111606302D01*
X115101366Y-111540241D01*
X115158961Y-111498728D01*
X115229857Y-111494943D01*
X115270672Y-111512672D01*
X115295335Y-111529089D01*
X115303899Y-111531765D01*
X115303902Y-111531766D01*
X115359663Y-111549187D01*
X115423992Y-111569285D01*
X115558760Y-111571755D01*
X115631067Y-111552042D01*
X115680145Y-111538662D01*
X115680147Y-111538661D01*
X115688804Y-111536301D01*
X115803670Y-111465773D01*
X115828210Y-111438662D01*
X115888102Y-111372493D01*
X115894124Y-111365840D01*
X115952895Y-111244537D01*
X115975258Y-111111615D01*
X115975400Y-111100000D01*
X115961522Y-111003097D01*
X115957564Y-110975458D01*
X115957564Y-110975456D01*
X115956291Y-110966571D01*
X115900502Y-110843868D01*
X115894644Y-110837069D01*
X115894641Y-110837065D01*
X115818376Y-110748556D01*
X115818373Y-110748554D01*
X115812516Y-110741756D01*
X115699408Y-110668443D01*
X115690806Y-110665871D01*
X115690803Y-110665869D01*
X115610173Y-110641756D01*
X115570269Y-110629822D01*
X115561293Y-110629767D01*
X115561292Y-110629767D01*
X115505686Y-110629427D01*
X115435481Y-110628998D01*
X115305880Y-110666039D01*
X115298293Y-110670826D01*
X115298291Y-110670827D01*
X115255204Y-110698013D01*
X115191884Y-110737965D01*
X115102657Y-110838995D01*
X115098843Y-110847118D01*
X115098842Y-110847120D01*
X115093845Y-110857763D01*
X115045373Y-110961006D01*
X115043993Y-110969871D01*
X115043992Y-110969873D01*
X115030365Y-111057389D01*
X115024635Y-111094192D01*
X115023278Y-111093981D01*
X115005189Y-111152917D01*
X114950972Y-111198753D01*
X114880580Y-111208000D01*
X114831497Y-111189242D01*
X114806946Y-111173329D01*
X114806947Y-111173329D01*
X114799408Y-111168443D01*
X114790806Y-111165871D01*
X114790803Y-111165869D01*
X114719472Y-111144537D01*
X114670269Y-111129822D01*
X114661293Y-111129767D01*
X114661292Y-111129767D01*
X114605686Y-111129427D01*
X114535481Y-111128998D01*
X114405880Y-111166039D01*
X114398293Y-111170826D01*
X114398291Y-111170827D01*
X114369105Y-111189242D01*
X114291884Y-111237965D01*
X114202657Y-111338995D01*
X114198843Y-111347118D01*
X114198842Y-111347120D01*
X114189960Y-111366039D01*
X114145373Y-111461006D01*
X114143993Y-111469871D01*
X114143992Y-111469873D01*
X114126756Y-111580571D01*
X114124635Y-111594192D01*
X111000000Y-111594192D01*
X111000000Y-110594192D01*
X126924635Y-110594192D01*
X126925799Y-110603093D01*
X126925799Y-110603097D01*
X126937452Y-110692205D01*
X126942113Y-110727844D01*
X126945725Y-110736054D01*
X126945726Y-110736056D01*
X126951226Y-110748556D01*
X126996399Y-110851220D01*
X127083130Y-110954399D01*
X127090608Y-110959376D01*
X127090607Y-110959376D01*
X127187862Y-111024115D01*
X127187864Y-111024116D01*
X127195335Y-111029089D01*
X127203899Y-111031765D01*
X127203902Y-111031766D01*
X127259663Y-111049187D01*
X127323992Y-111069285D01*
X127458760Y-111071755D01*
X127513356Y-111056870D01*
X127580145Y-111038662D01*
X127580147Y-111038661D01*
X127588804Y-111036301D01*
X127703670Y-110965773D01*
X127794124Y-110865840D01*
X127826023Y-110800000D01*
X130600000Y-110800000D01*
X130600000Y-115800000D01*
X134069562Y-115800000D01*
X134137683Y-115820002D01*
X134184176Y-115873658D01*
X134194280Y-115943932D01*
X134183617Y-115979549D01*
X134145373Y-116061006D01*
X134143993Y-116069871D01*
X134143992Y-116069873D01*
X134127785Y-116173963D01*
X134124635Y-116194192D01*
X134125799Y-116203093D01*
X134125799Y-116203097D01*
X134140949Y-116318945D01*
X134142113Y-116327844D01*
X134145725Y-116336054D01*
X134145726Y-116336056D01*
X134160272Y-116369114D01*
X134196399Y-116451220D01*
X134283130Y-116554399D01*
X134290608Y-116559376D01*
X134290607Y-116559376D01*
X134387862Y-116624115D01*
X134387864Y-116624116D01*
X134395335Y-116629089D01*
X134403899Y-116631765D01*
X134403902Y-116631766D01*
X134439886Y-116643008D01*
X134523992Y-116669285D01*
X134658760Y-116671755D01*
X134713356Y-116656870D01*
X134780145Y-116638662D01*
X134780147Y-116638661D01*
X134788804Y-116636301D01*
X134847926Y-116600000D01*
X146400000Y-116600000D01*
X146400000Y-120600000D01*
X152200000Y-120600000D01*
X152200000Y-116600000D01*
X152136778Y-116600000D01*
X152068657Y-116579998D01*
X152022164Y-116526342D01*
X152012060Y-116456068D01*
X152041554Y-116391488D01*
X152070850Y-116366625D01*
X152146019Y-116320472D01*
X152146025Y-116320467D01*
X152153670Y-116315773D01*
X152244124Y-116215840D01*
X152302895Y-116094537D01*
X152325258Y-115961615D01*
X152325400Y-115950000D01*
X152312282Y-115858400D01*
X152307564Y-115825458D01*
X152307564Y-115825456D01*
X152306291Y-115816571D01*
X152250502Y-115693868D01*
X152244644Y-115687069D01*
X152244641Y-115687065D01*
X152168376Y-115598556D01*
X152168373Y-115598554D01*
X152162516Y-115591756D01*
X152049408Y-115518443D01*
X152040806Y-115515871D01*
X152040803Y-115515869D01*
X151969472Y-115494537D01*
X151920269Y-115479822D01*
X151911293Y-115479767D01*
X151911292Y-115479767D01*
X151855686Y-115479427D01*
X151785481Y-115478998D01*
X151655880Y-115516039D01*
X151541884Y-115587965D01*
X151452657Y-115688995D01*
X151448843Y-115697118D01*
X151448842Y-115697120D01*
X151421430Y-115755507D01*
X151395373Y-115811006D01*
X151393993Y-115819871D01*
X151393992Y-115819873D01*
X151376472Y-115932395D01*
X151374635Y-115944192D01*
X151375799Y-115953093D01*
X151375799Y-115953097D01*
X151389570Y-116058400D01*
X151392113Y-116077844D01*
X151395725Y-116086054D01*
X151395726Y-116086056D01*
X151419020Y-116138995D01*
X151446399Y-116201220D01*
X151488428Y-116251220D01*
X151511698Y-116278902D01*
X151533130Y-116304399D01*
X151540608Y-116309376D01*
X151540607Y-116309376D01*
X151630348Y-116369113D01*
X151675971Y-116423510D01*
X151684942Y-116493938D01*
X151654412Y-116558035D01*
X151594076Y-116595452D01*
X151560529Y-116600000D01*
X148968211Y-116600000D01*
X148900090Y-116579998D01*
X148853597Y-116526342D01*
X148843493Y-116456068D01*
X148872987Y-116391488D01*
X148889894Y-116377141D01*
X148889115Y-116376203D01*
X148896021Y-116370469D01*
X148903670Y-116365773D01*
X148994124Y-116265840D01*
X149052895Y-116144537D01*
X149075258Y-116011615D01*
X149075400Y-116000000D01*
X149056291Y-115866571D01*
X149000502Y-115743868D01*
X148994644Y-115737069D01*
X148994641Y-115737065D01*
X148918376Y-115648556D01*
X148918373Y-115648554D01*
X148912516Y-115641756D01*
X148799408Y-115568443D01*
X148790806Y-115565871D01*
X148790803Y-115565869D01*
X148728981Y-115547381D01*
X148670269Y-115529822D01*
X148661293Y-115529767D01*
X148661292Y-115529767D01*
X148605686Y-115529427D01*
X148535481Y-115528998D01*
X148405880Y-115566039D01*
X148398293Y-115570826D01*
X148398291Y-115570827D01*
X148352055Y-115600000D01*
X148291884Y-115637965D01*
X148202657Y-115738995D01*
X148198843Y-115747118D01*
X148198842Y-115747120D01*
X148174800Y-115798329D01*
X148145373Y-115861006D01*
X148143993Y-115869871D01*
X148143992Y-115869873D01*
X148127133Y-115978151D01*
X148124635Y-115994192D01*
X148125799Y-116003093D01*
X148125799Y-116003097D01*
X148136648Y-116086056D01*
X148142113Y-116127844D01*
X148145725Y-116136054D01*
X148145726Y-116136056D01*
X148167403Y-116185320D01*
X148196399Y-116251220D01*
X148283130Y-116354399D01*
X148290607Y-116359376D01*
X148290609Y-116359378D01*
X148305235Y-116369114D01*
X148350857Y-116423511D01*
X148359827Y-116493939D01*
X148329297Y-116558036D01*
X148268961Y-116595452D01*
X148235415Y-116600000D01*
X146400000Y-116600000D01*
X134847926Y-116600000D01*
X134903670Y-116565773D01*
X134936063Y-116529986D01*
X134988102Y-116472493D01*
X134994124Y-116465840D01*
X135052895Y-116344537D01*
X135075258Y-116211615D01*
X135075400Y-116200000D01*
X135059082Y-116086056D01*
X135057564Y-116075458D01*
X135057564Y-116075456D01*
X135056291Y-116066571D01*
X135016089Y-115978150D01*
X135006103Y-115907860D01*
X135035703Y-115843329D01*
X135095493Y-115805045D01*
X135130790Y-115800000D01*
X139200000Y-115800000D01*
X139200000Y-115344192D01*
X141824635Y-115344192D01*
X141825799Y-115353093D01*
X141825799Y-115353097D01*
X141840949Y-115468945D01*
X141842113Y-115477844D01*
X141845725Y-115486054D01*
X141845726Y-115486056D01*
X141865706Y-115531465D01*
X141896399Y-115601220D01*
X141927286Y-115637965D01*
X141970182Y-115688995D01*
X141983130Y-115704399D01*
X141990608Y-115709376D01*
X141990607Y-115709376D01*
X142087862Y-115774115D01*
X142087864Y-115774116D01*
X142095335Y-115779089D01*
X142103899Y-115781765D01*
X142103902Y-115781766D01*
X142143493Y-115794135D01*
X142223992Y-115819285D01*
X142358760Y-115821755D01*
X142420052Y-115805045D01*
X142480145Y-115788662D01*
X142480147Y-115788661D01*
X142488804Y-115786301D01*
X142603670Y-115715773D01*
X142694124Y-115615840D01*
X142752895Y-115494537D01*
X142775258Y-115361615D01*
X142775400Y-115350000D01*
X142756291Y-115216571D01*
X142706428Y-115106902D01*
X143471233Y-115106902D01*
X143471990Y-115111905D01*
X143471990Y-115111910D01*
X143505778Y-115335320D01*
X143507990Y-115349948D01*
X143509536Y-115354764D01*
X143509537Y-115354767D01*
X143578141Y-115568443D01*
X143583133Y-115583990D01*
X143694728Y-115803008D01*
X143839905Y-116001367D01*
X143843515Y-116004927D01*
X143872160Y-116033175D01*
X144014928Y-116173963D01*
X144019053Y-116176895D01*
X144019056Y-116176897D01*
X144083216Y-116222493D01*
X144215294Y-116316356D01*
X144219830Y-116318588D01*
X144431308Y-116422648D01*
X144431313Y-116422650D01*
X144435849Y-116424882D01*
X144440693Y-116426363D01*
X144666070Y-116495268D01*
X144666072Y-116495268D01*
X144670918Y-116496750D01*
X144675939Y-116497438D01*
X144675940Y-116497438D01*
X144909431Y-116529422D01*
X144914454Y-116530110D01*
X144986742Y-116528344D01*
X145155129Y-116524229D01*
X145155133Y-116524229D01*
X145160190Y-116524105D01*
X145401805Y-116478888D01*
X145633083Y-116395623D01*
X145848073Y-116276452D01*
X145853104Y-116272493D01*
X146037275Y-116127565D01*
X146037280Y-116127560D01*
X146041244Y-116124441D01*
X146160100Y-115995185D01*
X146204202Y-115947225D01*
X146204204Y-115947222D01*
X146207626Y-115943501D01*
X146342940Y-115738288D01*
X146345646Y-115732267D01*
X146441629Y-115518696D01*
X146441631Y-115518691D01*
X146443703Y-115514080D01*
X146445012Y-115509195D01*
X146506015Y-115281528D01*
X146506015Y-115281527D01*
X146507323Y-115276646D01*
X146532164Y-115032094D01*
X146532500Y-115000000D01*
X146525546Y-114913573D01*
X146513192Y-114760024D01*
X146513191Y-114760020D01*
X146512786Y-114754982D01*
X146478181Y-114614094D01*
X146455359Y-114521182D01*
X146454152Y-114516268D01*
X146397162Y-114382006D01*
X146360083Y-114294654D01*
X146360083Y-114294653D01*
X146358107Y-114289999D01*
X146236962Y-114097623D01*
X146229817Y-114086277D01*
X146229816Y-114086276D01*
X146227121Y-114081996D01*
X146064564Y-113897612D01*
X145874619Y-113741589D01*
X145662171Y-113617942D01*
X145657448Y-113616129D01*
X145657446Y-113616128D01*
X145515435Y-113561615D01*
X145432688Y-113529851D01*
X145427742Y-113528818D01*
X145427736Y-113528816D01*
X145271150Y-113496104D01*
X145192073Y-113479584D01*
X145187025Y-113479355D01*
X145187019Y-113479354D01*
X145069295Y-113474009D01*
X144946517Y-113468434D01*
X144941496Y-113469015D01*
X144941493Y-113469015D01*
X144707363Y-113496104D01*
X144707358Y-113496105D01*
X144702336Y-113496686D01*
X144697472Y-113498062D01*
X144697469Y-113498063D01*
X144537658Y-113543285D01*
X144465813Y-113563615D01*
X144461234Y-113565750D01*
X144461232Y-113565751D01*
X144349309Y-113617942D01*
X144243034Y-113667499D01*
X144238853Y-113670340D01*
X144238852Y-113670341D01*
X144043917Y-113802819D01*
X144043913Y-113802822D01*
X144039730Y-113805665D01*
X143861131Y-113974557D01*
X143858053Y-113978583D01*
X143858052Y-113978584D01*
X143724744Y-114152944D01*
X143711832Y-114169832D01*
X143595674Y-114386465D01*
X143594028Y-114391246D01*
X143594026Y-114391250D01*
X143552582Y-114511612D01*
X143515646Y-114618883D01*
X143473807Y-114861106D01*
X143471233Y-115106902D01*
X142706428Y-115106902D01*
X142700502Y-115093868D01*
X142694644Y-115087069D01*
X142694641Y-115087065D01*
X142618376Y-114998556D01*
X142618373Y-114998554D01*
X142612516Y-114991756D01*
X142499408Y-114918443D01*
X142490806Y-114915871D01*
X142490803Y-114915869D01*
X142428169Y-114897138D01*
X142370269Y-114879822D01*
X142361293Y-114879767D01*
X142361292Y-114879767D01*
X142305686Y-114879427D01*
X142235481Y-114878998D01*
X142105880Y-114916039D01*
X141991884Y-114987965D01*
X141902657Y-115088995D01*
X141898843Y-115097118D01*
X141898842Y-115097120D01*
X141891898Y-115111910D01*
X141845373Y-115211006D01*
X141843993Y-115219871D01*
X141843992Y-115219873D01*
X141835936Y-115271615D01*
X141824635Y-115344192D01*
X139200000Y-115344192D01*
X139200000Y-113377119D01*
X149941708Y-113377119D01*
X149942872Y-113386020D01*
X149942872Y-113386024D01*
X149955243Y-113480619D01*
X149959186Y-113510771D01*
X149962798Y-113518981D01*
X149962799Y-113518983D01*
X149973492Y-113543285D01*
X150013472Y-113634147D01*
X150100203Y-113737326D01*
X150107681Y-113742303D01*
X150107680Y-113742303D01*
X150204935Y-113807042D01*
X150204937Y-113807043D01*
X150212408Y-113812016D01*
X150220972Y-113814692D01*
X150220975Y-113814693D01*
X150276737Y-113832114D01*
X150341065Y-113852212D01*
X150475833Y-113854682D01*
X150530429Y-113839797D01*
X150597218Y-113821589D01*
X150597220Y-113821588D01*
X150605877Y-113819228D01*
X150613524Y-113814533D01*
X150613528Y-113814531D01*
X150682367Y-113772264D01*
X150750884Y-113753666D01*
X150818580Y-113775063D01*
X150844984Y-113802410D01*
X150846399Y-113801220D01*
X150891339Y-113854682D01*
X150933130Y-113904399D01*
X150940608Y-113909376D01*
X150940607Y-113909376D01*
X151037862Y-113974115D01*
X151037864Y-113974116D01*
X151045335Y-113979089D01*
X151053899Y-113981765D01*
X151053902Y-113981766D01*
X151109664Y-113999187D01*
X151173992Y-114019285D01*
X151308760Y-114021755D01*
X151401039Y-113996597D01*
X151430145Y-113988662D01*
X151430147Y-113988661D01*
X151438804Y-113986301D01*
X151553670Y-113915773D01*
X151559127Y-113909744D01*
X151623927Y-113881790D01*
X151693972Y-113893375D01*
X151746634Y-113940991D01*
X151754550Y-113956112D01*
X151792782Y-114043003D01*
X151792787Y-114043011D01*
X151796399Y-114051220D01*
X151883130Y-114154399D01*
X151906315Y-114169832D01*
X151987862Y-114224115D01*
X151987864Y-114224116D01*
X151995335Y-114229089D01*
X152003899Y-114231765D01*
X152003902Y-114231766D01*
X152059664Y-114249187D01*
X152123992Y-114269285D01*
X152258760Y-114271755D01*
X152363323Y-114243248D01*
X152380145Y-114238662D01*
X152380147Y-114238661D01*
X152388804Y-114236301D01*
X152408071Y-114224471D01*
X152476589Y-114205873D01*
X152544284Y-114227270D01*
X152589665Y-114281869D01*
X152600000Y-114331846D01*
X152600000Y-118000000D01*
X154069562Y-118000000D01*
X154137683Y-118020002D01*
X154184176Y-118073658D01*
X154194280Y-118143932D01*
X154183617Y-118179549D01*
X154145373Y-118261006D01*
X154143993Y-118269871D01*
X154143992Y-118269873D01*
X154128422Y-118369873D01*
X154124635Y-118394192D01*
X154125799Y-118403093D01*
X154125799Y-118403097D01*
X154140949Y-118518945D01*
X154142113Y-118527844D01*
X154145725Y-118536054D01*
X154145726Y-118536056D01*
X154153013Y-118552617D01*
X154196399Y-118651220D01*
X154283130Y-118754399D01*
X154290608Y-118759376D01*
X154290607Y-118759376D01*
X154387862Y-118824115D01*
X154387864Y-118824116D01*
X154395335Y-118829089D01*
X154403899Y-118831765D01*
X154403902Y-118831766D01*
X154439886Y-118843008D01*
X154523992Y-118869285D01*
X154658760Y-118871755D01*
X154734082Y-118851220D01*
X154780145Y-118838662D01*
X154780147Y-118838661D01*
X154788804Y-118836301D01*
X154903670Y-118765773D01*
X154928210Y-118738662D01*
X154988102Y-118672493D01*
X154994124Y-118665840D01*
X155052895Y-118544537D01*
X155075258Y-118411615D01*
X155075400Y-118400000D01*
X155056291Y-118266571D01*
X155016089Y-118178150D01*
X155006103Y-118107860D01*
X155013167Y-118092459D01*
X167896623Y-118092459D01*
X167896920Y-118097611D01*
X167896920Y-118097615D01*
X167905353Y-118243868D01*
X167910608Y-118335004D01*
X167911745Y-118340050D01*
X167911746Y-118340056D01*
X167935292Y-118444537D01*
X167964019Y-118572008D01*
X167965961Y-118576790D01*
X167965962Y-118576794D01*
X168053478Y-118792319D01*
X168055422Y-118797106D01*
X168182361Y-119004253D01*
X168185742Y-119008156D01*
X168338044Y-119183979D01*
X168338048Y-119183983D01*
X168341429Y-119187886D01*
X168528353Y-119343073D01*
X168532805Y-119345675D01*
X168532810Y-119345678D01*
X168633236Y-119404362D01*
X168738113Y-119465647D01*
X168965076Y-119552315D01*
X168970142Y-119553346D01*
X168970143Y-119553346D01*
X169025666Y-119564642D01*
X169203146Y-119600751D01*
X169339745Y-119605760D01*
X169440767Y-119609465D01*
X169440771Y-119609465D01*
X169445931Y-119609654D01*
X169451051Y-119608998D01*
X169451053Y-119608998D01*
X169681781Y-119579441D01*
X169681782Y-119579441D01*
X169686909Y-119578784D01*
X169711305Y-119571465D01*
X169914657Y-119510456D01*
X169919610Y-119508970D01*
X169924249Y-119506697D01*
X169924255Y-119506695D01*
X170133142Y-119404362D01*
X170133141Y-119404362D01*
X170137784Y-119402088D01*
X170225147Y-119339773D01*
X170331368Y-119264006D01*
X170335571Y-119261008D01*
X170507661Y-119089518D01*
X170524124Y-119066608D01*
X170549276Y-119031605D01*
X170649431Y-118892224D01*
X170659548Y-118871755D01*
X170754780Y-118679067D01*
X170754781Y-118679065D01*
X170757074Y-118674425D01*
X170827699Y-118441969D01*
X170828374Y-118436843D01*
X170858973Y-118204422D01*
X170858974Y-118204416D01*
X170859410Y-118201100D01*
X170860454Y-118158400D01*
X170861098Y-118132045D01*
X170861098Y-118132040D01*
X170861180Y-118128680D01*
X170851015Y-118005045D01*
X170841697Y-117891700D01*
X170841696Y-117891694D01*
X170841273Y-117886549D01*
X170782088Y-117650921D01*
X170685212Y-117428123D01*
X170553249Y-117224140D01*
X170546216Y-117216410D01*
X170393221Y-117048270D01*
X170393219Y-117048268D01*
X170389743Y-117044448D01*
X170385692Y-117041249D01*
X170385688Y-117041245D01*
X170203138Y-116897076D01*
X170203134Y-116897074D01*
X170199083Y-116893874D01*
X169986391Y-116776462D01*
X169981522Y-116774738D01*
X169981518Y-116774736D01*
X169762253Y-116697090D01*
X169762249Y-116697089D01*
X169757378Y-116695364D01*
X169752285Y-116694457D01*
X169752282Y-116694456D01*
X169523285Y-116653665D01*
X169523279Y-116653664D01*
X169518196Y-116652759D01*
X169430067Y-116651682D01*
X169280436Y-116649854D01*
X169280434Y-116649854D01*
X169275266Y-116649791D01*
X169035114Y-116686540D01*
X168804188Y-116762018D01*
X168588691Y-116874199D01*
X168394409Y-117020069D01*
X168226561Y-117195713D01*
X168223647Y-117199985D01*
X168223646Y-117199986D01*
X168130825Y-117336056D01*
X168089654Y-117396411D01*
X168059355Y-117461685D01*
X168008859Y-117570469D01*
X167987364Y-117616775D01*
X167922439Y-117850887D01*
X167921890Y-117856021D01*
X167921890Y-117856023D01*
X167920929Y-117865019D01*
X167896623Y-118092459D01*
X155013167Y-118092459D01*
X155035703Y-118043329D01*
X155095493Y-118005045D01*
X155130790Y-118000000D01*
X159800000Y-118000000D01*
X159800000Y-112994192D01*
X166924635Y-112994192D01*
X166925799Y-113003093D01*
X166925799Y-113003097D01*
X166940949Y-113118945D01*
X166942113Y-113127844D01*
X166945725Y-113136054D01*
X166945726Y-113136056D01*
X166955874Y-113159119D01*
X166996399Y-113251220D01*
X167083130Y-113354399D01*
X167103934Y-113368247D01*
X167187862Y-113424115D01*
X167187864Y-113424116D01*
X167195335Y-113429089D01*
X167203899Y-113431765D01*
X167203902Y-113431766D01*
X167259664Y-113449187D01*
X167323992Y-113469285D01*
X167458760Y-113471755D01*
X167513356Y-113456870D01*
X167580145Y-113438662D01*
X167580147Y-113438661D01*
X167588804Y-113436301D01*
X167622071Y-113415875D01*
X169522189Y-113415875D01*
X169561439Y-113610533D01*
X169563933Y-113616408D01*
X169622196Y-113753666D01*
X169639029Y-113793323D01*
X169751789Y-113956778D01*
X169895113Y-114094221D01*
X170063146Y-114200037D01*
X170069120Y-114202282D01*
X170069121Y-114202283D01*
X170182274Y-114244814D01*
X170249025Y-114269904D01*
X170255323Y-114270902D01*
X170255325Y-114270902D01*
X170303184Y-114278482D01*
X170445155Y-114300968D01*
X170643527Y-114291960D01*
X170668207Y-114285715D01*
X170829847Y-114244814D01*
X170829849Y-114244813D01*
X170836035Y-114243248D01*
X170860120Y-114231605D01*
X171009068Y-114159601D01*
X171009070Y-114159600D01*
X171014816Y-114156822D01*
X171019885Y-114152946D01*
X171019889Y-114152944D01*
X171133816Y-114065840D01*
X171172568Y-114036212D01*
X171302845Y-113886345D01*
X171400326Y-113713343D01*
X171461030Y-113524273D01*
X171470927Y-113433172D01*
X171482119Y-113330147D01*
X171482119Y-113330143D01*
X171482476Y-113326859D01*
X171482500Y-113320000D01*
X171479155Y-113287065D01*
X171463078Y-113128787D01*
X171463077Y-113128783D01*
X171462433Y-113122441D01*
X171406681Y-112944537D01*
X171404959Y-112939043D01*
X171404958Y-112939042D01*
X171403050Y-112932952D01*
X171392158Y-112913301D01*
X171309872Y-112764854D01*
X171306779Y-112759274D01*
X171177551Y-112608501D01*
X171091271Y-112541575D01*
X171025690Y-112490705D01*
X171025687Y-112490703D01*
X171020646Y-112486793D01*
X171014920Y-112483975D01*
X171014916Y-112483973D01*
X170848204Y-112401940D01*
X170848200Y-112401938D01*
X170842472Y-112399120D01*
X170650309Y-112349066D01*
X170562609Y-112344470D01*
X170458387Y-112339007D01*
X170458382Y-112339007D01*
X170452005Y-112338673D01*
X170352776Y-112353680D01*
X170261976Y-112367412D01*
X170261975Y-112367412D01*
X170255662Y-112368367D01*
X170249676Y-112370570D01*
X170249670Y-112370571D01*
X170164413Y-112401940D01*
X170069300Y-112436935D01*
X170063884Y-112440293D01*
X170063880Y-112440295D01*
X169905955Y-112538212D01*
X169905951Y-112538215D01*
X169900532Y-112541575D01*
X169756252Y-112678014D01*
X169752590Y-112683244D01*
X169752589Y-112683245D01*
X169659234Y-112816571D01*
X169642354Y-112840678D01*
X169592339Y-112956256D01*
X169570487Y-113006754D01*
X169563490Y-113022922D01*
X169562185Y-113029169D01*
X169524875Y-113207763D01*
X169522882Y-113217301D01*
X169522639Y-113287065D01*
X169522275Y-113391357D01*
X169522189Y-113415875D01*
X167622071Y-113415875D01*
X167703670Y-113365773D01*
X167794124Y-113265840D01*
X167852895Y-113144537D01*
X167875258Y-113011615D01*
X167875400Y-113000000D01*
X167862904Y-112912749D01*
X167857564Y-112875458D01*
X167857564Y-112875456D01*
X167856291Y-112866571D01*
X167800502Y-112743868D01*
X167794644Y-112737069D01*
X167794641Y-112737065D01*
X167718376Y-112648556D01*
X167718373Y-112648554D01*
X167712516Y-112641756D01*
X167599408Y-112568443D01*
X167590806Y-112565871D01*
X167590803Y-112565869D01*
X167509568Y-112541575D01*
X167470269Y-112529822D01*
X167461293Y-112529767D01*
X167461292Y-112529767D01*
X167405686Y-112529427D01*
X167335481Y-112528998D01*
X167205880Y-112566039D01*
X167198293Y-112570826D01*
X167198291Y-112570827D01*
X167144782Y-112604589D01*
X167091884Y-112637965D01*
X167002657Y-112738995D01*
X166945373Y-112861006D01*
X166943993Y-112869871D01*
X166943992Y-112869873D01*
X166928961Y-112966410D01*
X166924635Y-112994192D01*
X159800000Y-112994192D01*
X159800000Y-110994192D01*
X166124635Y-110994192D01*
X166125799Y-111003093D01*
X166125799Y-111003097D01*
X166140949Y-111118945D01*
X166142113Y-111127844D01*
X166145725Y-111136054D01*
X166145726Y-111136056D01*
X166149458Y-111144537D01*
X166196399Y-111251220D01*
X166214281Y-111272493D01*
X166271685Y-111340783D01*
X166283130Y-111354399D01*
X166304228Y-111368443D01*
X166387862Y-111424115D01*
X166387864Y-111424116D01*
X166395335Y-111429089D01*
X166403899Y-111431765D01*
X166403902Y-111431766D01*
X166457644Y-111448556D01*
X166523992Y-111469285D01*
X166658760Y-111471755D01*
X166727982Y-111452883D01*
X166780145Y-111438662D01*
X166780147Y-111438661D01*
X166788804Y-111436301D01*
X166903670Y-111365773D01*
X166923668Y-111343680D01*
X166988102Y-111272493D01*
X166994124Y-111265840D01*
X167052895Y-111144537D01*
X167075258Y-111011615D01*
X167075400Y-111000000D01*
X167058520Y-110882137D01*
X167057624Y-110875875D01*
X169522189Y-110875875D01*
X169561439Y-111070533D01*
X169589252Y-111136056D01*
X169635300Y-111244537D01*
X169639029Y-111253323D01*
X169751789Y-111416778D01*
X169895113Y-111554221D01*
X170063146Y-111660037D01*
X170069120Y-111662282D01*
X170069121Y-111662283D01*
X170182274Y-111704814D01*
X170249025Y-111729904D01*
X170255323Y-111730902D01*
X170255325Y-111730902D01*
X170335742Y-111743639D01*
X170445155Y-111760968D01*
X170643527Y-111751960D01*
X170649712Y-111750395D01*
X170829847Y-111704814D01*
X170829849Y-111704813D01*
X170836035Y-111703248D01*
X170847481Y-111697715D01*
X171009068Y-111619601D01*
X171009070Y-111619600D01*
X171014816Y-111616822D01*
X171019885Y-111612946D01*
X171019889Y-111612944D01*
X171119134Y-111537065D01*
X171172568Y-111496212D01*
X171281563Y-111370827D01*
X171298657Y-111351163D01*
X171298658Y-111351162D01*
X171302845Y-111346345D01*
X171400326Y-111173343D01*
X171461030Y-110984273D01*
X171477543Y-110832267D01*
X171482119Y-110790147D01*
X171482119Y-110790143D01*
X171482476Y-110786859D01*
X171482500Y-110780000D01*
X171478830Y-110743868D01*
X171463078Y-110588787D01*
X171463077Y-110588783D01*
X171462433Y-110582441D01*
X171417375Y-110438662D01*
X171404959Y-110399043D01*
X171404958Y-110399042D01*
X171403050Y-110392952D01*
X171387985Y-110365773D01*
X171312435Y-110229478D01*
X171306779Y-110219274D01*
X171177551Y-110068501D01*
X171082028Y-109994406D01*
X171025690Y-109950705D01*
X171025687Y-109950703D01*
X171020646Y-109946793D01*
X171014920Y-109943975D01*
X171014916Y-109943973D01*
X170848204Y-109861940D01*
X170848200Y-109861938D01*
X170842472Y-109859120D01*
X170650309Y-109809066D01*
X170562609Y-109804470D01*
X170458387Y-109799007D01*
X170458382Y-109799007D01*
X170452005Y-109798673D01*
X170303386Y-109821150D01*
X170261976Y-109827412D01*
X170261975Y-109827412D01*
X170255662Y-109828367D01*
X170249676Y-109830570D01*
X170249670Y-109830571D01*
X170172078Y-109859120D01*
X170069300Y-109896935D01*
X170063884Y-109900293D01*
X170063880Y-109900295D01*
X169905955Y-109998212D01*
X169905951Y-109998215D01*
X169900532Y-110001575D01*
X169892283Y-110009376D01*
X169815733Y-110081766D01*
X169756252Y-110138014D01*
X169752590Y-110143244D01*
X169752589Y-110143245D01*
X169662606Y-110271755D01*
X169642354Y-110300678D01*
X169599788Y-110399043D01*
X169569345Y-110469393D01*
X169563490Y-110482922D01*
X169562185Y-110489169D01*
X169524733Y-110668443D01*
X169522882Y-110677301D01*
X169522670Y-110737965D01*
X169522301Y-110843868D01*
X169522189Y-110875875D01*
X167057624Y-110875875D01*
X167057564Y-110875458D01*
X167057564Y-110875456D01*
X167056291Y-110866571D01*
X167000502Y-110743868D01*
X166994644Y-110737069D01*
X166994641Y-110737065D01*
X166918376Y-110648556D01*
X166918373Y-110648554D01*
X166912516Y-110641756D01*
X166799408Y-110568443D01*
X166790806Y-110565871D01*
X166790803Y-110565869D01*
X166728981Y-110547381D01*
X166670269Y-110529822D01*
X166661293Y-110529767D01*
X166661292Y-110529767D01*
X166605686Y-110529427D01*
X166535481Y-110528998D01*
X166405880Y-110566039D01*
X166398293Y-110570826D01*
X166398291Y-110570827D01*
X166337895Y-110608934D01*
X166291884Y-110637965D01*
X166202657Y-110738995D01*
X166198843Y-110747118D01*
X166198842Y-110747120D01*
X166184949Y-110776711D01*
X166145373Y-110861006D01*
X166143993Y-110869871D01*
X166143992Y-110869873D01*
X166128329Y-110970469D01*
X166124635Y-110994192D01*
X159800000Y-110994192D01*
X159800000Y-110800000D01*
X156892327Y-110938461D01*
X155606716Y-110999680D01*
X155606714Y-110999680D01*
X155600000Y-111000000D01*
X155593511Y-111001730D01*
X155593507Y-111001731D01*
X154311200Y-111343680D01*
X152600000Y-111800000D01*
X152600000Y-113266639D01*
X152579998Y-113334760D01*
X152526342Y-113381253D01*
X152456068Y-113391357D01*
X152415525Y-113376145D01*
X152415088Y-113377091D01*
X152406945Y-113373328D01*
X152399408Y-113368443D01*
X152390806Y-113365871D01*
X152390803Y-113365869D01*
X152328981Y-113347381D01*
X152270269Y-113329822D01*
X152261293Y-113329767D01*
X152261292Y-113329767D01*
X152205686Y-113329427D01*
X152135481Y-113328998D01*
X152005880Y-113366039D01*
X151998293Y-113370826D01*
X151998291Y-113370827D01*
X151899480Y-113433172D01*
X151891884Y-113437965D01*
X151890020Y-113440075D01*
X151828015Y-113467730D01*
X151757834Y-113457005D01*
X151704592Y-113410038D01*
X151696488Y-113395010D01*
X151683195Y-113365773D01*
X151650502Y-113293868D01*
X151644644Y-113287069D01*
X151644641Y-113287065D01*
X151568376Y-113198556D01*
X151568373Y-113198554D01*
X151562516Y-113191756D01*
X151449408Y-113118443D01*
X151440806Y-113115871D01*
X151440803Y-113115869D01*
X151369472Y-113094537D01*
X151320269Y-113079822D01*
X151311293Y-113079767D01*
X151311292Y-113079767D01*
X151255686Y-113079427D01*
X151185481Y-113078998D01*
X151055880Y-113116039D01*
X151044326Y-113123329D01*
X150986023Y-113160115D01*
X150917738Y-113179549D01*
X150849786Y-113158979D01*
X150817771Y-113126626D01*
X150817575Y-113126795D01*
X150815129Y-113123956D01*
X150815127Y-113123954D01*
X150810811Y-113118945D01*
X150735449Y-113031483D01*
X150735446Y-113031481D01*
X150729589Y-113024683D01*
X150616481Y-112951370D01*
X150607879Y-112948798D01*
X150607876Y-112948796D01*
X150536224Y-112927368D01*
X150487342Y-112912749D01*
X150478366Y-112912694D01*
X150478365Y-112912694D01*
X150422759Y-112912354D01*
X150352554Y-112911925D01*
X150222953Y-112948966D01*
X150215366Y-112953753D01*
X150215364Y-112953754D01*
X150195306Y-112966410D01*
X150108957Y-113020892D01*
X150019730Y-113121922D01*
X150015916Y-113130045D01*
X150015915Y-113130047D01*
X150009112Y-113144537D01*
X149962446Y-113243933D01*
X149961066Y-113252798D01*
X149961065Y-113252800D01*
X149943460Y-113365869D01*
X149941708Y-113377119D01*
X139200000Y-113377119D01*
X139200000Y-110800000D01*
X130600000Y-110800000D01*
X127826023Y-110800000D01*
X127852895Y-110744537D01*
X127861699Y-110692205D01*
X142358035Y-110692205D01*
X142359199Y-110701106D01*
X142359199Y-110701110D01*
X142373512Y-110810558D01*
X142375513Y-110825857D01*
X142379125Y-110834067D01*
X142379126Y-110834069D01*
X142389832Y-110858400D01*
X142429799Y-110949233D01*
X142516530Y-111052412D01*
X142524008Y-111057389D01*
X142524007Y-111057389D01*
X142621262Y-111122128D01*
X142621264Y-111122129D01*
X142628735Y-111127102D01*
X142637299Y-111129778D01*
X142637302Y-111129779D01*
X142684540Y-111144537D01*
X142757392Y-111167298D01*
X142892160Y-111169768D01*
X142955069Y-111152617D01*
X143013545Y-111136675D01*
X143013547Y-111136674D01*
X143022204Y-111134314D01*
X143137070Y-111063786D01*
X143227524Y-110963853D01*
X143286295Y-110842550D01*
X143308658Y-110709628D01*
X143308800Y-110698013D01*
X143292661Y-110585320D01*
X143290964Y-110573471D01*
X143290964Y-110573469D01*
X143289691Y-110564584D01*
X143233902Y-110441881D01*
X143228044Y-110435082D01*
X143228041Y-110435078D01*
X143151776Y-110346569D01*
X143151773Y-110346567D01*
X143145916Y-110339769D01*
X143032808Y-110266456D01*
X143024206Y-110263884D01*
X143024203Y-110263882D01*
X142960041Y-110244694D01*
X142903669Y-110227835D01*
X142894693Y-110227780D01*
X142894692Y-110227780D01*
X142839086Y-110227440D01*
X142768881Y-110227011D01*
X142639280Y-110264052D01*
X142631693Y-110268839D01*
X142631691Y-110268840D01*
X142589525Y-110295445D01*
X142525284Y-110335978D01*
X142436057Y-110437008D01*
X142432243Y-110445131D01*
X142432242Y-110445133D01*
X142426013Y-110458400D01*
X142378773Y-110559019D01*
X142377393Y-110567884D01*
X142377392Y-110567886D01*
X142360356Y-110677301D01*
X142358035Y-110692205D01*
X127861699Y-110692205D01*
X127875258Y-110611615D01*
X127875400Y-110600000D01*
X127860007Y-110492519D01*
X127857564Y-110475458D01*
X127857564Y-110475456D01*
X127856291Y-110466571D01*
X127800502Y-110343868D01*
X127794644Y-110337069D01*
X127794641Y-110337065D01*
X127718376Y-110248556D01*
X127718373Y-110248554D01*
X127712516Y-110241756D01*
X127599408Y-110168443D01*
X127590806Y-110165871D01*
X127590803Y-110165869D01*
X127528981Y-110147381D01*
X127470269Y-110129822D01*
X127461293Y-110129767D01*
X127461292Y-110129767D01*
X127405686Y-110129427D01*
X127335481Y-110128998D01*
X127205880Y-110166039D01*
X127091884Y-110237965D01*
X127002657Y-110338995D01*
X126998843Y-110347118D01*
X126998842Y-110347120D01*
X126981236Y-110384620D01*
X126945373Y-110461006D01*
X126943993Y-110469871D01*
X126943992Y-110469873D01*
X126926465Y-110582441D01*
X126924635Y-110594192D01*
X111000000Y-110594192D01*
X111000000Y-109994192D01*
X121724635Y-109994192D01*
X121725799Y-110003093D01*
X121725799Y-110003097D01*
X121740920Y-110118720D01*
X121742113Y-110127844D01*
X121745725Y-110136054D01*
X121745726Y-110136056D01*
X121757834Y-110163573D01*
X121796399Y-110251220D01*
X121814281Y-110272493D01*
X121870182Y-110338995D01*
X121883130Y-110354399D01*
X121890608Y-110359376D01*
X121890607Y-110359376D01*
X121987862Y-110424115D01*
X121987864Y-110424116D01*
X121995335Y-110429089D01*
X122003899Y-110431765D01*
X122003902Y-110431766D01*
X122059663Y-110449187D01*
X122123992Y-110469285D01*
X122258760Y-110471755D01*
X122356409Y-110445133D01*
X122380145Y-110438662D01*
X122380147Y-110438661D01*
X122388804Y-110436301D01*
X122503670Y-110365773D01*
X122513495Y-110354919D01*
X122588102Y-110272493D01*
X122594124Y-110265840D01*
X122652895Y-110144537D01*
X122675258Y-110011615D01*
X122675400Y-110000000D01*
X122662190Y-109907763D01*
X122657564Y-109875458D01*
X122657564Y-109875456D01*
X122656291Y-109866571D01*
X122600502Y-109743868D01*
X122594644Y-109737069D01*
X122594641Y-109737065D01*
X122518376Y-109648556D01*
X122518373Y-109648554D01*
X122512516Y-109641756D01*
X122399408Y-109568443D01*
X122390806Y-109565871D01*
X122390803Y-109565869D01*
X122317235Y-109543868D01*
X122270269Y-109529822D01*
X122261293Y-109529767D01*
X122261292Y-109529767D01*
X122205686Y-109529427D01*
X122135481Y-109528998D01*
X122005880Y-109566039D01*
X121891884Y-109637965D01*
X121802657Y-109738995D01*
X121798843Y-109747118D01*
X121798842Y-109747120D01*
X121788530Y-109769085D01*
X121745373Y-109861006D01*
X121743993Y-109869871D01*
X121743992Y-109869873D01*
X121731109Y-109952617D01*
X121724635Y-109994192D01*
X111000000Y-109994192D01*
X111000000Y-106594192D01*
X113124635Y-106594192D01*
X113125799Y-106603093D01*
X113125799Y-106603097D01*
X113140949Y-106718945D01*
X113142113Y-106727844D01*
X113145725Y-106736054D01*
X113145726Y-106736056D01*
X113152760Y-106752042D01*
X113196399Y-106851220D01*
X113237790Y-106900461D01*
X113275882Y-106945776D01*
X113283130Y-106954399D01*
X113301416Y-106966571D01*
X113387862Y-107024115D01*
X113387864Y-107024116D01*
X113395335Y-107029089D01*
X113403899Y-107031765D01*
X113403902Y-107031766D01*
X113441467Y-107043502D01*
X113523992Y-107069285D01*
X113658760Y-107071755D01*
X113667424Y-107069393D01*
X113672136Y-107068806D01*
X113742207Y-107080234D01*
X113794975Y-107127731D01*
X113813689Y-107196217D01*
X113801767Y-107247386D01*
X113795373Y-107261006D01*
X113793993Y-107269871D01*
X113793992Y-107269873D01*
X113778014Y-107372493D01*
X113774635Y-107394192D01*
X113775799Y-107403093D01*
X113775799Y-107403097D01*
X113790607Y-107516329D01*
X113792113Y-107527844D01*
X113846399Y-107651220D01*
X113865910Y-107674431D01*
X113920182Y-107738995D01*
X113933130Y-107754399D01*
X113951368Y-107766539D01*
X114020323Y-107812440D01*
X114065946Y-107866838D01*
X114074917Y-107937265D01*
X114056567Y-107984568D01*
X114052657Y-107988995D01*
X113995373Y-108111006D01*
X113993993Y-108119871D01*
X113993992Y-108119873D01*
X113978961Y-108216410D01*
X113974635Y-108244192D01*
X113975799Y-108253093D01*
X113975799Y-108253097D01*
X113990949Y-108368945D01*
X113992113Y-108377844D01*
X113995725Y-108386054D01*
X113995726Y-108386056D01*
X114014661Y-108429089D01*
X114046399Y-108501220D01*
X114133130Y-108604399D01*
X114150217Y-108615773D01*
X114237862Y-108674115D01*
X114237864Y-108674116D01*
X114245335Y-108679089D01*
X114253899Y-108681765D01*
X114253902Y-108681766D01*
X114309664Y-108699187D01*
X114373992Y-108719285D01*
X114508760Y-108721755D01*
X114585501Y-108700833D01*
X114630145Y-108688662D01*
X114630147Y-108688661D01*
X114638804Y-108686301D01*
X114753670Y-108615773D01*
X114844124Y-108515840D01*
X114902895Y-108394537D01*
X114925258Y-108261615D01*
X114925400Y-108250000D01*
X114917408Y-108194192D01*
X121524635Y-108194192D01*
X121525799Y-108203093D01*
X121525799Y-108203097D01*
X121540949Y-108318945D01*
X121542113Y-108327844D01*
X121545725Y-108336054D01*
X121545726Y-108336056D01*
X121553797Y-108354399D01*
X121596399Y-108451220D01*
X121638428Y-108501220D01*
X121670182Y-108538995D01*
X121683130Y-108554399D01*
X121690608Y-108559376D01*
X121690607Y-108559376D01*
X121787862Y-108624115D01*
X121787864Y-108624116D01*
X121795335Y-108629089D01*
X121803899Y-108631765D01*
X121803902Y-108631766D01*
X121859663Y-108649187D01*
X121923992Y-108669285D01*
X122058760Y-108671755D01*
X122131067Y-108652042D01*
X122180145Y-108638662D01*
X122180147Y-108638661D01*
X122188804Y-108636301D01*
X122303670Y-108565773D01*
X122394124Y-108465840D01*
X122452895Y-108344537D01*
X122475258Y-108211615D01*
X122475400Y-108200000D01*
X122461875Y-108105560D01*
X122457564Y-108075458D01*
X122457564Y-108075456D01*
X122456291Y-108066571D01*
X122400502Y-107943868D01*
X122394644Y-107937069D01*
X122394641Y-107937065D01*
X122318376Y-107848556D01*
X122318373Y-107848554D01*
X122312516Y-107841756D01*
X122199408Y-107768443D01*
X122190806Y-107765871D01*
X122190803Y-107765869D01*
X122117235Y-107743868D01*
X122070269Y-107729822D01*
X122061293Y-107729767D01*
X122061292Y-107729767D01*
X122005686Y-107729427D01*
X121935481Y-107728998D01*
X121805880Y-107766039D01*
X121798293Y-107770826D01*
X121798291Y-107770827D01*
X121752789Y-107799537D01*
X121691884Y-107837965D01*
X121602657Y-107938995D01*
X121598843Y-107947118D01*
X121598842Y-107947120D01*
X121572696Y-108002810D01*
X121545373Y-108061006D01*
X121543993Y-108069871D01*
X121543992Y-108069873D01*
X121531109Y-108152617D01*
X121524635Y-108194192D01*
X114917408Y-108194192D01*
X114909082Y-108136056D01*
X114907564Y-108125458D01*
X114907564Y-108125456D01*
X114906291Y-108116571D01*
X114850502Y-107993868D01*
X114844644Y-107987069D01*
X114844641Y-107987065D01*
X114768376Y-107898556D01*
X114768373Y-107898554D01*
X114762516Y-107891756D01*
X114680728Y-107838744D01*
X114634447Y-107784911D01*
X114624616Y-107714598D01*
X114643084Y-107666989D01*
X114644124Y-107665840D01*
X114702895Y-107544537D01*
X114725258Y-107411615D01*
X114725400Y-107400000D01*
X114706291Y-107266571D01*
X114650502Y-107143868D01*
X114644644Y-107137069D01*
X114644641Y-107137065D01*
X114568376Y-107048556D01*
X114568373Y-107048554D01*
X114562516Y-107041756D01*
X114449408Y-106968443D01*
X114440806Y-106965871D01*
X114440803Y-106965869D01*
X114373615Y-106945776D01*
X114320269Y-106929822D01*
X114311293Y-106929767D01*
X114311292Y-106929767D01*
X114256993Y-106929435D01*
X114185481Y-106928998D01*
X114179018Y-106930845D01*
X114109934Y-106920443D01*
X114056589Y-106873594D01*
X114037041Y-106805341D01*
X114047260Y-106761487D01*
X114046252Y-106761165D01*
X114048980Y-106752618D01*
X114052895Y-106744537D01*
X114075258Y-106611615D01*
X114075400Y-106600000D01*
X114062282Y-106508400D01*
X114057564Y-106475458D01*
X114057564Y-106475456D01*
X114056291Y-106466571D01*
X114000502Y-106343868D01*
X113994644Y-106337069D01*
X113994641Y-106337065D01*
X113918376Y-106248556D01*
X113918373Y-106248554D01*
X113912516Y-106241756D01*
X113839134Y-106194192D01*
X130324635Y-106194192D01*
X130325799Y-106203093D01*
X130325799Y-106203097D01*
X130337778Y-106294694D01*
X130342113Y-106327844D01*
X130345725Y-106336054D01*
X130345726Y-106336056D01*
X130369020Y-106388995D01*
X130396399Y-106451220D01*
X130483130Y-106554399D01*
X130487755Y-106557477D01*
X130524296Y-106616329D01*
X130523193Y-106687317D01*
X130490544Y-106736782D01*
X130491884Y-106737965D01*
X130402657Y-106838995D01*
X130398843Y-106847118D01*
X130398842Y-106847120D01*
X130387276Y-106871755D01*
X130345373Y-106961006D01*
X130343993Y-106969871D01*
X130343992Y-106969873D01*
X130326570Y-107081766D01*
X130324635Y-107094192D01*
X130325799Y-107103093D01*
X130325799Y-107103097D01*
X130336498Y-107184906D01*
X130342113Y-107227844D01*
X130345725Y-107236054D01*
X130345726Y-107236056D01*
X130355277Y-107257763D01*
X130396399Y-107351220D01*
X130483130Y-107454399D01*
X130487755Y-107457477D01*
X130524296Y-107516329D01*
X130523193Y-107587317D01*
X130490544Y-107636782D01*
X130491884Y-107637965D01*
X130402657Y-107738995D01*
X130398843Y-107747118D01*
X130398842Y-107747120D01*
X130389960Y-107766039D01*
X130345373Y-107861006D01*
X130343993Y-107869871D01*
X130343992Y-107869873D01*
X130330046Y-107959444D01*
X130324635Y-107994192D01*
X130325799Y-108003093D01*
X130325799Y-108003097D01*
X130339199Y-108105560D01*
X130342113Y-108127844D01*
X130396399Y-108251220D01*
X130483130Y-108354399D01*
X130487755Y-108357477D01*
X130524296Y-108416329D01*
X130523193Y-108487317D01*
X130490544Y-108536782D01*
X130491884Y-108537965D01*
X130402657Y-108638995D01*
X130398843Y-108647118D01*
X130398842Y-108647120D01*
X130393546Y-108658400D01*
X130345373Y-108761006D01*
X130343993Y-108769871D01*
X130343992Y-108769873D01*
X130327421Y-108876300D01*
X130324635Y-108894192D01*
X130325799Y-108903093D01*
X130325799Y-108903097D01*
X130336889Y-108987898D01*
X130342113Y-109027844D01*
X130345725Y-109036054D01*
X130345726Y-109036056D01*
X130364886Y-109079601D01*
X130396399Y-109151220D01*
X130483130Y-109254399D01*
X130487755Y-109257477D01*
X130524296Y-109316329D01*
X130523193Y-109387317D01*
X130490544Y-109436782D01*
X130491884Y-109437965D01*
X130402657Y-109538995D01*
X130398843Y-109547118D01*
X130398842Y-109547120D01*
X130389960Y-109566039D01*
X130345373Y-109661006D01*
X130343993Y-109669871D01*
X130343992Y-109669873D01*
X130327142Y-109778094D01*
X130324635Y-109794192D01*
X130325799Y-109803093D01*
X130325799Y-109803097D01*
X130340543Y-109915840D01*
X130342113Y-109927844D01*
X130345725Y-109936054D01*
X130345726Y-109936056D01*
X130352172Y-109950705D01*
X130396399Y-110051220D01*
X130483130Y-110154399D01*
X130504228Y-110168443D01*
X130587862Y-110224115D01*
X130587864Y-110224116D01*
X130595335Y-110229089D01*
X130603899Y-110231765D01*
X130603902Y-110231766D01*
X130657644Y-110248556D01*
X130723992Y-110269285D01*
X130858760Y-110271755D01*
X130934082Y-110251220D01*
X130980145Y-110238662D01*
X130980147Y-110238661D01*
X130988804Y-110236301D01*
X131103670Y-110165773D01*
X131138230Y-110127592D01*
X154224635Y-110127592D01*
X154225799Y-110136493D01*
X154225799Y-110136497D01*
X154240802Y-110251220D01*
X154242113Y-110261244D01*
X154245725Y-110269454D01*
X154245726Y-110269456D01*
X154259464Y-110300678D01*
X154296399Y-110384620D01*
X154383130Y-110487799D01*
X154390608Y-110492776D01*
X154390607Y-110492776D01*
X154487862Y-110557515D01*
X154487864Y-110557516D01*
X154495335Y-110562489D01*
X154503899Y-110565165D01*
X154503902Y-110565166D01*
X154539713Y-110576354D01*
X154623992Y-110602685D01*
X154758760Y-110605155D01*
X154831514Y-110585320D01*
X154880145Y-110572062D01*
X154880147Y-110572061D01*
X154888804Y-110569701D01*
X155003670Y-110499173D01*
X155094124Y-110399240D01*
X155152895Y-110277937D01*
X155165570Y-110202599D01*
X155196597Y-110138741D01*
X155257223Y-110101795D01*
X155309969Y-110099125D01*
X155315426Y-110100009D01*
X155323992Y-110102685D01*
X155458760Y-110105155D01*
X155527916Y-110086301D01*
X155580145Y-110072062D01*
X155580147Y-110072061D01*
X155588804Y-110069701D01*
X155703670Y-109999173D01*
X155794124Y-109899240D01*
X155852895Y-109777937D01*
X155875258Y-109645015D01*
X155875268Y-109644192D01*
X166424635Y-109644192D01*
X166425799Y-109653093D01*
X166425799Y-109653097D01*
X166437670Y-109743868D01*
X166442113Y-109777844D01*
X166445725Y-109786054D01*
X166445726Y-109786056D01*
X166456972Y-109811615D01*
X166496399Y-109901220D01*
X166583130Y-110004399D01*
X166600217Y-110015773D01*
X166687862Y-110074115D01*
X166687864Y-110074116D01*
X166695335Y-110079089D01*
X166703899Y-110081765D01*
X166703902Y-110081766D01*
X166759465Y-110099125D01*
X166823992Y-110119285D01*
X166958760Y-110121755D01*
X167019648Y-110105155D01*
X167080145Y-110088662D01*
X167080147Y-110088661D01*
X167088804Y-110086301D01*
X167203670Y-110015773D01*
X167218696Y-109999173D01*
X167288102Y-109922493D01*
X167294124Y-109915840D01*
X167352895Y-109794537D01*
X167375258Y-109661615D01*
X167375400Y-109650000D01*
X167359726Y-109540558D01*
X167357564Y-109525458D01*
X167357564Y-109525456D01*
X167356291Y-109516571D01*
X167300502Y-109393868D01*
X167294644Y-109387069D01*
X167294641Y-109387065D01*
X167218376Y-109298556D01*
X167218373Y-109298554D01*
X167212516Y-109291756D01*
X167099408Y-109218443D01*
X167090806Y-109215871D01*
X167090803Y-109215869D01*
X167027618Y-109196973D01*
X166970269Y-109179822D01*
X166961293Y-109179767D01*
X166961292Y-109179767D01*
X166905686Y-109179427D01*
X166835481Y-109178998D01*
X166705880Y-109216039D01*
X166698293Y-109220826D01*
X166698291Y-109220827D01*
X166669525Y-109238977D01*
X166591884Y-109287965D01*
X166502657Y-109388995D01*
X166498843Y-109397118D01*
X166498842Y-109397120D01*
X166480221Y-109436782D01*
X166445373Y-109511006D01*
X166443993Y-109519871D01*
X166443992Y-109519873D01*
X166426193Y-109634187D01*
X166424635Y-109644192D01*
X155875268Y-109644192D01*
X155875400Y-109633400D01*
X155861880Y-109538995D01*
X155857564Y-109508858D01*
X155857564Y-109508856D01*
X155856291Y-109499971D01*
X155844867Y-109474844D01*
X155834879Y-109404555D01*
X155864479Y-109340023D01*
X155924268Y-109301738D01*
X155997141Y-109302426D01*
X156116805Y-109339812D01*
X156116808Y-109339813D01*
X156125375Y-109342489D01*
X156260143Y-109344959D01*
X156318354Y-109329089D01*
X156381528Y-109311866D01*
X156381530Y-109311865D01*
X156390187Y-109309505D01*
X156505053Y-109238977D01*
X156521482Y-109220827D01*
X156589485Y-109145697D01*
X156595507Y-109139044D01*
X156654278Y-109017741D01*
X156676641Y-108884819D01*
X156676783Y-108873204D01*
X156665467Y-108794192D01*
X165524635Y-108794192D01*
X165525799Y-108803093D01*
X165525799Y-108803097D01*
X165540949Y-108918945D01*
X165542113Y-108927844D01*
X165596399Y-109051220D01*
X165683130Y-109154399D01*
X165690608Y-109159376D01*
X165690607Y-109159376D01*
X165787862Y-109224115D01*
X165787864Y-109224116D01*
X165795335Y-109229089D01*
X165803899Y-109231765D01*
X165803902Y-109231766D01*
X165854347Y-109247526D01*
X165923992Y-109269285D01*
X166058760Y-109271755D01*
X166122421Y-109254399D01*
X166180145Y-109238662D01*
X166180147Y-109238661D01*
X166188804Y-109236301D01*
X166303670Y-109165773D01*
X166394124Y-109065840D01*
X166452895Y-108944537D01*
X166475258Y-108811615D01*
X166475400Y-108800000D01*
X166456291Y-108666571D01*
X166400502Y-108543868D01*
X166394644Y-108537069D01*
X166394641Y-108537065D01*
X166318376Y-108448556D01*
X166318373Y-108448554D01*
X166312516Y-108441756D01*
X166199408Y-108368443D01*
X166190806Y-108365871D01*
X166190803Y-108365869D01*
X166111447Y-108342137D01*
X166070269Y-108329822D01*
X166061293Y-108329767D01*
X166061292Y-108329767D01*
X166005686Y-108329427D01*
X165935481Y-108328998D01*
X165805880Y-108366039D01*
X165798293Y-108370826D01*
X165798291Y-108370827D01*
X165747907Y-108402617D01*
X165691884Y-108437965D01*
X165602657Y-108538995D01*
X165598843Y-108547118D01*
X165598842Y-108547120D01*
X165596531Y-108552042D01*
X165545373Y-108661006D01*
X165543993Y-108669871D01*
X165543992Y-108669873D01*
X165528422Y-108769873D01*
X165524635Y-108794192D01*
X156665467Y-108794192D01*
X156662784Y-108775458D01*
X156658947Y-108748662D01*
X156658947Y-108748660D01*
X156657674Y-108739775D01*
X156601885Y-108617072D01*
X156596027Y-108610273D01*
X156596024Y-108610269D01*
X156519759Y-108521760D01*
X156519756Y-108521758D01*
X156513899Y-108514960D01*
X156400791Y-108441647D01*
X156392189Y-108439075D01*
X156392186Y-108439073D01*
X156330364Y-108420585D01*
X156271652Y-108403026D01*
X156262676Y-108402971D01*
X156262675Y-108402971D01*
X156244213Y-108402858D01*
X156168515Y-108402395D01*
X156100520Y-108381978D01*
X156054356Y-108328039D01*
X156043296Y-108274861D01*
X156043363Y-108269393D01*
X156043363Y-108269387D01*
X156043422Y-108264532D01*
X156024313Y-108131103D01*
X155968524Y-108008400D01*
X155962666Y-108001601D01*
X155962663Y-108001597D01*
X155886398Y-107913088D01*
X155886395Y-107913086D01*
X155880538Y-107906288D01*
X155767430Y-107832975D01*
X155655619Y-107799536D01*
X155596087Y-107760856D01*
X155566916Y-107696128D01*
X155567469Y-107657913D01*
X155573250Y-107623556D01*
X155604278Y-107559698D01*
X155664904Y-107522753D01*
X155735880Y-107524450D01*
X155742023Y-107526884D01*
X155745335Y-107529089D01*
X155873992Y-107569285D01*
X156008760Y-107571755D01*
X156063356Y-107556870D01*
X156130145Y-107538662D01*
X156130147Y-107538661D01*
X156138804Y-107536301D01*
X156253670Y-107465773D01*
X156278210Y-107438662D01*
X156338102Y-107372493D01*
X156344124Y-107365840D01*
X156402895Y-107244537D01*
X156425258Y-107111615D01*
X156425400Y-107100000D01*
X156411522Y-107003097D01*
X156407564Y-106975458D01*
X156407564Y-106975456D01*
X156406291Y-106966571D01*
X156350502Y-106843868D01*
X156344644Y-106837069D01*
X156344641Y-106837065D01*
X156268376Y-106748556D01*
X156268373Y-106748554D01*
X156262516Y-106741756D01*
X156149408Y-106668443D01*
X156140806Y-106665871D01*
X156140803Y-106665869D01*
X156069997Y-106644694D01*
X156068318Y-106644192D01*
X156974635Y-106644192D01*
X156975799Y-106653093D01*
X156975799Y-106653097D01*
X156989698Y-106759376D01*
X156992113Y-106777844D01*
X156995725Y-106786054D01*
X156995726Y-106786056D01*
X157019020Y-106838995D01*
X157046399Y-106901220D01*
X157133130Y-107004399D01*
X157144199Y-107011767D01*
X157237862Y-107074115D01*
X157237864Y-107074116D01*
X157245335Y-107079089D01*
X157253899Y-107081765D01*
X157253902Y-107081766D01*
X157296854Y-107095185D01*
X157373992Y-107119285D01*
X157508760Y-107121755D01*
X157606218Y-107095185D01*
X157630145Y-107088662D01*
X157630147Y-107088661D01*
X157638804Y-107086301D01*
X157753670Y-107015773D01*
X157781235Y-106985320D01*
X157838102Y-106922493D01*
X157844124Y-106915840D01*
X157902895Y-106794537D01*
X157925258Y-106661615D01*
X157925400Y-106650000D01*
X157910724Y-106547523D01*
X157907564Y-106525458D01*
X157907564Y-106525456D01*
X157906291Y-106516571D01*
X157850502Y-106393868D01*
X157844644Y-106387069D01*
X157844641Y-106387065D01*
X157768376Y-106298556D01*
X157768373Y-106298554D01*
X157762516Y-106291756D01*
X157649408Y-106218443D01*
X157640806Y-106215871D01*
X157640803Y-106215869D01*
X157571639Y-106195185D01*
X157520269Y-106179822D01*
X157511293Y-106179767D01*
X157511292Y-106179767D01*
X157455686Y-106179427D01*
X157385481Y-106178998D01*
X157255880Y-106216039D01*
X157248293Y-106220826D01*
X157248291Y-106220827D01*
X157200121Y-106251220D01*
X157141884Y-106287965D01*
X157052657Y-106388995D01*
X157048843Y-106397118D01*
X157048842Y-106397120D01*
X157036168Y-106424115D01*
X156995373Y-106511006D01*
X156993993Y-106519871D01*
X156993992Y-106519873D01*
X156976472Y-106632395D01*
X156974635Y-106644192D01*
X156068318Y-106644192D01*
X156020269Y-106629822D01*
X156011293Y-106629767D01*
X156011292Y-106629767D01*
X155986779Y-106629617D01*
X155918782Y-106609198D01*
X155872618Y-106555259D01*
X155863296Y-106482714D01*
X155865168Y-106471590D01*
X155875258Y-106411615D01*
X155875400Y-106400000D01*
X155856291Y-106266571D01*
X155800502Y-106143868D01*
X155794644Y-106137069D01*
X155794641Y-106137065D01*
X155718376Y-106048556D01*
X155718373Y-106048554D01*
X155712516Y-106041756D01*
X155599408Y-105968443D01*
X155596415Y-105967548D01*
X169137000Y-105967548D01*
X169137000Y-106547743D01*
X169137161Y-106552250D01*
X169141740Y-106616269D01*
X169144126Y-106629491D01*
X169180819Y-106754458D01*
X169188233Y-106770692D01*
X169257426Y-106878360D01*
X169269112Y-106891847D01*
X169365840Y-106975662D01*
X169380848Y-106985307D01*
X169497275Y-107038477D01*
X169514388Y-107043502D01*
X169645554Y-107062361D01*
X169654495Y-107063000D01*
X170160832Y-107063000D01*
X170228953Y-107083002D01*
X170275446Y-107136658D01*
X170285550Y-107206932D01*
X170256056Y-107271512D01*
X170204340Y-107307250D01*
X170069300Y-107356935D01*
X170063884Y-107360293D01*
X170063880Y-107360295D01*
X169905955Y-107458212D01*
X169905951Y-107458215D01*
X169900532Y-107461575D01*
X169891757Y-107469873D01*
X169769676Y-107585320D01*
X169756252Y-107598014D01*
X169752590Y-107603244D01*
X169752589Y-107603245D01*
X169646018Y-107755445D01*
X169642354Y-107760678D01*
X169595582Y-107868762D01*
X169566025Y-107937065D01*
X169563490Y-107942922D01*
X169562185Y-107949169D01*
X169524858Y-108127844D01*
X169522882Y-108137301D01*
X169522189Y-108335875D01*
X169561439Y-108530533D01*
X169567624Y-108545103D01*
X169631677Y-108696002D01*
X169639029Y-108713323D01*
X169751789Y-108876778D01*
X169895113Y-109014221D01*
X170063146Y-109120037D01*
X170069120Y-109122282D01*
X170069121Y-109122283D01*
X170184825Y-109165773D01*
X170249025Y-109189904D01*
X170255323Y-109190902D01*
X170255325Y-109190902D01*
X170310211Y-109199595D01*
X170445155Y-109220968D01*
X170643527Y-109211960D01*
X170668152Y-109205729D01*
X170829847Y-109164814D01*
X170829849Y-109164813D01*
X170836035Y-109163248D01*
X170844045Y-109159376D01*
X171009068Y-109079601D01*
X171009070Y-109079600D01*
X171014816Y-109076822D01*
X171019885Y-109072946D01*
X171019889Y-109072944D01*
X171167494Y-108960091D01*
X171172568Y-108956212D01*
X171302845Y-108806345D01*
X171400326Y-108633343D01*
X171461030Y-108444273D01*
X171467797Y-108381978D01*
X171482119Y-108250147D01*
X171482119Y-108250143D01*
X171482476Y-108246859D01*
X171482500Y-108240000D01*
X171476946Y-108185320D01*
X171463078Y-108048787D01*
X171463077Y-108048783D01*
X171462433Y-108042441D01*
X171403050Y-107852952D01*
X171394138Y-107836873D01*
X171309872Y-107684854D01*
X171306779Y-107679274D01*
X171177551Y-107528501D01*
X171064738Y-107440994D01*
X171025690Y-107410705D01*
X171025687Y-107410703D01*
X171020646Y-107406793D01*
X171014920Y-107403975D01*
X171014916Y-107403973D01*
X170848204Y-107321940D01*
X170848200Y-107321938D01*
X170842472Y-107319120D01*
X170811030Y-107310930D01*
X170750154Y-107274405D01*
X170718687Y-107210762D01*
X170726622Y-107140211D01*
X170771442Y-107085149D01*
X170842793Y-107063000D01*
X171347743Y-107063000D01*
X171352250Y-107062839D01*
X171416269Y-107058260D01*
X171429491Y-107055874D01*
X171554458Y-107019181D01*
X171570692Y-107011767D01*
X171678360Y-106942574D01*
X171691847Y-106930888D01*
X171775662Y-106834160D01*
X171785307Y-106819152D01*
X171838477Y-106702725D01*
X171843502Y-106685612D01*
X171862361Y-106554446D01*
X171863000Y-106545503D01*
X171863000Y-105972115D01*
X171858525Y-105956876D01*
X171857135Y-105955671D01*
X171849452Y-105954000D01*
X169155115Y-105954000D01*
X169139876Y-105958475D01*
X169138671Y-105959865D01*
X169137000Y-105967548D01*
X155596415Y-105967548D01*
X155590806Y-105965871D01*
X155590803Y-105965869D01*
X155517235Y-105943868D01*
X155470269Y-105929822D01*
X155461293Y-105929767D01*
X155461292Y-105929767D01*
X155405686Y-105929427D01*
X155335481Y-105928998D01*
X155205880Y-105966039D01*
X155198293Y-105970826D01*
X155198291Y-105970827D01*
X155137895Y-106008934D01*
X155091884Y-106037965D01*
X155002657Y-106138995D01*
X154998843Y-106147118D01*
X154998842Y-106147120D01*
X154983489Y-106179822D01*
X154945373Y-106261006D01*
X154943993Y-106269871D01*
X154943992Y-106269873D01*
X154926492Y-106382267D01*
X154924635Y-106394192D01*
X154925799Y-106403093D01*
X154925799Y-106403097D01*
X154939570Y-106508400D01*
X154942113Y-106527844D01*
X154945725Y-106536054D01*
X154945726Y-106536056D01*
X154952852Y-106552250D01*
X154996399Y-106651220D01*
X155026742Y-106687317D01*
X155070182Y-106738995D01*
X155083130Y-106754399D01*
X155093778Y-106761487D01*
X155187862Y-106824115D01*
X155187864Y-106824116D01*
X155195335Y-106829089D01*
X155203899Y-106831765D01*
X155203902Y-106831766D01*
X155253326Y-106847207D01*
X155323992Y-106869285D01*
X155364713Y-106870031D01*
X155432455Y-106891278D01*
X155477957Y-106945776D01*
X155486904Y-107015395D01*
X155477587Y-107075233D01*
X155447343Y-107139465D01*
X155387173Y-107177150D01*
X155316181Y-107176322D01*
X155304928Y-107172021D01*
X155299408Y-107168443D01*
X155170269Y-107129822D01*
X155161293Y-107129767D01*
X155161292Y-107129767D01*
X155105686Y-107129427D01*
X155035481Y-107128998D01*
X154905880Y-107166039D01*
X154898293Y-107170826D01*
X154898291Y-107170827D01*
X154858051Y-107196217D01*
X154791884Y-107237965D01*
X154702657Y-107338995D01*
X154698843Y-107347118D01*
X154698842Y-107347120D01*
X154690085Y-107365773D01*
X154645373Y-107461006D01*
X154643993Y-107469871D01*
X154643992Y-107469873D01*
X154628129Y-107571755D01*
X154624635Y-107594192D01*
X154625799Y-107603093D01*
X154625799Y-107603097D01*
X154635128Y-107674431D01*
X154642113Y-107727844D01*
X154645725Y-107736054D01*
X154645726Y-107736056D01*
X154655987Y-107759376D01*
X154696399Y-107851220D01*
X154716773Y-107875458D01*
X154773483Y-107942922D01*
X154783130Y-107954399D01*
X154790608Y-107959376D01*
X154790607Y-107959376D01*
X154887862Y-108024115D01*
X154887864Y-108024116D01*
X154895335Y-108029089D01*
X154903899Y-108031765D01*
X154903904Y-108031767D01*
X154971493Y-108052883D01*
X155013971Y-108066154D01*
X155073028Y-108105560D01*
X155101405Y-108170639D01*
X155100897Y-108205804D01*
X155092657Y-108258724D01*
X155093821Y-108267625D01*
X155093821Y-108267629D01*
X155108775Y-108381978D01*
X155110135Y-108392376D01*
X155113747Y-108400586D01*
X155113748Y-108400588D01*
X155131814Y-108441647D01*
X155164421Y-108515752D01*
X155183093Y-108537965D01*
X155238937Y-108604399D01*
X155251152Y-108618931D01*
X155266412Y-108629089D01*
X155355884Y-108688647D01*
X155355886Y-108688648D01*
X155363357Y-108693621D01*
X155371921Y-108696297D01*
X155371924Y-108696298D01*
X155418963Y-108710994D01*
X155492014Y-108733817D01*
X155603659Y-108735863D01*
X155671401Y-108757110D01*
X155716902Y-108811609D01*
X155726947Y-108861430D01*
X155726018Y-108867396D01*
X155727182Y-108876297D01*
X155727182Y-108876300D01*
X155738140Y-108960091D01*
X155743496Y-109001048D01*
X155747110Y-109009262D01*
X155747111Y-109009265D01*
X155757821Y-109033606D01*
X155766949Y-109104013D01*
X155736562Y-109168178D01*
X155676309Y-109205729D01*
X155605319Y-109204744D01*
X155601805Y-109203397D01*
X155599408Y-109201843D01*
X155470269Y-109163222D01*
X155461293Y-109163167D01*
X155461292Y-109163167D01*
X155405686Y-109162827D01*
X155335481Y-109162398D01*
X155205880Y-109199439D01*
X155198293Y-109204226D01*
X155198291Y-109204227D01*
X155158325Y-109229444D01*
X155091884Y-109271365D01*
X155002657Y-109372395D01*
X154998843Y-109380518D01*
X154998842Y-109380520D01*
X154988738Y-109402042D01*
X154945373Y-109494406D01*
X154943993Y-109503269D01*
X154943992Y-109503272D01*
X154940538Y-109525458D01*
X154937672Y-109543868D01*
X154934688Y-109563031D01*
X154904444Y-109627263D01*
X154844274Y-109664948D01*
X154788139Y-109664484D01*
X154787745Y-109667121D01*
X154778871Y-109665795D01*
X154770269Y-109663222D01*
X154761293Y-109663167D01*
X154761292Y-109663167D01*
X154705686Y-109662827D01*
X154635481Y-109662398D01*
X154505880Y-109699439D01*
X154391884Y-109771365D01*
X154302657Y-109872395D01*
X154298843Y-109880518D01*
X154298842Y-109880520D01*
X154286930Y-109905893D01*
X154245373Y-109994406D01*
X154243993Y-110003271D01*
X154243992Y-110003273D01*
X154228129Y-110105155D01*
X154224635Y-110127592D01*
X131138230Y-110127592D01*
X131145749Y-110119285D01*
X131188102Y-110072493D01*
X131194124Y-110065840D01*
X131252895Y-109944537D01*
X131275258Y-109811615D01*
X131275400Y-109800000D01*
X131261684Y-109704227D01*
X131257564Y-109675458D01*
X131257564Y-109675456D01*
X131256291Y-109666571D01*
X131246568Y-109645185D01*
X131239020Y-109628585D01*
X131200502Y-109543868D01*
X131194644Y-109537069D01*
X131194641Y-109537065D01*
X131118378Y-109448559D01*
X131112516Y-109441756D01*
X131112115Y-109441496D01*
X131076232Y-109385249D01*
X131076468Y-109314253D01*
X131103829Y-109265598D01*
X131188102Y-109172493D01*
X131194124Y-109165840D01*
X131252895Y-109044537D01*
X131275258Y-108911615D01*
X131275400Y-108900000D01*
X131256291Y-108766571D01*
X131200502Y-108643868D01*
X131194644Y-108637069D01*
X131194641Y-108637065D01*
X131118378Y-108548559D01*
X131112516Y-108541756D01*
X131112115Y-108541496D01*
X131076232Y-108485249D01*
X131076468Y-108414253D01*
X131103829Y-108365598D01*
X131188102Y-108272493D01*
X131194124Y-108265840D01*
X131252895Y-108144537D01*
X131275258Y-108011615D01*
X131275400Y-108000000D01*
X131256291Y-107866571D01*
X131200502Y-107743868D01*
X131194644Y-107737069D01*
X131194641Y-107737065D01*
X131118378Y-107648559D01*
X131112516Y-107641756D01*
X131112115Y-107641496D01*
X131076232Y-107585249D01*
X131076468Y-107514253D01*
X131103829Y-107465598D01*
X131188102Y-107372493D01*
X131194124Y-107365840D01*
X131252895Y-107244537D01*
X131275258Y-107111615D01*
X131275400Y-107100000D01*
X131261522Y-107003097D01*
X131260247Y-106994192D01*
X151524635Y-106994192D01*
X151525799Y-107003093D01*
X151525799Y-107003097D01*
X151540949Y-107118945D01*
X151542113Y-107127844D01*
X151545725Y-107136054D01*
X151545726Y-107136056D01*
X151563808Y-107177150D01*
X151596399Y-107251220D01*
X151613456Y-107271512D01*
X151670182Y-107338995D01*
X151683130Y-107354399D01*
X151700217Y-107365773D01*
X151787862Y-107424115D01*
X151787864Y-107424116D01*
X151795335Y-107429089D01*
X151803899Y-107431765D01*
X151803902Y-107431766D01*
X151854347Y-107447526D01*
X151923992Y-107469285D01*
X152058760Y-107471755D01*
X152127982Y-107452883D01*
X152180145Y-107438662D01*
X152180147Y-107438661D01*
X152188804Y-107436301D01*
X152303670Y-107365773D01*
X152394124Y-107265840D01*
X152452895Y-107144537D01*
X152475258Y-107011615D01*
X152475400Y-107000000D01*
X152459911Y-106891847D01*
X152457564Y-106875458D01*
X152457564Y-106875456D01*
X152456291Y-106866571D01*
X152400502Y-106743868D01*
X152394644Y-106737069D01*
X152394641Y-106737065D01*
X152318376Y-106648556D01*
X152318373Y-106648554D01*
X152312516Y-106641756D01*
X152199408Y-106568443D01*
X152190806Y-106565871D01*
X152190803Y-106565869D01*
X152119472Y-106544537D01*
X152070269Y-106529822D01*
X152061293Y-106529767D01*
X152061292Y-106529767D01*
X152005686Y-106529427D01*
X151935481Y-106528998D01*
X151805880Y-106566039D01*
X151798293Y-106570826D01*
X151798291Y-106570827D01*
X151737895Y-106608934D01*
X151691884Y-106637965D01*
X151602657Y-106738995D01*
X151598843Y-106747118D01*
X151598842Y-106747120D01*
X151587775Y-106770692D01*
X151545373Y-106861006D01*
X151543993Y-106869871D01*
X151543992Y-106869873D01*
X151527884Y-106973329D01*
X151524635Y-106994192D01*
X131260247Y-106994192D01*
X131257564Y-106975458D01*
X131257564Y-106975456D01*
X131256291Y-106966571D01*
X131200502Y-106843868D01*
X131194644Y-106837069D01*
X131194641Y-106837065D01*
X131118378Y-106748559D01*
X131118375Y-106748556D01*
X131112516Y-106741756D01*
X131112115Y-106741496D01*
X131076232Y-106685249D01*
X131076468Y-106614253D01*
X131103829Y-106565598D01*
X131188102Y-106472493D01*
X131194124Y-106465840D01*
X131252895Y-106344537D01*
X131275258Y-106211615D01*
X131275400Y-106200000D01*
X131256291Y-106066571D01*
X131223383Y-105994192D01*
X138324635Y-105994192D01*
X138325799Y-106003093D01*
X138325799Y-106003097D01*
X138335262Y-106075458D01*
X138342113Y-106127844D01*
X138345725Y-106136054D01*
X138345726Y-106136056D01*
X138365706Y-106181465D01*
X138396399Y-106251220D01*
X138427286Y-106287965D01*
X138470182Y-106338995D01*
X138483130Y-106354399D01*
X138490608Y-106359376D01*
X138490607Y-106359376D01*
X138587862Y-106424115D01*
X138587864Y-106424116D01*
X138595335Y-106429089D01*
X138603899Y-106431765D01*
X138603902Y-106431766D01*
X138639886Y-106443008D01*
X138723992Y-106469285D01*
X138858760Y-106471755D01*
X138946267Y-106447898D01*
X138980145Y-106438662D01*
X138980147Y-106438661D01*
X138988804Y-106436301D01*
X139103670Y-106365773D01*
X139194124Y-106265840D01*
X139228837Y-106194192D01*
X141524635Y-106194192D01*
X141525799Y-106203093D01*
X141525799Y-106203097D01*
X141537778Y-106294694D01*
X141542113Y-106327844D01*
X141545725Y-106336054D01*
X141545726Y-106336056D01*
X141569020Y-106388995D01*
X141596399Y-106451220D01*
X141639826Y-106502883D01*
X141659378Y-106526142D01*
X141683130Y-106554399D01*
X141704228Y-106568443D01*
X141787862Y-106624115D01*
X141787864Y-106624116D01*
X141795335Y-106629089D01*
X141803899Y-106631765D01*
X141803902Y-106631766D01*
X141846854Y-106645185D01*
X141923992Y-106669285D01*
X142058760Y-106671755D01*
X142134082Y-106651220D01*
X142180145Y-106638662D01*
X142180147Y-106638661D01*
X142188804Y-106636301D01*
X142303670Y-106565773D01*
X142394124Y-106465840D01*
X142452895Y-106344537D01*
X142475258Y-106211615D01*
X142475400Y-106200000D01*
X142456291Y-106066571D01*
X142400502Y-105943868D01*
X142394644Y-105937069D01*
X142394641Y-105937065D01*
X142318376Y-105848556D01*
X142318373Y-105848554D01*
X142312516Y-105841756D01*
X142239134Y-105794192D01*
X142724635Y-105794192D01*
X142725799Y-105803093D01*
X142725799Y-105803097D01*
X142733372Y-105861006D01*
X142742113Y-105927844D01*
X142745725Y-105936054D01*
X142745726Y-105936056D01*
X142752760Y-105952042D01*
X142796399Y-106051220D01*
X142814281Y-106072493D01*
X142870182Y-106138995D01*
X142883130Y-106154399D01*
X142904228Y-106168443D01*
X142987862Y-106224115D01*
X142987864Y-106224116D01*
X142995335Y-106229089D01*
X143003899Y-106231765D01*
X143003902Y-106231766D01*
X143057644Y-106248556D01*
X143123992Y-106269285D01*
X143258760Y-106271755D01*
X143334082Y-106251220D01*
X143380145Y-106238662D01*
X143380147Y-106238661D01*
X143388804Y-106236301D01*
X143503670Y-106165773D01*
X143594124Y-106065840D01*
X143652895Y-105944537D01*
X143675258Y-105811615D01*
X143675400Y-105800000D01*
X143656291Y-105666571D01*
X143600502Y-105543868D01*
X143594644Y-105537069D01*
X143594641Y-105537065D01*
X143518376Y-105448556D01*
X143518373Y-105448554D01*
X143512516Y-105441756D01*
X143399408Y-105368443D01*
X143390806Y-105365871D01*
X143390803Y-105365869D01*
X143319472Y-105344537D01*
X143270269Y-105329822D01*
X143261293Y-105329767D01*
X143261292Y-105329767D01*
X143205686Y-105329427D01*
X143135481Y-105328998D01*
X143005880Y-105366039D01*
X142891884Y-105437965D01*
X142802657Y-105538995D01*
X142798843Y-105547118D01*
X142798842Y-105547120D01*
X142789960Y-105566039D01*
X142745373Y-105661006D01*
X142743993Y-105669871D01*
X142743992Y-105669873D01*
X142727884Y-105773329D01*
X142724635Y-105794192D01*
X142239134Y-105794192D01*
X142199408Y-105768443D01*
X142190806Y-105765871D01*
X142190803Y-105765869D01*
X142117235Y-105743868D01*
X142070269Y-105729822D01*
X142061293Y-105729767D01*
X142061292Y-105729767D01*
X142005686Y-105729427D01*
X141935481Y-105728998D01*
X141805880Y-105766039D01*
X141798293Y-105770826D01*
X141798291Y-105770827D01*
X141737895Y-105808934D01*
X141691884Y-105837965D01*
X141602657Y-105938995D01*
X141598843Y-105947118D01*
X141598842Y-105947120D01*
X141589960Y-105966039D01*
X141545373Y-106061006D01*
X141543993Y-106069871D01*
X141543992Y-106069873D01*
X141526472Y-106182395D01*
X141524635Y-106194192D01*
X139228837Y-106194192D01*
X139252895Y-106144537D01*
X139275258Y-106011615D01*
X139275400Y-106000000D01*
X139256291Y-105866571D01*
X139200502Y-105743868D01*
X139194644Y-105737069D01*
X139194641Y-105737065D01*
X139118376Y-105648556D01*
X139118373Y-105648554D01*
X139112516Y-105641756D01*
X138999408Y-105568443D01*
X138990806Y-105565871D01*
X138990803Y-105565869D01*
X138917235Y-105543868D01*
X138870269Y-105529822D01*
X138861293Y-105529767D01*
X138861292Y-105529767D01*
X138805686Y-105529427D01*
X138735481Y-105528998D01*
X138605880Y-105566039D01*
X138598293Y-105570826D01*
X138598291Y-105570827D01*
X138537895Y-105608934D01*
X138491884Y-105637965D01*
X138402657Y-105738995D01*
X138398843Y-105747118D01*
X138398842Y-105747120D01*
X138389960Y-105766039D01*
X138345373Y-105861006D01*
X138343993Y-105869871D01*
X138343992Y-105869873D01*
X138327884Y-105973329D01*
X138324635Y-105994192D01*
X131223383Y-105994192D01*
X131200502Y-105943868D01*
X131194644Y-105937069D01*
X131194641Y-105937065D01*
X131118376Y-105848556D01*
X131118373Y-105848554D01*
X131112516Y-105841756D01*
X130999408Y-105768443D01*
X130990806Y-105765871D01*
X130990803Y-105765869D01*
X130917235Y-105743868D01*
X130870269Y-105729822D01*
X130861293Y-105729767D01*
X130861292Y-105729767D01*
X130805686Y-105729427D01*
X130735481Y-105728998D01*
X130605880Y-105766039D01*
X130598293Y-105770826D01*
X130598291Y-105770827D01*
X130537895Y-105808934D01*
X130491884Y-105837965D01*
X130402657Y-105938995D01*
X130398843Y-105947118D01*
X130398842Y-105947120D01*
X130389960Y-105966039D01*
X130345373Y-106061006D01*
X130343993Y-106069871D01*
X130343992Y-106069873D01*
X130326472Y-106182395D01*
X130324635Y-106194192D01*
X113839134Y-106194192D01*
X113799408Y-106168443D01*
X113790806Y-106165871D01*
X113790803Y-106165869D01*
X113717235Y-106143868D01*
X113670269Y-106129822D01*
X113661293Y-106129767D01*
X113661292Y-106129767D01*
X113605686Y-106129427D01*
X113535481Y-106128998D01*
X113405880Y-106166039D01*
X113398293Y-106170826D01*
X113398291Y-106170827D01*
X113337895Y-106208934D01*
X113291884Y-106237965D01*
X113202657Y-106338995D01*
X113198843Y-106347118D01*
X113198842Y-106347120D01*
X113172561Y-106403097D01*
X113145373Y-106461006D01*
X113143993Y-106469871D01*
X113143992Y-106469873D01*
X113127884Y-106573329D01*
X113124635Y-106594192D01*
X111000000Y-106594192D01*
X111000000Y-105194192D01*
X128924635Y-105194192D01*
X128925799Y-105203093D01*
X128925799Y-105203097D01*
X128940949Y-105318945D01*
X128942113Y-105327844D01*
X128996399Y-105451220D01*
X129014281Y-105472493D01*
X129070182Y-105538995D01*
X129083130Y-105554399D01*
X129104228Y-105568443D01*
X129187862Y-105624115D01*
X129187864Y-105624116D01*
X129195335Y-105629089D01*
X129203899Y-105631765D01*
X129203902Y-105631766D01*
X129254337Y-105647523D01*
X129323992Y-105669285D01*
X129458760Y-105671755D01*
X129527982Y-105652883D01*
X129580145Y-105638662D01*
X129580147Y-105638661D01*
X129588804Y-105636301D01*
X129703670Y-105565773D01*
X129794124Y-105465840D01*
X129852895Y-105344537D01*
X129861365Y-105294192D01*
X147324635Y-105294192D01*
X147325799Y-105303093D01*
X147325799Y-105303097D01*
X147334984Y-105373329D01*
X147342113Y-105427844D01*
X147345725Y-105436054D01*
X147345726Y-105436056D01*
X147353013Y-105452617D01*
X147396399Y-105551220D01*
X147483130Y-105654399D01*
X147490608Y-105659376D01*
X147490607Y-105659376D01*
X147587862Y-105724115D01*
X147587864Y-105724116D01*
X147595335Y-105729089D01*
X147603899Y-105731765D01*
X147603902Y-105731766D01*
X147659663Y-105749187D01*
X147723992Y-105769285D01*
X147858760Y-105771755D01*
X147931067Y-105752042D01*
X147980145Y-105738662D01*
X147980147Y-105738661D01*
X147988804Y-105736301D01*
X148103670Y-105665773D01*
X148128210Y-105638662D01*
X148188102Y-105572493D01*
X148194124Y-105565840D01*
X148252895Y-105444537D01*
X148275258Y-105311615D01*
X148275400Y-105300000D01*
X148256291Y-105166571D01*
X148200502Y-105043868D01*
X148194644Y-105037069D01*
X148194641Y-105037065D01*
X148118376Y-104948556D01*
X148118373Y-104948554D01*
X148112516Y-104941756D01*
X147999408Y-104868443D01*
X147990806Y-104865871D01*
X147990803Y-104865869D01*
X147952770Y-104854495D01*
X169137000Y-104854495D01*
X169137000Y-105427885D01*
X169141475Y-105443124D01*
X169142865Y-105444329D01*
X169150548Y-105446000D01*
X170227885Y-105446000D01*
X170243124Y-105441525D01*
X170244329Y-105440135D01*
X170246000Y-105432452D01*
X170246000Y-104355115D01*
X170244659Y-104350548D01*
X170754000Y-104350548D01*
X170754000Y-105427885D01*
X170758475Y-105443124D01*
X170759865Y-105444329D01*
X170767548Y-105446000D01*
X171844885Y-105446000D01*
X171860124Y-105441525D01*
X171861329Y-105440135D01*
X171863000Y-105432452D01*
X171863000Y-104852257D01*
X171862839Y-104847750D01*
X171858260Y-104783731D01*
X171855874Y-104770509D01*
X171819181Y-104645542D01*
X171811767Y-104629308D01*
X171742574Y-104521640D01*
X171730888Y-104508153D01*
X171634160Y-104424338D01*
X171619152Y-104414693D01*
X171502725Y-104361523D01*
X171485612Y-104356498D01*
X171354446Y-104337639D01*
X171345505Y-104337000D01*
X170772115Y-104337000D01*
X170756876Y-104341475D01*
X170755671Y-104342865D01*
X170754000Y-104350548D01*
X170244659Y-104350548D01*
X170241525Y-104339876D01*
X170240135Y-104338671D01*
X170232452Y-104337000D01*
X169652257Y-104337000D01*
X169647750Y-104337161D01*
X169583731Y-104341740D01*
X169570509Y-104344126D01*
X169445542Y-104380819D01*
X169429308Y-104388233D01*
X169321640Y-104457426D01*
X169308153Y-104469112D01*
X169224338Y-104565840D01*
X169214693Y-104580848D01*
X169161523Y-104697275D01*
X169156498Y-104714388D01*
X169137639Y-104845554D01*
X169137000Y-104854495D01*
X147952770Y-104854495D01*
X147919997Y-104844694D01*
X147870269Y-104829822D01*
X147861293Y-104829767D01*
X147861292Y-104829767D01*
X147805686Y-104829427D01*
X147735481Y-104828998D01*
X147605880Y-104866039D01*
X147491884Y-104937965D01*
X147402657Y-105038995D01*
X147398843Y-105047118D01*
X147398842Y-105047120D01*
X147393546Y-105058400D01*
X147345373Y-105161006D01*
X147343993Y-105169871D01*
X147343992Y-105169873D01*
X147337493Y-105211615D01*
X147324635Y-105294192D01*
X129861365Y-105294192D01*
X129875258Y-105211615D01*
X129875400Y-105200000D01*
X129856291Y-105066571D01*
X129800502Y-104943868D01*
X129794644Y-104937069D01*
X129794641Y-104937065D01*
X129718376Y-104848556D01*
X129718373Y-104848554D01*
X129712516Y-104841756D01*
X129599408Y-104768443D01*
X129590806Y-104765871D01*
X129590803Y-104765869D01*
X129519472Y-104744537D01*
X129470269Y-104729822D01*
X129461293Y-104729767D01*
X129461292Y-104729767D01*
X129405686Y-104729427D01*
X129335481Y-104728998D01*
X129205880Y-104766039D01*
X129091884Y-104837965D01*
X129002657Y-104938995D01*
X128945373Y-105061006D01*
X128943993Y-105069871D01*
X128943992Y-105069873D01*
X128928422Y-105169873D01*
X128924635Y-105194192D01*
X111000000Y-105194192D01*
X111000000Y-104594192D01*
X141924635Y-104594192D01*
X141925799Y-104603093D01*
X141925799Y-104603097D01*
X141934778Y-104671755D01*
X141942113Y-104727844D01*
X141945725Y-104736054D01*
X141945726Y-104736056D01*
X141969256Y-104789532D01*
X141996399Y-104851220D01*
X142014281Y-104872493D01*
X142070182Y-104938995D01*
X142083130Y-104954399D01*
X142090608Y-104959376D01*
X142090607Y-104959376D01*
X142187862Y-105024115D01*
X142187864Y-105024116D01*
X142195335Y-105029089D01*
X142203899Y-105031765D01*
X142203902Y-105031766D01*
X142259663Y-105049187D01*
X142323992Y-105069285D01*
X142458760Y-105071755D01*
X142531067Y-105052042D01*
X142580145Y-105038662D01*
X142580147Y-105038661D01*
X142588804Y-105036301D01*
X142703670Y-104965773D01*
X142794124Y-104865840D01*
X142852895Y-104744537D01*
X142875258Y-104611615D01*
X142875400Y-104600000D01*
X142856291Y-104466571D01*
X142800502Y-104343868D01*
X142794644Y-104337069D01*
X142794641Y-104337065D01*
X142718376Y-104248556D01*
X142718373Y-104248554D01*
X142712516Y-104241756D01*
X142639134Y-104194192D01*
X154324635Y-104194192D01*
X154325799Y-104203093D01*
X154325799Y-104203097D01*
X154340949Y-104318945D01*
X154342113Y-104327844D01*
X154345725Y-104336054D01*
X154345726Y-104336056D01*
X154352103Y-104350548D01*
X154396399Y-104451220D01*
X154483130Y-104554399D01*
X154490608Y-104559376D01*
X154490607Y-104559376D01*
X154587862Y-104624115D01*
X154587864Y-104624116D01*
X154595335Y-104629089D01*
X154603899Y-104631765D01*
X154603902Y-104631766D01*
X154647997Y-104645542D01*
X154723992Y-104669285D01*
X154858760Y-104671755D01*
X154913356Y-104656870D01*
X154980145Y-104638662D01*
X154980147Y-104638661D01*
X154988804Y-104636301D01*
X155103670Y-104565773D01*
X155194124Y-104465840D01*
X155252895Y-104344537D01*
X155275258Y-104211615D01*
X155275400Y-104200000D01*
X155256291Y-104066571D01*
X155200502Y-103943868D01*
X155194644Y-103937069D01*
X155194641Y-103937065D01*
X155118376Y-103848556D01*
X155118373Y-103848554D01*
X155112516Y-103841756D01*
X154999408Y-103768443D01*
X154990806Y-103765871D01*
X154990803Y-103765869D01*
X154928981Y-103747381D01*
X154870269Y-103729822D01*
X154861293Y-103729767D01*
X154861292Y-103729767D01*
X154805686Y-103729427D01*
X154735481Y-103728998D01*
X154605880Y-103766039D01*
X154598293Y-103770826D01*
X154598291Y-103770827D01*
X154594326Y-103773329D01*
X154491884Y-103837965D01*
X154402657Y-103938995D01*
X154398843Y-103947118D01*
X154398842Y-103947120D01*
X154371430Y-104005507D01*
X154345373Y-104061006D01*
X154343993Y-104069871D01*
X154343992Y-104069873D01*
X154327884Y-104173329D01*
X154324635Y-104194192D01*
X142639134Y-104194192D01*
X142599408Y-104168443D01*
X142590806Y-104165871D01*
X142590803Y-104165869D01*
X142528981Y-104147381D01*
X142470269Y-104129822D01*
X142461293Y-104129767D01*
X142461292Y-104129767D01*
X142405686Y-104129427D01*
X142335481Y-104128998D01*
X142205880Y-104166039D01*
X142198293Y-104170826D01*
X142198291Y-104170827D01*
X142137895Y-104208934D01*
X142091884Y-104237965D01*
X142002657Y-104338995D01*
X141998843Y-104347118D01*
X141998842Y-104347120D01*
X141994439Y-104356498D01*
X141945373Y-104461006D01*
X141943993Y-104469871D01*
X141943992Y-104469873D01*
X141926713Y-104580848D01*
X141924635Y-104594192D01*
X111000000Y-104594192D01*
X111000000Y-103294192D01*
X113574635Y-103294192D01*
X113575799Y-103303093D01*
X113575799Y-103303097D01*
X113582275Y-103352617D01*
X113592113Y-103427844D01*
X113595725Y-103436054D01*
X113595726Y-103436056D01*
X113603013Y-103452617D01*
X113646399Y-103551220D01*
X113733130Y-103654399D01*
X113740608Y-103659376D01*
X113740607Y-103659376D01*
X113837862Y-103724115D01*
X113837864Y-103724116D01*
X113845335Y-103729089D01*
X113853899Y-103731765D01*
X113853902Y-103731766D01*
X113909663Y-103749187D01*
X113973992Y-103769285D01*
X114108760Y-103771755D01*
X114163356Y-103756870D01*
X114230145Y-103738662D01*
X114230147Y-103738661D01*
X114238804Y-103736301D01*
X114353670Y-103665773D01*
X114378210Y-103638662D01*
X114438103Y-103572492D01*
X114444124Y-103565840D01*
X114446637Y-103560654D01*
X114500066Y-103516394D01*
X114570547Y-103507852D01*
X114634457Y-103538771D01*
X114645494Y-103551981D01*
X114646399Y-103551220D01*
X114733130Y-103654399D01*
X114740608Y-103659376D01*
X114740607Y-103659376D01*
X114837862Y-103724115D01*
X114837864Y-103724116D01*
X114845335Y-103729089D01*
X114853899Y-103731765D01*
X114853902Y-103731766D01*
X114909663Y-103749187D01*
X114973992Y-103769285D01*
X115108760Y-103771755D01*
X115163356Y-103756870D01*
X115230145Y-103738662D01*
X115230147Y-103738661D01*
X115238804Y-103736301D01*
X115353670Y-103665773D01*
X115378210Y-103638662D01*
X115438103Y-103572492D01*
X115444124Y-103565840D01*
X115446637Y-103560654D01*
X115500066Y-103516394D01*
X115570547Y-103507852D01*
X115634457Y-103538771D01*
X115645494Y-103551981D01*
X115646399Y-103551220D01*
X115733130Y-103654399D01*
X115740608Y-103659376D01*
X115740607Y-103659376D01*
X115837862Y-103724115D01*
X115837864Y-103724116D01*
X115845335Y-103729089D01*
X115853899Y-103731765D01*
X115853902Y-103731766D01*
X115909663Y-103749187D01*
X115973992Y-103769285D01*
X116108760Y-103771755D01*
X116163356Y-103756870D01*
X116230145Y-103738662D01*
X116230147Y-103738661D01*
X116238804Y-103736301D01*
X116353670Y-103665773D01*
X116378210Y-103638662D01*
X116438103Y-103572492D01*
X116444124Y-103565840D01*
X116446637Y-103560654D01*
X116500066Y-103516394D01*
X116570547Y-103507852D01*
X116634457Y-103538771D01*
X116645494Y-103551981D01*
X116646399Y-103551220D01*
X116733130Y-103654399D01*
X116740608Y-103659376D01*
X116740607Y-103659376D01*
X116837862Y-103724115D01*
X116837864Y-103724116D01*
X116845335Y-103729089D01*
X116853899Y-103731765D01*
X116853902Y-103731766D01*
X116909663Y-103749187D01*
X116973992Y-103769285D01*
X117108760Y-103771755D01*
X117163356Y-103756870D01*
X117230145Y-103738662D01*
X117230147Y-103738661D01*
X117238804Y-103736301D01*
X117353670Y-103665773D01*
X117378210Y-103638662D01*
X117438103Y-103572492D01*
X117444124Y-103565840D01*
X117446637Y-103560654D01*
X117500066Y-103516394D01*
X117570547Y-103507852D01*
X117634457Y-103538771D01*
X117645494Y-103551981D01*
X117646399Y-103551220D01*
X117733130Y-103654399D01*
X117740608Y-103659376D01*
X117740607Y-103659376D01*
X117837862Y-103724115D01*
X117837864Y-103724116D01*
X117845335Y-103729089D01*
X117853899Y-103731765D01*
X117853902Y-103731766D01*
X117909663Y-103749187D01*
X117973992Y-103769285D01*
X118108760Y-103771755D01*
X118163356Y-103756870D01*
X118230145Y-103738662D01*
X118230147Y-103738661D01*
X118238804Y-103736301D01*
X118353670Y-103665773D01*
X118378210Y-103638662D01*
X118438103Y-103572492D01*
X118444124Y-103565840D01*
X118446637Y-103560654D01*
X118500066Y-103516394D01*
X118570547Y-103507852D01*
X118634457Y-103538771D01*
X118645494Y-103551981D01*
X118646399Y-103551220D01*
X118733130Y-103654399D01*
X118740608Y-103659376D01*
X118740607Y-103659376D01*
X118837862Y-103724115D01*
X118837864Y-103724116D01*
X118845335Y-103729089D01*
X118853899Y-103731765D01*
X118853902Y-103731766D01*
X118909663Y-103749187D01*
X118973992Y-103769285D01*
X119108760Y-103771755D01*
X119163356Y-103756870D01*
X119230145Y-103738662D01*
X119230147Y-103738661D01*
X119238804Y-103736301D01*
X119353670Y-103665773D01*
X119378210Y-103638662D01*
X119438103Y-103572492D01*
X119444124Y-103565840D01*
X119446637Y-103560654D01*
X119500066Y-103516394D01*
X119570547Y-103507852D01*
X119634457Y-103538771D01*
X119645494Y-103551981D01*
X119646399Y-103551220D01*
X119733130Y-103654399D01*
X119740608Y-103659376D01*
X119740607Y-103659376D01*
X119837862Y-103724115D01*
X119837864Y-103724116D01*
X119845335Y-103729089D01*
X119853899Y-103731765D01*
X119853902Y-103731766D01*
X119909663Y-103749187D01*
X119973992Y-103769285D01*
X120108760Y-103771755D01*
X120163356Y-103756870D01*
X120230145Y-103738662D01*
X120230147Y-103738661D01*
X120238804Y-103736301D01*
X120353670Y-103665773D01*
X120378210Y-103638662D01*
X120438103Y-103572492D01*
X120444124Y-103565840D01*
X120446637Y-103560654D01*
X120500066Y-103516394D01*
X120570547Y-103507852D01*
X120634457Y-103538771D01*
X120645494Y-103551981D01*
X120646399Y-103551220D01*
X120733130Y-103654399D01*
X120740608Y-103659376D01*
X120740607Y-103659376D01*
X120837862Y-103724115D01*
X120837864Y-103724116D01*
X120845335Y-103729089D01*
X120853899Y-103731765D01*
X120853902Y-103731766D01*
X120909663Y-103749187D01*
X120973992Y-103769285D01*
X121108760Y-103771755D01*
X121163356Y-103756870D01*
X121230145Y-103738662D01*
X121230147Y-103738661D01*
X121238804Y-103736301D01*
X121353670Y-103665773D01*
X121378210Y-103638662D01*
X121438103Y-103572492D01*
X121444124Y-103565840D01*
X121446637Y-103560654D01*
X121500066Y-103516394D01*
X121570547Y-103507852D01*
X121634457Y-103538771D01*
X121645494Y-103551981D01*
X121646399Y-103551220D01*
X121733130Y-103654399D01*
X121740608Y-103659376D01*
X121740607Y-103659376D01*
X121837862Y-103724115D01*
X121837864Y-103724116D01*
X121845335Y-103729089D01*
X121853899Y-103731765D01*
X121853902Y-103731766D01*
X121909663Y-103749187D01*
X121973992Y-103769285D01*
X122108760Y-103771755D01*
X122163356Y-103756870D01*
X122230145Y-103738662D01*
X122230147Y-103738661D01*
X122238804Y-103736301D01*
X122353670Y-103665773D01*
X122378210Y-103638662D01*
X122438103Y-103572492D01*
X122444124Y-103565840D01*
X122446637Y-103560654D01*
X122500066Y-103516394D01*
X122570547Y-103507852D01*
X122634457Y-103538771D01*
X122645494Y-103551981D01*
X122646399Y-103551220D01*
X122733130Y-103654399D01*
X122740608Y-103659376D01*
X122740607Y-103659376D01*
X122837862Y-103724115D01*
X122837864Y-103724116D01*
X122845335Y-103729089D01*
X122853899Y-103731765D01*
X122853902Y-103731766D01*
X122909663Y-103749187D01*
X122973992Y-103769285D01*
X123108760Y-103771755D01*
X123163356Y-103756870D01*
X123230145Y-103738662D01*
X123230147Y-103738661D01*
X123238804Y-103736301D01*
X123353670Y-103665773D01*
X123378210Y-103638662D01*
X123438102Y-103572493D01*
X123438103Y-103572492D01*
X123444124Y-103565840D01*
X123502895Y-103444537D01*
X123525258Y-103311615D01*
X123525400Y-103300000D01*
X123510247Y-103194192D01*
X141524635Y-103194192D01*
X141525799Y-103203093D01*
X141525799Y-103203097D01*
X141540949Y-103318945D01*
X141542113Y-103327844D01*
X141596399Y-103451220D01*
X141683130Y-103554399D01*
X141690608Y-103559376D01*
X141690607Y-103559376D01*
X141787862Y-103624115D01*
X141787864Y-103624116D01*
X141795335Y-103629089D01*
X141803899Y-103631765D01*
X141803902Y-103631766D01*
X141854337Y-103647523D01*
X141923992Y-103669285D01*
X142058760Y-103671755D01*
X142122421Y-103654399D01*
X142180145Y-103638662D01*
X142180147Y-103638661D01*
X142188804Y-103636301D01*
X142303670Y-103565773D01*
X142345749Y-103519285D01*
X142388102Y-103472493D01*
X142394124Y-103465840D01*
X142452895Y-103344537D01*
X142475258Y-103211615D01*
X142475400Y-103200000D01*
X142459739Y-103090646D01*
X142457564Y-103075458D01*
X142457564Y-103075456D01*
X142456291Y-103066571D01*
X142446568Y-103045185D01*
X142446116Y-103044192D01*
X153624635Y-103044192D01*
X153625799Y-103053093D01*
X153625799Y-103053097D01*
X153639570Y-103158400D01*
X153642113Y-103177844D01*
X153645725Y-103186054D01*
X153645726Y-103186056D01*
X153656972Y-103211615D01*
X153696399Y-103301220D01*
X153714281Y-103322493D01*
X153758339Y-103374906D01*
X153783130Y-103404399D01*
X153790608Y-103409376D01*
X153790607Y-103409376D01*
X153887862Y-103474115D01*
X153887864Y-103474116D01*
X153895335Y-103479089D01*
X153903899Y-103481765D01*
X153903902Y-103481766D01*
X153959664Y-103499187D01*
X154023992Y-103519285D01*
X154158760Y-103521755D01*
X154213356Y-103506870D01*
X154280145Y-103488662D01*
X154280147Y-103488661D01*
X154288804Y-103486301D01*
X154403670Y-103415773D01*
X154494124Y-103315840D01*
X154552895Y-103194537D01*
X154575258Y-103061615D01*
X154575400Y-103050000D01*
X154559898Y-102941756D01*
X154557564Y-102925458D01*
X154557564Y-102925456D01*
X154556291Y-102916571D01*
X154500502Y-102793868D01*
X154494644Y-102787069D01*
X154494641Y-102787065D01*
X154418376Y-102698556D01*
X154418373Y-102698554D01*
X154412516Y-102691756D01*
X154299408Y-102618443D01*
X154290806Y-102615871D01*
X154290803Y-102615869D01*
X154228981Y-102597381D01*
X154170269Y-102579822D01*
X154161293Y-102579767D01*
X154161292Y-102579767D01*
X154105686Y-102579427D01*
X154035481Y-102578998D01*
X153905880Y-102616039D01*
X153898293Y-102620826D01*
X153898291Y-102620827D01*
X153850121Y-102651220D01*
X153791884Y-102687965D01*
X153702657Y-102788995D01*
X153698843Y-102797118D01*
X153698842Y-102797120D01*
X153680447Y-102836301D01*
X153645373Y-102911006D01*
X153643993Y-102919871D01*
X153643992Y-102919873D01*
X153626170Y-103034335D01*
X153624635Y-103044192D01*
X142446116Y-103044192D01*
X142421253Y-102989509D01*
X142400502Y-102943868D01*
X142394644Y-102937069D01*
X142394641Y-102937065D01*
X142318376Y-102848556D01*
X142318373Y-102848554D01*
X142312516Y-102841756D01*
X142199408Y-102768443D01*
X142190806Y-102765871D01*
X142190803Y-102765869D01*
X142128981Y-102747381D01*
X142070269Y-102729822D01*
X142061293Y-102729767D01*
X142061292Y-102729767D01*
X142005686Y-102729427D01*
X141935481Y-102728998D01*
X141805880Y-102766039D01*
X141798293Y-102770826D01*
X141798291Y-102770827D01*
X141748819Y-102802042D01*
X141691884Y-102837965D01*
X141602657Y-102938995D01*
X141545373Y-103061006D01*
X141543993Y-103069871D01*
X141543992Y-103069873D01*
X141528422Y-103169873D01*
X141524635Y-103194192D01*
X123510247Y-103194192D01*
X123509082Y-103186056D01*
X123507564Y-103175458D01*
X123507564Y-103175456D01*
X123506291Y-103166571D01*
X123450502Y-103043868D01*
X123444644Y-103037069D01*
X123444641Y-103037065D01*
X123368376Y-102948556D01*
X123368373Y-102948554D01*
X123362516Y-102941756D01*
X123249408Y-102868443D01*
X123240806Y-102865871D01*
X123240803Y-102865869D01*
X123160173Y-102841756D01*
X123120269Y-102829822D01*
X123111293Y-102829767D01*
X123111292Y-102829767D01*
X123055686Y-102829427D01*
X122985481Y-102828998D01*
X122855880Y-102866039D01*
X122848293Y-102870826D01*
X122848291Y-102870827D01*
X122818056Y-102889904D01*
X122741884Y-102937965D01*
X122652657Y-103038995D01*
X122652268Y-103039824D01*
X122601240Y-103083153D01*
X122530868Y-103092553D01*
X122466586Y-103062414D01*
X122450624Y-103043763D01*
X122450502Y-103043868D01*
X122368376Y-102948556D01*
X122368373Y-102948554D01*
X122362516Y-102941756D01*
X122249408Y-102868443D01*
X122240806Y-102865871D01*
X122240803Y-102865869D01*
X122160173Y-102841756D01*
X122120269Y-102829822D01*
X122111293Y-102829767D01*
X122111292Y-102829767D01*
X122055686Y-102829427D01*
X121985481Y-102828998D01*
X121855880Y-102866039D01*
X121848293Y-102870826D01*
X121848291Y-102870827D01*
X121818056Y-102889904D01*
X121741884Y-102937965D01*
X121652657Y-103038995D01*
X121652268Y-103039824D01*
X121601240Y-103083153D01*
X121530868Y-103092553D01*
X121466586Y-103062414D01*
X121450624Y-103043763D01*
X121450502Y-103043868D01*
X121368376Y-102948556D01*
X121368373Y-102948554D01*
X121362516Y-102941756D01*
X121249408Y-102868443D01*
X121240806Y-102865871D01*
X121240803Y-102865869D01*
X121160173Y-102841756D01*
X121120269Y-102829822D01*
X121111293Y-102829767D01*
X121111292Y-102829767D01*
X121055686Y-102829427D01*
X120985481Y-102828998D01*
X120855880Y-102866039D01*
X120848293Y-102870826D01*
X120848291Y-102870827D01*
X120818056Y-102889904D01*
X120741884Y-102937965D01*
X120652657Y-103038995D01*
X120652268Y-103039824D01*
X120601240Y-103083153D01*
X120530868Y-103092553D01*
X120466586Y-103062414D01*
X120450624Y-103043763D01*
X120450502Y-103043868D01*
X120368376Y-102948556D01*
X120368373Y-102948554D01*
X120362516Y-102941756D01*
X120249408Y-102868443D01*
X120240806Y-102865871D01*
X120240803Y-102865869D01*
X120160173Y-102841756D01*
X120120269Y-102829822D01*
X120111293Y-102829767D01*
X120111292Y-102829767D01*
X120055686Y-102829427D01*
X119985481Y-102828998D01*
X119855880Y-102866039D01*
X119848293Y-102870826D01*
X119848291Y-102870827D01*
X119818056Y-102889904D01*
X119741884Y-102937965D01*
X119652657Y-103038995D01*
X119652268Y-103039824D01*
X119601240Y-103083153D01*
X119530868Y-103092553D01*
X119466586Y-103062414D01*
X119450624Y-103043763D01*
X119450502Y-103043868D01*
X119368376Y-102948556D01*
X119368373Y-102948554D01*
X119362516Y-102941756D01*
X119249408Y-102868443D01*
X119240806Y-102865871D01*
X119240803Y-102865869D01*
X119160173Y-102841756D01*
X119120269Y-102829822D01*
X119111293Y-102829767D01*
X119111292Y-102829767D01*
X119055686Y-102829427D01*
X118985481Y-102828998D01*
X118855880Y-102866039D01*
X118848293Y-102870826D01*
X118848291Y-102870827D01*
X118818056Y-102889904D01*
X118741884Y-102937965D01*
X118652657Y-103038995D01*
X118652268Y-103039824D01*
X118601240Y-103083153D01*
X118530868Y-103092553D01*
X118466586Y-103062414D01*
X118450624Y-103043763D01*
X118450502Y-103043868D01*
X118368376Y-102948556D01*
X118368373Y-102948554D01*
X118362516Y-102941756D01*
X118249408Y-102868443D01*
X118240806Y-102865871D01*
X118240803Y-102865869D01*
X118160173Y-102841756D01*
X118120269Y-102829822D01*
X118111293Y-102829767D01*
X118111292Y-102829767D01*
X118055686Y-102829427D01*
X117985481Y-102828998D01*
X117855880Y-102866039D01*
X117848293Y-102870826D01*
X117848291Y-102870827D01*
X117818056Y-102889904D01*
X117741884Y-102937965D01*
X117652657Y-103038995D01*
X117652268Y-103039824D01*
X117601240Y-103083153D01*
X117530868Y-103092553D01*
X117466586Y-103062414D01*
X117450624Y-103043763D01*
X117450502Y-103043868D01*
X117368376Y-102948556D01*
X117368373Y-102948554D01*
X117362516Y-102941756D01*
X117249408Y-102868443D01*
X117240806Y-102865871D01*
X117240803Y-102865869D01*
X117160173Y-102841756D01*
X117120269Y-102829822D01*
X117111293Y-102829767D01*
X117111292Y-102829767D01*
X117055686Y-102829427D01*
X116985481Y-102828998D01*
X116855880Y-102866039D01*
X116848293Y-102870826D01*
X116848291Y-102870827D01*
X116818056Y-102889904D01*
X116741884Y-102937965D01*
X116652657Y-103038995D01*
X116652268Y-103039824D01*
X116601240Y-103083153D01*
X116530868Y-103092553D01*
X116466586Y-103062414D01*
X116450624Y-103043763D01*
X116450502Y-103043868D01*
X116368376Y-102948556D01*
X116368373Y-102948554D01*
X116362516Y-102941756D01*
X116249408Y-102868443D01*
X116240806Y-102865871D01*
X116240803Y-102865869D01*
X116160173Y-102841756D01*
X116120269Y-102829822D01*
X116111293Y-102829767D01*
X116111292Y-102829767D01*
X116055686Y-102829427D01*
X115985481Y-102828998D01*
X115855880Y-102866039D01*
X115848293Y-102870826D01*
X115848291Y-102870827D01*
X115818056Y-102889904D01*
X115741884Y-102937965D01*
X115652657Y-103038995D01*
X115652268Y-103039824D01*
X115601240Y-103083153D01*
X115530868Y-103092553D01*
X115466586Y-103062414D01*
X115450624Y-103043763D01*
X115450502Y-103043868D01*
X115368376Y-102948556D01*
X115368373Y-102948554D01*
X115362516Y-102941756D01*
X115249408Y-102868443D01*
X115240806Y-102865871D01*
X115240803Y-102865869D01*
X115160173Y-102841756D01*
X115120269Y-102829822D01*
X115111293Y-102829767D01*
X115111292Y-102829767D01*
X115055686Y-102829427D01*
X114985481Y-102828998D01*
X114855880Y-102866039D01*
X114848293Y-102870826D01*
X114848291Y-102870827D01*
X114818056Y-102889904D01*
X114741884Y-102937965D01*
X114652657Y-103038995D01*
X114652268Y-103039824D01*
X114601240Y-103083153D01*
X114530868Y-103092553D01*
X114466586Y-103062414D01*
X114450624Y-103043763D01*
X114450502Y-103043868D01*
X114368376Y-102948556D01*
X114368373Y-102948554D01*
X114362516Y-102941756D01*
X114249408Y-102868443D01*
X114240806Y-102865871D01*
X114240803Y-102865869D01*
X114160173Y-102841756D01*
X114120269Y-102829822D01*
X114111293Y-102829767D01*
X114111292Y-102829767D01*
X114055686Y-102829427D01*
X113985481Y-102828998D01*
X113855880Y-102866039D01*
X113848293Y-102870826D01*
X113848291Y-102870827D01*
X113818056Y-102889904D01*
X113741884Y-102937965D01*
X113652657Y-103038995D01*
X113648843Y-103047118D01*
X113648842Y-103047120D01*
X113639710Y-103066571D01*
X113595373Y-103161006D01*
X113593993Y-103169871D01*
X113593992Y-103169873D01*
X113576193Y-103284187D01*
X113574635Y-103294192D01*
X111000000Y-103294192D01*
X111000000Y-102394192D01*
X123724635Y-102394192D01*
X123725799Y-102403093D01*
X123725799Y-102403097D01*
X123740949Y-102518945D01*
X123742113Y-102527844D01*
X123745725Y-102536054D01*
X123745726Y-102536056D01*
X123765587Y-102581193D01*
X123796399Y-102651220D01*
X123883130Y-102754399D01*
X123904228Y-102768443D01*
X123987862Y-102824115D01*
X123987864Y-102824116D01*
X123995335Y-102829089D01*
X124003899Y-102831765D01*
X124003902Y-102831766D01*
X124057644Y-102848556D01*
X124123992Y-102869285D01*
X124258760Y-102871755D01*
X124313356Y-102856870D01*
X124380145Y-102838662D01*
X124380147Y-102838661D01*
X124388804Y-102836301D01*
X124503670Y-102765773D01*
X124594124Y-102665840D01*
X124596637Y-102660654D01*
X124650066Y-102616394D01*
X124720547Y-102607852D01*
X124784457Y-102638771D01*
X124795494Y-102651981D01*
X124796399Y-102651220D01*
X124852217Y-102717623D01*
X124883130Y-102754399D01*
X124904228Y-102768443D01*
X124987862Y-102824115D01*
X124987864Y-102824116D01*
X124995335Y-102829089D01*
X125003899Y-102831765D01*
X125003902Y-102831766D01*
X125057644Y-102848556D01*
X125123992Y-102869285D01*
X125258760Y-102871755D01*
X125313356Y-102856870D01*
X125380145Y-102838662D01*
X125380147Y-102838661D01*
X125388804Y-102836301D01*
X125503670Y-102765773D01*
X125594124Y-102665840D01*
X125596637Y-102660654D01*
X125650066Y-102616394D01*
X125720547Y-102607852D01*
X125784457Y-102638771D01*
X125795494Y-102651981D01*
X125796399Y-102651220D01*
X125852217Y-102717623D01*
X125883130Y-102754399D01*
X125904228Y-102768443D01*
X125987862Y-102824115D01*
X125987864Y-102824116D01*
X125995335Y-102829089D01*
X126003899Y-102831765D01*
X126003902Y-102831766D01*
X126057644Y-102848556D01*
X126123992Y-102869285D01*
X126258760Y-102871755D01*
X126313356Y-102856870D01*
X126380145Y-102838662D01*
X126380147Y-102838661D01*
X126388804Y-102836301D01*
X126503670Y-102765773D01*
X126594124Y-102665840D01*
X126596637Y-102660654D01*
X126650066Y-102616394D01*
X126720547Y-102607852D01*
X126784457Y-102638771D01*
X126795494Y-102651981D01*
X126796399Y-102651220D01*
X126852217Y-102717623D01*
X126883130Y-102754399D01*
X126904228Y-102768443D01*
X126987862Y-102824115D01*
X126987864Y-102824116D01*
X126995335Y-102829089D01*
X127003899Y-102831765D01*
X127003902Y-102831766D01*
X127057644Y-102848556D01*
X127123992Y-102869285D01*
X127258760Y-102871755D01*
X127313356Y-102856870D01*
X127380145Y-102838662D01*
X127380147Y-102838661D01*
X127388804Y-102836301D01*
X127503670Y-102765773D01*
X127594124Y-102665840D01*
X127596637Y-102660654D01*
X127650066Y-102616394D01*
X127720547Y-102607852D01*
X127784457Y-102638771D01*
X127795494Y-102651981D01*
X127796399Y-102651220D01*
X127852217Y-102717623D01*
X127883130Y-102754399D01*
X127904228Y-102768443D01*
X127987862Y-102824115D01*
X127987864Y-102824116D01*
X127995335Y-102829089D01*
X128003899Y-102831765D01*
X128003902Y-102831766D01*
X128057644Y-102848556D01*
X128123992Y-102869285D01*
X128258760Y-102871755D01*
X128313356Y-102856870D01*
X128380145Y-102838662D01*
X128380147Y-102838661D01*
X128388804Y-102836301D01*
X128503670Y-102765773D01*
X128594124Y-102665840D01*
X128652895Y-102544537D01*
X128675258Y-102411615D01*
X128675400Y-102400000D01*
X128656291Y-102266571D01*
X128600502Y-102143868D01*
X128594644Y-102137069D01*
X128594641Y-102137065D01*
X128518376Y-102048556D01*
X128518373Y-102048554D01*
X128512516Y-102041756D01*
X128439134Y-101994192D01*
X138724635Y-101994192D01*
X138725799Y-102003093D01*
X138725799Y-102003097D01*
X138735262Y-102075457D01*
X138742113Y-102127844D01*
X138745725Y-102136054D01*
X138745726Y-102136056D01*
X138750772Y-102147523D01*
X138796399Y-102251220D01*
X138883130Y-102354399D01*
X138890608Y-102359376D01*
X138890607Y-102359376D01*
X138987862Y-102424115D01*
X138987864Y-102424116D01*
X138995335Y-102429089D01*
X139003899Y-102431765D01*
X139003902Y-102431766D01*
X139039886Y-102443008D01*
X139123992Y-102469285D01*
X139258760Y-102471755D01*
X139313356Y-102456870D01*
X139380145Y-102438662D01*
X139380147Y-102438661D01*
X139388804Y-102436301D01*
X139503670Y-102365773D01*
X139538525Y-102327266D01*
X139588102Y-102272493D01*
X139594124Y-102265840D01*
X139628837Y-102194192D01*
X146524635Y-102194192D01*
X146525799Y-102203093D01*
X146525799Y-102203097D01*
X146535219Y-102275128D01*
X146542113Y-102327844D01*
X146596399Y-102451220D01*
X146614281Y-102472493D01*
X146671527Y-102540595D01*
X146683130Y-102554399D01*
X146690608Y-102559376D01*
X146690607Y-102559376D01*
X146787862Y-102624115D01*
X146787864Y-102624116D01*
X146795335Y-102629089D01*
X146803899Y-102631765D01*
X146803902Y-102631766D01*
X146839886Y-102643008D01*
X146923992Y-102669285D01*
X147058760Y-102671755D01*
X147115771Y-102656212D01*
X147180145Y-102638662D01*
X147180147Y-102638661D01*
X147188804Y-102636301D01*
X147303670Y-102565773D01*
X147394124Y-102465840D01*
X147452895Y-102344537D01*
X147475258Y-102211615D01*
X147475400Y-102200000D01*
X147456291Y-102066571D01*
X147452577Y-102058402D01*
X147451136Y-102053475D01*
X147451216Y-101982478D01*
X147489667Y-101922795D01*
X147538931Y-101896550D01*
X147556435Y-101891778D01*
X147671301Y-101821250D01*
X147695793Y-101794192D01*
X147736891Y-101748787D01*
X147761755Y-101721317D01*
X147820526Y-101600014D01*
X147842889Y-101467092D01*
X147842960Y-101461256D01*
X147842972Y-101460336D01*
X147842972Y-101460331D01*
X147843031Y-101455477D01*
X147826705Y-101341479D01*
X147825195Y-101330935D01*
X147825195Y-101330933D01*
X147823922Y-101322048D01*
X147819343Y-101311975D01*
X147810896Y-101293398D01*
X147800908Y-101223107D01*
X147830509Y-101158575D01*
X147890299Y-101120291D01*
X147963171Y-101120979D01*
X148063927Y-101152458D01*
X148198695Y-101154928D01*
X148253291Y-101140043D01*
X148320080Y-101121835D01*
X148320082Y-101121834D01*
X148328739Y-101119474D01*
X148443605Y-101048946D01*
X148534059Y-100949013D01*
X148578731Y-100856810D01*
X148626433Y-100804227D01*
X148694992Y-100785781D01*
X148761941Y-100806860D01*
X148795335Y-100829089D01*
X148803899Y-100831765D01*
X148803902Y-100831766D01*
X148850077Y-100846192D01*
X148923992Y-100869285D01*
X149007382Y-100870813D01*
X149007799Y-100870821D01*
X149075542Y-100892068D01*
X149121044Y-100946567D01*
X149129990Y-101016185D01*
X149128414Y-101026304D01*
X149123645Y-101056935D01*
X149121535Y-101070484D01*
X149122699Y-101079385D01*
X149122699Y-101079389D01*
X149134610Y-101170469D01*
X149139013Y-101204136D01*
X149142625Y-101212346D01*
X149142626Y-101212348D01*
X149157982Y-101247248D01*
X149193299Y-101327512D01*
X149280030Y-101430691D01*
X149287508Y-101435668D01*
X149287507Y-101435668D01*
X149384762Y-101500407D01*
X149384764Y-101500408D01*
X149392235Y-101505381D01*
X149400799Y-101508057D01*
X149400802Y-101508058D01*
X149457748Y-101525849D01*
X149516804Y-101565255D01*
X149545181Y-101630334D01*
X149544673Y-101665501D01*
X149529019Y-101766039D01*
X149524635Y-101794192D01*
X149525799Y-101803093D01*
X149525799Y-101803097D01*
X149537705Y-101894138D01*
X149542113Y-101927844D01*
X149545725Y-101936054D01*
X149545726Y-101936056D01*
X149551926Y-101950147D01*
X149596399Y-102051220D01*
X149614281Y-102072493D01*
X149674190Y-102143763D01*
X149683130Y-102154399D01*
X149690608Y-102159376D01*
X149690607Y-102159376D01*
X149787862Y-102224115D01*
X149787864Y-102224116D01*
X149795335Y-102229089D01*
X149803899Y-102231765D01*
X149803902Y-102231766D01*
X149839886Y-102243008D01*
X149923992Y-102269285D01*
X150058760Y-102271755D01*
X150134082Y-102251220D01*
X150180145Y-102238662D01*
X150180147Y-102238661D01*
X150188804Y-102236301D01*
X150303670Y-102165773D01*
X150394124Y-102065840D01*
X150408642Y-102035875D01*
X167022189Y-102035875D01*
X167061439Y-102230533D01*
X167073136Y-102258090D01*
X167136241Y-102406754D01*
X167139029Y-102413323D01*
X167251789Y-102576778D01*
X167395113Y-102714221D01*
X167563146Y-102820037D01*
X167569120Y-102822282D01*
X167569121Y-102822283D01*
X167678972Y-102863573D01*
X167749025Y-102889904D01*
X167755323Y-102890902D01*
X167755325Y-102890902D01*
X167830927Y-102902876D01*
X167945155Y-102920968D01*
X168143527Y-102911960D01*
X168179427Y-102902876D01*
X168329847Y-102864814D01*
X168329849Y-102864813D01*
X168336035Y-102863248D01*
X168374416Y-102844694D01*
X168509068Y-102779601D01*
X168509070Y-102779600D01*
X168514816Y-102776822D01*
X168519885Y-102772946D01*
X168519889Y-102772944D01*
X168626078Y-102691756D01*
X168672568Y-102656212D01*
X168756969Y-102559119D01*
X168798657Y-102511163D01*
X168798658Y-102511162D01*
X168802845Y-102506345D01*
X168900326Y-102333343D01*
X168961030Y-102144273D01*
X168970076Y-102061006D01*
X168972806Y-102035875D01*
X169562189Y-102035875D01*
X169601439Y-102230533D01*
X169613136Y-102258090D01*
X169676241Y-102406754D01*
X169679029Y-102413323D01*
X169791789Y-102576778D01*
X169935113Y-102714221D01*
X170103146Y-102820037D01*
X170109120Y-102822282D01*
X170109121Y-102822283D01*
X170218972Y-102863573D01*
X170289025Y-102889904D01*
X170295323Y-102890902D01*
X170295325Y-102890902D01*
X170370927Y-102902876D01*
X170485155Y-102920968D01*
X170683527Y-102911960D01*
X170719427Y-102902876D01*
X170869847Y-102864814D01*
X170869849Y-102864813D01*
X170876035Y-102863248D01*
X170914416Y-102844694D01*
X171049068Y-102779601D01*
X171049070Y-102779600D01*
X171054816Y-102776822D01*
X171059885Y-102772946D01*
X171059889Y-102772944D01*
X171166078Y-102691756D01*
X171212568Y-102656212D01*
X171296969Y-102559119D01*
X171338657Y-102511163D01*
X171338658Y-102511162D01*
X171342845Y-102506345D01*
X171440326Y-102333343D01*
X171501030Y-102144273D01*
X171510076Y-102061006D01*
X171522119Y-101950147D01*
X171522119Y-101950143D01*
X171522476Y-101946859D01*
X171522500Y-101940000D01*
X171521388Y-101929053D01*
X171503078Y-101748787D01*
X171503077Y-101748783D01*
X171502433Y-101742441D01*
X171457799Y-101600014D01*
X171444959Y-101559043D01*
X171444958Y-101559042D01*
X171443050Y-101552952D01*
X171430199Y-101529767D01*
X171349872Y-101384854D01*
X171346779Y-101379274D01*
X171217551Y-101228501D01*
X171122019Y-101154399D01*
X171065690Y-101110705D01*
X171065687Y-101110703D01*
X171060646Y-101106793D01*
X171054920Y-101103975D01*
X171054916Y-101103973D01*
X170888204Y-101021940D01*
X170888200Y-101021938D01*
X170882472Y-101019120D01*
X170690309Y-100969066D01*
X170602609Y-100964470D01*
X170498387Y-100959007D01*
X170498382Y-100959007D01*
X170492005Y-100958673D01*
X170345928Y-100980765D01*
X170301976Y-100987412D01*
X170301975Y-100987412D01*
X170295662Y-100988367D01*
X170289676Y-100990570D01*
X170289670Y-100990571D01*
X170214263Y-101018316D01*
X170109300Y-101056935D01*
X170103884Y-101060293D01*
X170103880Y-101060295D01*
X169945955Y-101158212D01*
X169945951Y-101158215D01*
X169940532Y-101161575D01*
X169900591Y-101199345D01*
X169824195Y-101271590D01*
X169796252Y-101298014D01*
X169792590Y-101303244D01*
X169792589Y-101303245D01*
X169689367Y-101450662D01*
X169682354Y-101460678D01*
X169639788Y-101559043D01*
X169621984Y-101600186D01*
X169603490Y-101642922D01*
X169599712Y-101661006D01*
X169569264Y-101806754D01*
X169562882Y-101837301D01*
X169562749Y-101875458D01*
X169562265Y-102014187D01*
X169562189Y-102035875D01*
X168972806Y-102035875D01*
X168982119Y-101950147D01*
X168982119Y-101950143D01*
X168982476Y-101946859D01*
X168982500Y-101940000D01*
X168981388Y-101929053D01*
X168963078Y-101748787D01*
X168963077Y-101748783D01*
X168962433Y-101742441D01*
X168917799Y-101600014D01*
X168904959Y-101559043D01*
X168904958Y-101559042D01*
X168903050Y-101552952D01*
X168890199Y-101529767D01*
X168809872Y-101384854D01*
X168806779Y-101379274D01*
X168677551Y-101228501D01*
X168582019Y-101154399D01*
X168525690Y-101110705D01*
X168525687Y-101110703D01*
X168520646Y-101106793D01*
X168514920Y-101103975D01*
X168514916Y-101103973D01*
X168348204Y-101021940D01*
X168348200Y-101021938D01*
X168342472Y-101019120D01*
X168150309Y-100969066D01*
X168062609Y-100964470D01*
X167958387Y-100959007D01*
X167958382Y-100959007D01*
X167952005Y-100958673D01*
X167805928Y-100980765D01*
X167761976Y-100987412D01*
X167761975Y-100987412D01*
X167755662Y-100988367D01*
X167749676Y-100990570D01*
X167749670Y-100990571D01*
X167674263Y-101018316D01*
X167569300Y-101056935D01*
X167563884Y-101060293D01*
X167563880Y-101060295D01*
X167405955Y-101158212D01*
X167405951Y-101158215D01*
X167400532Y-101161575D01*
X167360591Y-101199345D01*
X167284195Y-101271590D01*
X167256252Y-101298014D01*
X167252590Y-101303244D01*
X167252589Y-101303245D01*
X167149367Y-101450662D01*
X167142354Y-101460678D01*
X167099788Y-101559043D01*
X167081984Y-101600186D01*
X167063490Y-101642922D01*
X167059712Y-101661006D01*
X167029264Y-101806754D01*
X167022882Y-101837301D01*
X167022749Y-101875458D01*
X167022265Y-102014187D01*
X167022189Y-102035875D01*
X150408642Y-102035875D01*
X150452895Y-101944537D01*
X150475258Y-101811615D01*
X150475400Y-101800000D01*
X150456291Y-101666571D01*
X150452150Y-101657462D01*
X150437322Y-101624850D01*
X150400502Y-101543868D01*
X150394644Y-101537069D01*
X150394641Y-101537065D01*
X150318376Y-101448556D01*
X150318373Y-101448554D01*
X150312516Y-101441756D01*
X150199408Y-101368443D01*
X150139931Y-101350656D01*
X150080398Y-101311975D01*
X150051228Y-101247248D01*
X150051779Y-101209034D01*
X150053410Y-101199345D01*
X150072158Y-101087907D01*
X150072300Y-101076292D01*
X150060861Y-100996421D01*
X150054464Y-100951750D01*
X150054464Y-100951748D01*
X150053191Y-100942863D01*
X149997402Y-100820160D01*
X149991544Y-100813361D01*
X149991541Y-100813357D01*
X149915276Y-100724848D01*
X149915273Y-100724846D01*
X149909416Y-100718048D01*
X149796308Y-100644735D01*
X149787706Y-100642163D01*
X149787703Y-100642161D01*
X149725881Y-100623673D01*
X149667169Y-100606114D01*
X149658193Y-100606059D01*
X149658192Y-100606059D01*
X149590812Y-100605647D01*
X149522815Y-100585228D01*
X149476651Y-100531289D01*
X149467329Y-100458744D01*
X149470825Y-100437965D01*
X149475258Y-100411615D01*
X149475400Y-100400000D01*
X149458220Y-100280037D01*
X149457564Y-100275458D01*
X149457564Y-100275456D01*
X149456291Y-100266571D01*
X149449492Y-100251616D01*
X149437594Y-100225449D01*
X149400502Y-100143868D01*
X149394644Y-100137069D01*
X149394641Y-100137065D01*
X149318376Y-100048556D01*
X149318373Y-100048554D01*
X149312516Y-100041756D01*
X149199408Y-99968443D01*
X149190806Y-99965871D01*
X149190803Y-99965869D01*
X149128981Y-99947381D01*
X149070269Y-99929822D01*
X149061293Y-99929767D01*
X149061292Y-99929767D01*
X149005686Y-99929427D01*
X148935481Y-99928998D01*
X148805880Y-99966039D01*
X148798293Y-99970826D01*
X148798291Y-99970827D01*
X148794326Y-99973329D01*
X148691884Y-100037965D01*
X148602657Y-100138995D01*
X148598843Y-100147118D01*
X148598842Y-100147120D01*
X148562067Y-100225449D01*
X148515011Y-100278611D01*
X148446683Y-100297893D01*
X148379482Y-100277633D01*
X148339343Y-100251616D01*
X148330741Y-100249044D01*
X148330738Y-100249042D01*
X148251847Y-100225449D01*
X148210204Y-100212995D01*
X148201228Y-100212940D01*
X148201227Y-100212940D01*
X148145621Y-100212600D01*
X148075416Y-100212171D01*
X147945815Y-100249212D01*
X147938228Y-100253999D01*
X147938226Y-100254000D01*
X147877830Y-100292107D01*
X147831819Y-100321138D01*
X147742592Y-100422168D01*
X147738778Y-100430291D01*
X147738777Y-100430293D01*
X147714087Y-100482881D01*
X147685308Y-100544179D01*
X147683928Y-100553044D01*
X147683927Y-100553046D01*
X147666251Y-100666571D01*
X147664570Y-100677365D01*
X147665734Y-100686266D01*
X147665734Y-100686270D01*
X147680607Y-100800000D01*
X147682048Y-100811017D01*
X147685661Y-100819228D01*
X147685662Y-100819232D01*
X147697525Y-100846192D01*
X147706653Y-100916600D01*
X147676266Y-100980765D01*
X147616013Y-101018316D01*
X147546094Y-101017656D01*
X147531375Y-101013254D01*
X147437900Y-100985299D01*
X147428924Y-100985244D01*
X147428923Y-100985244D01*
X147373317Y-100984904D01*
X147303112Y-100984475D01*
X147173511Y-101021516D01*
X147165924Y-101026303D01*
X147165922Y-101026304D01*
X147146163Y-101038771D01*
X147059515Y-101093442D01*
X146970288Y-101194472D01*
X146966474Y-101202595D01*
X146966473Y-101202597D01*
X146952036Y-101233348D01*
X146913004Y-101316483D01*
X146911624Y-101325348D01*
X146911623Y-101325350D01*
X146896292Y-101423815D01*
X146892266Y-101449669D01*
X146893430Y-101458570D01*
X146893430Y-101458574D01*
X146907484Y-101566039D01*
X146909744Y-101583321D01*
X146913357Y-101591532D01*
X146915773Y-101600186D01*
X146913182Y-101600909D01*
X146920514Y-101657462D01*
X146890127Y-101721627D01*
X146830685Y-101758950D01*
X146805880Y-101766039D01*
X146798293Y-101770826D01*
X146798291Y-101770827D01*
X146737895Y-101808934D01*
X146691884Y-101837965D01*
X146602657Y-101938995D01*
X146598843Y-101947118D01*
X146598842Y-101947120D01*
X146589960Y-101966039D01*
X146545373Y-102061006D01*
X146543993Y-102069871D01*
X146543992Y-102069873D01*
X146526354Y-102183153D01*
X146524635Y-102194192D01*
X139628837Y-102194192D01*
X139652895Y-102144537D01*
X139675258Y-102011615D01*
X139675400Y-102000000D01*
X139659901Y-101891778D01*
X139657564Y-101875458D01*
X139657564Y-101875456D01*
X139656291Y-101866571D01*
X139600502Y-101743868D01*
X139594644Y-101737069D01*
X139594641Y-101737065D01*
X139518376Y-101648556D01*
X139518373Y-101648554D01*
X139512516Y-101641756D01*
X139399408Y-101568443D01*
X139390806Y-101565871D01*
X139390803Y-101565869D01*
X139317235Y-101543868D01*
X139270269Y-101529822D01*
X139261293Y-101529767D01*
X139261292Y-101529767D01*
X139205686Y-101529427D01*
X139135481Y-101528998D01*
X139005880Y-101566039D01*
X138998293Y-101570826D01*
X138998291Y-101570827D01*
X138966062Y-101591162D01*
X138891884Y-101637965D01*
X138802657Y-101738995D01*
X138798843Y-101747118D01*
X138798842Y-101747120D01*
X138793288Y-101758950D01*
X138745373Y-101861006D01*
X138743993Y-101869871D01*
X138743992Y-101869873D01*
X138727884Y-101973329D01*
X138724635Y-101994192D01*
X128439134Y-101994192D01*
X128399408Y-101968443D01*
X128390806Y-101965871D01*
X128390803Y-101965869D01*
X128317235Y-101943868D01*
X128270269Y-101929822D01*
X128261293Y-101929767D01*
X128261292Y-101929767D01*
X128205686Y-101929427D01*
X128135481Y-101928998D01*
X128005880Y-101966039D01*
X127998293Y-101970826D01*
X127998291Y-101970827D01*
X127937895Y-102008934D01*
X127891884Y-102037965D01*
X127802657Y-102138995D01*
X127802268Y-102139824D01*
X127751240Y-102183153D01*
X127680868Y-102192553D01*
X127616586Y-102162414D01*
X127600624Y-102143763D01*
X127600502Y-102143868D01*
X127518376Y-102048556D01*
X127518373Y-102048554D01*
X127512516Y-102041756D01*
X127399408Y-101968443D01*
X127390806Y-101965871D01*
X127390803Y-101965869D01*
X127317235Y-101943868D01*
X127270269Y-101929822D01*
X127261293Y-101929767D01*
X127261292Y-101929767D01*
X127205686Y-101929427D01*
X127135481Y-101928998D01*
X127005880Y-101966039D01*
X126998293Y-101970826D01*
X126998291Y-101970827D01*
X126937895Y-102008934D01*
X126891884Y-102037965D01*
X126802657Y-102138995D01*
X126802268Y-102139824D01*
X126751240Y-102183153D01*
X126680868Y-102192553D01*
X126616586Y-102162414D01*
X126600624Y-102143763D01*
X126600502Y-102143868D01*
X126518376Y-102048556D01*
X126518373Y-102048554D01*
X126512516Y-102041756D01*
X126399408Y-101968443D01*
X126390806Y-101965871D01*
X126390803Y-101965869D01*
X126317235Y-101943868D01*
X126270269Y-101929822D01*
X126261293Y-101929767D01*
X126261292Y-101929767D01*
X126205686Y-101929427D01*
X126135481Y-101928998D01*
X126005880Y-101966039D01*
X125998293Y-101970826D01*
X125998291Y-101970827D01*
X125937895Y-102008934D01*
X125891884Y-102037965D01*
X125802657Y-102138995D01*
X125802268Y-102139824D01*
X125751240Y-102183153D01*
X125680868Y-102192553D01*
X125616586Y-102162414D01*
X125600624Y-102143763D01*
X125600502Y-102143868D01*
X125518376Y-102048556D01*
X125518373Y-102048554D01*
X125512516Y-102041756D01*
X125399408Y-101968443D01*
X125390806Y-101965871D01*
X125390803Y-101965869D01*
X125317235Y-101943868D01*
X125270269Y-101929822D01*
X125261293Y-101929767D01*
X125261292Y-101929767D01*
X125205686Y-101929427D01*
X125135481Y-101928998D01*
X125005880Y-101966039D01*
X124998293Y-101970826D01*
X124998291Y-101970827D01*
X124937895Y-102008934D01*
X124891884Y-102037965D01*
X124802657Y-102138995D01*
X124802268Y-102139824D01*
X124751240Y-102183153D01*
X124680868Y-102192553D01*
X124616586Y-102162414D01*
X124600624Y-102143763D01*
X124600502Y-102143868D01*
X124518376Y-102048556D01*
X124518373Y-102048554D01*
X124512516Y-102041756D01*
X124399408Y-101968443D01*
X124390806Y-101965871D01*
X124390803Y-101965869D01*
X124317235Y-101943868D01*
X124270269Y-101929822D01*
X124261293Y-101929767D01*
X124261292Y-101929767D01*
X124205686Y-101929427D01*
X124135481Y-101928998D01*
X124005880Y-101966039D01*
X123998293Y-101970826D01*
X123998291Y-101970827D01*
X123937895Y-102008934D01*
X123891884Y-102037965D01*
X123802657Y-102138995D01*
X123798843Y-102147118D01*
X123798842Y-102147120D01*
X123777512Y-102192553D01*
X123745373Y-102261006D01*
X123743993Y-102269871D01*
X123743992Y-102269873D01*
X123728329Y-102370469D01*
X123724635Y-102394192D01*
X111000000Y-102394192D01*
X111000000Y-100926000D01*
X111020002Y-100857879D01*
X111073658Y-100811386D01*
X111126000Y-100800000D01*
X128600000Y-100800000D01*
X128605808Y-100794192D01*
X142124635Y-100794192D01*
X142125799Y-100803093D01*
X142125799Y-100803097D01*
X142140949Y-100918945D01*
X142142113Y-100927844D01*
X142145725Y-100936054D01*
X142145726Y-100936056D01*
X142159940Y-100968359D01*
X142196399Y-101051220D01*
X142283130Y-101154399D01*
X142290608Y-101159376D01*
X142290607Y-101159376D01*
X142387862Y-101224115D01*
X142387864Y-101224116D01*
X142395335Y-101229089D01*
X142403899Y-101231765D01*
X142403902Y-101231766D01*
X142453457Y-101247248D01*
X142523992Y-101269285D01*
X142658760Y-101271755D01*
X142748651Y-101247248D01*
X142780145Y-101238662D01*
X142780147Y-101238661D01*
X142788804Y-101236301D01*
X142903670Y-101165773D01*
X142994124Y-101065840D01*
X142996637Y-101060654D01*
X143050066Y-101016394D01*
X143120547Y-101007852D01*
X143184457Y-101038771D01*
X143195494Y-101051981D01*
X143196399Y-101051220D01*
X143255038Y-101120979D01*
X143283130Y-101154399D01*
X143290608Y-101159376D01*
X143290607Y-101159376D01*
X143387862Y-101224115D01*
X143387864Y-101224116D01*
X143395335Y-101229089D01*
X143403899Y-101231765D01*
X143403902Y-101231766D01*
X143453457Y-101247248D01*
X143523992Y-101269285D01*
X143658760Y-101271755D01*
X143748651Y-101247248D01*
X143780145Y-101238662D01*
X143780147Y-101238661D01*
X143788804Y-101236301D01*
X143903670Y-101165773D01*
X143994124Y-101065840D01*
X143996637Y-101060654D01*
X144050066Y-101016394D01*
X144120547Y-101007852D01*
X144184457Y-101038771D01*
X144195494Y-101051981D01*
X144196399Y-101051220D01*
X144255038Y-101120979D01*
X144283130Y-101154399D01*
X144290608Y-101159376D01*
X144290607Y-101159376D01*
X144387862Y-101224115D01*
X144387864Y-101224116D01*
X144395335Y-101229089D01*
X144403899Y-101231765D01*
X144403902Y-101231766D01*
X144453457Y-101247248D01*
X144523992Y-101269285D01*
X144658760Y-101271755D01*
X144748651Y-101247248D01*
X144780145Y-101238662D01*
X144780147Y-101238661D01*
X144788804Y-101236301D01*
X144903670Y-101165773D01*
X144994124Y-101065840D01*
X144996637Y-101060654D01*
X145050066Y-101016394D01*
X145120547Y-101007852D01*
X145184457Y-101038771D01*
X145195494Y-101051981D01*
X145196399Y-101051220D01*
X145255038Y-101120979D01*
X145283130Y-101154399D01*
X145290608Y-101159376D01*
X145290607Y-101159376D01*
X145387862Y-101224115D01*
X145387864Y-101224116D01*
X145395335Y-101229089D01*
X145403899Y-101231765D01*
X145403902Y-101231766D01*
X145453457Y-101247248D01*
X145523992Y-101269285D01*
X145658760Y-101271755D01*
X145748651Y-101247248D01*
X145780145Y-101238662D01*
X145780147Y-101238661D01*
X145788804Y-101236301D01*
X145903670Y-101165773D01*
X145994124Y-101065840D01*
X146052895Y-100944537D01*
X146075258Y-100811615D01*
X146075400Y-100800000D01*
X146056291Y-100666571D01*
X146000502Y-100543868D01*
X145994644Y-100537069D01*
X145994641Y-100537065D01*
X145918376Y-100448556D01*
X145918373Y-100448554D01*
X145912516Y-100441756D01*
X145799408Y-100368443D01*
X145790806Y-100365871D01*
X145790803Y-100365869D01*
X145728981Y-100347381D01*
X145670269Y-100329822D01*
X145661293Y-100329767D01*
X145661292Y-100329767D01*
X145605686Y-100329427D01*
X145535481Y-100328998D01*
X145405880Y-100366039D01*
X145398293Y-100370826D01*
X145398291Y-100370827D01*
X145337895Y-100408934D01*
X145291884Y-100437965D01*
X145242100Y-100494335D01*
X145214068Y-100526075D01*
X145202657Y-100538995D01*
X145202268Y-100539824D01*
X145151240Y-100583153D01*
X145080868Y-100592553D01*
X145016586Y-100562414D01*
X145000624Y-100543763D01*
X145000502Y-100543868D01*
X144918376Y-100448556D01*
X144918373Y-100448554D01*
X144912516Y-100441756D01*
X144799408Y-100368443D01*
X144790806Y-100365871D01*
X144790803Y-100365869D01*
X144728981Y-100347381D01*
X144670269Y-100329822D01*
X144661293Y-100329767D01*
X144661292Y-100329767D01*
X144605686Y-100329427D01*
X144535481Y-100328998D01*
X144405880Y-100366039D01*
X144398293Y-100370826D01*
X144398291Y-100370827D01*
X144337895Y-100408934D01*
X144291884Y-100437965D01*
X144242100Y-100494335D01*
X144214068Y-100526075D01*
X144202657Y-100538995D01*
X144202268Y-100539824D01*
X144151240Y-100583153D01*
X144080868Y-100592553D01*
X144016586Y-100562414D01*
X144000624Y-100543763D01*
X144000502Y-100543868D01*
X143918376Y-100448556D01*
X143918373Y-100448554D01*
X143912516Y-100441756D01*
X143799408Y-100368443D01*
X143790806Y-100365871D01*
X143790803Y-100365869D01*
X143728981Y-100347381D01*
X143670269Y-100329822D01*
X143661293Y-100329767D01*
X143661292Y-100329767D01*
X143605686Y-100329427D01*
X143535481Y-100328998D01*
X143405880Y-100366039D01*
X143398293Y-100370826D01*
X143398291Y-100370827D01*
X143337895Y-100408934D01*
X143291884Y-100437965D01*
X143242100Y-100494335D01*
X143214068Y-100526075D01*
X143202657Y-100538995D01*
X143202268Y-100539824D01*
X143151240Y-100583153D01*
X143080868Y-100592553D01*
X143016586Y-100562414D01*
X143000624Y-100543763D01*
X143000502Y-100543868D01*
X142918376Y-100448556D01*
X142918373Y-100448554D01*
X142912516Y-100441756D01*
X142799408Y-100368443D01*
X142790806Y-100365871D01*
X142790803Y-100365869D01*
X142728981Y-100347381D01*
X142670269Y-100329822D01*
X142661293Y-100329767D01*
X142661292Y-100329767D01*
X142605686Y-100329427D01*
X142535481Y-100328998D01*
X142405880Y-100366039D01*
X142398293Y-100370826D01*
X142398291Y-100370827D01*
X142337895Y-100408934D01*
X142291884Y-100437965D01*
X142202657Y-100538995D01*
X142198843Y-100547118D01*
X142198842Y-100547120D01*
X142197187Y-100550646D01*
X142145373Y-100661006D01*
X142143993Y-100669871D01*
X142143992Y-100669873D01*
X142134080Y-100733536D01*
X142124635Y-100794192D01*
X128605808Y-100794192D01*
X131205808Y-98194192D01*
X155791235Y-98194192D01*
X155792399Y-98203093D01*
X155792399Y-98203097D01*
X155804795Y-98297883D01*
X155808713Y-98327844D01*
X155812325Y-98336054D01*
X155812326Y-98336056D01*
X155819613Y-98352617D01*
X155862999Y-98451220D01*
X155949730Y-98554399D01*
X155957208Y-98559376D01*
X155957207Y-98559376D01*
X156054462Y-98624115D01*
X156054464Y-98624116D01*
X156061935Y-98629089D01*
X156070499Y-98631765D01*
X156070502Y-98631766D01*
X156126264Y-98649187D01*
X156190592Y-98669285D01*
X156325360Y-98671755D01*
X156381241Y-98656520D01*
X156446745Y-98638662D01*
X156446747Y-98638661D01*
X156455404Y-98636301D01*
X156570270Y-98565773D01*
X156660724Y-98465840D01*
X156719495Y-98344537D01*
X156741858Y-98211615D01*
X156742000Y-98200000D01*
X156722891Y-98066571D01*
X156716197Y-98051847D01*
X156670818Y-97952042D01*
X156667102Y-97943868D01*
X156661244Y-97937069D01*
X156661241Y-97937065D01*
X156584976Y-97848556D01*
X156584973Y-97848554D01*
X156579116Y-97841756D01*
X156466008Y-97768443D01*
X156457406Y-97765871D01*
X156457403Y-97765869D01*
X156395581Y-97747381D01*
X156336869Y-97729822D01*
X156327893Y-97729767D01*
X156327892Y-97729767D01*
X156272286Y-97729427D01*
X156202081Y-97728998D01*
X156072480Y-97766039D01*
X156064893Y-97770826D01*
X156064891Y-97770827D01*
X156035311Y-97789491D01*
X155958484Y-97837965D01*
X155869257Y-97938995D01*
X155811973Y-98061006D01*
X155810593Y-98069871D01*
X155810592Y-98069873D01*
X155794727Y-98171767D01*
X155791235Y-98194192D01*
X131205808Y-98194192D01*
X132272452Y-97127548D01*
X166637000Y-97127548D01*
X166637000Y-97707743D01*
X166637161Y-97712250D01*
X166641740Y-97776269D01*
X166644126Y-97789491D01*
X166680819Y-97914458D01*
X166688233Y-97930692D01*
X166757426Y-98038360D01*
X166769112Y-98051847D01*
X166865840Y-98135662D01*
X166880848Y-98145307D01*
X166997275Y-98198477D01*
X167014388Y-98203502D01*
X167145554Y-98222361D01*
X167154495Y-98223000D01*
X167660832Y-98223000D01*
X167728953Y-98243002D01*
X167775446Y-98296658D01*
X167785550Y-98366932D01*
X167756056Y-98431512D01*
X167704340Y-98467250D01*
X167569300Y-98516935D01*
X167563884Y-98520293D01*
X167563880Y-98520295D01*
X167405955Y-98618212D01*
X167405951Y-98618215D01*
X167400532Y-98621575D01*
X167256252Y-98758014D01*
X167252590Y-98763244D01*
X167252589Y-98763245D01*
X167199353Y-98839274D01*
X167142354Y-98920678D01*
X167099788Y-99019043D01*
X167067437Y-99093802D01*
X167063490Y-99102922D01*
X167062185Y-99109169D01*
X167041374Y-99208787D01*
X167022882Y-99297301D01*
X167022189Y-99495875D01*
X167061439Y-99690533D01*
X167063933Y-99696408D01*
X167116817Y-99820994D01*
X167139029Y-99873323D01*
X167251789Y-100036778D01*
X167395113Y-100174221D01*
X167563146Y-100280037D01*
X167569120Y-100282282D01*
X167569121Y-100282283D01*
X167682274Y-100324814D01*
X167749025Y-100349904D01*
X167755323Y-100350902D01*
X167755325Y-100350902D01*
X167835742Y-100363639D01*
X167945155Y-100380968D01*
X168143527Y-100371960D01*
X168166927Y-100366039D01*
X168329847Y-100324814D01*
X168329849Y-100324813D01*
X168336035Y-100323248D01*
X168341782Y-100320470D01*
X168509068Y-100239601D01*
X168509070Y-100239600D01*
X168514816Y-100236822D01*
X168519885Y-100232946D01*
X168519889Y-100232944D01*
X168667494Y-100120091D01*
X168672568Y-100116212D01*
X168802845Y-99966345D01*
X168900326Y-99793343D01*
X168961030Y-99604273D01*
X168975304Y-99472881D01*
X168982119Y-99410147D01*
X168982119Y-99410143D01*
X168982476Y-99406859D01*
X168982500Y-99400000D01*
X168972717Y-99303689D01*
X168963078Y-99208787D01*
X168963077Y-99208783D01*
X168962433Y-99202441D01*
X168903050Y-99012952D01*
X168897062Y-99002148D01*
X168809872Y-98844854D01*
X168806779Y-98839274D01*
X168677551Y-98688501D01*
X168558657Y-98596277D01*
X168525690Y-98570705D01*
X168525687Y-98570703D01*
X168520646Y-98566793D01*
X168514920Y-98563975D01*
X168514916Y-98563973D01*
X168348204Y-98481940D01*
X168348200Y-98481938D01*
X168342472Y-98479120D01*
X168311030Y-98470930D01*
X168250154Y-98434405D01*
X168218687Y-98370762D01*
X168226622Y-98300211D01*
X168271442Y-98245149D01*
X168342793Y-98223000D01*
X168847743Y-98223000D01*
X168852250Y-98222839D01*
X168916269Y-98218260D01*
X168929491Y-98215874D01*
X169054458Y-98179181D01*
X169070692Y-98171767D01*
X169178360Y-98102574D01*
X169191847Y-98090888D01*
X169275662Y-97994160D01*
X169285307Y-97979152D01*
X169338479Y-97862720D01*
X169341794Y-97851432D01*
X169380178Y-97791706D01*
X169444760Y-97762214D01*
X169515033Y-97772319D01*
X169547081Y-97793370D01*
X169711960Y-97942089D01*
X169720444Y-97948528D01*
X169906122Y-98066136D01*
X169915567Y-98071053D01*
X170118406Y-98155694D01*
X170128545Y-98158950D01*
X170308863Y-98200414D01*
X170370769Y-98235173D01*
X170404055Y-98297883D01*
X170398153Y-98368634D01*
X170354937Y-98424963D01*
X170307780Y-98444368D01*
X170308154Y-98445826D01*
X170301975Y-98447412D01*
X170295662Y-98448367D01*
X170289676Y-98450570D01*
X170289670Y-98450571D01*
X170212078Y-98479120D01*
X170109300Y-98516935D01*
X170103884Y-98520293D01*
X170103880Y-98520295D01*
X169945955Y-98618212D01*
X169945951Y-98618215D01*
X169940532Y-98621575D01*
X169796252Y-98758014D01*
X169792590Y-98763244D01*
X169792589Y-98763245D01*
X169739353Y-98839274D01*
X169682354Y-98920678D01*
X169639788Y-99019043D01*
X169607437Y-99093802D01*
X169603490Y-99102922D01*
X169602185Y-99109169D01*
X169581374Y-99208787D01*
X169562882Y-99297301D01*
X169562189Y-99495875D01*
X169601439Y-99690533D01*
X169603933Y-99696408D01*
X169656817Y-99820994D01*
X169679029Y-99873323D01*
X169791789Y-100036778D01*
X169935113Y-100174221D01*
X170103146Y-100280037D01*
X170109120Y-100282282D01*
X170109121Y-100282283D01*
X170222274Y-100324814D01*
X170289025Y-100349904D01*
X170295323Y-100350902D01*
X170295325Y-100350902D01*
X170375742Y-100363639D01*
X170485155Y-100380968D01*
X170683527Y-100371960D01*
X170706927Y-100366039D01*
X170869847Y-100324814D01*
X170869849Y-100324813D01*
X170876035Y-100323248D01*
X170881782Y-100320470D01*
X171049068Y-100239601D01*
X171049070Y-100239600D01*
X171054816Y-100236822D01*
X171059885Y-100232946D01*
X171059889Y-100232944D01*
X171207494Y-100120091D01*
X171212568Y-100116212D01*
X171342845Y-99966345D01*
X171440326Y-99793343D01*
X171501030Y-99604273D01*
X171515304Y-99472881D01*
X171522119Y-99410147D01*
X171522119Y-99410143D01*
X171522476Y-99406859D01*
X171522500Y-99400000D01*
X171512717Y-99303689D01*
X171503078Y-99208787D01*
X171503077Y-99208783D01*
X171502433Y-99202441D01*
X171443050Y-99012952D01*
X171437062Y-99002148D01*
X171349872Y-98844854D01*
X171346779Y-98839274D01*
X171217551Y-98688501D01*
X171098657Y-98596277D01*
X171065690Y-98570705D01*
X171065687Y-98570703D01*
X171060646Y-98566793D01*
X171054920Y-98563975D01*
X171054916Y-98563973D01*
X170888204Y-98481940D01*
X170888200Y-98481938D01*
X170882472Y-98479120D01*
X170759528Y-98447096D01*
X170698648Y-98410569D01*
X170667182Y-98346927D01*
X170675118Y-98276375D01*
X170719937Y-98221314D01*
X170777133Y-98199963D01*
X170801776Y-98197177D01*
X170812194Y-98195096D01*
X171023333Y-98133954D01*
X171033259Y-98130143D01*
X171231065Y-98034307D01*
X171240212Y-98028876D01*
X171419041Y-97901083D01*
X171427149Y-97894182D01*
X171581893Y-97738082D01*
X171588706Y-97729933D01*
X171714940Y-97549988D01*
X171720295Y-97540787D01*
X171814399Y-97342156D01*
X171818123Y-97332197D01*
X171875968Y-97125718D01*
X171874430Y-97117351D01*
X171862137Y-97114000D01*
X166655115Y-97114000D01*
X166639876Y-97118475D01*
X166638671Y-97119865D01*
X166637000Y-97127548D01*
X132272452Y-97127548D01*
X133605808Y-95794192D01*
X155324635Y-95794192D01*
X155325799Y-95803093D01*
X155325799Y-95803097D01*
X155339291Y-95906264D01*
X155342113Y-95927844D01*
X155396399Y-96051220D01*
X155483130Y-96154399D01*
X155490608Y-96159376D01*
X155490607Y-96159376D01*
X155587862Y-96224115D01*
X155587864Y-96224116D01*
X155595335Y-96229089D01*
X155603899Y-96231765D01*
X155603902Y-96231766D01*
X155659664Y-96249187D01*
X155723992Y-96269285D01*
X155858760Y-96271755D01*
X155913356Y-96256870D01*
X155980145Y-96238662D01*
X155980147Y-96238661D01*
X155988804Y-96236301D01*
X156103670Y-96165773D01*
X156194124Y-96065840D01*
X156219001Y-96014495D01*
X166637000Y-96014495D01*
X166637000Y-96587885D01*
X166641475Y-96603124D01*
X166642865Y-96604329D01*
X166650548Y-96606000D01*
X167727885Y-96606000D01*
X167743124Y-96601525D01*
X167744329Y-96600135D01*
X167746000Y-96592452D01*
X167746000Y-95515115D01*
X167744659Y-95510548D01*
X168254000Y-95510548D01*
X168254000Y-96587885D01*
X168258475Y-96603124D01*
X168259865Y-96604329D01*
X168267548Y-96606000D01*
X170267885Y-96606000D01*
X170283124Y-96601525D01*
X170284329Y-96600135D01*
X170286000Y-96592452D01*
X170286000Y-95543717D01*
X170285328Y-95541430D01*
X170794000Y-95541430D01*
X170794000Y-96587885D01*
X170798475Y-96603124D01*
X170799865Y-96604329D01*
X170807548Y-96606000D01*
X171859079Y-96606000D01*
X171872610Y-96602027D01*
X171873876Y-96593218D01*
X171826954Y-96412433D01*
X171823419Y-96402395D01*
X171733147Y-96201998D01*
X171727967Y-96192692D01*
X171605218Y-96010366D01*
X171598557Y-96002080D01*
X171446830Y-95843030D01*
X171438873Y-95835990D01*
X171262523Y-95704782D01*
X171253486Y-95699178D01*
X171057550Y-95599559D01*
X171047699Y-95595559D01*
X170837778Y-95530378D01*
X170827396Y-95528095D01*
X170811959Y-95526049D01*
X170797792Y-95528246D01*
X170794000Y-95541430D01*
X170285328Y-95541430D01*
X170282027Y-95530186D01*
X170271420Y-95528661D01*
X170153554Y-95553391D01*
X170143358Y-95556451D01*
X169938932Y-95637182D01*
X169929396Y-95641916D01*
X169741486Y-95755942D01*
X169732896Y-95762206D01*
X169566884Y-95906264D01*
X169559467Y-95913891D01*
X169557130Y-95916742D01*
X169555840Y-95917622D01*
X169555749Y-95917715D01*
X169555730Y-95917697D01*
X169498471Y-95956738D01*
X169427501Y-95958671D01*
X169366752Y-95921928D01*
X169338798Y-95872352D01*
X169319180Y-95805540D01*
X169311767Y-95789308D01*
X169242574Y-95681640D01*
X169230888Y-95668153D01*
X169134160Y-95584338D01*
X169119152Y-95574693D01*
X169002725Y-95521523D01*
X168985612Y-95516498D01*
X168854446Y-95497639D01*
X168845505Y-95497000D01*
X168272115Y-95497000D01*
X168256876Y-95501475D01*
X168255671Y-95502865D01*
X168254000Y-95510548D01*
X167744659Y-95510548D01*
X167741525Y-95499876D01*
X167740135Y-95498671D01*
X167732452Y-95497000D01*
X167152257Y-95497000D01*
X167147750Y-95497161D01*
X167083731Y-95501740D01*
X167070509Y-95504126D01*
X166945542Y-95540819D01*
X166929308Y-95548233D01*
X166821640Y-95617426D01*
X166808153Y-95629112D01*
X166724338Y-95725840D01*
X166714693Y-95740848D01*
X166661523Y-95857275D01*
X166656498Y-95874388D01*
X166637639Y-96005554D01*
X166637000Y-96014495D01*
X156219001Y-96014495D01*
X156252895Y-95944537D01*
X156275258Y-95811615D01*
X156275400Y-95800000D01*
X156256291Y-95666571D01*
X156200502Y-95543868D01*
X156194644Y-95537069D01*
X156194641Y-95537065D01*
X156118376Y-95448556D01*
X156118373Y-95448554D01*
X156112516Y-95441756D01*
X155999408Y-95368443D01*
X155990806Y-95365871D01*
X155990803Y-95365869D01*
X155922609Y-95345475D01*
X155870269Y-95329822D01*
X155861293Y-95329767D01*
X155861292Y-95329767D01*
X155805686Y-95329427D01*
X155735481Y-95328998D01*
X155605880Y-95366039D01*
X155491884Y-95437965D01*
X155402657Y-95538995D01*
X155398843Y-95547118D01*
X155398842Y-95547120D01*
X155376100Y-95595559D01*
X155345373Y-95661006D01*
X155343993Y-95669871D01*
X155343992Y-95669873D01*
X155330549Y-95756212D01*
X155324635Y-95794192D01*
X133605808Y-95794192D01*
X135563095Y-93836905D01*
X135625407Y-93802879D01*
X135652190Y-93800000D01*
X141951297Y-93800000D01*
X142019418Y-93820002D01*
G37*
G04 #@! TD.AperFunction*
M02*
