M48
; DRILL file {KiCad (5.99.0-8454-g713af6630f)} date Sunday, June 13, 2021 at 03:31:44 PM
; FORMAT={-:-/ absolute / inch / decimal}
; #@! TF.CreationDate,2021-06-13T15:31:44-07:00
; #@! TF.GenerationSoftware,Kicad,Pcbnew,(5.99.0-8454-g713af6630f)
FMAT,2
INCH
T1C0.0130
T2C0.0157
T3C0.0236
T4C0.0350
T5C0.0394
T6C0.0630
T7C0.0669
T8C0.1063
T9C0.1260
%
G90
G05
T1
X3.8583Y-4.6693
X3.8753Y-3.691
X3.9606Y-4.7283
X3.9921Y-3.4409
X4.0906Y-3.3661
X4.1035Y-4.6972
X4.122Y-3.3661
X4.1339Y-3.6378
X4.1535Y-3.3661
X4.1654Y-3.6457
X4.1831Y-4.6654
X4.1831Y-4.726
X4.2992Y-4.6142
X4.2992Y-4.6614
X4.4173Y-4.4409
X4.4173Y-4.4882
X4.4705Y-4.6142
X4.4705Y-4.6575
X4.4724Y-4.1969
X4.4902Y-4.0669
X4.4902Y-4.1063
X4.498Y-4.2283
X4.5059Y-4.2618
X4.5118Y-4.3937
X4.5295Y-4.0669
X4.5295Y-4.1063
X4.5472Y-4.374
X4.5512Y-4.1575
X4.5512Y-4.2756
X4.5689Y-4.0669
X4.5689Y-4.1063
X4.6083Y-4.0669
X4.6083Y-4.1063
X4.6378Y-4.4016
X4.6476Y-4.0669
X4.6476Y-4.1063
X4.6682Y-4.5895
X4.687Y-4.0669
X4.687Y-4.1063
X4.7264Y-4.0669
X4.7264Y-4.1063
X4.7343Y-4.5827
X4.7657Y-4.0669
X4.7657Y-4.1063
X4.7953Y-4.5827
X4.8031Y-4.2598
X4.8031Y-4.2918
X4.8051Y-4.0669
X4.8051Y-4.1063
X4.811Y-4.3307
X4.8346Y-4.3701
X4.8445Y-4.0669
X4.8445Y-4.1063
X4.8814Y-4.4488
X4.8898Y-4.0315
X4.9134Y-4.4488
X4.9291Y-4.0315
X4.937Y-4.6142
X4.9685Y-4.0315
X4.9764Y-4.6142
X4.9891Y-4.3721
X5.0079Y-4.0315
X5.0157Y-4.3543
X5.0157Y-4.6142
X5.0177Y-4.4075
X5.0177Y-4.4469
X5.0472Y-4.0315
X5.0945Y-4.1417
X5.1496Y-4.1811
X5.1496Y-4.2165
X5.1496Y-4.252
X5.1496Y-4.2874
X5.1496Y-4.3228
X5.1654Y-4.0866
X5.2992Y-4.5039
X5.2992Y-4.5748
X5.378Y-4.1496
X5.4646Y-4.1732
X5.4803Y-3.9764
X5.4803Y-4.0157
X5.5039Y-4.0787
X5.5512Y-4.1496
X5.5906Y-4.063
X5.5906Y-4.1811
X5.5972Y-3.7198
X5.6024Y-4.5413
X5.6063Y-4.1181
X5.6142Y-3.9685
X5.6142Y-4.0008
X5.6234Y-4.3582
X5.6378Y-4.1654
X5.6402Y-3.7198
X5.6535Y-3.9685
X5.6535Y-4.0008
X5.6614Y-4.3701
X5.6929Y-3.9685
X5.6929Y-4.0008
X5.7244Y-3.7165
X5.7323Y-3.9685
X5.7323Y-4.0008
X5.7323Y-4.063
X5.748Y-3.4646
X5.7874Y-4.0236
X5.8019Y-3.9943
X5.8189Y-3.1732
X5.8189Y-4.1457
X5.8323Y-3.9639
X5.8504Y-3.6299
X5.8504Y-4.5669
X5.8661Y-3.9528
X5.8896Y-3.9794
X5.9055Y-4.0079
X5.9213Y-4.3675
X5.9219Y-4.4639
X5.9547Y-4.4705
X5.9783Y-4.565
X5.9843Y-4.2126
X5.9921Y-4.4803
X6.0551Y-4.1024
X6.0669Y-4.0571
X6.0866Y-4.6614
X6.0906Y-4.336
X6.0945Y-4.1024
X6.1063Y-4.2362
X6.1181Y-4.189
X6.1181Y-4.3163
X6.1247Y-4.2624
X6.1339Y-3.7323
X6.1339Y-3.7717
X6.1398Y-4.2165
X6.1497Y-4.2863
X6.1522Y-3.8661
X6.1654Y-3.1732
X6.1988Y-4.1988
X6.2283Y-3.6982
X6.2308Y-3.7426
X6.3465Y-3.1654
X6.4331Y-3.4409
X6.4803Y-3.5354
X6.5039Y-3.4094
X6.5197Y-3.7165
X6.5354Y-4.2441
X6.5354Y-4.2835
X6.5591Y-4.3701
X6.5591Y-4.4055
X6.5669Y-3.4882
X6.5709Y-4.3169
X6.5906Y-3.4567
X6.5906Y-4.4488
X6.5984Y-3.4882
X6.7323Y-3.4488
T2
X3.7777Y-3.4509
X3.7777Y-3.4844
X3.7777Y-3.5179
X3.7777Y-3.5513
X3.7777Y-3.5848
X3.7777Y-3.6183
X3.7777Y-3.6517
X3.7777Y-3.6852
X3.8309Y-3.4509
X3.8309Y-3.4844
X3.8309Y-3.5179
X3.8309Y-3.5513
X3.8309Y-3.5848
X3.8309Y-3.6183
X3.8309Y-3.6517
X3.8309Y-3.6852
T4
X3.7405Y-3.8938
X3.7405Y-4.4234
X3.8204Y-3.8938
X3.8204Y-4.4234
X4.1704Y-3.9836
X4.1704Y-4.0836
X4.1704Y-4.1836
X4.1704Y-4.2836
X4.1704Y-4.3836
X4.2704Y-3.9336
X4.2704Y-4.0336
X4.2704Y-4.2336
X4.2704Y-4.3336
T5
X4.5969Y-3.6417
X4.5969Y-3.7417
X4.6969Y-3.6417
X4.6969Y-3.7417
X4.7969Y-3.6417
X4.7969Y-3.7417
X4.8969Y-3.6417
X4.8969Y-3.7417
X4.9969Y-3.6417
X4.9969Y-3.7417
X5.0969Y-3.6417
X5.0969Y-3.7417
X5.1969Y-3.6417
X5.1969Y-3.7417
X6.6142Y-3.8134
X6.6142Y-3.9134
X6.6142Y-4.0134
X6.7126Y-4.1614
X6.7126Y-4.2614
X6.7126Y-4.3614
X6.7126Y-4.4614
X6.7142Y-3.8134
X6.7142Y-3.9134
X6.7142Y-4.0134
T6
X5.7087Y-4.5276
T7
X4.0405Y-3.8486
X4.0405Y-4.4686
T8
X3.5976Y-3.2334
X3.5976Y-4.6507
X6.6685Y-3.2334
X6.6685Y-4.6507
T9
X3.9204Y-3.9336
X3.9204Y-4.3836
T3
G00X3.6749Y-3.3978
M15
G01X3.6435Y-3.3978
M16
G05
G00X3.6749Y-3.7383
M15
G01X3.6435Y-3.7383
M16
G05
G00X3.8218Y-3.3978
M15
G01X3.7627Y-3.3978
M16
G05
G00X3.8218Y-3.7383
M15
G01X3.7627Y-3.7383
M16
G05
T0
M30
