G04 #@! TF.GenerationSoftware,KiCad,Pcbnew,(5.99.0-8454-g713af6630f)*
G04 #@! TF.CreationDate,2021-06-13T15:31:38-07:00*
G04 #@! TF.ProjectId,MFW007B,4d465730-3037-4422-9e6b-696361645f70,1*
G04 #@! TF.SameCoordinates,Original*
G04 #@! TF.FileFunction,Legend,Bot*
G04 #@! TF.FilePolarity,Positive*
%FSLAX46Y46*%
G04 Gerber Fmt 4.6, Leading zero omitted, Abs format (unit mm)*
G04 Created by KiCad (PCBNEW (5.99.0-8454-g713af6630f)) date 2021-06-13 15:31:38*
%MOMM*%
%LPD*%
G01*
G04 APERTURE LIST*
%ADD10C,0.500000*%
%ADD11C,0.300000*%
%ADD12C,0.150000*%
%ADD13C,0.120000*%
%ADD14C,0.152400*%
%ADD15R,1.700000X1.700000*%
%ADD16O,1.700000X1.700000*%
%ADD17C,2.700000*%
%ADD18C,0.650000*%
%ADD19O,2.216000X1.108000*%
%ADD20C,2.800000*%
%ADD21C,1.398000*%
%ADD22C,3.200000*%
%ADD23C,2.550000*%
%ADD24R,1.500000X1.000000*%
%ADD25R,1.549400X0.990600*%
G04 APERTURE END LIST*
D10*
X158121428Y-111804761D02*
X158121428Y-109804761D01*
X156978571Y-111804761D01*
X156978571Y-109804761D01*
X156121428Y-111233333D02*
X155169047Y-111233333D01*
X156311904Y-111804761D02*
X155645238Y-109804761D01*
X154978571Y-111804761D01*
X154311904Y-111042857D02*
X152788095Y-111042857D01*
X151454761Y-109804761D02*
X151264285Y-109804761D01*
X151073809Y-109900000D01*
X150978571Y-109995238D01*
X150883333Y-110185714D01*
X150788095Y-110566666D01*
X150788095Y-111042857D01*
X150883333Y-111423809D01*
X150978571Y-111614285D01*
X151073809Y-111709523D01*
X151264285Y-111804761D01*
X151454761Y-111804761D01*
X151645238Y-111709523D01*
X151740476Y-111614285D01*
X151835714Y-111423809D01*
X151930952Y-111042857D01*
X151930952Y-110566666D01*
X151835714Y-110185714D01*
X151740476Y-109995238D01*
X151645238Y-109900000D01*
X151454761Y-109804761D01*
X148883333Y-111804761D02*
X150026190Y-111804761D01*
X149454761Y-111804761D02*
X149454761Y-109804761D01*
X149645238Y-110090476D01*
X149835714Y-110280952D01*
X150026190Y-110376190D01*
D11*
X146621428Y-110578571D02*
X146050000Y-110578571D01*
X146407142Y-110078571D02*
X146407142Y-111364285D01*
X146335714Y-111507142D01*
X146192857Y-111578571D01*
X146050000Y-111578571D01*
X145550000Y-111578571D02*
X145550000Y-110578571D01*
X145550000Y-110078571D02*
X145621428Y-110150000D01*
X145550000Y-110221428D01*
X145478571Y-110150000D01*
X145550000Y-110078571D01*
X145550000Y-110221428D01*
X144835714Y-111578571D02*
X144835714Y-110578571D01*
X144835714Y-110721428D02*
X144764285Y-110650000D01*
X144621428Y-110578571D01*
X144407142Y-110578571D01*
X144264285Y-110650000D01*
X144192857Y-110792857D01*
X144192857Y-111578571D01*
X144192857Y-110792857D02*
X144121428Y-110650000D01*
X143978571Y-110578571D01*
X143764285Y-110578571D01*
X143621428Y-110650000D01*
X143550000Y-110792857D01*
X143550000Y-111578571D01*
X142264285Y-111507142D02*
X142407142Y-111578571D01*
X142692857Y-111578571D01*
X142835714Y-111507142D01*
X142907142Y-111364285D01*
X142907142Y-110792857D01*
X142835714Y-110650000D01*
X142692857Y-110578571D01*
X142407142Y-110578571D01*
X142264285Y-110650000D01*
X142192857Y-110792857D01*
X142192857Y-110935714D01*
X142907142Y-111078571D01*
X139764285Y-111507142D02*
X139907142Y-111578571D01*
X140192857Y-111578571D01*
X140335714Y-111507142D01*
X140407142Y-111435714D01*
X140478571Y-111292857D01*
X140478571Y-110864285D01*
X140407142Y-110721428D01*
X140335714Y-110650000D01*
X140192857Y-110578571D01*
X139907142Y-110578571D01*
X139764285Y-110650000D01*
X138907142Y-111578571D02*
X139050000Y-111507142D01*
X139121428Y-111435714D01*
X139192857Y-111292857D01*
X139192857Y-110864285D01*
X139121428Y-110721428D01*
X139050000Y-110650000D01*
X138907142Y-110578571D01*
X138692857Y-110578571D01*
X138550000Y-110650000D01*
X138478571Y-110721428D01*
X138407142Y-110864285D01*
X138407142Y-111292857D01*
X138478571Y-111435714D01*
X138550000Y-111507142D01*
X138692857Y-111578571D01*
X138907142Y-111578571D01*
X137764285Y-111578571D02*
X137764285Y-110578571D01*
X137764285Y-110721428D02*
X137692857Y-110650000D01*
X137550000Y-110578571D01*
X137335714Y-110578571D01*
X137192857Y-110650000D01*
X137121428Y-110792857D01*
X137121428Y-111578571D01*
X137121428Y-110792857D02*
X137050000Y-110650000D01*
X136907142Y-110578571D01*
X136692857Y-110578571D01*
X136550000Y-110650000D01*
X136478571Y-110792857D01*
X136478571Y-111578571D01*
X135764285Y-110578571D02*
X135764285Y-112078571D01*
X135764285Y-110650000D02*
X135621428Y-110578571D01*
X135335714Y-110578571D01*
X135192857Y-110650000D01*
X135121428Y-110721428D01*
X135050000Y-110864285D01*
X135050000Y-111292857D01*
X135121428Y-111435714D01*
X135192857Y-111507142D01*
X135335714Y-111578571D01*
X135621428Y-111578571D01*
X135764285Y-111507142D01*
X133764285Y-110578571D02*
X133764285Y-111578571D01*
X134407142Y-110578571D02*
X134407142Y-111364285D01*
X134335714Y-111507142D01*
X134192857Y-111578571D01*
X133978571Y-111578571D01*
X133835714Y-111507142D01*
X133764285Y-111435714D01*
X133264285Y-110578571D02*
X132692857Y-110578571D01*
X133050000Y-110078571D02*
X133050000Y-111364285D01*
X132978571Y-111507142D01*
X132835714Y-111578571D01*
X132692857Y-111578571D01*
X131621428Y-111507142D02*
X131764285Y-111578571D01*
X132050000Y-111578571D01*
X132192857Y-111507142D01*
X132264285Y-111364285D01*
X132264285Y-110792857D01*
X132192857Y-110650000D01*
X132050000Y-110578571D01*
X131764285Y-110578571D01*
X131621428Y-110650000D01*
X131550000Y-110792857D01*
X131550000Y-110935714D01*
X132264285Y-111078571D01*
X130907142Y-111578571D02*
X130907142Y-110578571D01*
X130907142Y-110864285D02*
X130835714Y-110721428D01*
X130764285Y-110650000D01*
X130621428Y-110578571D01*
X130478571Y-110578571D01*
D12*
X169638095Y-85052380D02*
X169638095Y-84052380D01*
X169400000Y-84052380D01*
X169257142Y-84100000D01*
X169161904Y-84195238D01*
X169114285Y-84290476D01*
X169066666Y-84480952D01*
X169066666Y-84623809D01*
X169114285Y-84814285D01*
X169161904Y-84909523D01*
X169257142Y-85004761D01*
X169400000Y-85052380D01*
X169638095Y-85052380D01*
X168114285Y-85052380D02*
X168685714Y-85052380D01*
X168400000Y-85052380D02*
X168400000Y-84052380D01*
X168495238Y-84195238D01*
X168590476Y-84290476D01*
X168685714Y-84338095D01*
X172764285Y-86952380D02*
X173335714Y-86952380D01*
X173050000Y-86952380D02*
X173050000Y-85952380D01*
X173145238Y-86095238D01*
X173240476Y-86190476D01*
X173335714Y-86238095D01*
X162833333Y-86154761D02*
X162690476Y-86202380D01*
X162452380Y-86202380D01*
X162357142Y-86154761D01*
X162309523Y-86107142D01*
X162261904Y-86011904D01*
X162261904Y-85916666D01*
X162309523Y-85821428D01*
X162357142Y-85773809D01*
X162452380Y-85726190D01*
X162642857Y-85678571D01*
X162738095Y-85630952D01*
X162785714Y-85583333D01*
X162833333Y-85488095D01*
X162833333Y-85392857D01*
X162785714Y-85297619D01*
X162738095Y-85250000D01*
X162642857Y-85202380D01*
X162404761Y-85202380D01*
X162261904Y-85250000D01*
X161928571Y-85202380D02*
X161690476Y-86202380D01*
X161500000Y-85488095D01*
X161309523Y-86202380D01*
X161071428Y-85202380D01*
X160738095Y-85297619D02*
X160690476Y-85250000D01*
X160595238Y-85202380D01*
X160357142Y-85202380D01*
X160261904Y-85250000D01*
X160214285Y-85297619D01*
X160166666Y-85392857D01*
X160166666Y-85488095D01*
X160214285Y-85630952D01*
X160785714Y-86202380D01*
X160166666Y-86202380D01*
X154333333Y-86154761D02*
X154190476Y-86202380D01*
X153952380Y-86202380D01*
X153857142Y-86154761D01*
X153809523Y-86107142D01*
X153761904Y-86011904D01*
X153761904Y-85916666D01*
X153809523Y-85821428D01*
X153857142Y-85773809D01*
X153952380Y-85726190D01*
X154142857Y-85678571D01*
X154238095Y-85630952D01*
X154285714Y-85583333D01*
X154333333Y-85488095D01*
X154333333Y-85392857D01*
X154285714Y-85297619D01*
X154238095Y-85250000D01*
X154142857Y-85202380D01*
X153904761Y-85202380D01*
X153761904Y-85250000D01*
X153428571Y-85202380D02*
X153190476Y-86202380D01*
X153000000Y-85488095D01*
X152809523Y-86202380D01*
X152571428Y-85202380D01*
X152285714Y-85202380D02*
X151666666Y-85202380D01*
X152000000Y-85583333D01*
X151857142Y-85583333D01*
X151761904Y-85630952D01*
X151714285Y-85678571D01*
X151666666Y-85773809D01*
X151666666Y-86011904D01*
X151714285Y-86107142D01*
X151761904Y-86154761D01*
X151857142Y-86202380D01*
X152142857Y-86202380D01*
X152238095Y-86154761D01*
X152285714Y-86107142D01*
X145833333Y-86154761D02*
X145690476Y-86202380D01*
X145452380Y-86202380D01*
X145357142Y-86154761D01*
X145309523Y-86107142D01*
X145261904Y-86011904D01*
X145261904Y-85916666D01*
X145309523Y-85821428D01*
X145357142Y-85773809D01*
X145452380Y-85726190D01*
X145642857Y-85678571D01*
X145738095Y-85630952D01*
X145785714Y-85583333D01*
X145833333Y-85488095D01*
X145833333Y-85392857D01*
X145785714Y-85297619D01*
X145738095Y-85250000D01*
X145642857Y-85202380D01*
X145404761Y-85202380D01*
X145261904Y-85250000D01*
X144928571Y-85202380D02*
X144690476Y-86202380D01*
X144500000Y-85488095D01*
X144309523Y-86202380D01*
X144071428Y-85202380D01*
X143261904Y-85535714D02*
X143261904Y-86202380D01*
X143500000Y-85154761D02*
X143738095Y-85869047D01*
X143119047Y-85869047D01*
D13*
X172550000Y-90850000D02*
X165250000Y-90850000D01*
X172550000Y-85350000D02*
X165250000Y-85350000D01*
X165250000Y-90850000D02*
X165250000Y-89700000D01*
D14*
X160103780Y-83000639D02*
X160103780Y-81456721D01*
X164853580Y-81456721D02*
X164853580Y-83000639D01*
X160808766Y-79853780D02*
X164148594Y-79853780D01*
X164148594Y-84603580D02*
X160808766Y-84603580D01*
X166970580Y-80628679D02*
G75*
G03*
X166970580Y-80628679I-203200J0D01*
G01*
G36*
X147133376Y-105038469D02*
G01*
X146962646Y-105288573D01*
X146688183Y-105470321D01*
X146519148Y-105532952D01*
X146104661Y-105590921D01*
X145654937Y-105553289D01*
X145213768Y-105430247D01*
X144824946Y-105231983D01*
X144532265Y-104968688D01*
X144486392Y-104904678D01*
X144370580Y-104608761D01*
X144378234Y-104392543D01*
X145076089Y-104392543D01*
X145096307Y-104539678D01*
X145132228Y-104582333D01*
X145292603Y-104698073D01*
X145509620Y-104803162D01*
X145879661Y-104909342D01*
X146181966Y-104922348D01*
X146397871Y-104844325D01*
X146509098Y-104677570D01*
X146528483Y-104483921D01*
X146458279Y-104320823D01*
X146291990Y-104262426D01*
X146174858Y-104241147D01*
X146027810Y-104149704D01*
X145952944Y-104088235D01*
X145768531Y-104040778D01*
X145552234Y-104062721D01*
X145340457Y-104138824D01*
X145169607Y-104253845D01*
X145076089Y-104392543D01*
X144378234Y-104392543D01*
X144381420Y-104302523D01*
X144503147Y-104006531D01*
X144719993Y-103741352D01*
X145016191Y-103527553D01*
X145375976Y-103385702D01*
X145783580Y-103336367D01*
X145936246Y-103333141D01*
X146110332Y-103313468D01*
X146178106Y-103281411D01*
X146148290Y-103224129D01*
X146039171Y-103083199D01*
X145877514Y-102900603D01*
X145755946Y-102755936D01*
X145626780Y-102556013D01*
X145576923Y-102408484D01*
X145578287Y-102382838D01*
X145659331Y-102218436D01*
X145826692Y-102119238D01*
X146026021Y-102120142D01*
X146149918Y-102183519D01*
X146370245Y-102388263D01*
X146594784Y-102690738D01*
X146806716Y-103060208D01*
X146989220Y-103465935D01*
X147125479Y-103877180D01*
X147198672Y-104263206D01*
X147203827Y-104483921D01*
X147208872Y-104699919D01*
X147133376Y-105038469D01*
G37*
G36*
X153679711Y-98139460D02*
G01*
X153590451Y-98414710D01*
X153411110Y-98574618D01*
X153135964Y-98626332D01*
X152879621Y-98626332D01*
X152849440Y-99096006D01*
X152843903Y-99324127D01*
X152883281Y-99696873D01*
X152904156Y-99777349D01*
X152993061Y-100120095D01*
X152999820Y-100141745D01*
X153112936Y-100555465D01*
X153153816Y-100851490D01*
X153120029Y-101044617D01*
X153009145Y-101149641D01*
X152818732Y-101181361D01*
X152805931Y-101181497D01*
X152702747Y-101203673D01*
X152632143Y-101284844D01*
X152578431Y-101455210D01*
X152525918Y-101744971D01*
X152524862Y-101751533D01*
X152454053Y-102072271D01*
X152338982Y-102473867D01*
X152197586Y-102901932D01*
X152047801Y-103302081D01*
X151907564Y-103619925D01*
X151759128Y-103901056D01*
X151228119Y-104720816D01*
X150605603Y-105442756D01*
X149904111Y-106056941D01*
X149136176Y-106553435D01*
X148314327Y-106922301D01*
X147451097Y-107153602D01*
X146975741Y-107223972D01*
X146365879Y-107259034D01*
X145767068Y-107221073D01*
X145154406Y-107104978D01*
X144502995Y-106905638D01*
X143787933Y-106617941D01*
X142984319Y-106236777D01*
X142001606Y-105696041D01*
X141057538Y-105068230D01*
X140232230Y-104396531D01*
X139535790Y-103689225D01*
X138978327Y-102954595D01*
X138966078Y-102935629D01*
X138722178Y-102512218D01*
X138482560Y-102019877D01*
X138267493Y-101506767D01*
X138097241Y-101021047D01*
X137992071Y-100610878D01*
X137955340Y-100421373D01*
X137916052Y-100241843D01*
X137893337Y-100167694D01*
X137882259Y-100162834D01*
X137767605Y-100119445D01*
X137557276Y-100042492D01*
X137285575Y-99944567D01*
X137251861Y-99932364D01*
X136748564Y-99717610D01*
X136633944Y-99652979D01*
X138496257Y-99652979D01*
X139247524Y-99891135D01*
X139479305Y-99963032D01*
X139771895Y-100048861D01*
X139992253Y-100107549D01*
X140105075Y-100129290D01*
X140185549Y-100142505D01*
X140321241Y-100249084D01*
X140385095Y-100418119D01*
X140364378Y-100595679D01*
X140246360Y-100727830D01*
X140080012Y-100787916D01*
X139875329Y-100793342D01*
X139603489Y-100738007D01*
X139231048Y-100618303D01*
X139192772Y-100604919D01*
X138942333Y-100523718D01*
X138757443Y-100474518D01*
X138675753Y-100467541D01*
X138674542Y-100516523D01*
X138715414Y-100680816D01*
X138795159Y-100927323D01*
X138901890Y-101223452D01*
X139023722Y-101536609D01*
X139148767Y-101834202D01*
X139265138Y-102083636D01*
X139584034Y-102617737D01*
X140086007Y-103252353D01*
X140704667Y-103874340D01*
X141422038Y-104470216D01*
X142220141Y-105026503D01*
X143080996Y-105529718D01*
X143986627Y-105966382D01*
X144919055Y-106323016D01*
X145372156Y-106442061D01*
X146014307Y-106531725D01*
X146678484Y-106550060D01*
X147313692Y-106496260D01*
X147868935Y-106369523D01*
X147958690Y-106338947D01*
X148661303Y-106026950D01*
X149348253Y-105602591D01*
X149976060Y-105096125D01*
X150501247Y-104537807D01*
X150650157Y-104346206D01*
X151052226Y-103752279D01*
X151373105Y-103135263D01*
X151625083Y-102464222D01*
X151820448Y-101708217D01*
X151971489Y-100836308D01*
X152121266Y-99777349D01*
X151404428Y-98147872D01*
X151295779Y-97901527D01*
X151156762Y-97588613D01*
X152867423Y-97588613D01*
X152868025Y-97628606D01*
X152892341Y-97813247D01*
X152941420Y-97912426D01*
X152961594Y-97918469D01*
X153003198Y-97858811D01*
X153013704Y-97721551D01*
X152993111Y-97559124D01*
X152941420Y-97423965D01*
X152910233Y-97387002D01*
X152877599Y-97419953D01*
X152867423Y-97588613D01*
X151156762Y-97588613D01*
X151084452Y-97425850D01*
X150887593Y-96987048D01*
X150716611Y-96610340D01*
X150582915Y-96320947D01*
X150497915Y-96144088D01*
X150479362Y-96106574D01*
X151302992Y-96106574D01*
X151303966Y-96170110D01*
X151385086Y-96335473D01*
X151543827Y-96577341D01*
X151768016Y-96875587D01*
X151928137Y-97069158D01*
X152061653Y-97213601D01*
X152133580Y-97270113D01*
X152156040Y-97237993D01*
X152180455Y-97093360D01*
X152189941Y-96871155D01*
X152189941Y-96468641D01*
X151759968Y-96274106D01*
X151553101Y-96185220D01*
X151379734Y-96120959D01*
X151302992Y-96106574D01*
X150479362Y-96106574D01*
X150473502Y-96094726D01*
X150334333Y-95746563D01*
X150262140Y-95432255D01*
X150261413Y-95182835D01*
X150336641Y-95029335D01*
X150349129Y-95019495D01*
X150542150Y-94954534D01*
X150738594Y-95004234D01*
X150874852Y-95153876D01*
X150963515Y-95269541D01*
X151137870Y-95361611D01*
X151193894Y-95373558D01*
X151413235Y-95430723D01*
X151661180Y-95505235D01*
X151768599Y-95537729D01*
X151944565Y-95579559D01*
X152027949Y-95582012D01*
X152034991Y-95563948D01*
X152023289Y-95427974D01*
X151970181Y-95191515D01*
X151884406Y-94884477D01*
X151774707Y-94536763D01*
X151649822Y-94178277D01*
X151518491Y-93838926D01*
X151474592Y-93734559D01*
X151292057Y-93330646D01*
X151089765Y-92917715D01*
X150903991Y-92570635D01*
X150902870Y-92568674D01*
X150743241Y-92304710D01*
X150587284Y-92091544D01*
X150403132Y-91895168D01*
X150158919Y-91681575D01*
X149822781Y-91416758D01*
X149667511Y-91297578D01*
X149287801Y-91008734D01*
X148998297Y-90795845D01*
X148778072Y-90646476D01*
X148606203Y-90548194D01*
X148461763Y-90488564D01*
X148323828Y-90455153D01*
X148171474Y-90435526D01*
X147942256Y-90399827D01*
X147794855Y-90332115D01*
X147705233Y-90211729D01*
X147572692Y-90068048D01*
X147285424Y-89917039D01*
X146849987Y-89774996D01*
X146265430Y-89641543D01*
X146196095Y-89628423D01*
X145311143Y-89540997D01*
X144427441Y-89594645D01*
X143561825Y-89781705D01*
X142731134Y-90094512D01*
X141952205Y-90525405D01*
X141241877Y-91066721D01*
X140616986Y-91710797D01*
X140094370Y-92449971D01*
X140007208Y-92606320D01*
X139832919Y-92956941D01*
X139653555Y-93356153D01*
X139496601Y-93744434D01*
X139398777Y-94017162D01*
X139275135Y-94391724D01*
X139153626Y-94787188D01*
X139041763Y-95176289D01*
X138947058Y-95531762D01*
X138877023Y-95826341D01*
X138839171Y-96032761D01*
X138841015Y-96123757D01*
X138841036Y-96123778D01*
X138926742Y-96156758D01*
X139117954Y-96209952D01*
X139373317Y-96271854D01*
X139705589Y-96372403D01*
X139954181Y-96517046D01*
X140059737Y-96690818D01*
X140019595Y-96891168D01*
X140017351Y-96895334D01*
X139849558Y-97095783D01*
X139641572Y-97151416D01*
X139392984Y-97062344D01*
X139384823Y-97057503D01*
X139147938Y-96945162D01*
X138915406Y-96873664D01*
X138844099Y-96862564D01*
X138750760Y-96866131D01*
X138746569Y-96868901D01*
X138681228Y-96912086D01*
X138631035Y-97018408D01*
X138595711Y-97203077D01*
X138570787Y-97484073D01*
X138551794Y-97879375D01*
X138534261Y-98406963D01*
X138522986Y-98776628D01*
X138496257Y-99652979D01*
X136633944Y-99652979D01*
X136310978Y-99470868D01*
X135955101Y-99205913D01*
X135696929Y-98936520D01*
X135552461Y-98676463D01*
X135547023Y-98589208D01*
X136355576Y-98589208D01*
X136388662Y-98672043D01*
X136516297Y-98779880D01*
X136753200Y-98923676D01*
X137114090Y-99114388D01*
X137163017Y-99139113D01*
X137414758Y-99260288D01*
X137611891Y-99345572D01*
X137715274Y-99377811D01*
X137758678Y-99318303D01*
X137788857Y-99116056D01*
X137799112Y-98776628D01*
X137797884Y-98505196D01*
X137787537Y-98314911D01*
X137757931Y-98216977D01*
X137698923Y-98180714D01*
X137600371Y-98175444D01*
X137443264Y-98193120D01*
X137198532Y-98247270D01*
X136924467Y-98324531D01*
X136665137Y-98411228D01*
X136464609Y-98493683D01*
X136366951Y-98558223D01*
X136355576Y-98589208D01*
X135547023Y-98589208D01*
X135537694Y-98439519D01*
X135594367Y-98312448D01*
X135805472Y-98095995D01*
X136151315Y-97889916D01*
X136622033Y-97700928D01*
X137173355Y-97515510D01*
X136802012Y-97392169D01*
X136682871Y-97348289D01*
X136367757Y-97206087D01*
X136081606Y-97047460D01*
X136068598Y-97039141D01*
X135852822Y-96860355D01*
X137348225Y-96860355D01*
X137629955Y-96947234D01*
X137638792Y-96949933D01*
X137852670Y-96992455D01*
X137956859Y-96961021D01*
X137960258Y-96955389D01*
X137973619Y-96868901D01*
X137870991Y-96831222D01*
X137637568Y-96836583D01*
X137348225Y-96860355D01*
X135852822Y-96860355D01*
X135824290Y-96836714D01*
X135729039Y-96636119D01*
X135781954Y-96429845D01*
X135982143Y-96210385D01*
X135991782Y-96208656D01*
X136110809Y-96199850D01*
X136343587Y-96186836D01*
X136662711Y-96171075D01*
X137040775Y-96154024D01*
X138085987Y-96108876D01*
X138300499Y-95282249D01*
X138398517Y-94910955D01*
X138549077Y-94377219D01*
X138693559Y-93924785D01*
X138846686Y-93512158D01*
X139023177Y-93097842D01*
X139237754Y-92640343D01*
X139415991Y-92295154D01*
X139962140Y-91451198D01*
X140610763Y-90715970D01*
X141357785Y-90093072D01*
X142199133Y-89586105D01*
X143130734Y-89198672D01*
X143156047Y-89190253D01*
X144116054Y-88949827D01*
X145087312Y-88859270D01*
X146069792Y-88918581D01*
X147063460Y-89127758D01*
X148068286Y-89486800D01*
X148206313Y-89545008D01*
X148482542Y-89654785D01*
X148696770Y-89730912D01*
X148811375Y-89759581D01*
X148896154Y-89772403D01*
X149137480Y-89876654D01*
X149442032Y-90070073D01*
X149788436Y-90333785D01*
X150155320Y-90648912D01*
X150521310Y-90996579D01*
X150865035Y-91357908D01*
X151165121Y-91714024D01*
X151400196Y-92046049D01*
X151429035Y-92092977D01*
X151660288Y-92510516D01*
X151895662Y-92999625D01*
X152124384Y-93531181D01*
X152335680Y-94076056D01*
X152518776Y-94605126D01*
X152662898Y-95089263D01*
X152757272Y-95499343D01*
X152791124Y-95806240D01*
X152794860Y-95835173D01*
X152860702Y-95998516D01*
X152991726Y-96227853D01*
X153155887Y-96468641D01*
X153165751Y-96483109D01*
X153171205Y-96490506D01*
X153426405Y-96870102D01*
X153586134Y-97203163D01*
X153668717Y-97540073D01*
X153679742Y-97721551D01*
X153692480Y-97931213D01*
X153679711Y-98139460D01*
G37*
G36*
X148589337Y-95237109D02*
G01*
X148805826Y-95383491D01*
X148984590Y-95641367D01*
X149005463Y-95684511D01*
X149075218Y-95857647D01*
X149074426Y-95976155D01*
X149006067Y-96104292D01*
X148908962Y-96213829D01*
X148766428Y-96268119D01*
X148529169Y-96279966D01*
X148272112Y-96263538D01*
X148091508Y-96197145D01*
X148004646Y-96056687D01*
X147982807Y-95817870D01*
X147984290Y-95728019D01*
X148012945Y-95505421D01*
X148097870Y-95364175D01*
X148264897Y-95252512D01*
X148362361Y-95216936D01*
X148589337Y-95237109D01*
G37*
G36*
X142003479Y-95570224D02*
G01*
X142165362Y-95785543D01*
X142227697Y-95922053D01*
X142234913Y-96048588D01*
X142157834Y-96194354D01*
X142118426Y-96246982D01*
X141950935Y-96351367D01*
X141763682Y-96314003D01*
X141574905Y-96136694D01*
X141476029Y-95911889D01*
X141508429Y-95702368D01*
X141668876Y-95545456D01*
X141817667Y-95502094D01*
X142003479Y-95570224D01*
G37*
G36*
X144915853Y-90708830D02*
G01*
X145194376Y-90804512D01*
X145396733Y-90944544D01*
X145486787Y-91118526D01*
X145482247Y-91283638D01*
X145388263Y-91418805D01*
X145186568Y-91460867D01*
X144869220Y-91413618D01*
X144705172Y-91379969D01*
X144499116Y-91356314D01*
X144384585Y-91368358D01*
X144380128Y-91371960D01*
X144393144Y-91462527D01*
X144505499Y-91642821D01*
X144709108Y-91899607D01*
X144752555Y-91951854D01*
X144950300Y-92215858D01*
X145107045Y-92465829D01*
X145192069Y-92653794D01*
X145203825Y-92701025D01*
X145223128Y-92970182D01*
X145164021Y-93189548D01*
X145036957Y-93314589D01*
X144958070Y-93335282D01*
X144716130Y-93357494D01*
X144391914Y-93358052D01*
X144028867Y-93338699D01*
X143670434Y-93301181D01*
X143360059Y-93247242D01*
X143207393Y-93212243D01*
X142882097Y-93130831D01*
X142672839Y-93060392D01*
X142556460Y-92988486D01*
X142509805Y-92902676D01*
X142509714Y-92790524D01*
X142512705Y-92767623D01*
X142557175Y-92615006D01*
X142653267Y-92524481D01*
X142824195Y-92490882D01*
X143093170Y-92509041D01*
X143483407Y-92573792D01*
X143693989Y-92612763D01*
X144048268Y-92670175D01*
X144269663Y-92684398D01*
X144367658Y-92648120D01*
X144351738Y-92554032D01*
X144231385Y-92394823D01*
X144016085Y-92163182D01*
X143940858Y-92084306D01*
X143737816Y-91858613D01*
X143618486Y-91691421D01*
X143562108Y-91548739D01*
X143547929Y-91396580D01*
X143547939Y-91392356D01*
X143612061Y-91106644D01*
X143805054Y-90887665D01*
X144132705Y-90728813D01*
X144274852Y-90692120D01*
X144597300Y-90667900D01*
X144915853Y-90708830D01*
G37*
G36*
X146138607Y-90614905D02*
G01*
X146265826Y-90738889D01*
X146328412Y-90906614D01*
X146330061Y-90934112D01*
X146362518Y-91112517D01*
X146427965Y-91374958D01*
X146515154Y-91675148D01*
X146583487Y-91901519D01*
X146665152Y-92215448D01*
X146695692Y-92431132D01*
X146677750Y-92575284D01*
X146613964Y-92674616D01*
X146524873Y-92728485D01*
X146347112Y-92764793D01*
X146318384Y-92763372D01*
X146214764Y-92724183D01*
X146121555Y-92616574D01*
X146028837Y-92420795D01*
X145926692Y-92117098D01*
X145805202Y-91685730D01*
X145728577Y-91384402D01*
X145671337Y-91088324D01*
X145664322Y-90882518D01*
X145707400Y-90737758D01*
X145800441Y-90624820D01*
X145896558Y-90547845D01*
X145995179Y-90535202D01*
X146138607Y-90614905D01*
G37*
G36*
X145090289Y-96181435D02*
G01*
X145242267Y-96406250D01*
X145253659Y-96428432D01*
X145360440Y-96597023D01*
X145536931Y-96845376D01*
X145761417Y-97143705D01*
X146012179Y-97462225D01*
X146210975Y-97709209D01*
X146583007Y-98172901D01*
X146877524Y-98543240D01*
X147106450Y-98836161D01*
X147281708Y-99067598D01*
X147415222Y-99253487D01*
X147518915Y-99409762D01*
X147604712Y-99552360D01*
X147684536Y-99697214D01*
X147704315Y-99734435D01*
X147820885Y-99978027D01*
X147857825Y-100147102D01*
X147815822Y-100288402D01*
X147695561Y-100448669D01*
X147599990Y-100534442D01*
X147479394Y-100569204D01*
X147294212Y-100555500D01*
X147004733Y-100496056D01*
X146922970Y-100483549D01*
X146683163Y-100462549D01*
X146326647Y-100441000D01*
X145874036Y-100419829D01*
X145345941Y-100399958D01*
X144762978Y-100382314D01*
X144145759Y-100367820D01*
X143606691Y-100356598D01*
X143017971Y-100342681D01*
X142551396Y-100328732D01*
X142190976Y-100313671D01*
X141920725Y-100296419D01*
X141724654Y-100275897D01*
X141586775Y-100251026D01*
X141491102Y-100220727D01*
X141421646Y-100183919D01*
X141385478Y-100157921D01*
X141254691Y-99991570D01*
X141224021Y-99809867D01*
X141281443Y-99651902D01*
X141414933Y-99556765D01*
X141612469Y-99563544D01*
X141621724Y-99565482D01*
X141748770Y-99576449D01*
X141998185Y-99590029D01*
X142349004Y-99605584D01*
X142780262Y-99622476D01*
X143270992Y-99640066D01*
X143800227Y-99657718D01*
X144347003Y-99674793D01*
X144890353Y-99690652D01*
X145409310Y-99704659D01*
X145882910Y-99716174D01*
X146290185Y-99724561D01*
X146610170Y-99729181D01*
X146821898Y-99729396D01*
X146904404Y-99724569D01*
X146884401Y-99683304D01*
X146787713Y-99545426D01*
X146628348Y-99333500D01*
X146424506Y-99070910D01*
X146194384Y-98781043D01*
X145956183Y-98487284D01*
X145728100Y-98213018D01*
X145478538Y-97912564D01*
X145096480Y-97421953D01*
X144822748Y-97019308D01*
X144654032Y-96697678D01*
X144587018Y-96450111D01*
X144618395Y-96269656D01*
X144744852Y-96149363D01*
X144914805Y-96103219D01*
X145090289Y-96181435D01*
G37*
X152308766Y-79853780D02*
X155648594Y-79853780D01*
X155648594Y-84603580D02*
X152308766Y-84603580D01*
X156353580Y-81456721D02*
X156353580Y-83000639D01*
X151603780Y-83000639D02*
X151603780Y-81456721D01*
X158470580Y-80628679D02*
G75*
G03*
X158470580Y-80628679I-203200J0D01*
G01*
X147148594Y-84603580D02*
X143808766Y-84603580D01*
X143808766Y-79853780D02*
X147148594Y-79853780D01*
X143103780Y-83000639D02*
X143103780Y-81456721D01*
X147853580Y-81456721D02*
X147853580Y-83000639D01*
X149970580Y-80628679D02*
G75*
G03*
X149970580Y-80628679I-203200J0D01*
G01*
%LPC*%
D15*
X168000000Y-96860000D03*
D16*
X170540000Y-96860000D03*
X168000000Y-99400000D03*
X170540000Y-99400000D03*
X168000000Y-101940000D03*
X170540000Y-101940000D03*
D17*
X91378680Y-118128680D03*
X169378680Y-82128680D03*
D15*
X170500000Y-105700000D03*
D16*
X170500000Y-108240000D03*
X170500000Y-110780000D03*
X170500000Y-113320000D03*
D18*
X97303680Y-87653680D03*
X97303680Y-88503680D03*
X97303680Y-89353680D03*
X97303680Y-90203680D03*
X97303680Y-91053680D03*
X97303680Y-91903680D03*
X97303680Y-92753680D03*
X97303680Y-93603680D03*
X95953680Y-93603680D03*
X95953680Y-92753680D03*
X95953680Y-91903680D03*
X95953680Y-91053680D03*
X95953680Y-90203680D03*
X95953680Y-89353680D03*
X95953680Y-88503680D03*
X95953680Y-87653680D03*
D19*
X96323680Y-86303680D03*
X96323680Y-94953680D03*
X92943680Y-94953680D03*
X92943680Y-86303680D03*
D17*
X91378680Y-82128680D03*
X169378680Y-118128680D03*
D20*
X145000000Y-115000000D03*
D21*
X105928680Y-111343680D03*
X108468680Y-110073680D03*
X105928680Y-108803680D03*
X108468680Y-107533680D03*
X105928680Y-106263680D03*
X105928680Y-103723680D03*
X108468680Y-102453680D03*
X105928680Y-101183680D03*
X108468680Y-99913680D03*
X97038680Y-112353680D03*
X95008680Y-112353680D03*
X97038680Y-98903680D03*
X95008680Y-98903680D03*
D22*
X99578680Y-99913680D03*
X99578680Y-111343680D03*
D23*
X102628680Y-113503680D03*
X102628680Y-97753680D03*
D15*
X132000000Y-92500000D03*
D16*
X132000000Y-95040000D03*
X129460000Y-92500000D03*
X129460000Y-95040000D03*
X126920000Y-92500000D03*
X126920000Y-95040000D03*
X124380000Y-92500000D03*
X124380000Y-95040000D03*
X121840000Y-92500000D03*
X121840000Y-95040000D03*
X119300000Y-92500000D03*
X119300000Y-95040000D03*
X116760000Y-92500000D03*
X116760000Y-95040000D03*
D24*
X171350000Y-86500000D03*
X171350000Y-89700000D03*
X166450000Y-89700000D03*
X166450000Y-86500000D03*
D25*
X165103681Y-80628681D03*
X159853679Y-80628681D03*
X165103681Y-83828679D03*
X159853679Y-83828679D03*
X156603681Y-80628681D03*
X151353679Y-80628681D03*
X156603681Y-83828679D03*
X151353679Y-83828679D03*
X148103681Y-80628681D03*
X142853679Y-80628681D03*
X148103681Y-83828679D03*
X142853679Y-83828679D03*
M02*
