G04 #@! TF.GenerationSoftware,KiCad,Pcbnew,(5.99.0-8454-g713af6630f)*
G04 #@! TF.CreationDate,2021-06-14T20:06:33-07:00*
G04 #@! TF.ProjectId,MFW007B,4d465730-3037-4422-9e6b-696361645f70,1*
G04 #@! TF.SameCoordinates,Original*
G04 #@! TF.FileFunction,Paste,Top*
G04 #@! TF.FilePolarity,Positive*
%FSLAX46Y46*%
G04 Gerber Fmt 4.6, Leading zero omitted, Abs format (unit mm)*
G04 Created by KiCad (PCBNEW (5.99.0-8454-g713af6630f)) date 2021-06-14 20:06:33*
%MOMM*%
%LPD*%
G01*
G04 APERTURE LIST*
G04 Aperture macros list*
%AMRoundRect*
0 Rectangle with rounded corners*
0 $1 Rounding radius*
0 $2 $3 $4 $5 $6 $7 $8 $9 X,Y pos of 4 corners*
0 Add a 4 corners polygon primitive as box body*
4,1,4,$2,$3,$4,$5,$6,$7,$8,$9,$2,$3,0*
0 Add four circle primitives for the rounded corners*
1,1,$1+$1,$2,$3*
1,1,$1+$1,$4,$5*
1,1,$1+$1,$6,$7*
1,1,$1+$1,$8,$9*
0 Add four rect primitives between the rounded corners*
20,1,$1+$1,$2,$3,$4,$5,0*
20,1,$1+$1,$4,$5,$6,$7,0*
20,1,$1+$1,$6,$7,$8,$9,0*
20,1,$1+$1,$8,$9,$2,$3,0*%
G04 Aperture macros list end*
%ADD10C,0.100000*%
%ADD11R,2.400000X2.000000*%
%ADD12RoundRect,0.075000X0.075000X-0.662500X0.075000X0.662500X-0.075000X0.662500X-0.075000X-0.662500X0*%
%ADD13RoundRect,0.075000X0.662500X-0.075000X0.662500X0.075000X-0.662500X0.075000X-0.662500X-0.075000X0*%
%ADD14RoundRect,0.140000X0.170000X-0.140000X0.170000X0.140000X-0.170000X0.140000X-0.170000X-0.140000X0*%
%ADD15RoundRect,0.135000X0.185000X-0.135000X0.185000X0.135000X-0.185000X0.135000X-0.185000X-0.135000X0*%
%ADD16RoundRect,0.218750X0.256250X-0.218750X0.256250X0.218750X-0.256250X0.218750X-0.256250X-0.218750X0*%
%ADD17RoundRect,0.140000X-0.170000X0.140000X-0.170000X-0.140000X0.170000X-0.140000X0.170000X0.140000X0*%
%ADD18RoundRect,0.140000X-0.140000X-0.170000X0.140000X-0.170000X0.140000X0.170000X-0.140000X0.170000X0*%
%ADD19RoundRect,0.150000X0.625000X-0.150000X0.625000X0.150000X-0.625000X0.150000X-0.625000X-0.150000X0*%
%ADD20RoundRect,0.250000X0.650000X-0.350000X0.650000X0.350000X-0.650000X0.350000X-0.650000X-0.350000X0*%
%ADD21RoundRect,0.135000X0.135000X0.185000X-0.135000X0.185000X-0.135000X-0.185000X0.135000X-0.185000X0*%
%ADD22RoundRect,0.135000X-0.185000X0.135000X-0.185000X-0.135000X0.185000X-0.135000X0.185000X0.135000X0*%
%ADD23R,0.900000X1.200000*%
%ADD24RoundRect,0.075000X-0.662500X-0.075000X0.662500X-0.075000X0.662500X0.075000X-0.662500X0.075000X0*%
%ADD25RoundRect,0.075000X-0.075000X-0.662500X0.075000X-0.662500X0.075000X0.662500X-0.075000X0.662500X0*%
%ADD26RoundRect,0.135000X-0.135000X-0.185000X0.135000X-0.185000X0.135000X0.185000X-0.135000X0.185000X0*%
%ADD27R,1.000000X1.800000*%
%ADD28R,1.400000X1.200000*%
%ADD29RoundRect,0.150000X0.150000X-0.512500X0.150000X0.512500X-0.150000X0.512500X-0.150000X-0.512500X0*%
%ADD30RoundRect,0.200000X-0.200000X-0.275000X0.200000X-0.275000X0.200000X0.275000X-0.200000X0.275000X0*%
%ADD31RoundRect,0.140000X0.140000X0.170000X-0.140000X0.170000X-0.140000X-0.170000X0.140000X-0.170000X0*%
%ADD32RoundRect,0.250000X-0.250000X-0.475000X0.250000X-0.475000X0.250000X0.475000X-0.250000X0.475000X0*%
%ADD33RoundRect,0.250000X-0.475000X0.250000X-0.475000X-0.250000X0.475000X-0.250000X0.475000X0.250000X0*%
%ADD34RoundRect,0.150000X-0.587500X-0.150000X0.587500X-0.150000X0.587500X0.150000X-0.587500X0.150000X0*%
%ADD35RoundRect,0.250000X0.250000X0.475000X-0.250000X0.475000X-0.250000X-0.475000X0.250000X-0.475000X0*%
%ADD36R,1.549400X0.990600*%
G04 APERTURE END LIST*
D10*
X107368680Y-103558680D02*
X107368680Y-101358680D01*
X107368680Y-101358680D02*
X110168680Y-101358680D01*
X110168680Y-101358680D02*
X110168680Y-103558680D01*
X110168680Y-103558680D02*
X107368680Y-103558680D01*
G36*
X110168680Y-103558680D02*
G01*
X107368680Y-103558680D01*
X107368680Y-101358680D01*
X110168680Y-101358680D01*
X110168680Y-103558680D01*
G37*
X110168680Y-103558680D02*
X107368680Y-103558680D01*
X107368680Y-101358680D01*
X110168680Y-101358680D01*
X110168680Y-103558680D01*
X104228680Y-109908680D02*
X104228680Y-107708680D01*
X104228680Y-107708680D02*
X107028680Y-107708680D01*
X107028680Y-107708680D02*
X107028680Y-109908680D01*
X107028680Y-109908680D02*
X104228680Y-109908680D01*
G36*
X107028680Y-109908680D02*
G01*
X104228680Y-109908680D01*
X104228680Y-107708680D01*
X107028680Y-107708680D01*
X107028680Y-109908680D01*
G37*
X107028680Y-109908680D02*
X104228680Y-109908680D01*
X104228680Y-107708680D01*
X107028680Y-107708680D01*
X107028680Y-109908680D01*
X104228680Y-102288680D02*
X104228680Y-100088680D01*
X104228680Y-100088680D02*
X107028680Y-100088680D01*
X107028680Y-100088680D02*
X107028680Y-102288680D01*
X107028680Y-102288680D02*
X104228680Y-102288680D01*
G36*
X107028680Y-102288680D02*
G01*
X104228680Y-102288680D01*
X104228680Y-100088680D01*
X107028680Y-100088680D01*
X107028680Y-102288680D01*
G37*
X107028680Y-102288680D02*
X104228680Y-102288680D01*
X104228680Y-100088680D01*
X107028680Y-100088680D01*
X107028680Y-102288680D01*
X94208680Y-100803680D02*
X94208680Y-97003680D01*
X94208680Y-97003680D02*
X95808680Y-97003680D01*
X95808680Y-97003680D02*
X95808680Y-100803680D01*
X95808680Y-100803680D02*
X94208680Y-100803680D01*
G36*
X95808680Y-100803680D02*
G01*
X94208680Y-100803680D01*
X94208680Y-97003680D01*
X95808680Y-97003680D01*
X95808680Y-100803680D01*
G37*
X95808680Y-100803680D02*
X94208680Y-100803680D01*
X94208680Y-97003680D01*
X95808680Y-97003680D01*
X95808680Y-100803680D01*
X96238680Y-100803680D02*
X96238680Y-97003680D01*
X96238680Y-97003680D02*
X97838680Y-97003680D01*
X97838680Y-97003680D02*
X97838680Y-100803680D01*
X97838680Y-100803680D02*
X96238680Y-100803680D01*
G36*
X97838680Y-100803680D02*
G01*
X96238680Y-100803680D01*
X96238680Y-97003680D01*
X97838680Y-97003680D01*
X97838680Y-100803680D01*
G37*
X97838680Y-100803680D02*
X96238680Y-100803680D01*
X96238680Y-97003680D01*
X97838680Y-97003680D01*
X97838680Y-100803680D01*
X104228680Y-104828680D02*
X104228680Y-102628680D01*
X104228680Y-102628680D02*
X107028680Y-102628680D01*
X107028680Y-102628680D02*
X107028680Y-104828680D01*
X107028680Y-104828680D02*
X104228680Y-104828680D01*
G36*
X107028680Y-104828680D02*
G01*
X104228680Y-104828680D01*
X104228680Y-102628680D01*
X107028680Y-102628680D01*
X107028680Y-104828680D01*
G37*
X107028680Y-104828680D02*
X104228680Y-104828680D01*
X104228680Y-102628680D01*
X107028680Y-102628680D01*
X107028680Y-104828680D01*
X107368680Y-108638680D02*
X107368680Y-106438680D01*
X107368680Y-106438680D02*
X110168680Y-106438680D01*
X110168680Y-106438680D02*
X110168680Y-108638680D01*
X110168680Y-108638680D02*
X107368680Y-108638680D01*
G36*
X110168680Y-108638680D02*
G01*
X107368680Y-108638680D01*
X107368680Y-106438680D01*
X110168680Y-106438680D01*
X110168680Y-108638680D01*
G37*
X110168680Y-108638680D02*
X107368680Y-108638680D01*
X107368680Y-106438680D01*
X110168680Y-106438680D01*
X110168680Y-108638680D01*
X101328680Y-116903680D02*
X101328680Y-110103680D01*
X101328680Y-110103680D02*
X103928680Y-110103680D01*
X103928680Y-110103680D02*
X103928680Y-116903680D01*
X103928680Y-116903680D02*
X101328680Y-116903680D01*
G36*
X103928680Y-116903680D02*
G01*
X101328680Y-116903680D01*
X101328680Y-110103680D01*
X103928680Y-110103680D01*
X103928680Y-116903680D01*
G37*
X103928680Y-116903680D02*
X101328680Y-116903680D01*
X101328680Y-110103680D01*
X103928680Y-110103680D01*
X103928680Y-116903680D01*
X104228680Y-107368680D02*
X104228680Y-105168680D01*
X104228680Y-105168680D02*
X107028680Y-105168680D01*
X107028680Y-105168680D02*
X107028680Y-107368680D01*
X107028680Y-107368680D02*
X104228680Y-107368680D01*
G36*
X107028680Y-107368680D02*
G01*
X104228680Y-107368680D01*
X104228680Y-105168680D01*
X107028680Y-105168680D01*
X107028680Y-107368680D01*
G37*
X107028680Y-107368680D02*
X104228680Y-107368680D01*
X104228680Y-105168680D01*
X107028680Y-105168680D01*
X107028680Y-107368680D01*
X107368680Y-111178680D02*
X107368680Y-108978680D01*
X107368680Y-108978680D02*
X110168680Y-108978680D01*
X110168680Y-108978680D02*
X110168680Y-111178680D01*
X110168680Y-111178680D02*
X107368680Y-111178680D01*
G36*
X110168680Y-111178680D02*
G01*
X107368680Y-111178680D01*
X107368680Y-108978680D01*
X110168680Y-108978680D01*
X110168680Y-111178680D01*
G37*
X110168680Y-111178680D02*
X107368680Y-111178680D01*
X107368680Y-108978680D01*
X110168680Y-108978680D01*
X110168680Y-111178680D01*
X96238680Y-114253680D02*
X96238680Y-110453680D01*
X96238680Y-110453680D02*
X97838680Y-110453680D01*
X97838680Y-110453680D02*
X97838680Y-114253680D01*
X97838680Y-114253680D02*
X96238680Y-114253680D01*
G36*
X97838680Y-114253680D02*
G01*
X96238680Y-114253680D01*
X96238680Y-110453680D01*
X97838680Y-110453680D01*
X97838680Y-114253680D01*
G37*
X97838680Y-114253680D02*
X96238680Y-114253680D01*
X96238680Y-110453680D01*
X97838680Y-110453680D01*
X97838680Y-114253680D01*
X101328680Y-101153680D02*
X101328680Y-94353680D01*
X101328680Y-94353680D02*
X103928680Y-94353680D01*
X103928680Y-94353680D02*
X103928680Y-101153680D01*
X103928680Y-101153680D02*
X101328680Y-101153680D01*
G36*
X103928680Y-101153680D02*
G01*
X101328680Y-101153680D01*
X101328680Y-94353680D01*
X103928680Y-94353680D01*
X103928680Y-101153680D01*
G37*
X103928680Y-101153680D02*
X101328680Y-101153680D01*
X101328680Y-94353680D01*
X103928680Y-94353680D01*
X103928680Y-101153680D01*
X94208680Y-114253680D02*
X94208680Y-110453680D01*
X94208680Y-110453680D02*
X95808680Y-110453680D01*
X95808680Y-110453680D02*
X95808680Y-114253680D01*
X95808680Y-114253680D02*
X94208680Y-114253680D01*
G36*
X95808680Y-114253680D02*
G01*
X94208680Y-114253680D01*
X94208680Y-110453680D01*
X95808680Y-110453680D01*
X95808680Y-114253680D01*
G37*
X95808680Y-114253680D02*
X94208680Y-114253680D01*
X94208680Y-110453680D01*
X95808680Y-110453680D01*
X95808680Y-114253680D01*
X104228680Y-112448680D02*
X104228680Y-110248680D01*
X104228680Y-110248680D02*
X107028680Y-110248680D01*
X107028680Y-110248680D02*
X107028680Y-112448680D01*
X107028680Y-112448680D02*
X104228680Y-112448680D01*
G36*
X107028680Y-112448680D02*
G01*
X104228680Y-112448680D01*
X104228680Y-110248680D01*
X107028680Y-110248680D01*
X107028680Y-112448680D01*
G37*
X107028680Y-112448680D02*
X104228680Y-112448680D01*
X104228680Y-110248680D01*
X107028680Y-110248680D01*
X107028680Y-112448680D01*
X107368680Y-101018680D02*
X107368680Y-98818680D01*
X107368680Y-98818680D02*
X110168680Y-98818680D01*
X110168680Y-98818680D02*
X110168680Y-101018680D01*
X110168680Y-101018680D02*
X107368680Y-101018680D01*
G36*
X110168680Y-101018680D02*
G01*
X107368680Y-101018680D01*
X107368680Y-98818680D01*
X110168680Y-98818680D01*
X110168680Y-101018680D01*
G37*
X110168680Y-101018680D02*
X107368680Y-101018680D01*
X107368680Y-98818680D01*
X110168680Y-98818680D01*
X110168680Y-101018680D01*
D11*
X157300000Y-112550000D03*
X157300000Y-116250000D03*
D12*
X146440000Y-112012500D03*
X146940000Y-112012500D03*
X147440000Y-112012500D03*
X147940000Y-112012500D03*
X148440000Y-112012500D03*
X148940000Y-112012500D03*
X149440000Y-112012500D03*
X149940000Y-112012500D03*
X150440000Y-112012500D03*
X150940000Y-112012500D03*
X151440000Y-112012500D03*
X151940000Y-112012500D03*
D13*
X153352500Y-110600000D03*
X153352500Y-110100000D03*
X153352500Y-109600000D03*
X153352500Y-109100000D03*
X153352500Y-108600000D03*
X153352500Y-108100000D03*
X153352500Y-107600000D03*
X153352500Y-107100000D03*
X153352500Y-106600000D03*
X153352500Y-106100000D03*
X153352500Y-105600000D03*
X153352500Y-105100000D03*
D12*
X151940000Y-103687500D03*
X151440000Y-103687500D03*
X150940000Y-103687500D03*
X150440000Y-103687500D03*
X149940000Y-103687500D03*
X149440000Y-103687500D03*
X148940000Y-103687500D03*
X148440000Y-103687500D03*
X147940000Y-103687500D03*
X147440000Y-103687500D03*
X146940000Y-103687500D03*
X146440000Y-103687500D03*
D13*
X145027500Y-105100000D03*
X145027500Y-105600000D03*
X145027500Y-106100000D03*
X145027500Y-106600000D03*
X145027500Y-107100000D03*
X145027500Y-107600000D03*
X145027500Y-108100000D03*
X145027500Y-108600000D03*
X145027500Y-109100000D03*
X145027500Y-109600000D03*
X145027500Y-110100000D03*
X145027500Y-110600000D03*
D14*
X144600000Y-101700000D03*
X144600000Y-100740000D03*
D15*
X124200000Y-103410000D03*
X124200000Y-102390000D03*
D16*
X96250000Y-120037500D03*
X96250000Y-118462500D03*
D17*
X126400000Y-116300000D03*
X126400000Y-117260000D03*
D14*
X117050000Y-104300000D03*
X117050000Y-103340000D03*
D15*
X126200000Y-103410000D03*
X126200000Y-102390000D03*
D18*
X111220000Y-112900000D03*
X112180000Y-112900000D03*
D19*
X167000000Y-90750000D03*
X167000000Y-89750000D03*
X167000000Y-88750000D03*
X167000000Y-87750000D03*
D20*
X170875000Y-86450000D03*
X170875000Y-92050000D03*
D21*
X112210000Y-117200000D03*
X111190000Y-117200000D03*
D22*
X153450000Y-114820000D03*
X153450000Y-115840000D03*
D23*
X102650000Y-85500000D03*
X99350000Y-85500000D03*
D21*
X100120000Y-93460000D03*
X99100000Y-93460000D03*
D14*
X119050000Y-104300000D03*
X119050000Y-103340000D03*
D15*
X113600000Y-111160000D03*
X113600000Y-110140000D03*
D21*
X112210000Y-113900000D03*
X111190000Y-113900000D03*
D24*
X120487500Y-107450000D03*
X120487500Y-107950000D03*
X120487500Y-108450000D03*
X120487500Y-108950000D03*
X120487500Y-109450000D03*
X120487500Y-109950000D03*
X120487500Y-110450000D03*
X120487500Y-110950000D03*
X120487500Y-111450000D03*
X120487500Y-111950000D03*
X120487500Y-112450000D03*
X120487500Y-112950000D03*
D25*
X121900000Y-114362500D03*
X122400000Y-114362500D03*
X122900000Y-114362500D03*
X123400000Y-114362500D03*
X123900000Y-114362500D03*
X124400000Y-114362500D03*
X124900000Y-114362500D03*
X125400000Y-114362500D03*
X125900000Y-114362500D03*
X126400000Y-114362500D03*
X126900000Y-114362500D03*
X127400000Y-114362500D03*
D24*
X128812500Y-112950000D03*
X128812500Y-112450000D03*
X128812500Y-111950000D03*
X128812500Y-111450000D03*
X128812500Y-110950000D03*
X128812500Y-110450000D03*
X128812500Y-109950000D03*
X128812500Y-109450000D03*
X128812500Y-108950000D03*
X128812500Y-108450000D03*
X128812500Y-107950000D03*
X128812500Y-107450000D03*
D25*
X127400000Y-106037500D03*
X126900000Y-106037500D03*
X126400000Y-106037500D03*
X125900000Y-106037500D03*
X125400000Y-106037500D03*
X124900000Y-106037500D03*
X124400000Y-106037500D03*
X123900000Y-106037500D03*
X123400000Y-106037500D03*
X122900000Y-106037500D03*
X122400000Y-106037500D03*
X121900000Y-106037500D03*
D15*
X128200000Y-103410000D03*
X128200000Y-102390000D03*
D18*
X128520000Y-105300000D03*
X129480000Y-105300000D03*
D17*
X125400000Y-116300000D03*
X125400000Y-117260000D03*
D26*
X166690000Y-94400000D03*
X167710000Y-94400000D03*
D21*
X118720000Y-111800000D03*
X117700000Y-111800000D03*
D27*
X150650000Y-119150000D03*
X148150000Y-119150000D03*
D21*
X167610000Y-111000000D03*
X166590000Y-111000000D03*
D14*
X154550000Y-114780000D03*
X154550000Y-113820000D03*
D28*
X132400000Y-114350000D03*
X134600000Y-114350000D03*
X134600000Y-112650000D03*
X132400000Y-112650000D03*
D17*
X154550000Y-115900000D03*
X154550000Y-116860000D03*
D14*
X112600000Y-109230000D03*
X112600000Y-108270000D03*
D15*
X115520000Y-108620000D03*
X115520000Y-107600000D03*
X113600000Y-109260000D03*
X113600000Y-108240000D03*
D18*
X145420000Y-91200000D03*
X146380000Y-91200000D03*
D14*
X145600000Y-101700000D03*
X145600000Y-100740000D03*
D29*
X137900000Y-106000000D03*
X138850000Y-106000000D03*
X139800000Y-106000000D03*
X139800000Y-103725000D03*
X137900000Y-103725000D03*
D30*
X99375000Y-90700000D03*
X101025000Y-90700000D03*
D31*
X156680000Y-95800000D03*
X155720000Y-95800000D03*
D14*
X114050000Y-104300000D03*
X114050000Y-103340000D03*
D31*
X148380000Y-91200000D03*
X147420000Y-91200000D03*
D17*
X139100000Y-101020000D03*
X139100000Y-101980000D03*
D14*
X120050000Y-104300000D03*
X120050000Y-103340000D03*
D26*
X163490000Y-86600000D03*
X164510000Y-86600000D03*
D15*
X127200000Y-103410000D03*
X127200000Y-102390000D03*
D32*
X118350000Y-116400000D03*
X120250000Y-116400000D03*
D15*
X125200000Y-103410000D03*
X125200000Y-102390000D03*
D22*
X115520000Y-105690000D03*
X115520000Y-106710000D03*
D14*
X115050000Y-104300000D03*
X115050000Y-103340000D03*
D22*
X141100000Y-105490000D03*
X141100000Y-106510000D03*
D31*
X148980000Y-117450000D03*
X148020000Y-117450000D03*
D17*
X167600000Y-107920000D03*
X167600000Y-108880000D03*
D18*
X149920000Y-117450000D03*
X150880000Y-117450000D03*
D21*
X100120000Y-92250000D03*
X99100000Y-92250000D03*
X165110000Y-99500000D03*
X164090000Y-99500000D03*
D30*
X99350000Y-89000000D03*
X101000000Y-89000000D03*
D14*
X123050000Y-104300000D03*
X123050000Y-103340000D03*
D30*
X129575000Y-103800000D03*
X131225000Y-103800000D03*
D33*
X105500000Y-92550000D03*
X105500000Y-94450000D03*
D14*
X116050000Y-104300000D03*
X116050000Y-103340000D03*
D26*
X96120000Y-117200000D03*
X97140000Y-117200000D03*
X101290000Y-87500000D03*
X102310000Y-87500000D03*
D34*
X145962500Y-88050000D03*
X145962500Y-89950000D03*
X147837500Y-89000000D03*
D26*
X136190000Y-113500000D03*
X137210000Y-113500000D03*
D35*
X123750000Y-116400000D03*
X121850000Y-116400000D03*
D14*
X143600000Y-101700000D03*
X143600000Y-100740000D03*
D36*
X159874999Y-80600001D03*
X165125001Y-80600001D03*
X159874999Y-83799999D03*
X165125001Y-83799999D03*
D26*
X111190000Y-118300000D03*
X112210000Y-118300000D03*
D18*
X136220000Y-112300000D03*
X137180000Y-112300000D03*
X136220000Y-114650000D03*
X137180000Y-114650000D03*
D14*
X114550000Y-111680000D03*
X114550000Y-110720000D03*
X142600000Y-101700000D03*
X142600000Y-100740000D03*
D17*
X127400000Y-116300000D03*
X127400000Y-117260000D03*
D14*
X118050000Y-104300000D03*
X118050000Y-103340000D03*
X121050000Y-104300000D03*
X121050000Y-103340000D03*
D26*
X166590000Y-112000000D03*
X167610000Y-112000000D03*
D21*
X99110000Y-117200000D03*
X98090000Y-117200000D03*
D16*
X99250000Y-120037500D03*
X99250000Y-118462500D03*
D17*
X112600000Y-110170000D03*
X112600000Y-111130000D03*
D22*
X136600000Y-105490000D03*
X136600000Y-106510000D03*
D14*
X122050000Y-104300000D03*
X122050000Y-103340000D03*
D26*
X155690000Y-94800000D03*
X156710000Y-94800000D03*
M02*
